<?xml version="1.0" encoding="UTF-8"?>
<svg width="1280" height="256" version="1.1" viewBox="0 0 1280 256" xmlns="http://www.w3.org/2000/svg">
 <g transform="matrix(1.0294 0 0 1.0294 -5.5999 -3.7717)">
  <path d="m168.46 123.41-25.313 29.083 37.833 31.442-18.995 8.6368-31.173-25.907-57.734 66.333 54.96-0.1198c45.63 2.7e-4 80.449-27.344 94.896-68.019l-50.281-41.787a3.0094 3.0094 175.38 0 0-4.1934 0.33871z" fill="#fd7e14"/>
  <path d="m84.319 103.61-13.775 0.66091-47.544 54.625v74.109l24.098-0.0046 28.858-33.156z" fill="#fd7e14"/>
  <path d="m23 23v108l94-108z" fill="#4e7ade"/>
  <path d="m140.21 24.233-53.022 60.919 75.14-3.6053-16.64 19.119-41.297 1.9814-6.2304 71.69 57.156-65.669c7.6881-8.8332 19.074-9.3795 27.816-2.114l43.764 36.371c0.70874-4.9052 1.1113-9.9097 1.1113-15.012 4.5e-4 -78.992-69.784-103.68-87.798-103.68z" fill="#4e7ade"/>
 </g>
 <g fill="#4e7ade" stroke-dasharray="11.3443, 11.3443" stroke-width="37.814" style="paint-order:stroke fill markers" aria-label="deployKF">
  <g fill="#fd7e14">
   <path d="m894.9 236.54q-8.4704 0-16.739-2.6218-8.2687-2.6218-13.512-7.2603l11.495-22.386q3.6302 3.2268 8.2687 5.0419 4.8402 1.8151 9.4787 1.8151 6.6553 0 10.487-3.2268 4.0335-3.0251 7.2603-10.285l5.6469-13.311 2.4201-3.4285 38.923-93.577h30.251l-49.007 115.16q-5.2436 13.109-12.1 20.571-6.6553 7.462-14.924 10.487-8.067 3.0251-17.949 3.0251zm18.554-36.503-48.402-112.74h32.47l37.512 90.754z"/>
   <path d="m803.74 197.41q-17.344 0-30.856-7.2603-13.311-7.2603-21.176-19.764-7.6636-12.706-7.6636-28.84 0-16.336 7.6636-28.84 7.8653-12.706 21.176-19.764 13.512-7.2603 30.856-7.2603 17.142 0 30.655 7.2603 13.512 7.0586 21.176 19.562t7.6636 29.041q0 16.134-7.6636 28.84-7.6636 12.504-21.176 19.764-13.512 7.2603-30.655 7.2603zm0-25.814q7.8653 0 14.117-3.6302 6.2519-3.6302 9.8821-10.285 3.6302-6.857 3.6302-16.134 0-9.4787-3.6302-16.134-3.6302-6.6553-9.8821-10.285-6.2519-3.6302-14.117-3.6302-7.8653 0-14.117 3.6302-6.2519 3.6302-10.084 10.285-3.6302 6.6553-3.6302 16.134 0 9.277 3.6302 16.134 3.8318 6.6553 10.084 10.285 6.2519 3.6302 14.117 3.6302z"/>
   <path d="m691.41 195.8v-149.64h31.461v149.64z"/>
   <path d="m616.39 197.41q-13.714 0-23.999-6.0502-10.285-6.0502-16.134-18.352-5.6469-12.504-5.6469-31.461 0-19.159 5.4452-31.461 5.4452-12.302 15.731-18.352 10.285-6.0502 24.604-6.0502 15.327 0 27.428 7.0586 12.302 6.857 19.361 19.361 7.2603 12.504 7.2603 29.445 0 17.142-7.2603 29.646-7.0586 12.504-19.361 19.361-12.1 6.857-27.428 6.857zm-64.133 37.512v-147.63h30.05v22.184l-0.60503 32.268 2.0168 32.066v61.108zm58.687-63.326q7.8653 0 13.916-3.6302 6.2519-3.6302 9.8821-10.285 3.8318-6.857 3.8318-16.134 0-9.4787-3.8318-16.134-3.6302-6.6553-9.8821-10.285-6.0502-3.6302-13.916-3.6302-7.8653 0-14.117 3.6302-6.2519 3.6302-9.8821 10.285-3.6302 6.6553-3.6302 16.134 0 9.277 3.6302 16.134 3.6302 6.6553 9.8821 10.285 6.2519 3.6302 14.117 3.6302z"/>
   <path d="m478.85 197.41q-18.554 0-32.671-7.2603-13.916-7.2603-21.579-19.764-7.6636-12.706-7.6636-28.84 0-16.336 7.462-28.84 7.6636-12.706 20.773-19.764 13.109-7.2603 29.646-7.2603 15.932 0 28.638 6.857 12.907 6.6553 20.369 19.361 7.462 12.504 7.462 30.05 0 1.8151-0.20168 4.2352-0.20167 2.2184-0.40335 4.2352h-88.132v-18.352h71.595l-12.1 5.4452q0-8.4704-3.4285-14.722-3.4285-6.2519-9.4787-9.6804-6.0502-3.6302-14.117-3.6302t-14.319 3.6302q-6.0502 3.4285-9.4787 9.8821-3.4285 6.2519-3.4285 14.924v4.8402q0 8.8737 3.8318 15.731 4.0335 6.6553 11.092 10.285 7.2603 3.4285 16.941 3.4285 8.672 0 15.126-2.6218 6.6553-2.6218 12.1-7.8653l16.739 18.151q-7.462 8.4704-18.756 13.109-11.294 4.4368-26.016 4.4368z"/>
   <path d="m332.03 197.41q-15.327 0-27.629-6.857-12.302-7.0586-19.562-19.562-7.0586-12.504-7.0586-29.445 0-17.142 7.0586-29.646 7.2603-12.504 19.562-19.361 12.302-6.857 27.629-6.857 13.714 0 23.999 6.0502 10.285 6.0502 15.932 18.352 5.6469 12.302 5.6469 31.461 0 18.957-5.4452 31.461-5.4452 12.302-15.731 18.352-10.084 6.0502-24.403 6.0502zm5.4452-25.814q7.6636 0 13.916-3.6302 6.2519-3.6302 9.8821-10.285 3.8318-6.857 3.8318-16.134 0-9.4787-3.8318-16.134-3.6302-6.6553-9.8821-10.285-6.2519-3.6302-13.916-3.6302-7.8653 0-14.117 3.6302-6.2519 3.6302-10.084 10.285-3.6302 6.6553-3.6302 16.134 0 9.277 3.6302 16.134 3.8318 6.6553 10.084 10.285 6.2519 3.6302 14.117 3.6302zm28.436 24.201v-22.184l0.60502-32.268-2.0168-32.066v-63.124h31.461v149.64z"/>
  </g>
  <path d="m1183.5 118.16h67.763v26.218h-67.763zm2.4201 77.645h-32.671v-141.17h106.69v26.218h-74.015z"/>
  <path d="m1033.3 163.53-1.8151-37.713 67.561-71.191h36.302l-60.906 65.544-18.151 19.361zm-29.243 32.268v-141.17h32.47v141.17zm96.602 0-50.217-61.511 21.378-23.193 66.956 84.704z"/>
 </g>
</svg>
