<?xml version="1.0" encoding="UTF-8"?>
<svg width="1024" height="256" version="1.1" viewBox="0 0 1024 256" xmlns="http://www.w3.org/2000/svg">
 <g transform="matrix(1.037 0 0 1.037 -12.741 -12.699)" stroke-width="3.4428" style="paint-order:stroke fill markers" aria-label="eployKF">
  <g fill="#fd7e14">
   <path d="m682.65 208.87c0.0961 1.3663-0.89115 2.4993-1.3699 3.7154-1.9409 3.8103-4.7972 7.4965-8.9164 9.0578-5.1346 1.8926-10.908 1.116-15.853-0.98042-1.9791-0.86699-3.8527-1.9829-5.5325-3.3435-3.0208 5.8809-6.0417 11.762-9.0625 17.643 5.4687 4.4532 12.45 6.5605 19.344 7.4863 7.7521 0.9344 15.777 0.10006 22.932-3.0432 7.0432-3.2666 12.373-9.266 16.197-15.898 3.0845-5.2727 5.1296-11.028 7.5883-16.602 12.982-30.508 25.965-61.015 38.947-91.522h-24.119c-9.0688 21.809-18.139 43.617-27.207 65.426-9.0173-21.808-18.032-43.617-27.049-65.426h-26.035c13.379 31.163 26.758 62.326 40.137 93.488z"/>
   <path d="m586.08 114.01c-9.9499 0.23966-19.942 2.9105-28.273 8.4023-9.4518 6.1541-16.648 15.826-19.259 26.832-2.3613 10.11-1.8293 21 2.0599 30.684 4.8078 11.697 14.909 20.856 26.621 25.357 7.1832 2.7891 14.916 3.7789 22.586 3.5872 7.7651-0.24625 15.502-1.8363 22.507-5.2892 9.3407-4.5046 17.29-12.038 21.734-21.464 3.4136-7.0906 4.6913-15.029 4.4192-22.847-0.26334-6.4986-1.6198-13.015-4.4941-18.879-3.7805-7.7896-9.925-14.372-17.374-18.772-7.1708-4.3772-15.462-6.8575-23.835-7.445-2.2253-0.17068-4.4598-0.21899-6.6908-0.16573zm1.8262 20.428c7.6513-0.13101 15.419 3.428 19.867 9.7391 3.4705 4.7359 5.0011 10.66 5.035 16.48 0.1617 6.6948-1.4293 13.691-5.726 18.971-4.0589 5.0691-10.296 8.2673-16.761 8.7281-6.833 0.63078-14.007-1.3924-19.113-6.0717-4.3525-3.8498-7.1347-9.3226-7.9289-15.058-0.84959-5.4045-0.53914-11.029 1.0866-16.26 2.4552-7.3893 8.6725-13.435 16.196-15.525 2.3821-0.69463 4.865-1.015 7.345-1.0028z"/>
   <path d="m491.5 207.51h25.348v-127.79h-25.348v127.79z"/>
   <path d="m424.01 114.01c-8.3749 0.22024-16.962 2.5167-23.445 8.0096-2.0999 1.7472-3.872 3.8426-5.5609 5.9787v-12.611h-24.123v126.04c8.4492-1e-5 16.898 0 25.348 0v-45.453c3.9801 4.951 9.3886 8.7644 15.443 10.779 8.6671 2.867 18.169 2.7188 26.94 0.50183 9.6584-2.5942 18.423-8.5022 24.182-16.727 4.098-5.8046 6.787-12.549 7.8699-19.53 1.3683-9.2892 0.90911-18.975-2.2948-27.838-3.3649-9.172-9.7498-17.315-18.174-22.364-6.5733-4.1066-14.156-6.3578-21.869-6.7226-1.4367-0.0765-2.8764-0.0915-4.3147-0.0599zm-2.5742 20.43c7.1159 0.061 14.192 3.3972 18.535 9.0781 3.8467 4.8669 5.707 11.104 5.7198 17.267 0.16075 6.5084-1.5245 13.223-5.575 18.41-3.8795 5.1102-9.9267 8.4898-16.315 9.0982-6.642 0.73067-13.713-0.93641-18.865-5.3126-3.9815-3.2702-6.8006-7.8746-8.0036-12.877-1.4504-5.6424-1.3579-11.642-0.054-17.301 1.7572-6.9113 6.538-13.147 13.116-16.077 3.5662-1.6563 7.5202-2.372 11.442-2.2849z"/>
   <path d="m301.06 114.01c-9.0949 0.22031-18.179 2.7153-25.917 7.5476-10.417 6.3632-18.185 17.124-20.481 29.151-1.7672 8.7824-1.3754 18.156 1.4563 26.673 2.6454 7.749 7.4776 14.678 13.858 19.807 7.4805 6.1002 16.777 9.7626 26.279 11.021 7.9121 1.1021 16.013 0.88839 23.841-0.62176 8.8538-1.7755 17.323-6.0444 23.492-12.715 0.40741-0.45874-0.65496-0.92604-0.88431-1.3885-4.0538-4.3963-8.1076-8.7926-12.161-13.189-5.9307 5.5224-13.985 8.6181-22.079 8.6447-6.4354 0.2165-13.131-0.82021-18.687-4.243-5.4493-3.4087-9.4542-9.0884-10.662-15.417-0.0301-0.45811-0.60091-1.3413 0.24496-1.1042h70.993c1.1724-10.21-0.11159-20.92-4.8791-30.106-4.1832-8.0642-10.992-14.706-19.152-18.71-7.7779-3.964-16.55-5.5967-25.262-5.3499zm2.5762 18.678c7.3718 0.0626 14.814 3.5095 19.097 9.6086 2.3405 3.2728 3.8831 7.1731 4.2783 11.171-0.28028 0.90799-1.4013 0.79246-2.141 0.69608-12.636 0.0647-25.273 0.0104-37.91 0.0285h-8.316c0.7657-7.2551 4.747-14.343 11.145-18.053 4.1398-2.5106 9.0386-3.544 13.847-3.4506z"/>
  </g>
  <path d="m891.81 207.51h26.398v-44.576h56.637v-20.803h-56.637v-34.262h64.152c-1e-5 -6.9342 0-13.868 0-20.803h-90.551v120.44z" fill="#4e7ade"/>
  <path d="m762.45 207.51h26.223v-30.318c5.8054-6.0592 11.611-12.118 17.414-18.18 13.201 16.164 26.398 32.332 39.598 48.498h30.584c-17.635-22.311-35.271-44.621-52.904-66.934 16.573-17.838 33.149-35.673 49.723-53.51h-28.84c-18.525 19.519-37.049 39.039-55.574 58.557v-58.557h-26.223v120.44z" fill="#4e7ade"/>
 </g>
 <g transform="matrix(1.0309 0 0 1.0309 -6.7114 -7.8232)">
  <path d="m168.46 123.41-25.313 29.083 37.833 31.442-18.995 8.6368-31.173-25.907-57.734 66.333 54.96-0.1198c45.63 2.7e-4 80.449-27.344 94.896-68.019l-50.281-41.787a3.0094 3.0094 175.38 0 0-4.1934 0.33871z" fill="#fd7e14"/>
  <path d="m84.319 103.61-13.775 0.66091-47.544 54.625v74.109l24.098-0.0046 28.858-33.156z" fill="#fd7e14"/>
  <path d="m23 23v108l94-108z" fill="#4e7ade"/>
  <path d="m140.21 24.233-53.022 60.919 75.14-3.6053-16.64 19.119-41.297 1.9814-6.2304 71.69 57.156-65.669c7.6881-8.8332 19.074-9.3795 27.816-2.114l43.764 36.371c0.70874-4.9052 1.1113-9.9097 1.1113-15.012 4.5e-4 -78.992-69.784-103.68-87.798-103.68z" fill="#4e7ade"/>
 </g>
</svg>
