<?xml version="1.0" encoding="UTF-8"?>
<svg width="256" height="256" version="1.1" xmlns="http://www.w3.org/2000/svg">
 <g transform="translate(4.0374 -.0023)">
  <path d="m168.46 123.41-25.313 29.083 37.833 31.442-18.995 8.6368-31.173-25.907-57.734 66.333 54.96-0.1198c45.63 2.7e-4 80.449-27.344 94.896-68.019l-50.281-41.787a3.0094 3.0094 175.38 0 0-4.1934 0.33871z" fill="#fd7e14"/>
  <path d="m84.319 103.61-13.775 0.66091-47.544 54.625v74.109l24.098-0.0046 28.858-33.156z" fill="#fd7e14"/>
  <path d="m23 23v108l94-108z" fill="#4e7ade"/>
  <path d="m140.21 24.233-53.022 60.919 75.14-3.6053-16.64 19.119-41.297 1.9814-6.2304 71.69 57.156-65.669c7.6881-8.8332 19.074-9.3795 27.816-2.114l43.764 36.371c0.70874-4.9052 1.1113-9.9097 1.1113-15.012 4.5e-4 -78.992-69.784-103.68-87.798-103.68z" fill="#4e7ade"/>
 </g>
</svg>
