<svg width="1080" height="1920" version="1.1" xmlns="http://www.w3.org/2000/svg" xmlns:xlink="http://www.w3.org/1999/xlink">
  <defs>
    <linearGradient id="backgroundGradient" gradientTransform="rotate(60)">
      <stop offset="0%" style="stop-color:#fea75f; stop-opacity:0.2" />
      <stop offset="100%" style="stop-color:#294275; stop-opacity:0.2" />
    </linearGradient>
    <radialGradient id="fireflyGlow_0">
      <stop offset="0%" style="stop-color:#fd7e14; stop-opacity:1" />
      <stop offset="100%" style="stop-color:#fd7e14; stop-opacity:0" />
    </radialGradient>
    <radialGradient id="fireflyGlow_1">
      <stop offset="0%" style="stop-color:#014bd1; stop-opacity:1" />
      <stop offset="100%" style="stop-color:#014bd1; stop-opacity:0" />
    </radialGradient>
  </defs>
  <rect x="0" y="0" width="1080" height="1920" fill="url(#backgroundGradient)" />
  <circle r="11.5" fill="url(#fireflyGlow_0)">
    <animateMotion path="M 726.7,152.4 L 722.1,159.7 L 718.7,132.4 L 736.3,120.6 L 735.1,113.4 L 733.4,107.2 L 745.2,114.4 L 740.1,121.0 L 730.3,112.3 L 745.8,86.1 L 741.9,95.7 L 778.7,81.7 L 772.9,96.9 L 777.4,100.1 L 794.0,97.2 L 795.7,97.7 L 815.9,93.1 L 817.7,88.7 L 822.4,94.8 L 825.1,90.7 L 842.4,100.8 L 845.4,117.5 L 840.0,126.8 L 863.4,115.6 L 851.4,129.2 L 845.2,131.7 L 870.5,122.3 L 858.7,130.6 L 852.8,156.9 L 846.8,157.1 L 863.5,149.4 L 860.5,175.1 L 851.3,180.0 L 827.0,191.6 L 820.8,196.4 L 826.8,194.7 L 811.8,175.0 L 820.7,185.8 L 795.8,180.7 L 801.8,190.0 L 771.8,193.8 L 773.5,185.8 L 759.5,189.6 L 754.2,182.3 L 742.8,182.8 L 759.2,179.0 L 732.4,157.6 L 736.6,155.8 L 733.2,148.4 L 724.2,148.5 Z" dur="379.35s" repeatCount="indefinite">
      <mpath xlink:href="#path_0" />
    </animateMotion>
    <animate attributeName="opacity" values="0.3;1;0.5;1;0.4;1;0.7;0.3" dur="4.6s" repeatCount="indefinite" />
  </circle>
  <path id="path_0" d="M 726.7,152.4 L 722.1,159.7 L 718.7,132.4 L 736.3,120.6 L 735.1,113.4 L 733.4,107.2 L 745.2,114.4 L 740.1,121.0 L 730.3,112.3 L 745.8,86.1 L 741.9,95.7 L 778.7,81.7 L 772.9,96.9 L 777.4,100.1 L 794.0,97.2 L 795.7,97.7 L 815.9,93.1 L 817.7,88.7 L 822.4,94.8 L 825.1,90.7 L 842.4,100.8 L 845.4,117.5 L 840.0,126.8 L 863.4,115.6 L 851.4,129.2 L 845.2,131.7 L 870.5,122.3 L 858.7,130.6 L 852.8,156.9 L 846.8,157.1 L 863.5,149.4 L 860.5,175.1 L 851.3,180.0 L 827.0,191.6 L 820.8,196.4 L 826.8,194.7 L 811.8,175.0 L 820.7,185.8 L 795.8,180.7 L 801.8,190.0 L 771.8,193.8 L 773.5,185.8 L 759.5,189.6 L 754.2,182.3 L 742.8,182.8 L 759.2,179.0 L 732.4,157.6 L 736.6,155.8 L 733.2,148.4 L 724.2,148.5 Z" fill="none" stroke="none" />
  <circle r="11.7" fill="url(#fireflyGlow_1)">
    <animateMotion path="M 301.9,1580.0 L 303.2,1571.1 L 299.9,1594.1 L 289.4,1597.3 L 280.8,1609.0 L 283.5,1610.6 L 310.6,1597.6 L 337.3,1625.5 L 335.5,1624.1 L 348.2,1616.4 L 358.5,1636.2 L 385.2,1648.8 L 384.7,1636.8 L 406.6,1653.4 L 430.5,1654.8 L 409.2,1652.8 L 445.8,1656.9 L 458.9,1641.1 L 492.8,1639.7 L 477.0,1642.2 L 483.0,1626.3 L 528.1,1630.5 L 511.1,1615.7 L 553.2,1598.3 L 552.9,1599.4 L 534.3,1613.5 L 534.4,1596.4 L 546.2,1602.2 L 549.5,1589.0 L 546.8,1596.9 L 553.3,1563.8 L 554.1,1555.2 L 545.3,1552.7 L 495.7,1572.6 L 521.2,1569.0 L 495.4,1541.5 L 460.9,1539.8 L 441.9,1571.9 L 443.6,1548.9 L 420.0,1550.2 L 396.0,1536.1 L 408.1,1539.6 L 362.2,1548.6 L 381.2,1552.7 L 362.1,1579.5 L 318.3,1546.1 L 335.3,1583.0 L 317.3,1553.4 L 292.6,1560.0 L 291.3,1597.6 Z" dur="373.55s" repeatCount="indefinite">
      <mpath xlink:href="#path_1" />
    </animateMotion>
    <animate attributeName="opacity" values="0.3;1;0.5;1;0.4;1;0.7;0.3" dur="4.4s" repeatCount="indefinite" />
  </circle>
  <path id="path_1" d="M 301.9,1580.0 L 303.2,1571.1 L 299.9,1594.1 L 289.4,1597.3 L 280.8,1609.0 L 283.5,1610.6 L 310.6,1597.6 L 337.3,1625.5 L 335.5,1624.1 L 348.2,1616.4 L 358.5,1636.2 L 385.2,1648.8 L 384.7,1636.8 L 406.6,1653.4 L 430.5,1654.8 L 409.2,1652.8 L 445.8,1656.9 L 458.9,1641.1 L 492.8,1639.7 L 477.0,1642.2 L 483.0,1626.3 L 528.1,1630.5 L 511.1,1615.7 L 553.2,1598.3 L 552.9,1599.4 L 534.3,1613.5 L 534.4,1596.4 L 546.2,1602.2 L 549.5,1589.0 L 546.8,1596.9 L 553.3,1563.8 L 554.1,1555.2 L 545.3,1552.7 L 495.7,1572.6 L 521.2,1569.0 L 495.4,1541.5 L 460.9,1539.8 L 441.9,1571.9 L 443.6,1548.9 L 420.0,1550.2 L 396.0,1536.1 L 408.1,1539.6 L 362.2,1548.6 L 381.2,1552.7 L 362.1,1579.5 L 318.3,1546.1 L 335.3,1583.0 L 317.3,1553.4 L 292.6,1560.0 L 291.3,1597.6 Z" fill="none" stroke="none" />
  <circle r="10.5" fill="url(#fireflyGlow_0)">
    <animateMotion path="M 516.8,600.1 L 542.8,622.5 L 516.1,609.2 L 487.1,620.2 L 485.5,656.8 L 464.8,631.1 L 447.5,645.6 L 466.4,625.6 L 457.0,629.8 L 431.7,645.8 L 400.0,634.6 L 375.3,631.1 L 375.8,672.5 L 382.1,663.3 L 338.0,665.1 L 317.6,665.3 L 336.4,625.8 L 307.6,636.6 L 300.1,665.4 L 257.7,609.0 L 272.0,604.7 L 265.7,627.8 L 222.9,608.6 L 244.5,580.1 L 238.3,603.9 L 218.4,573.5 L 272.5,577.3 L 244.2,583.3 L 263.8,593.8 L 259.0,554.3 L 272.3,537.2 L 284.4,568.2 L 301.4,538.6 L 352.1,575.9 L 333.1,543.3 L 378.3,520.1 L 377.4,561.4 L 409.9,560.5 L 386.2,553.9 L 455.2,557.1 L 439.7,531.7 L 486.0,546.8 L 486.2,566.6 L 505.7,587.2 L 495.0,545.4 L 509.3,601.7 L 508.5,599.2 L 513.3,605.9 L 503.8,590.3 L 532.6,610.6 Z" dur="400.84s" repeatCount="indefinite">
      <mpath xlink:href="#path_2" />
    </animateMotion>
    <animate attributeName="opacity" values="0.3;1;0.5;1;0.4;1;0.7;0.3" dur="6.9s" repeatCount="indefinite" />
  </circle>
  <path id="path_2" d="M 516.8,600.1 L 542.8,622.5 L 516.1,609.2 L 487.1,620.2 L 485.5,656.8 L 464.8,631.1 L 447.5,645.6 L 466.4,625.6 L 457.0,629.8 L 431.7,645.8 L 400.0,634.6 L 375.3,631.1 L 375.8,672.5 L 382.1,663.3 L 338.0,665.1 L 317.6,665.3 L 336.4,625.8 L 307.6,636.6 L 300.1,665.4 L 257.7,609.0 L 272.0,604.7 L 265.7,627.8 L 222.9,608.6 L 244.5,580.1 L 238.3,603.9 L 218.4,573.5 L 272.5,577.3 L 244.2,583.3 L 263.8,593.8 L 259.0,554.3 L 272.3,537.2 L 284.4,568.2 L 301.4,538.6 L 352.1,575.9 L 333.1,543.3 L 378.3,520.1 L 377.4,561.4 L 409.9,560.5 L 386.2,553.9 L 455.2,557.1 L 439.7,531.7 L 486.0,546.8 L 486.2,566.6 L 505.7,587.2 L 495.0,545.4 L 509.3,601.7 L 508.5,599.2 L 513.3,605.9 L 503.8,590.3 L 532.6,610.6 Z" fill="none" stroke="none" />
  <circle r="12.9" fill="url(#fireflyGlow_1)">
    <animateMotion path="M 811.7,589.9 L 781.7,626.6 L 801.7,610.8 L 764.9,598.6 L 723.0,610.0 L 703.0,639.9 L 701.9,614.5 L 682.7,670.0 L 688.6,669.8 L 657.9,632.9 L 579.2,649.9 L 562.3,607.5 L 592.4,600.3 L 553.1,584.9 L 524.9,613.3 L 531.4,583.5 L 519.2,615.4 L 526.5,595.0 L 517.1,567.4 L 459.0,523.2 L 469.7,508.8 L 463.1,468.8 L 501.1,467.8 L 498.7,472.1 L 503.5,470.5 L 523.8,410.1 L 571.7,428.3 L 582.2,427.0 L 578.1,394.7 L 600.6,395.7 L 602.8,430.5 L 649.6,399.7 L 646.2,401.8 L 687.8,420.2 L 731.6,417.1 L 698.1,384.5 L 774.6,436.7 L 743.8,396.4 L 806.6,457.5 L 774.9,465.1 L 848.4,461.9 L 864.2,454.2 L 873.4,459.2 L 810.0,472.4 L 831.6,489.8 L 813.6,523.2 L 838.5,582.0 L 823.3,593.3 L 835.5,571.6 L 846.1,620.4 Z" dur="346.09s" repeatCount="indefinite">
      <mpath xlink:href="#path_3" />
    </animateMotion>
    <animate attributeName="opacity" values="0.3;1;0.5;1;0.4;1;0.7;0.3" dur="4.3s" repeatCount="indefinite" />
  </circle>
  <path id="path_3" d="M 811.7,589.9 L 781.7,626.6 L 801.7,610.8 L 764.9,598.6 L 723.0,610.0 L 703.0,639.9 L 701.9,614.5 L 682.7,670.0 L 688.6,669.8 L 657.9,632.9 L 579.2,649.9 L 562.3,607.5 L 592.4,600.3 L 553.1,584.9 L 524.9,613.3 L 531.4,583.5 L 519.2,615.4 L 526.5,595.0 L 517.1,567.4 L 459.0,523.2 L 469.7,508.8 L 463.1,468.8 L 501.1,467.8 L 498.7,472.1 L 503.5,470.5 L 523.8,410.1 L 571.7,428.3 L 582.2,427.0 L 578.1,394.7 L 600.6,395.7 L 602.8,430.5 L 649.6,399.7 L 646.2,401.8 L 687.8,420.2 L 731.6,417.1 L 698.1,384.5 L 774.6,436.7 L 743.8,396.4 L 806.6,457.5 L 774.9,465.1 L 848.4,461.9 L 864.2,454.2 L 873.4,459.2 L 810.0,472.4 L 831.6,489.8 L 813.6,523.2 L 838.5,582.0 L 823.3,593.3 L 835.5,571.6 L 846.1,620.4 Z" fill="none" stroke="none" />
  <circle r="11.1" fill="url(#fireflyGlow_0)">
    <animateMotion path="M 714.4,1130.5 L 734.6,1108.1 L 722.1,1137.3 L 734.9,1113.4 L 750.9,1110.4 L 781.3,1106.9 L 822.8,1158.3 L 814.8,1140.9 L 832.5,1167.7 L 822.4,1146.7 L 856.8,1181.3 L 887.3,1152.1 L 851.7,1177.3 L 889.1,1201.1 L 900.5,1220.1 L 854.2,1195.5 L 866.5,1246.4 L 850.4,1231.0 L 888.4,1267.8 L 876.0,1269.1 L 839.4,1272.0 L 853.6,1253.5 L 824.1,1265.2 L 845.0,1303.8 L 835.8,1301.3 L 774.4,1293.5 L 809.2,1296.7 L 758.8,1327.9 L 728.4,1287.1 L 731.3,1324.0 L 701.1,1283.3 L 724.8,1316.0 L 681.6,1310.7 L 706.5,1268.0 L 676.9,1291.9 L 656.3,1257.1 L 670.8,1248.8 L 632.9,1240.0 L 628.1,1255.3 L 633.2,1213.3 L 633.3,1214.6 L 646.6,1180.0 L 626.8,1196.5 L 633.7,1193.9 L 641.3,1152.6 L 664.4,1146.4 L 683.7,1175.6 L 690.2,1157.1 L 695.6,1119.6 L 711.5,1149.2 Z" dur="361.58s" repeatCount="indefinite">
      <mpath xlink:href="#path_4" />
    </animateMotion>
    <animate attributeName="opacity" values="0.3;1;0.5;1;0.4;1;0.7;0.3" dur="4.4s" repeatCount="indefinite" />
  </circle>
  <path id="path_4" d="M 714.4,1130.5 L 734.6,1108.1 L 722.1,1137.3 L 734.9,1113.4 L 750.9,1110.4 L 781.3,1106.9 L 822.8,1158.3 L 814.8,1140.9 L 832.5,1167.7 L 822.4,1146.7 L 856.8,1181.3 L 887.3,1152.1 L 851.7,1177.3 L 889.1,1201.1 L 900.5,1220.1 L 854.2,1195.5 L 866.5,1246.4 L 850.4,1231.0 L 888.4,1267.8 L 876.0,1269.1 L 839.4,1272.0 L 853.6,1253.5 L 824.1,1265.2 L 845.0,1303.8 L 835.8,1301.3 L 774.4,1293.5 L 809.2,1296.7 L 758.8,1327.9 L 728.4,1287.1 L 731.3,1324.0 L 701.1,1283.3 L 724.8,1316.0 L 681.6,1310.7 L 706.5,1268.0 L 676.9,1291.9 L 656.3,1257.1 L 670.8,1248.8 L 632.9,1240.0 L 628.1,1255.3 L 633.2,1213.3 L 633.3,1214.6 L 646.6,1180.0 L 626.8,1196.5 L 633.7,1193.9 L 641.3,1152.6 L 664.4,1146.4 L 683.7,1175.6 L 690.2,1157.1 L 695.6,1119.6 L 711.5,1149.2 Z" fill="none" stroke="none" />
  <circle r="10.3" fill="url(#fireflyGlow_0)">
    <animateMotion path="M 654.4,1251.0 L 655.1,1233.3 L 719.4,1247.0 L 715.1,1272.7 L 715.5,1250.4 L 749.6,1297.1 L 767.2,1286.8 L 769.3,1282.3 L 774.0,1297.3 L 804.8,1324.4 L 797.7,1322.6 L 776.1,1307.9 L 763.6,1341.4 L 771.1,1335.1 L 749.9,1363.2 L 754.0,1380.7 L 744.2,1372.9 L 711.2,1399.2 L 724.1,1384.1 L 671.1,1377.9 L 649.8,1391.3 L 653.5,1400.5 L 624.5,1392.8 L 625.5,1383.4 L 594.3,1369.4 L 554.7,1369.6 L 543.9,1379.0 L 523.5,1360.4 L 513.5,1384.1 L 470.1,1386.3 L 496.4,1362.3 L 492.8,1355.0 L 469.6,1333.7 L 461.2,1358.5 L 435.7,1347.8 L 463.8,1324.8 L 444.8,1310.4 L 442.1,1325.4 L 484.4,1270.2 L 470.9,1291.3 L 473.1,1287.3 L 514.7,1256.6 L 507.5,1270.6 L 515.4,1237.9 L 550.3,1261.5 L 553.2,1267.6 L 588.2,1242.7 L 625.4,1271.1 L 647.0,1234.5 L 635.5,1273.4 Z" dur="416.26s" repeatCount="indefinite">
      <mpath xlink:href="#path_5" />
    </animateMotion>
    <animate attributeName="opacity" values="0.3;1;0.5;1;0.4;1;0.7;0.3" dur="5.9s" repeatCount="indefinite" />
  </circle>
  <path id="path_5" d="M 654.4,1251.0 L 655.1,1233.3 L 719.4,1247.0 L 715.1,1272.7 L 715.5,1250.4 L 749.6,1297.1 L 767.2,1286.8 L 769.3,1282.3 L 774.0,1297.3 L 804.8,1324.4 L 797.7,1322.6 L 776.1,1307.9 L 763.6,1341.4 L 771.1,1335.1 L 749.9,1363.2 L 754.0,1380.7 L 744.2,1372.9 L 711.2,1399.2 L 724.1,1384.1 L 671.1,1377.9 L 649.8,1391.3 L 653.5,1400.5 L 624.5,1392.8 L 625.5,1383.4 L 594.3,1369.4 L 554.7,1369.6 L 543.9,1379.0 L 523.5,1360.4 L 513.5,1384.1 L 470.1,1386.3 L 496.4,1362.3 L 492.8,1355.0 L 469.6,1333.7 L 461.2,1358.5 L 435.7,1347.8 L 463.8,1324.8 L 444.8,1310.4 L 442.1,1325.4 L 484.4,1270.2 L 470.9,1291.3 L 473.1,1287.3 L 514.7,1256.6 L 507.5,1270.6 L 515.4,1237.9 L 550.3,1261.5 L 553.2,1267.6 L 588.2,1242.7 L 625.4,1271.1 L 647.0,1234.5 L 635.5,1273.4 Z" fill="none" stroke="none" />
  <circle r="14.6" fill="url(#fireflyGlow_0)">
    <animateMotion path="M 88.4,504.6 L 48.0,529.2 L 36.2,439.1 L 90.0,448.1 L 89.9,471.0 L 84.1,420.8 L 121.7,424.0 L 127.9,398.5 L 100.5,401.4 L 98.7,351.5 L 138.3,319.7 L 177.6,305.6 L 192.1,311.9 L 251.7,327.1 L 195.6,317.2 L 229.0,330.9 L 309.0,264.0 L 304.8,318.4 L 309.1,306.6 L 363.8,328.6 L 383.2,345.9 L 429.3,304.6 L 415.1,370.9 L 460.6,365.5 L 451.9,402.2 L 484.6,397.0 L 461.6,414.9 L 444.6,402.7 L 454.1,492.3 L 505.2,454.2 L 449.2,506.8 L 457.7,517.3 L 420.2,508.6 L 406.8,535.9 L 376.6,518.8 L 402.0,601.9 L 332.8,594.9 L 366.6,593.2 L 308.8,620.6 L 325.4,609.3 L 251.1,571.8 L 210.1,599.3 L 226.8,577.8 L 159.8,582.8 L 201.1,567.7 L 126.8,591.5 L 150.6,592.9 L 109.4,582.2 L 88.1,486.8 L 65.9,512.1 Z" dur="398.01s" repeatCount="indefinite">
      <mpath xlink:href="#path_6" />
    </animateMotion>
    <animate attributeName="opacity" values="0.3;1;0.5;1;0.4;1;0.7;0.3" dur="7.0s" repeatCount="indefinite" />
  </circle>
  <path id="path_6" d="M 88.4,504.6 L 48.0,529.2 L 36.2,439.1 L 90.0,448.1 L 89.9,471.0 L 84.1,420.8 L 121.7,424.0 L 127.9,398.5 L 100.5,401.4 L 98.7,351.5 L 138.3,319.7 L 177.6,305.6 L 192.1,311.9 L 251.7,327.1 L 195.6,317.2 L 229.0,330.9 L 309.0,264.0 L 304.8,318.4 L 309.1,306.6 L 363.8,328.6 L 383.2,345.9 L 429.3,304.6 L 415.1,370.9 L 460.6,365.5 L 451.9,402.2 L 484.6,397.0 L 461.6,414.9 L 444.6,402.7 L 454.1,492.3 L 505.2,454.2 L 449.2,506.8 L 457.7,517.3 L 420.2,508.6 L 406.8,535.9 L 376.6,518.8 L 402.0,601.9 L 332.8,594.9 L 366.6,593.2 L 308.8,620.6 L 325.4,609.3 L 251.1,571.8 L 210.1,599.3 L 226.8,577.8 L 159.8,582.8 L 201.1,567.7 L 126.8,591.5 L 150.6,592.9 L 109.4,582.2 L 88.1,486.8 L 65.9,512.1 Z" fill="none" stroke="none" />
  <circle r="12.4" fill="url(#fireflyGlow_0)">
    <animateMotion path="M 886.9,1487.0 L 885.3,1496.8 L 895.2,1464.3 L 891.2,1447.2 L 925.4,1462.0 L 902.6,1432.4 L 907.1,1412.8 L 887.6,1426.3 L 909.5,1438.0 L 885.8,1390.4 L 876.8,1377.6 L 865.3,1383.1 L 834.3,1400.4 L 813.7,1394.6 L 800.7,1404.7 L 777.6,1387.2 L 752.4,1355.6 L 749.7,1351.9 L 713.2,1384.1 L 694.9,1406.4 L 680.0,1375.6 L 654.1,1407.4 L 618.8,1407.0 L 602.9,1372.8 L 616.2,1384.0 L 582.1,1427.3 L 624.0,1413.2 L 595.8,1405.0 L 572.5,1452.0 L 559.0,1428.0 L 599.4,1436.3 L 605.9,1477.9 L 597.4,1468.4 L 583.6,1487.8 L 632.2,1486.6 L 596.7,1479.6 L 628.9,1504.1 L 651.4,1486.0 L 677.4,1537.1 L 679.2,1489.9 L 736.4,1521.5 L 753.8,1539.9 L 751.2,1502.0 L 760.4,1513.6 L 828.5,1488.0 L 818.7,1537.4 L 852.8,1509.7 L 879.1,1507.8 L 860.0,1489.9 L 880.5,1496.5 Z" dur="350.58s" repeatCount="indefinite">
      <mpath xlink:href="#path_7" />
    </animateMotion>
    <animate attributeName="opacity" values="0.3;1;0.5;1;0.4;1;0.7;0.3" dur="4.9s" repeatCount="indefinite" />
  </circle>
  <path id="path_7" d="M 886.9,1487.0 L 885.3,1496.8 L 895.2,1464.3 L 891.2,1447.2 L 925.4,1462.0 L 902.6,1432.4 L 907.1,1412.8 L 887.6,1426.3 L 909.5,1438.0 L 885.8,1390.4 L 876.8,1377.6 L 865.3,1383.1 L 834.3,1400.4 L 813.7,1394.6 L 800.7,1404.7 L 777.6,1387.2 L 752.4,1355.6 L 749.7,1351.9 L 713.2,1384.1 L 694.9,1406.4 L 680.0,1375.6 L 654.1,1407.4 L 618.8,1407.0 L 602.9,1372.8 L 616.2,1384.0 L 582.1,1427.3 L 624.0,1413.2 L 595.8,1405.0 L 572.5,1452.0 L 559.0,1428.0 L 599.4,1436.3 L 605.9,1477.9 L 597.4,1468.4 L 583.6,1487.8 L 632.2,1486.6 L 596.7,1479.6 L 628.9,1504.1 L 651.4,1486.0 L 677.4,1537.1 L 679.2,1489.9 L 736.4,1521.5 L 753.8,1539.9 L 751.2,1502.0 L 760.4,1513.6 L 828.5,1488.0 L 818.7,1537.4 L 852.8,1509.7 L 879.1,1507.8 L 860.0,1489.9 L 880.5,1496.5 Z" fill="none" stroke="none" />
  <circle r="14.3" fill="url(#fireflyGlow_0)">
    <animateMotion path="M 859.3,325.4 L 859.7,331.8 L 896.0,318.2 L 895.0,312.5 L 909.1,310.3 L 920.1,310.9 L 942.0,294.6 L 928.1,287.3 L 957.7,279.7 L 958.3,278.9 L 971.1,257.4 L 944.7,277.8 L 970.0,261.0 L 952.8,257.7 L 944.9,245.0 L 947.7,231.3 L 957.5,208.8 L 920.1,231.3 L 922.5,209.5 L 928.8,209.7 L 892.5,214.3 L 900.5,205.7 L 861.4,187.9 L 847.0,180.7 L 861.3,191.2 L 819.5,202.0 L 816.4,178.4 L 816.4,208.3 L 805.4,188.1 L 776.8,204.3 L 783.2,214.5 L 750.5,224.5 L 744.1,218.4 L 736.4,248.6 L 750.3,240.9 L 732.0,237.6 L 745.7,248.1 L 733.4,255.7 L 759.9,282.5 L 751.0,286.0 L 759.5,300.4 L 761.1,289.4 L 765.2,297.5 L 796.2,322.5 L 787.3,309.9 L 805.6,334.6 L 834.0,318.2 L 824.1,327.5 L 859.0,311.6 L 857.2,330.2 Z" dur="333.19s" repeatCount="indefinite">
      <mpath xlink:href="#path_8" />
    </animateMotion>
    <animate attributeName="opacity" values="0.3;1;0.5;1;0.4;1;0.7;0.3" dur="5.8s" repeatCount="indefinite" />
  </circle>
  <path id="path_8" d="M 859.3,325.4 L 859.7,331.8 L 896.0,318.2 L 895.0,312.5 L 909.1,310.3 L 920.1,310.9 L 942.0,294.6 L 928.1,287.3 L 957.7,279.7 L 958.3,278.9 L 971.1,257.4 L 944.7,277.8 L 970.0,261.0 L 952.8,257.7 L 944.9,245.0 L 947.7,231.3 L 957.5,208.8 L 920.1,231.3 L 922.5,209.5 L 928.8,209.7 L 892.5,214.3 L 900.5,205.7 L 861.4,187.9 L 847.0,180.7 L 861.3,191.2 L 819.5,202.0 L 816.4,178.4 L 816.4,208.3 L 805.4,188.1 L 776.8,204.3 L 783.2,214.5 L 750.5,224.5 L 744.1,218.4 L 736.4,248.6 L 750.3,240.9 L 732.0,237.6 L 745.7,248.1 L 733.4,255.7 L 759.9,282.5 L 751.0,286.0 L 759.5,300.4 L 761.1,289.4 L 765.2,297.5 L 796.2,322.5 L 787.3,309.9 L 805.6,334.6 L 834.0,318.2 L 824.1,327.5 L 859.0,311.6 L 857.2,330.2 Z" fill="none" stroke="none" />
  <circle r="10.5" fill="url(#fireflyGlow_0)">
    <animateMotion path="M 955.4,484.0 L 937.3,457.4 L 929.2,463.7 L 912.2,472.3 L 890.8,478.3 L 865.0,511.8 L 855.4,476.8 L 835.4,485.5 L 868.3,500.6 L 823.1,525.3 L 815.8,511.2 L 817.8,554.3 L 788.8,531.6 L 797.9,591.3 L 801.9,556.8 L 787.1,599.9 L 838.1,625.9 L 819.8,617.5 L 799.2,626.8 L 855.4,661.6 L 858.2,646.2 L 832.4,656.4 L 878.7,674.0 L 850.5,647.3 L 893.7,666.8 L 886.9,685.7 L 942.3,702.2 L 948.8,683.6 L 976.7,687.6 L 985.5,694.8 L 979.2,665.2 L 996.6,688.6 L 990.5,677.1 L 1036.8,640.7 L 1004.7,624.9 L 1052.5,612.4 L 1045.5,610.6 L 1062.4,577.1 L 1049.9,613.3 L 1074.7,584.8 L 1064.9,548.3 L 1067.2,551.4 L 1046.1,536.4 L 1017.6,517.0 L 1029.0,500.3 L 1005.8,519.0 L 1024.4,502.1 L 1005.0,521.5 L 958.0,500.0 L 938.1,476.2 Z" dur="352.99s" repeatCount="indefinite">
      <mpath xlink:href="#path_9" />
    </animateMotion>
    <animate attributeName="opacity" values="0.3;1;0.5;1;0.4;1;0.7;0.3" dur="6.8s" repeatCount="indefinite" />
  </circle>
  <path id="path_9" d="M 955.4,484.0 L 937.3,457.4 L 929.2,463.7 L 912.2,472.3 L 890.8,478.3 L 865.0,511.8 L 855.4,476.8 L 835.4,485.5 L 868.3,500.6 L 823.1,525.3 L 815.8,511.2 L 817.8,554.3 L 788.8,531.6 L 797.9,591.3 L 801.9,556.8 L 787.1,599.9 L 838.1,625.9 L 819.8,617.5 L 799.2,626.8 L 855.4,661.6 L 858.2,646.2 L 832.4,656.4 L 878.7,674.0 L 850.5,647.3 L 893.7,666.8 L 886.9,685.7 L 942.3,702.2 L 948.8,683.6 L 976.7,687.6 L 985.5,694.8 L 979.2,665.2 L 996.6,688.6 L 990.5,677.1 L 1036.8,640.7 L 1004.7,624.9 L 1052.5,612.4 L 1045.5,610.6 L 1062.4,577.1 L 1049.9,613.3 L 1074.7,584.8 L 1064.9,548.3 L 1067.2,551.4 L 1046.1,536.4 L 1017.6,517.0 L 1029.0,500.3 L 1005.8,519.0 L 1024.4,502.1 L 1005.0,521.5 L 958.0,500.0 L 938.1,476.2 Z" fill="none" stroke="none" />
  <circle r="10.4" fill="url(#fireflyGlow_0)">
    <animateMotion path="M 550.8,260.8 L 561.0,259.5 L 595.1,260.6 L 574.0,236.9 L 584.8,252.4 L 615.5,232.7 L 619.8,248.6 L 628.6,237.1 L 633.1,226.1 L 636.3,214.8 L 650.7,183.3 L 661.0,174.2 L 653.7,173.0 L 661.2,149.8 L 640.7,156.6 L 660.5,141.0 L 640.6,128.9 L 638.3,108.0 L 618.0,124.3 L 623.8,89.8 L 587.1,77.2 L 595.9,93.1 L 565.6,88.6 L 576.6,95.8 L 535.0,87.9 L 518.9,64.0 L 508.3,81.6 L 506.9,103.1 L 495.2,92.3 L 479.9,115.9 L 473.7,117.4 L 489.4,124.3 L 460.0,102.2 L 469.8,139.8 L 450.5,125.0 L 464.5,143.8 L 456.6,170.8 L 429.0,186.5 L 434.9,206.4 L 463.2,203.7 L 475.7,216.7 L 468.9,202.3 L 459.3,218.3 L 472.1,238.5 L 497.2,229.8 L 514.6,266.6 L 515.6,246.8 L 517.3,248.3 L 556.2,260.7 L 532.8,267.2 Z" dur="334.3s" repeatCount="indefinite">
      <mpath xlink:href="#path_10" />
    </animateMotion>
    <animate attributeName="opacity" values="0.3;1;0.5;1;0.4;1;0.7;0.3" dur="4.6s" repeatCount="indefinite" />
  </circle>
  <path id="path_10" d="M 550.8,260.8 L 561.0,259.5 L 595.1,260.6 L 574.0,236.9 L 584.8,252.4 L 615.5,232.7 L 619.8,248.6 L 628.6,237.1 L 633.1,226.1 L 636.3,214.8 L 650.7,183.3 L 661.0,174.2 L 653.7,173.0 L 661.2,149.8 L 640.7,156.6 L 660.5,141.0 L 640.6,128.9 L 638.3,108.0 L 618.0,124.3 L 623.8,89.8 L 587.1,77.2 L 595.9,93.1 L 565.6,88.6 L 576.6,95.8 L 535.0,87.9 L 518.9,64.0 L 508.3,81.6 L 506.9,103.1 L 495.2,92.3 L 479.9,115.9 L 473.7,117.4 L 489.4,124.3 L 460.0,102.2 L 469.8,139.8 L 450.5,125.0 L 464.5,143.8 L 456.6,170.8 L 429.0,186.5 L 434.9,206.4 L 463.2,203.7 L 475.7,216.7 L 468.9,202.3 L 459.3,218.3 L 472.1,238.5 L 497.2,229.8 L 514.6,266.6 L 515.6,246.8 L 517.3,248.3 L 556.2,260.7 L 532.8,267.2 Z" fill="none" stroke="none" />
  <circle r="11.7" fill="url(#fireflyGlow_0)">
    <animateMotion path="M 299.9,642.7 L 272.6,661.8 L 254.0,640.1 L 250.8,676.9 L 233.6,665.3 L 194.0,694.3 L 196.5,681.0 L 214.0,711.1 L 205.3,693.8 L 162.1,727.8 L 177.6,729.8 L 191.2,769.1 L 176.4,768.7 L 175.1,753.5 L 177.7,791.9 L 189.1,771.8 L 201.7,789.5 L 205.4,832.9 L 245.1,798.4 L 235.6,850.2 L 252.5,822.8 L 273.5,822.9 L 329.3,848.0 L 305.8,831.8 L 344.8,859.6 L 354.1,855.7 L 387.2,844.7 L 417.3,810.7 L 442.0,800.2 L 450.4,794.0 L 444.3,818.1 L 445.6,802.6 L 492.1,799.1 L 458.4,777.9 L 473.2,738.9 L 486.0,735.2 L 466.0,718.8 L 482.8,745.0 L 470.9,697.3 L 475.6,699.8 L 466.8,672.8 L 442.2,688.2 L 414.0,676.5 L 409.6,655.2 L 400.6,668.3 L 389.3,625.4 L 356.7,633.8 L 348.1,634.9 L 336.9,661.2 L 294.8,631.5 Z" dur="342.95s" repeatCount="indefinite">
      <mpath xlink:href="#path_11" />
    </animateMotion>
    <animate attributeName="opacity" values="0.3;1;0.5;1;0.4;1;0.7;0.3" dur="6.2s" repeatCount="indefinite" />
  </circle>
  <path id="path_11" d="M 299.9,642.7 L 272.6,661.8 L 254.0,640.1 L 250.8,676.9 L 233.6,665.3 L 194.0,694.3 L 196.5,681.0 L 214.0,711.1 L 205.3,693.8 L 162.1,727.8 L 177.6,729.8 L 191.2,769.1 L 176.4,768.7 L 175.1,753.5 L 177.7,791.9 L 189.1,771.8 L 201.7,789.5 L 205.4,832.9 L 245.1,798.4 L 235.6,850.2 L 252.5,822.8 L 273.5,822.9 L 329.3,848.0 L 305.8,831.8 L 344.8,859.6 L 354.1,855.7 L 387.2,844.7 L 417.3,810.7 L 442.0,800.2 L 450.4,794.0 L 444.3,818.1 L 445.6,802.6 L 492.1,799.1 L 458.4,777.9 L 473.2,738.9 L 486.0,735.2 L 466.0,718.8 L 482.8,745.0 L 470.9,697.3 L 475.6,699.8 L 466.8,672.8 L 442.2,688.2 L 414.0,676.5 L 409.6,655.2 L 400.6,668.3 L 389.3,625.4 L 356.7,633.8 L 348.1,634.9 L 336.9,661.2 L 294.8,631.5 Z" fill="none" stroke="none" />
  <circle r="11.3" fill="url(#fireflyGlow_0)">
    <animateMotion path="M 385.3,697.2 L 373.6,678.3 L 470.6,702.1 L 455.1,662.7 L 459.5,705.1 L 475.3,723.7 L 488.0,711.3 L 554.6,695.0 L 579.2,679.0 L 612.1,624.3 L 608.5,663.1 L 620.4,647.9 L 551.8,604.7 L 621.8,623.3 L 593.8,616.6 L 607.2,567.5 L 535.0,602.4 L 539.9,601.7 L 570.6,595.7 L 551.6,517.2 L 479.6,517.7 L 507.0,549.0 L 416.5,498.9 L 388.0,547.2 L 414.0,522.7 L 384.7,507.3 L 356.9,559.0 L 336.9,564.7 L 269.1,543.6 L 312.5,586.2 L 222.7,577.7 L 220.5,578.9 L 204.4,541.5 L 217.1,616.7 L 181.3,615.9 L 155.6,619.4 L 185.2,649.9 L 198.4,639.9 L 220.0,663.4 L 160.9,639.7 L 205.7,622.3 L 241.8,676.0 L 246.4,673.7 L 249.7,706.7 L 240.7,671.5 L 276.3,650.1 L 331.5,669.1 L 341.0,721.0 L 394.4,672.6 L 423.9,717.9 Z" dur="369.77s" repeatCount="indefinite">
      <mpath xlink:href="#path_12" />
    </animateMotion>
    <animate attributeName="opacity" values="0.3;1;0.5;1;0.4;1;0.7;0.3" dur="6.2s" repeatCount="indefinite" />
  </circle>
  <path id="path_12" d="M 385.3,697.2 L 373.6,678.3 L 470.6,702.1 L 455.1,662.7 L 459.5,705.1 L 475.3,723.7 L 488.0,711.3 L 554.6,695.0 L 579.2,679.0 L 612.1,624.3 L 608.5,663.1 L 620.4,647.9 L 551.8,604.7 L 621.8,623.3 L 593.8,616.6 L 607.2,567.5 L 535.0,602.4 L 539.9,601.7 L 570.6,595.7 L 551.6,517.2 L 479.6,517.7 L 507.0,549.0 L 416.5,498.9 L 388.0,547.2 L 414.0,522.7 L 384.7,507.3 L 356.9,559.0 L 336.9,564.7 L 269.1,543.6 L 312.5,586.2 L 222.7,577.7 L 220.5,578.9 L 204.4,541.5 L 217.1,616.7 L 181.3,615.9 L 155.6,619.4 L 185.2,649.9 L 198.4,639.9 L 220.0,663.4 L 160.9,639.7 L 205.7,622.3 L 241.8,676.0 L 246.4,673.7 L 249.7,706.7 L 240.7,671.5 L 276.3,650.1 L 331.5,669.1 L 341.0,721.0 L 394.4,672.6 L 423.9,717.9 Z" fill="none" stroke="none" />
  <circle r="11.8" fill="url(#fireflyGlow_0)">
    <animateMotion path="M 441.3,297.3 L 460.1,271.4 L 424.3,271.1 L 411.6,243.7 L 376.9,257.7 L 388.3,253.2 L 334.9,272.5 L 345.8,227.5 L 318.5,234.5 L 293.1,279.0 L 244.3,287.7 L 218.6,239.7 L 186.6,277.6 L 180.9,307.4 L 180.6,309.3 L 187.7,268.1 L 166.0,316.2 L 154.3,323.4 L 123.3,310.1 L 138.7,377.4 L 134.5,374.3 L 169.5,352.1 L 142.8,424.9 L 138.0,410.1 L 162.5,434.7 L 197.0,462.0 L 190.8,469.9 L 196.2,462.7 L 247.4,467.6 L 274.5,467.5 L 258.6,493.1 L 286.6,500.9 L 326.8,487.1 L 322.3,468.7 L 320.9,443.0 L 362.9,466.9 L 386.2,482.1 L 399.7,443.5 L 436.7,443.3 L 420.7,424.2 L 480.2,396.6 L 466.5,432.1 L 450.1,390.0 L 447.3,367.4 L 462.9,341.2 L 500.3,334.6 L 457.9,337.2 L 488.3,305.1 L 432.8,324.8 L 465.5,301.5 Z" dur="379.06s" repeatCount="indefinite">
      <mpath xlink:href="#path_13" />
    </animateMotion>
    <animate attributeName="opacity" values="0.3;1;0.5;1;0.4;1;0.7;0.3" dur="5.7s" repeatCount="indefinite" />
  </circle>
  <path id="path_13" d="M 441.3,297.3 L 460.1,271.4 L 424.3,271.1 L 411.6,243.7 L 376.9,257.7 L 388.3,253.2 L 334.9,272.5 L 345.8,227.5 L 318.5,234.5 L 293.1,279.0 L 244.3,287.7 L 218.6,239.7 L 186.6,277.6 L 180.9,307.4 L 180.6,309.3 L 187.7,268.1 L 166.0,316.2 L 154.3,323.4 L 123.3,310.1 L 138.7,377.4 L 134.5,374.3 L 169.5,352.1 L 142.8,424.9 L 138.0,410.1 L 162.5,434.7 L 197.0,462.0 L 190.8,469.9 L 196.2,462.7 L 247.4,467.6 L 274.5,467.5 L 258.6,493.1 L 286.6,500.9 L 326.8,487.1 L 322.3,468.7 L 320.9,443.0 L 362.9,466.9 L 386.2,482.1 L 399.7,443.5 L 436.7,443.3 L 420.7,424.2 L 480.2,396.6 L 466.5,432.1 L 450.1,390.0 L 447.3,367.4 L 462.9,341.2 L 500.3,334.6 L 457.9,337.2 L 488.3,305.1 L 432.8,324.8 L 465.5,301.5 Z" fill="none" stroke="none" />
  <circle r="12.4" fill="url(#fireflyGlow_0)">
    <animateMotion path="M 382.5,725.9 L 376.4,737.8 L 375.9,698.7 L 344.2,689.1 L 331.3,687.1 L 307.0,691.1 L 290.1,675.8 L 286.6,708.3 L 282.2,690.7 L 247.7,683.8 L 241.4,692.8 L 232.5,711.7 L 183.8,706.8 L 195.8,710.6 L 185.3,716.0 L 141.5,728.0 L 163.5,719.8 L 147.0,749.6 L 148.8,745.9 L 123.2,741.8 L 130.6,760.8 L 110.1,753.9 L 150.0,779.9 L 151.2,802.8 L 128.1,815.7 L 148.9,810.2 L 155.2,800.4 L 178.2,834.7 L 189.3,834.8 L 206.1,829.4 L 211.8,828.2 L 225.4,826.9 L 245.3,822.5 L 264.5,829.1 L 296.6,823.8 L 320.9,840.2 L 308.9,833.5 L 347.3,811.8 L 350.5,805.8 L 380.7,812.1 L 371.1,825.2 L 378.8,811.5 L 402.9,802.2 L 411.1,783.2 L 393.2,776.2 L 412.5,772.7 L 385.1,756.8 L 402.1,733.8 L 399.4,745.9 L 394.5,739.3 Z" dur="379.77s" repeatCount="indefinite">
      <mpath xlink:href="#path_14" />
    </animateMotion>
    <animate attributeName="opacity" values="0.3;1;0.5;1;0.4;1;0.7;0.3" dur="4.0s" repeatCount="indefinite" />
  </circle>
  <path id="path_14" d="M 382.5,725.9 L 376.4,737.8 L 375.9,698.7 L 344.2,689.1 L 331.3,687.1 L 307.0,691.1 L 290.1,675.8 L 286.6,708.3 L 282.2,690.7 L 247.7,683.8 L 241.4,692.8 L 232.5,711.7 L 183.8,706.8 L 195.8,710.6 L 185.3,716.0 L 141.5,728.0 L 163.5,719.8 L 147.0,749.6 L 148.8,745.9 L 123.2,741.8 L 130.6,760.8 L 110.1,753.9 L 150.0,779.9 L 151.2,802.8 L 128.1,815.7 L 148.9,810.2 L 155.2,800.4 L 178.2,834.7 L 189.3,834.8 L 206.1,829.4 L 211.8,828.2 L 225.4,826.9 L 245.3,822.5 L 264.5,829.1 L 296.6,823.8 L 320.9,840.2 L 308.9,833.5 L 347.3,811.8 L 350.5,805.8 L 380.7,812.1 L 371.1,825.2 L 378.8,811.5 L 402.9,802.2 L 411.1,783.2 L 393.2,776.2 L 412.5,772.7 L 385.1,756.8 L 402.1,733.8 L 399.4,745.9 L 394.5,739.3 Z" fill="none" stroke="none" />
  <circle r="13.0" fill="url(#fireflyGlow_0)">
    <animateMotion path="M 173.2,1717.0 L 196.9,1708.4 L 218.9,1700.9 L 227.0,1745.0 L 272.6,1706.4 L 277.7,1705.0 L 293.7,1718.7 L 329.9,1698.5 L 319.2,1725.7 L 338.1,1676.5 L 351.4,1708.2 L 366.5,1699.1 L 356.6,1693.1 L 375.4,1668.9 L 373.3,1662.8 L 374.0,1618.8 L 390.5,1638.3 L 366.3,1634.7 L 383.9,1584.8 L 376.2,1592.0 L 359.9,1566.4 L 352.0,1591.8 L 304.7,1557.7 L 327.7,1558.3 L 276.3,1561.9 L 296.3,1534.4 L 262.2,1544.4 L 228.1,1544.1 L 221.5,1575.6 L 195.4,1565.1 L 163.5,1575.8 L 131.3,1553.2 L 135.5,1578.3 L 110.6,1584.0 L 103.9,1582.1 L 88.6,1606.6 L 92.4,1615.0 L 85.0,1616.6 L 92.7,1635.6 L 89.7,1648.9 L 71.6,1654.9 L 66.3,1657.5 L 62.5,1673.2 L 106.7,1684.7 L 111.5,1683.5 L 118.5,1702.6 L 132.4,1717.3 L 159.5,1697.0 L 165.9,1709.5 L 158.2,1700.9 Z" dur="336.95s" repeatCount="indefinite">
      <mpath xlink:href="#path_15" />
    </animateMotion>
    <animate attributeName="opacity" values="0.3;1;0.5;1;0.4;1;0.7;0.3" dur="6.2s" repeatCount="indefinite" />
  </circle>
  <path id="path_15" d="M 173.2,1717.0 L 196.9,1708.4 L 218.9,1700.9 L 227.0,1745.0 L 272.6,1706.4 L 277.7,1705.0 L 293.7,1718.7 L 329.9,1698.5 L 319.2,1725.7 L 338.1,1676.5 L 351.4,1708.2 L 366.5,1699.1 L 356.6,1693.1 L 375.4,1668.9 L 373.3,1662.8 L 374.0,1618.8 L 390.5,1638.3 L 366.3,1634.7 L 383.9,1584.8 L 376.2,1592.0 L 359.9,1566.4 L 352.0,1591.8 L 304.7,1557.7 L 327.7,1558.3 L 276.3,1561.9 L 296.3,1534.4 L 262.2,1544.4 L 228.1,1544.1 L 221.5,1575.6 L 195.4,1565.1 L 163.5,1575.8 L 131.3,1553.2 L 135.5,1578.3 L 110.6,1584.0 L 103.9,1582.1 L 88.6,1606.6 L 92.4,1615.0 L 85.0,1616.6 L 92.7,1635.6 L 89.7,1648.9 L 71.6,1654.9 L 66.3,1657.5 L 62.5,1673.2 L 106.7,1684.7 L 111.5,1683.5 L 118.5,1702.6 L 132.4,1717.3 L 159.5,1697.0 L 165.9,1709.5 L 158.2,1700.9 Z" fill="none" stroke="none" />
  <circle r="11.0" fill="url(#fireflyGlow_0)">
    <animateMotion path="M 622.4,1334.7 L 612.6,1332.7 L 624.5,1366.1 L 627.0,1363.8 L 630.2,1370.9 L 627.2,1385.8 L 625.8,1383.5 L 618.8,1392.2 L 622.9,1417.7 L 627.8,1411.6 L 641.4,1420.9 L 661.3,1423.7 L 651.7,1447.4 L 650.5,1458.6 L 665.3,1460.5 L 679.4,1447.0 L 698.9,1448.3 L 701.8,1436.4 L 691.7,1438.7 L 718.7,1455.2 L 712.3,1444.8 L 722.4,1444.4 L 731.8,1409.1 L 740.1,1402.9 L 740.0,1417.2 L 759.4,1388.1 L 743.3,1386.4 L 737.1,1372.6 L 759.7,1357.7 L 750.9,1361.3 L 744.0,1348.4 L 734.8,1340.7 L 742.4,1341.0 L 741.0,1317.7 L 719.3,1324.9 L 727.8,1310.7 L 724.1,1315.0 L 720.3,1310.7 L 705.0,1280.6 L 690.5,1285.7 L 671.3,1290.8 L 682.1,1299.8 L 662.8,1282.8 L 668.2,1299.0 L 660.5,1303.2 L 652.3,1317.3 L 652.7,1315.8 L 618.0,1327.3 L 633.3,1313.4 L 628.9,1325.9 Z" dur="337.65s" repeatCount="indefinite">
      <mpath xlink:href="#path_16" />
    </animateMotion>
    <animate attributeName="opacity" values="0.3;1;0.5;1;0.4;1;0.7;0.3" dur="6.0s" repeatCount="indefinite" />
  </circle>
  <path id="path_16" d="M 622.4,1334.7 L 612.6,1332.7 L 624.5,1366.1 L 627.0,1363.8 L 630.2,1370.9 L 627.2,1385.8 L 625.8,1383.5 L 618.8,1392.2 L 622.9,1417.7 L 627.8,1411.6 L 641.4,1420.9 L 661.3,1423.7 L 651.7,1447.4 L 650.5,1458.6 L 665.3,1460.5 L 679.4,1447.0 L 698.9,1448.3 L 701.8,1436.4 L 691.7,1438.7 L 718.7,1455.2 L 712.3,1444.8 L 722.4,1444.4 L 731.8,1409.1 L 740.1,1402.9 L 740.0,1417.2 L 759.4,1388.1 L 743.3,1386.4 L 737.1,1372.6 L 759.7,1357.7 L 750.9,1361.3 L 744.0,1348.4 L 734.8,1340.7 L 742.4,1341.0 L 741.0,1317.7 L 719.3,1324.9 L 727.8,1310.7 L 724.1,1315.0 L 720.3,1310.7 L 705.0,1280.6 L 690.5,1285.7 L 671.3,1290.8 L 682.1,1299.8 L 662.8,1282.8 L 668.2,1299.0 L 660.5,1303.2 L 652.3,1317.3 L 652.7,1315.8 L 618.0,1327.3 L 633.3,1313.4 L 628.9,1325.9 Z" fill="none" stroke="none" />
  <circle r="14.5" fill="url(#fireflyGlow_0)">
    <animateMotion path="M 526.2,1488.8 L 575.4,1527.7 L 548.9,1544.9 L 574.8,1549.8 L 535.4,1563.9 L 565.2,1593.5 L 576.7,1606.8 L 564.1,1598.8 L 525.6,1639.9 L 518.6,1651.4 L 523.9,1631.5 L 505.6,1659.5 L 471.4,1676.1 L 483.7,1698.1 L 466.5,1727.8 L 433.2,1697.7 L 404.8,1703.5 L 390.9,1717.7 L 365.4,1734.0 L 321.9,1684.5 L 254.1,1714.2 L 283.6,1674.6 L 213.8,1675.1 L 203.0,1702.5 L 193.3,1645.6 L 154.1,1619.8 L 150.9,1652.6 L 159.6,1637.3 L 168.5,1619.8 L 147.6,1578.7 L 136.5,1566.8 L 117.7,1554.3 L 189.2,1542.2 L 152.7,1533.5 L 179.3,1464.3 L 206.0,1464.6 L 180.7,1476.7 L 214.1,1438.3 L 289.9,1456.8 L 280.7,1433.1 L 296.0,1460.0 L 310.4,1460.6 L 355.2,1425.0 L 386.8,1409.7 L 437.7,1442.4 L 446.8,1460.1 L 486.4,1438.8 L 490.3,1443.3 L 486.8,1450.2 L 521.8,1487.0 Z" dur="342.21s" repeatCount="indefinite">
      <mpath xlink:href="#path_17" />
    </animateMotion>
    <animate attributeName="opacity" values="0.3;1;0.5;1;0.4;1;0.7;0.3" dur="6.0s" repeatCount="indefinite" />
  </circle>
  <path id="path_17" d="M 526.2,1488.8 L 575.4,1527.7 L 548.9,1544.9 L 574.8,1549.8 L 535.4,1563.9 L 565.2,1593.5 L 576.7,1606.8 L 564.1,1598.8 L 525.6,1639.9 L 518.6,1651.4 L 523.9,1631.5 L 505.6,1659.5 L 471.4,1676.1 L 483.7,1698.1 L 466.5,1727.8 L 433.2,1697.7 L 404.8,1703.5 L 390.9,1717.7 L 365.4,1734.0 L 321.9,1684.5 L 254.1,1714.2 L 283.6,1674.6 L 213.8,1675.1 L 203.0,1702.5 L 193.3,1645.6 L 154.1,1619.8 L 150.9,1652.6 L 159.6,1637.3 L 168.5,1619.8 L 147.6,1578.7 L 136.5,1566.8 L 117.7,1554.3 L 189.2,1542.2 L 152.7,1533.5 L 179.3,1464.3 L 206.0,1464.6 L 180.7,1476.7 L 214.1,1438.3 L 289.9,1456.8 L 280.7,1433.1 L 296.0,1460.0 L 310.4,1460.6 L 355.2,1425.0 L 386.8,1409.7 L 437.7,1442.4 L 446.8,1460.1 L 486.4,1438.8 L 490.3,1443.3 L 486.8,1450.2 L 521.8,1487.0 Z" fill="none" stroke="none" />
  <circle r="13.4" fill="url(#fireflyGlow_0)">
    <animateMotion path="M 489.1,1461.2 L 505.9,1430.4 L 565.4,1471.2 L 590.1,1466.4 L 611.8,1474.2 L 669.0,1436.8 L 664.6,1405.8 L 702.8,1425.5 L 695.9,1437.4 L 682.4,1404.6 L 713.5,1400.7 L 724.8,1383.5 L 692.2,1347.0 L 708.1,1361.4 L 692.7,1346.9 L 667.9,1298.9 L 701.4,1276.7 L 648.6,1306.1 L 647.8,1272.3 L 621.0,1295.2 L 577.2,1285.0 L 547.6,1262.3 L 518.4,1230.8 L 454.4,1237.5 L 430.4,1262.2 L 430.4,1251.8 L 387.0,1281.8 L 362.8,1252.1 L 301.3,1314.1 L 313.4,1268.4 L 283.7,1304.5 L 227.5,1299.4 L 267.2,1349.8 L 199.4,1291.9 L 214.9,1334.7 L 172.1,1375.2 L 196.1,1401.5 L 210.3,1357.5 L 179.7,1405.8 L 224.5,1420.1 L 251.5,1433.1 L 280.6,1457.9 L 274.6,1431.7 L 323.0,1421.7 L 325.5,1462.3 L 332.7,1476.9 L 408.8,1442.9 L 444.3,1468.1 L 488.1,1465.5 L 514.1,1441.5 Z" dur="354.56s" repeatCount="indefinite">
      <mpath xlink:href="#path_18" />
    </animateMotion>
    <animate attributeName="opacity" values="0.3;1;0.5;1;0.4;1;0.7;0.3" dur="4.4s" repeatCount="indefinite" />
  </circle>
  <path id="path_18" d="M 489.1,1461.2 L 505.9,1430.4 L 565.4,1471.2 L 590.1,1466.4 L 611.8,1474.2 L 669.0,1436.8 L 664.6,1405.8 L 702.8,1425.5 L 695.9,1437.4 L 682.4,1404.6 L 713.5,1400.7 L 724.8,1383.5 L 692.2,1347.0 L 708.1,1361.4 L 692.7,1346.9 L 667.9,1298.9 L 701.4,1276.7 L 648.6,1306.1 L 647.8,1272.3 L 621.0,1295.2 L 577.2,1285.0 L 547.6,1262.3 L 518.4,1230.8 L 454.4,1237.5 L 430.4,1262.2 L 430.4,1251.8 L 387.0,1281.8 L 362.8,1252.1 L 301.3,1314.1 L 313.4,1268.4 L 283.7,1304.5 L 227.5,1299.4 L 267.2,1349.8 L 199.4,1291.9 L 214.9,1334.7 L 172.1,1375.2 L 196.1,1401.5 L 210.3,1357.5 L 179.7,1405.8 L 224.5,1420.1 L 251.5,1433.1 L 280.6,1457.9 L 274.6,1431.7 L 323.0,1421.7 L 325.5,1462.3 L 332.7,1476.9 L 408.8,1442.9 L 444.3,1468.1 L 488.1,1465.5 L 514.1,1441.5 Z" fill="none" stroke="none" />
  <circle r="11.5" fill="url(#fireflyGlow_0)">
    <animateMotion path="M 463.5,1291.6 L 492.5,1340.2 L 433.8,1288.0 L 376.8,1373.5 L 431.3,1345.8 L 361.9,1399.8 L 420.3,1423.4 L 437.5,1465.8 L 438.5,1479.5 L 401.7,1464.2 L 371.9,1492.1 L 393.5,1515.7 L 431.0,1497.4 L 438.9,1528.0 L 459.9,1571.5 L 503.6,1585.2 L 528.2,1617.2 L 573.7,1633.5 L 616.2,1617.8 L 644.8,1597.1 L 627.4,1629.2 L 698.5,1627.8 L 654.8,1572.9 L 663.1,1629.1 L 779.7,1527.9 L 721.9,1564.0 L 725.5,1570.1 L 765.6,1502.4 L 812.5,1480.3 L 823.6,1448.4 L 835.0,1420.6 L 811.3,1468.6 L 850.9,1429.8 L 819.8,1404.3 L 781.3,1358.3 L 833.2,1372.5 L 772.3,1342.7 L 764.6,1337.7 L 766.2,1280.9 L 771.9,1326.8 L 735.3,1297.7 L 667.7,1292.3 L 696.6,1280.7 L 628.2,1279.1 L 552.7,1209.7 L 610.3,1254.4 L 500.6,1278.4 L 523.1,1263.5 L 445.2,1261.9 L 499.8,1320.7 Z" dur="340.82s" repeatCount="indefinite">
      <mpath xlink:href="#path_19" />
    </animateMotion>
    <animate attributeName="opacity" values="0.3;1;0.5;1;0.4;1;0.7;0.3" dur="5.2s" repeatCount="indefinite" />
  </circle>
  <path id="path_19" d="M 463.5,1291.6 L 492.5,1340.2 L 433.8,1288.0 L 376.8,1373.5 L 431.3,1345.8 L 361.9,1399.8 L 420.3,1423.4 L 437.5,1465.8 L 438.5,1479.5 L 401.7,1464.2 L 371.9,1492.1 L 393.5,1515.7 L 431.0,1497.4 L 438.9,1528.0 L 459.9,1571.5 L 503.6,1585.2 L 528.2,1617.2 L 573.7,1633.5 L 616.2,1617.8 L 644.8,1597.1 L 627.4,1629.2 L 698.5,1627.8 L 654.8,1572.9 L 663.1,1629.1 L 779.7,1527.9 L 721.9,1564.0 L 725.5,1570.1 L 765.6,1502.4 L 812.5,1480.3 L 823.6,1448.4 L 835.0,1420.6 L 811.3,1468.6 L 850.9,1429.8 L 819.8,1404.3 L 781.3,1358.3 L 833.2,1372.5 L 772.3,1342.7 L 764.6,1337.7 L 766.2,1280.9 L 771.9,1326.8 L 735.3,1297.7 L 667.7,1292.3 L 696.6,1280.7 L 628.2,1279.1 L 552.7,1209.7 L 610.3,1254.4 L 500.6,1278.4 L 523.1,1263.5 L 445.2,1261.9 L 499.8,1320.7 Z" fill="none" stroke="none" />
  <circle r="14.8" fill="url(#fireflyGlow_0)">
    <animateMotion path="M 400.7,1116.1 L 397.1,1127.5 L 408.4,1141.1 L 449.9,1090.3 L 441.1,1093.3 L 467.0,1127.8 L 491.3,1104.4 L 491.9,1102.8 L 501.9,1103.8 L 539.8,1133.2 L 511.2,1112.5 L 529.1,1139.3 L 538.8,1138.6 L 549.6,1142.9 L 527.2,1183.8 L 522.8,1171.4 L 548.9,1191.1 L 517.6,1163.9 L 539.1,1166.6 L 510.8,1218.4 L 532.2,1189.6 L 505.2,1215.0 L 481.0,1237.7 L 466.8,1191.4 L 501.9,1205.8 L 489.6,1247.3 L 473.3,1231.9 L 453.0,1195.6 L 411.0,1248.9 L 434.9,1242.3 L 379.0,1217.1 L 387.8,1206.5 L 358.3,1189.4 L 350.6,1224.8 L 369.2,1226.4 L 358.4,1203.4 L 316.8,1204.7 L 330.2,1180.4 L 348.2,1188.5 L 334.8,1171.6 L 344.2,1160.5 L 361.6,1130.0 L 354.0,1173.9 L 340.1,1134.6 L 372.7,1115.9 L 370.7,1126.3 L 342.9,1148.1 L 358.0,1098.7 L 374.8,1096.6 L 402.6,1114.8 Z" dur="390.64s" repeatCount="indefinite">
      <mpath xlink:href="#path_20" />
    </animateMotion>
    <animate attributeName="opacity" values="0.3;1;0.5;1;0.4;1;0.7;0.3" dur="5.4s" repeatCount="indefinite" />
  </circle>
  <path id="path_20" d="M 400.7,1116.1 L 397.1,1127.5 L 408.4,1141.1 L 449.9,1090.3 L 441.1,1093.3 L 467.0,1127.8 L 491.3,1104.4 L 491.9,1102.8 L 501.9,1103.8 L 539.8,1133.2 L 511.2,1112.5 L 529.1,1139.3 L 538.8,1138.6 L 549.6,1142.9 L 527.2,1183.8 L 522.8,1171.4 L 548.9,1191.1 L 517.6,1163.9 L 539.1,1166.6 L 510.8,1218.4 L 532.2,1189.6 L 505.2,1215.0 L 481.0,1237.7 L 466.8,1191.4 L 501.9,1205.8 L 489.6,1247.3 L 473.3,1231.9 L 453.0,1195.6 L 411.0,1248.9 L 434.9,1242.3 L 379.0,1217.1 L 387.8,1206.5 L 358.3,1189.4 L 350.6,1224.8 L 369.2,1226.4 L 358.4,1203.4 L 316.8,1204.7 L 330.2,1180.4 L 348.2,1188.5 L 334.8,1171.6 L 344.2,1160.5 L 361.6,1130.0 L 354.0,1173.9 L 340.1,1134.6 L 372.7,1115.9 L 370.7,1126.3 L 342.9,1148.1 L 358.0,1098.7 L 374.8,1096.6 L 402.6,1114.8 Z" fill="none" stroke="none" />
  <circle r="11.2" fill="url(#fireflyGlow_0)">
    <animateMotion path="M 457.6,1774.0 L 528.2,1803.7 L 554.5,1762.6 L 569.5,1835.9 L 574.3,1720.9 L 611.4,1759.8 L 737.3,1793.0 L 747.5,1754.2 L 761.0,1677.2 L 794.5,1685.8 L 776.8,1663.7 L 778.5,1632.5 L 860.0,1569.9 L 801.1,1551.7 L 890.7,1470.0 L 805.3,1536.0 L 876.0,1443.9 L 838.6,1361.6 L 827.7,1378.3 L 757.7,1375.0 L 804.5,1307.4 L 674.3,1329.0 L 728.9,1272.4 L 715.6,1232.1 L 559.4,1265.1 L 524.1,1278.6 L 484.9,1229.4 L 573.3,1240.6 L 533.5,1233.0 L 436.4,1271.3 L 413.6,1223.2 L 369.4,1258.0 L 398.3,1363.4 L 287.9,1409.0 L 268.4,1364.5 L 285.9,1402.5 L 308.9,1422.3 L 276.6,1464.0 L 296.8,1487.5 L 224.0,1547.5 L 189.5,1544.4 L 194.7,1536.3 L 255.2,1580.7 L 219.0,1638.0 L 304.2,1696.1 L 290.3,1711.1 L 294.7,1713.6 L 425.5,1791.6 L 417.8,1781.2 L 468.2,1764.0 Z" dur="407.35s" repeatCount="indefinite">
      <mpath xlink:href="#path_21" />
    </animateMotion>
    <animate attributeName="opacity" values="0.3;1;0.5;1;0.4;1;0.7;0.3" dur="5.7s" repeatCount="indefinite" />
  </circle>
  <path id="path_21" d="M 457.6,1774.0 L 528.2,1803.7 L 554.5,1762.6 L 569.5,1835.9 L 574.3,1720.9 L 611.4,1759.8 L 737.3,1793.0 L 747.5,1754.2 L 761.0,1677.2 L 794.5,1685.8 L 776.8,1663.7 L 778.5,1632.5 L 860.0,1569.9 L 801.1,1551.7 L 890.7,1470.0 L 805.3,1536.0 L 876.0,1443.9 L 838.6,1361.6 L 827.7,1378.3 L 757.7,1375.0 L 804.5,1307.4 L 674.3,1329.0 L 728.9,1272.4 L 715.6,1232.1 L 559.4,1265.1 L 524.1,1278.6 L 484.9,1229.4 L 573.3,1240.6 L 533.5,1233.0 L 436.4,1271.3 L 413.6,1223.2 L 369.4,1258.0 L 398.3,1363.4 L 287.9,1409.0 L 268.4,1364.5 L 285.9,1402.5 L 308.9,1422.3 L 276.6,1464.0 L 296.8,1487.5 L 224.0,1547.5 L 189.5,1544.4 L 194.7,1536.3 L 255.2,1580.7 L 219.0,1638.0 L 304.2,1696.1 L 290.3,1711.1 L 294.7,1713.6 L 425.5,1791.6 L 417.8,1781.2 L 468.2,1764.0 Z" fill="none" stroke="none" />
  <circle r="14.5" fill="url(#fireflyGlow_1)">
    <animateMotion path="M 499.3,1350.6 L 476.7,1322.0 L 449.0,1355.5 L 455.8,1334.3 L 453.3,1319.6 L 450.2,1290.9 L 474.7,1268.2 L 457.1,1275.1 L 481.7,1265.8 L 549.0,1222.8 L 509.2,1204.6 L 571.3,1246.7 L 584.7,1212.9 L 583.4,1199.4 L 632.3,1217.0 L 639.5,1200.5 L 690.0,1216.4 L 708.3,1162.2 L 762.4,1159.5 L 784.1,1205.7 L 774.9,1193.0 L 786.4,1183.5 L 856.0,1201.4 L 867.9,1215.9 L 897.7,1210.1 L 872.6,1267.2 L 921.0,1244.0 L 878.4,1253.2 L 934.6,1277.2 L 891.1,1280.8 L 896.5,1320.8 L 871.1,1341.1 L 886.3,1335.5 L 837.3,1364.9 L 854.0,1353.9 L 804.5,1395.3 L 798.0,1388.8 L 817.0,1389.9 L 742.5,1424.3 L 759.6,1385.1 L 735.9,1414.4 L 706.0,1424.1 L 623.0,1406.6 L 618.1,1372.1 L 580.5,1377.7 L 555.6,1400.6 L 578.4,1351.7 L 505.6,1387.8 L 523.3,1386.6 L 510.0,1379.3 Z" dur="325.22s" repeatCount="indefinite">
      <mpath xlink:href="#path_22" />
    </animateMotion>
    <animate attributeName="opacity" values="0.3;1;0.5;1;0.4;1;0.7;0.3" dur="5.8s" repeatCount="indefinite" />
  </circle>
  <path id="path_22" d="M 499.3,1350.6 L 476.7,1322.0 L 449.0,1355.5 L 455.8,1334.3 L 453.3,1319.6 L 450.2,1290.9 L 474.7,1268.2 L 457.1,1275.1 L 481.7,1265.8 L 549.0,1222.8 L 509.2,1204.6 L 571.3,1246.7 L 584.7,1212.9 L 583.4,1199.4 L 632.3,1217.0 L 639.5,1200.5 L 690.0,1216.4 L 708.3,1162.2 L 762.4,1159.5 L 784.1,1205.7 L 774.9,1193.0 L 786.4,1183.5 L 856.0,1201.4 L 867.9,1215.9 L 897.7,1210.1 L 872.6,1267.2 L 921.0,1244.0 L 878.4,1253.2 L 934.6,1277.2 L 891.1,1280.8 L 896.5,1320.8 L 871.1,1341.1 L 886.3,1335.5 L 837.3,1364.9 L 854.0,1353.9 L 804.5,1395.3 L 798.0,1388.8 L 817.0,1389.9 L 742.5,1424.3 L 759.6,1385.1 L 735.9,1414.4 L 706.0,1424.1 L 623.0,1406.6 L 618.1,1372.1 L 580.5,1377.7 L 555.6,1400.6 L 578.4,1351.7 L 505.6,1387.8 L 523.3,1386.6 L 510.0,1379.3 Z" fill="none" stroke="none" />
  <circle r="11.7" fill="url(#fireflyGlow_1)">
    <animateMotion path="M 944.6,1236.9 L 960.5,1268.4 L 980.0,1227.5 L 1000.9,1243.9 L 1006.6,1263.0 L 1011.2,1256.4 L 1004.5,1298.3 L 996.1,1268.2 L 960.9,1294.5 L 990.1,1321.8 L 950.2,1313.2 L 981.7,1295.0 L 963.3,1345.3 L 942.9,1341.2 L 919.6,1329.3 L 930.0,1325.4 L 912.3,1314.5 L 897.8,1343.6 L 855.2,1324.1 L 832.9,1350.3 L 809.8,1362.7 L 780.2,1340.2 L 808.0,1334.9 L 771.4,1311.7 L 737.2,1309.5 L 730.7,1306.9 L 720.3,1292.5 L 723.4,1289.2 L 703.2,1304.4 L 725.6,1286.7 L 719.7,1272.7 L 699.2,1301.0 L 724.5,1294.0 L 715.8,1272.2 L 714.8,1238.1 L 705.5,1258.9 L 744.7,1261.8 L 760.1,1228.1 L 791.2,1221.5 L 784.3,1235.1 L 778.9,1206.2 L 794.9,1216.8 L 827.7,1244.2 L 864.6,1246.4 L 849.6,1224.3 L 873.1,1247.7 L 890.9,1249.1 L 932.5,1229.0 L 945.0,1215.4 L 936.2,1259.6 Z" dur="402.0s" repeatCount="indefinite">
      <mpath xlink:href="#path_23" />
    </animateMotion>
    <animate attributeName="opacity" values="0.3;1;0.5;1;0.4;1;0.7;0.3" dur="4.6s" repeatCount="indefinite" />
  </circle>
  <path id="path_23" d="M 944.6,1236.9 L 960.5,1268.4 L 980.0,1227.5 L 1000.9,1243.9 L 1006.6,1263.0 L 1011.2,1256.4 L 1004.5,1298.3 L 996.1,1268.2 L 960.9,1294.5 L 990.1,1321.8 L 950.2,1313.2 L 981.7,1295.0 L 963.3,1345.3 L 942.9,1341.2 L 919.6,1329.3 L 930.0,1325.4 L 912.3,1314.5 L 897.8,1343.6 L 855.2,1324.1 L 832.9,1350.3 L 809.8,1362.7 L 780.2,1340.2 L 808.0,1334.9 L 771.4,1311.7 L 737.2,1309.5 L 730.7,1306.9 L 720.3,1292.5 L 723.4,1289.2 L 703.2,1304.4 L 725.6,1286.7 L 719.7,1272.7 L 699.2,1301.0 L 724.5,1294.0 L 715.8,1272.2 L 714.8,1238.1 L 705.5,1258.9 L 744.7,1261.8 L 760.1,1228.1 L 791.2,1221.5 L 784.3,1235.1 L 778.9,1206.2 L 794.9,1216.8 L 827.7,1244.2 L 864.6,1246.4 L 849.6,1224.3 L 873.1,1247.7 L 890.9,1249.1 L 932.5,1229.0 L 945.0,1215.4 L 936.2,1259.6 Z" fill="none" stroke="none" />
  <circle r="14.9" fill="url(#fireflyGlow_0)">
    <animateMotion path="M 781.6,439.4 L 827.7,525.0 L 783.5,535.1 L 887.1,547.1 L 859.9,576.2 L 806.4,612.3 L 830.3,541.6 L 858.5,542.6 L 838.1,617.7 L 898.6,686.6 L 845.8,664.4 L 750.7,659.5 L 731.1,693.8 L 774.5,791.5 L 705.4,779.0 L 723.7,700.2 L 642.5,784.9 L 684.4,767.3 L 531.3,757.4 L 542.2,721.9 L 494.3,714.5 L 434.8,756.5 L 445.8,719.8 L 419.9,791.9 L 427.3,762.1 L 368.7,702.7 L 344.5,705.7 L 278.5,663.4 L 286.4,661.3 L 243.5,617.1 L 334.3,578.1 L 320.4,620.9 L 267.5,602.3 L 363.3,490.5 L 354.0,543.0 L 359.7,450.7 L 371.6,510.7 L 417.5,384.0 L 444.3,456.8 L 416.0,455.2 L 433.4,366.6 L 529.6,334.3 L 491.6,391.5 L 570.8,365.3 L 674.9,329.4 L 609.7,388.9 L 707.6,353.6 L 730.9,475.0 L 737.9,445.0 L 839.3,452.7 Z" dur="413.72s" repeatCount="indefinite">
      <mpath xlink:href="#path_24" />
    </animateMotion>
    <animate attributeName="opacity" values="0.3;1;0.5;1;0.4;1;0.7;0.3" dur="5.3s" repeatCount="indefinite" />
  </circle>
  <path id="path_24" d="M 781.6,439.4 L 827.7,525.0 L 783.5,535.1 L 887.1,547.1 L 859.9,576.2 L 806.4,612.3 L 830.3,541.6 L 858.5,542.6 L 838.1,617.7 L 898.6,686.6 L 845.8,664.4 L 750.7,659.5 L 731.1,693.8 L 774.5,791.5 L 705.4,779.0 L 723.7,700.2 L 642.5,784.9 L 684.4,767.3 L 531.3,757.4 L 542.2,721.9 L 494.3,714.5 L 434.8,756.5 L 445.8,719.8 L 419.9,791.9 L 427.3,762.1 L 368.7,702.7 L 344.5,705.7 L 278.5,663.4 L 286.4,661.3 L 243.5,617.1 L 334.3,578.1 L 320.4,620.9 L 267.5,602.3 L 363.3,490.5 L 354.0,543.0 L 359.7,450.7 L 371.6,510.7 L 417.5,384.0 L 444.3,456.8 L 416.0,455.2 L 433.4,366.6 L 529.6,334.3 L 491.6,391.5 L 570.8,365.3 L 674.9,329.4 L 609.7,388.9 L 707.6,353.6 L 730.9,475.0 L 737.9,445.0 L 839.3,452.7 Z" fill="none" stroke="none" />
  <circle r="14.6" fill="url(#fireflyGlow_1)">
    <animateMotion path="M 591.2,391.5 L 605.1,357.3 L 595.9,347.8 L 571.6,341.1 L 588.9,326.1 L 593.0,358.7 L 600.1,335.6 L 630.4,306.1 L 604.3,319.2 L 610.3,290.0 L 649.5,305.1 L 641.5,270.6 L 675.1,305.1 L 694.8,294.6 L 720.5,263.4 L 718.3,266.5 L 746.7,294.3 L 712.8,291.7 L 721.6,302.8 L 781.1,307.0 L 776.5,287.9 L 798.4,296.8 L 765.6,330.1 L 795.8,340.2 L 784.0,332.9 L 784.0,357.8 L 794.4,364.0 L 798.6,374.7 L 815.5,367.0 L 815.6,397.4 L 775.8,405.2 L 792.0,440.0 L 752.0,455.2 L 787.7,456.9 L 752.7,433.9 L 752.8,456.8 L 718.7,465.2 L 719.7,474.0 L 683.3,438.7 L 669.0,435.0 L 694.0,475.1 L 668.9,456.3 L 658.3,438.3 L 638.7,458.3 L 649.6,434.7 L 633.8,438.3 L 635.8,431.2 L 605.9,387.8 L 594.6,393.4 L 610.4,389.1 Z" dur="362.98s" repeatCount="indefinite">
      <mpath xlink:href="#path_25" />
    </animateMotion>
    <animate attributeName="opacity" values="0.3;1;0.5;1;0.4;1;0.7;0.3" dur="6.5s" repeatCount="indefinite" />
  </circle>
  <path id="path_25" d="M 591.2,391.5 L 605.1,357.3 L 595.9,347.8 L 571.6,341.1 L 588.9,326.1 L 593.0,358.7 L 600.1,335.6 L 630.4,306.1 L 604.3,319.2 L 610.3,290.0 L 649.5,305.1 L 641.5,270.6 L 675.1,305.1 L 694.8,294.6 L 720.5,263.4 L 718.3,266.5 L 746.7,294.3 L 712.8,291.7 L 721.6,302.8 L 781.1,307.0 L 776.5,287.9 L 798.4,296.8 L 765.6,330.1 L 795.8,340.2 L 784.0,332.9 L 784.0,357.8 L 794.4,364.0 L 798.6,374.7 L 815.5,367.0 L 815.6,397.4 L 775.8,405.2 L 792.0,440.0 L 752.0,455.2 L 787.7,456.9 L 752.7,433.9 L 752.8,456.8 L 718.7,465.2 L 719.7,474.0 L 683.3,438.7 L 669.0,435.0 L 694.0,475.1 L 668.9,456.3 L 658.3,438.3 L 638.7,458.3 L 649.6,434.7 L 633.8,438.3 L 635.8,431.2 L 605.9,387.8 L 594.6,393.4 L 610.4,389.1 Z" fill="none" stroke="none" />
  <circle r="14.9" fill="url(#fireflyGlow_0)">
    <animateMotion path="M 776.0,1499.3 L 790.8,1483.3 L 816.1,1518.2 L 820.8,1504.3 L 821.9,1527.3 L 829.6,1526.8 L 835.1,1513.5 L 861.1,1514.9 L 837.7,1526.8 L 834.0,1533.6 L 865.2,1530.4 L 857.3,1556.4 L 849.3,1561.2 L 866.7,1562.8 L 831.5,1561.2 L 862.3,1582.1 L 835.5,1600.9 L 815.3,1601.7 L 838.7,1608.8 L 809.9,1573.8 L 821.5,1594.8 L 774.9,1587.6 L 790.3,1604.5 L 767.6,1580.8 L 740.8,1593.9 L 741.2,1592.1 L 725.6,1589.9 L 715.7,1612.2 L 699.1,1594.2 L 705.6,1587.7 L 698.0,1569.4 L 697.8,1564.1 L 684.2,1569.8 L 678.1,1550.2 L 653.3,1555.7 L 671.0,1572.5 L 658.7,1550.9 L 685.1,1540.4 L 680.8,1514.9 L 663.8,1525.0 L 669.0,1522.2 L 683.8,1521.5 L 682.3,1516.0 L 710.0,1525.6 L 711.8,1520.9 L 728.2,1516.3 L 728.4,1501.6 L 762.6,1502.1 L 747.4,1501.9 L 782.3,1489.6 Z" dur="369.07s" repeatCount="indefinite">
      <mpath xlink:href="#path_26" />
    </animateMotion>
    <animate attributeName="opacity" values="0.3;1;0.5;1;0.4;1;0.7;0.3" dur="4.6s" repeatCount="indefinite" />
  </circle>
  <path id="path_26" d="M 776.0,1499.3 L 790.8,1483.3 L 816.1,1518.2 L 820.8,1504.3 L 821.9,1527.3 L 829.6,1526.8 L 835.1,1513.5 L 861.1,1514.9 L 837.7,1526.8 L 834.0,1533.6 L 865.2,1530.4 L 857.3,1556.4 L 849.3,1561.2 L 866.7,1562.8 L 831.5,1561.2 L 862.3,1582.1 L 835.5,1600.9 L 815.3,1601.7 L 838.7,1608.8 L 809.9,1573.8 L 821.5,1594.8 L 774.9,1587.6 L 790.3,1604.5 L 767.6,1580.8 L 740.8,1593.9 L 741.2,1592.1 L 725.6,1589.9 L 715.7,1612.2 L 699.1,1594.2 L 705.6,1587.7 L 698.0,1569.4 L 697.8,1564.1 L 684.2,1569.8 L 678.1,1550.2 L 653.3,1555.7 L 671.0,1572.5 L 658.7,1550.9 L 685.1,1540.4 L 680.8,1514.9 L 663.8,1525.0 L 669.0,1522.2 L 683.8,1521.5 L 682.3,1516.0 L 710.0,1525.6 L 711.8,1520.9 L 728.2,1516.3 L 728.4,1501.6 L 762.6,1502.1 L 747.4,1501.9 L 782.3,1489.6 Z" fill="none" stroke="none" />
  <circle r="14.6" fill="url(#fireflyGlow_0)">
    <animateMotion path="M 342.3,1830.3 L 336.5,1828.9 L 356.6,1862.0 L 377.6,1855.2 L 374.9,1875.1 L 379.5,1881.0 L 398.8,1868.8 L 423.4,1893.2 L 420.8,1895.4 L 428.4,1888.3 L 442.1,1894.4 L 441.8,1866.5 L 480.7,1869.9 L 475.8,1879.0 L 476.3,1856.0 L 513.6,1844.0 L 499.6,1849.8 L 525.4,1835.6 L 500.3,1810.0 L 528.0,1818.3 L 533.8,1817.1 L 536.3,1781.5 L 511.5,1767.9 L 512.7,1765.4 L 499.0,1769.2 L 492.0,1732.2 L 493.8,1749.2 L 494.1,1717.6 L 470.7,1717.3 L 464.1,1710.0 L 455.2,1714.0 L 466.1,1708.3 L 438.1,1716.4 L 416.0,1711.9 L 405.3,1719.7 L 411.1,1713.8 L 409.4,1709.9 L 366.6,1706.9 L 379.6,1727.8 L 370.1,1740.0 L 367.9,1731.9 L 345.0,1760.2 L 350.2,1764.6 L 324.1,1773.2 L 336.2,1766.1 L 333.4,1783.2 L 342.6,1785.4 L 324.2,1812.8 L 349.4,1837.5 L 333.8,1827.9 Z" dur="389.91s" repeatCount="indefinite">
      <mpath xlink:href="#path_27" />
    </animateMotion>
    <animate attributeName="opacity" values="0.3;1;0.5;1;0.4;1;0.7;0.3" dur="5.1s" repeatCount="indefinite" />
  </circle>
  <path id="path_27" d="M 342.3,1830.3 L 336.5,1828.9 L 356.6,1862.0 L 377.6,1855.2 L 374.9,1875.1 L 379.5,1881.0 L 398.8,1868.8 L 423.4,1893.2 L 420.8,1895.4 L 428.4,1888.3 L 442.1,1894.4 L 441.8,1866.5 L 480.7,1869.9 L 475.8,1879.0 L 476.3,1856.0 L 513.6,1844.0 L 499.6,1849.8 L 525.4,1835.6 L 500.3,1810.0 L 528.0,1818.3 L 533.8,1817.1 L 536.3,1781.5 L 511.5,1767.9 L 512.7,1765.4 L 499.0,1769.2 L 492.0,1732.2 L 493.8,1749.2 L 494.1,1717.6 L 470.7,1717.3 L 464.1,1710.0 L 455.2,1714.0 L 466.1,1708.3 L 438.1,1716.4 L 416.0,1711.9 L 405.3,1719.7 L 411.1,1713.8 L 409.4,1709.9 L 366.6,1706.9 L 379.6,1727.8 L 370.1,1740.0 L 367.9,1731.9 L 345.0,1760.2 L 350.2,1764.6 L 324.1,1773.2 L 336.2,1766.1 L 333.4,1783.2 L 342.6,1785.4 L 324.2,1812.8 L 349.4,1837.5 L 333.8,1827.9 Z" fill="none" stroke="none" />
  <circle r="10.6" fill="url(#fireflyGlow_0)">
    <animateMotion path="M 101.5,976.2 L 108.4,972.3 L 126.5,1019.6 L 106.1,1031.8 L 102.4,1064.1 L 123.8,1083.0 L 143.8,1082.5 L 150.3,1104.7 L 146.0,1087.6 L 149.0,1103.1 L 201.0,1110.1 L 185.8,1126.1 L 217.5,1117.6 L 257.1,1146.5 L 231.5,1148.9 L 254.0,1119.8 L 281.0,1141.1 L 300.3,1121.3 L 334.4,1106.1 L 313.2,1100.8 L 337.6,1103.2 L 340.9,1056.0 L 328.5,1072.6 L 367.0,1031.4 L 366.3,1005.7 L 365.9,1018.9 L 366.1,1000.2 L 372.3,977.6 L 329.0,955.9 L 346.5,952.4 L 357.9,920.1 L 343.2,884.3 L 325.1,866.9 L 298.3,872.5 L 286.8,865.9 L 248.8,885.8 L 260.3,870.2 L 225.9,860.6 L 219.9,831.3 L 195.8,832.5 L 202.2,843.6 L 201.7,891.0 L 166.2,862.6 L 155.4,895.4 L 117.6,916.0 L 124.0,910.2 L 128.7,918.4 L 108.3,940.0 L 96.7,964.8 L 128.4,1001.8 Z" dur="378.4s" repeatCount="indefinite">
      <mpath xlink:href="#path_28" />
    </animateMotion>
    <animate attributeName="opacity" values="0.3;1;0.5;1;0.4;1;0.7;0.3" dur="4.6s" repeatCount="indefinite" />
  </circle>
  <path id="path_28" d="M 101.5,976.2 L 108.4,972.3 L 126.5,1019.6 L 106.1,1031.8 L 102.4,1064.1 L 123.8,1083.0 L 143.8,1082.5 L 150.3,1104.7 L 146.0,1087.6 L 149.0,1103.1 L 201.0,1110.1 L 185.8,1126.1 L 217.5,1117.6 L 257.1,1146.5 L 231.5,1148.9 L 254.0,1119.8 L 281.0,1141.1 L 300.3,1121.3 L 334.4,1106.1 L 313.2,1100.8 L 337.6,1103.2 L 340.9,1056.0 L 328.5,1072.6 L 367.0,1031.4 L 366.3,1005.7 L 365.9,1018.9 L 366.1,1000.2 L 372.3,977.6 L 329.0,955.9 L 346.5,952.4 L 357.9,920.1 L 343.2,884.3 L 325.1,866.9 L 298.3,872.5 L 286.8,865.9 L 248.8,885.8 L 260.3,870.2 L 225.9,860.6 L 219.9,831.3 L 195.8,832.5 L 202.2,843.6 L 201.7,891.0 L 166.2,862.6 L 155.4,895.4 L 117.6,916.0 L 124.0,910.2 L 128.7,918.4 L 108.3,940.0 L 96.7,964.8 L 128.4,1001.8 Z" fill="none" stroke="none" />
  <circle r="11.3" fill="url(#fireflyGlow_0)">
    <animateMotion path="M 775.5,713.1 L 793.4,704.5 L 754.5,712.4 L 761.0,754.4 L 761.9,753.0 L 734.1,744.1 L 728.2,752.9 L 714.4,768.2 L 720.9,770.9 L 681.5,761.5 L 667.1,775.3 L 661.1,792.2 L 649.7,790.3 L 643.2,771.9 L 619.6,779.0 L 576.6,788.6 L 575.5,778.3 L 567.7,775.9 L 535.3,743.3 L 520.1,761.4 L 530.4,737.3 L 500.7,727.0 L 505.3,748.4 L 528.7,731.0 L 514.4,723.9 L 513.9,695.2 L 519.6,704.6 L 534.3,678.6 L 541.1,673.1 L 542.0,688.9 L 536.5,678.7 L 570.1,666.1 L 584.7,643.8 L 570.3,640.8 L 614.1,648.3 L 628.4,631.5 L 648.7,650.9 L 634.6,636.7 L 685.0,650.8 L 694.7,639.5 L 690.6,671.5 L 733.4,649.4 L 722.5,656.5 L 730.6,652.0 L 767.0,660.3 L 767.7,693.2 L 777.5,701.9 L 789.4,715.9 L 784.7,704.0 L 789.2,733.8 Z" dur="417.65s" repeatCount="indefinite">
      <mpath xlink:href="#path_29" />
    </animateMotion>
    <animate attributeName="opacity" values="0.3;1;0.5;1;0.4;1;0.7;0.3" dur="6.3s" repeatCount="indefinite" />
  </circle>
  <path id="path_29" d="M 775.5,713.1 L 793.4,704.5 L 754.5,712.4 L 761.0,754.4 L 761.9,753.0 L 734.1,744.1 L 728.2,752.9 L 714.4,768.2 L 720.9,770.9 L 681.5,761.5 L 667.1,775.3 L 661.1,792.2 L 649.7,790.3 L 643.2,771.9 L 619.6,779.0 L 576.6,788.6 L 575.5,778.3 L 567.7,775.9 L 535.3,743.3 L 520.1,761.4 L 530.4,737.3 L 500.7,727.0 L 505.3,748.4 L 528.7,731.0 L 514.4,723.9 L 513.9,695.2 L 519.6,704.6 L 534.3,678.6 L 541.1,673.1 L 542.0,688.9 L 536.5,678.7 L 570.1,666.1 L 584.7,643.8 L 570.3,640.8 L 614.1,648.3 L 628.4,631.5 L 648.7,650.9 L 634.6,636.7 L 685.0,650.8 L 694.7,639.5 L 690.6,671.5 L 733.4,649.4 L 722.5,656.5 L 730.6,652.0 L 767.0,660.3 L 767.7,693.2 L 777.5,701.9 L 789.4,715.9 L 784.7,704.0 L 789.2,733.8 Z" fill="none" stroke="none" />
</svg>