<svg width="1920" height="1080" version="1.1" xmlns="http://www.w3.org/2000/svg" xmlns:xlink="http://www.w3.org/1999/xlink">
  <defs>
    <linearGradient id="backgroundGradient" gradientTransform="rotate(60)">
      <stop offset="0%" style="stop-color:#fea75f; stop-opacity:0.2" />
      <stop offset="100%" style="stop-color:#294275; stop-opacity:0.2" />
    </linearGradient>
    <radialGradient id="fireflyGlow_0">
      <stop offset="0%" style="stop-color:#fd7e14; stop-opacity:1" />
      <stop offset="100%" style="stop-color:#fd7e14; stop-opacity:0" />
    </radialGradient>
    <radialGradient id="fireflyGlow_1">
      <stop offset="0%" style="stop-color:#014bd1; stop-opacity:1" />
      <stop offset="100%" style="stop-color:#014bd1; stop-opacity:0" />
    </radialGradient>
  </defs>
  <rect x="0" y="0" width="1920" height="1080" fill="url(#backgroundGradient)" />
  <circle r="8.5" fill="url(#fireflyGlow_0)">
    <animateMotion path="M 730.3,759.7 L 720.5,749.7 L 757.9,734.3 L 757.6,755.5 L 746.7,749.8 L 787.2,737.7 L 797.8,705.4 L 819.6,703.1 L 832.4,721.5 L 836.4,710.8 L 814.5,738.1 L 839.1,716.6 L 840.4,743.0 L 863.9,717.1 L 879.5,739.5 L 877.8,739.2 L 893.7,752.4 L 892.8,756.5 L 903.3,802.0 L 906.9,781.9 L 883.4,807.6 L 888.8,820.5 L 884.7,823.4 L 890.9,843.7 L 880.1,841.0 L 903.5,884.1 L 900.8,870.5 L 850.5,896.2 L 849.0,893.9 L 847.2,909.2 L 844.9,895.1 L 827.8,892.9 L 801.8,893.2 L 818.2,927.6 L 815.6,899.1 L 800.9,897.5 L 752.2,917.3 L 763.9,870.3 L 773.2,909.3 L 735.3,874.8 L 755.1,866.6 L 721.3,873.6 L 712.3,863.1 L 714.1,815.8 L 708.3,807.1 L 739.4,819.7 L 710.4,789.0 L 706.0,783.5 L 745.3,780.6 L 744.0,777.8 Z" dur="314.24s" repeatCount="indefinite">
      <mpath xlink:href="#path_0" />
    </animateMotion>
    <animate attributeName="opacity" values="0.3;1;0.5;1;0.4;1;0.7;0.3" dur="6.3s" repeatCount="indefinite" />
  </circle>
  <path id="path_0" d="M 730.3,759.7 L 720.5,749.7 L 757.9,734.3 L 757.6,755.5 L 746.7,749.8 L 787.2,737.7 L 797.8,705.4 L 819.6,703.1 L 832.4,721.5 L 836.4,710.8 L 814.5,738.1 L 839.1,716.6 L 840.4,743.0 L 863.9,717.1 L 879.5,739.5 L 877.8,739.2 L 893.7,752.4 L 892.8,756.5 L 903.3,802.0 L 906.9,781.9 L 883.4,807.6 L 888.8,820.5 L 884.7,823.4 L 890.9,843.7 L 880.1,841.0 L 903.5,884.1 L 900.8,870.5 L 850.5,896.2 L 849.0,893.9 L 847.2,909.2 L 844.9,895.1 L 827.8,892.9 L 801.8,893.2 L 818.2,927.6 L 815.6,899.1 L 800.9,897.5 L 752.2,917.3 L 763.9,870.3 L 773.2,909.3 L 735.3,874.8 L 755.1,866.6 L 721.3,873.6 L 712.3,863.1 L 714.1,815.8 L 708.3,807.1 L 739.4,819.7 L 710.4,789.0 L 706.0,783.5 L 745.3,780.6 L 744.0,777.8 Z" fill="none" stroke="none" />
  <circle r="12.1" fill="url(#fireflyGlow_1)">
    <animateMotion path="M 1058.9,188.9 L 1076.4,184.1 L 1090.0,209.6 L 1106.0,200.9 L 1109.2,212.9 L 1114.1,200.2 L 1131.7,217.3 L 1128.1,216.0 L 1125.2,226.6 L 1163.0,261.8 L 1146.0,235.7 L 1133.8,248.1 L 1135.3,272.1 L 1120.7,274.6 L 1131.3,293.0 L 1126.6,269.4 L 1094.2,290.2 L 1086.0,285.2 L 1054.0,316.1 L 1058.4,308.6 L 1036.8,318.3 L 1032.3,301.4 L 1009.1,303.7 L 970.8,294.8 L 970.1,318.0 L 947.9,290.5 L 923.7,280.9 L 937.3,286.6 L 913.0,276.3 L 896.4,270.5 L 892.4,258.9 L 873.5,264.8 L 888.9,277.4 L 894.1,247.5 L 865.9,249.7 L 895.5,252.1 L 876.7,247.7 L 886.9,229.9 L 917.0,197.6 L 916.8,221.6 L 904.3,185.1 L 930.0,214.4 L 942.8,186.5 L 968.2,177.3 L 958.1,206.7 L 986.2,169.4 L 1023.1,196.8 L 1044.3,193.7 L 1055.5,192.4 L 1067.3,191.1 Z" dur="371.78s" repeatCount="indefinite">
      <mpath xlink:href="#path_1" />
    </animateMotion>
    <animate attributeName="opacity" values="0.3;1;0.5;1;0.4;1;0.7;0.3" dur="5.1s" repeatCount="indefinite" />
  </circle>
  <path id="path_1" d="M 1058.9,188.9 L 1076.4,184.1 L 1090.0,209.6 L 1106.0,200.9 L 1109.2,212.9 L 1114.1,200.2 L 1131.7,217.3 L 1128.1,216.0 L 1125.2,226.6 L 1163.0,261.8 L 1146.0,235.7 L 1133.8,248.1 L 1135.3,272.1 L 1120.7,274.6 L 1131.3,293.0 L 1126.6,269.4 L 1094.2,290.2 L 1086.0,285.2 L 1054.0,316.1 L 1058.4,308.6 L 1036.8,318.3 L 1032.3,301.4 L 1009.1,303.7 L 970.8,294.8 L 970.1,318.0 L 947.9,290.5 L 923.7,280.9 L 937.3,286.6 L 913.0,276.3 L 896.4,270.5 L 892.4,258.9 L 873.5,264.8 L 888.9,277.4 L 894.1,247.5 L 865.9,249.7 L 895.5,252.1 L 876.7,247.7 L 886.9,229.9 L 917.0,197.6 L 916.8,221.6 L 904.3,185.1 L 930.0,214.4 L 942.8,186.5 L 968.2,177.3 L 958.1,206.7 L 986.2,169.4 L 1023.1,196.8 L 1044.3,193.7 L 1055.5,192.4 L 1067.3,191.1 Z" fill="none" stroke="none" />
  <circle r="9.0" fill="url(#fireflyGlow_0)">
    <animateMotion path="M 1477.6,568.4 L 1457.3,613.2 L 1470.3,618.2 L 1412.4,652.4 L 1384.3,612.5 L 1367.0,646.3 L 1401.4,638.3 L 1361.1,668.5 L 1417.3,730.2 L 1398.0,730.1 L 1419.7,728.6 L 1354.4,818.3 L 1433.8,804.7 L 1435.8,804.1 L 1473.9,812.0 L 1442.7,879.9 L 1434.3,835.1 L 1475.9,854.6 L 1502.5,851.6 L 1543.7,871.2 L 1541.7,884.1 L 1600.3,869.3 L 1625.9,863.7 L 1581.3,870.7 L 1670.6,919.3 L 1687.0,869.5 L 1708.0,854.2 L 1725.2,872.0 L 1701.9,826.8 L 1761.2,830.6 L 1757.4,817.3 L 1696.0,750.2 L 1732.7,727.8 L 1761.0,718.4 L 1702.9,709.4 L 1697.3,650.6 L 1691.2,678.6 L 1751.7,629.7 L 1703.0,616.0 L 1655.0,614.0 L 1708.0,568.5 L 1665.1,543.6 L 1625.8,598.8 L 1639.2,555.2 L 1598.8,595.9 L 1574.0,535.8 L 1505.9,553.2 L 1500.4,522.8 L 1498.8,594.0 L 1462.3,553.1 Z" dur="400.57s" repeatCount="indefinite">
      <mpath xlink:href="#path_2" />
    </animateMotion>
    <animate attributeName="opacity" values="0.3;1;0.5;1;0.4;1;0.7;0.3" dur="4.1s" repeatCount="indefinite" />
  </circle>
  <path id="path_2" d="M 1477.6,568.4 L 1457.3,613.2 L 1470.3,618.2 L 1412.4,652.4 L 1384.3,612.5 L 1367.0,646.3 L 1401.4,638.3 L 1361.1,668.5 L 1417.3,730.2 L 1398.0,730.1 L 1419.7,728.6 L 1354.4,818.3 L 1433.8,804.7 L 1435.8,804.1 L 1473.9,812.0 L 1442.7,879.9 L 1434.3,835.1 L 1475.9,854.6 L 1502.5,851.6 L 1543.7,871.2 L 1541.7,884.1 L 1600.3,869.3 L 1625.9,863.7 L 1581.3,870.7 L 1670.6,919.3 L 1687.0,869.5 L 1708.0,854.2 L 1725.2,872.0 L 1701.9,826.8 L 1761.2,830.6 L 1757.4,817.3 L 1696.0,750.2 L 1732.7,727.8 L 1761.0,718.4 L 1702.9,709.4 L 1697.3,650.6 L 1691.2,678.6 L 1751.7,629.7 L 1703.0,616.0 L 1655.0,614.0 L 1708.0,568.5 L 1665.1,543.6 L 1625.8,598.8 L 1639.2,555.2 L 1598.8,595.9 L 1574.0,535.8 L 1505.9,553.2 L 1500.4,522.8 L 1498.8,594.0 L 1462.3,553.1 Z" fill="none" stroke="none" />
  <circle r="11.7" fill="url(#fireflyGlow_0)">
    <animateMotion path="M 952.6,730.6 L 975.8,766.5 L 922.5,804.2 L 913.9,799.0 L 933.7,826.5 L 954.0,834.3 L 987.8,848.9 L 986.1,875.6 L 995.2,901.7 L 1057.5,887.9 L 1061.6,957.1 L 1076.6,964.6 L 1115.1,930.7 L 1156.9,928.2 L 1197.5,987.8 L 1206.6,956.2 L 1212.8,950.0 L 1279.2,933.0 L 1269.3,928.7 L 1328.8,931.6 L 1350.9,922.3 L 1398.7,900.9 L 1420.2,923.8 L 1389.2,886.7 L 1433.9,898.6 L 1410.5,856.4 L 1433.5,859.1 L 1443.6,764.5 L 1493.9,775.3 L 1448.0,758.5 L 1476.3,735.4 L 1388.8,752.4 L 1430.2,717.8 L 1357.5,704.2 L 1383.0,702.3 L 1340.4,672.5 L 1341.2,639.2 L 1279.4,606.1 L 1223.3,639.6 L 1199.4,602.8 L 1183.0,665.2 L 1128.2,650.5 L 1139.3,657.9 L 1121.8,629.6 L 1072.9,627.4 L 1048.8,665.7 L 1003.2,693.0 L 985.4,720.2 L 975.0,743.6 L 942.6,749.6 Z" dur="321.74s" repeatCount="indefinite">
      <mpath xlink:href="#path_3" />
    </animateMotion>
    <animate attributeName="opacity" values="0.3;1;0.5;1;0.4;1;0.7;0.3" dur="6.0s" repeatCount="indefinite" />
  </circle>
  <path id="path_3" d="M 952.6,730.6 L 975.8,766.5 L 922.5,804.2 L 913.9,799.0 L 933.7,826.5 L 954.0,834.3 L 987.8,848.9 L 986.1,875.6 L 995.2,901.7 L 1057.5,887.9 L 1061.6,957.1 L 1076.6,964.6 L 1115.1,930.7 L 1156.9,928.2 L 1197.5,987.8 L 1206.6,956.2 L 1212.8,950.0 L 1279.2,933.0 L 1269.3,928.7 L 1328.8,931.6 L 1350.9,922.3 L 1398.7,900.9 L 1420.2,923.8 L 1389.2,886.7 L 1433.9,898.6 L 1410.5,856.4 L 1433.5,859.1 L 1443.6,764.5 L 1493.9,775.3 L 1448.0,758.5 L 1476.3,735.4 L 1388.8,752.4 L 1430.2,717.8 L 1357.5,704.2 L 1383.0,702.3 L 1340.4,672.5 L 1341.2,639.2 L 1279.4,606.1 L 1223.3,639.6 L 1199.4,602.8 L 1183.0,665.2 L 1128.2,650.5 L 1139.3,657.9 L 1121.8,629.6 L 1072.9,627.4 L 1048.8,665.7 L 1003.2,693.0 L 985.4,720.2 L 975.0,743.6 L 942.6,749.6 Z" fill="none" stroke="none" />
  <circle r="12.0" fill="url(#fireflyGlow_0)">
    <animateMotion path="M 1062.2,929.5 L 1116.7,916.5 L 1191.4,961.2 L 1237.0,949.2 L 1281.6,796.4 L 1189.5,899.2 L 1201.3,846.4 L 1283.2,726.3 L 1335.7,718.1 L 1286.8,621.4 L 1355.9,646.8 L 1340.9,592.3 L 1256.2,611.2 L 1326.4,582.5 L 1191.4,480.6 L 1157.8,553.7 L 1144.7,432.6 L 1136.4,389.3 L 1072.5,442.5 L 1151.5,417.4 L 985.9,427.3 L 1007.4,310.0 L 934.0,359.4 L 889.1,328.7 L 858.9,412.2 L 856.4,436.4 L 696.5,459.4 L 751.3,451.6 L 618.4,387.0 L 610.3,453.0 L 571.7,482.6 L 576.6,601.2 L 557.6,644.8 L 550.1,562.0 L 626.8,661.2 L 605.1,677.1 L 608.5,781.2 L 560.2,734.3 L 670.0,768.8 L 673.2,809.9 L 623.5,862.5 L 754.1,961.8 L 730.0,899.1 L 807.0,940.8 L 783.7,973.5 L 855.6,980.4 L 897.9,927.0 L 927.2,922.7 L 1065.1,957.6 L 1140.2,965.2 Z" dur="381.89s" repeatCount="indefinite">
      <mpath xlink:href="#path_4" />
    </animateMotion>
    <animate attributeName="opacity" values="0.3;1;0.5;1;0.4;1;0.7;0.3" dur="5.3s" repeatCount="indefinite" />
  </circle>
  <path id="path_4" d="M 1062.2,929.5 L 1116.7,916.5 L 1191.4,961.2 L 1237.0,949.2 L 1281.6,796.4 L 1189.5,899.2 L 1201.3,846.4 L 1283.2,726.3 L 1335.7,718.1 L 1286.8,621.4 L 1355.9,646.8 L 1340.9,592.3 L 1256.2,611.2 L 1326.4,582.5 L 1191.4,480.6 L 1157.8,553.7 L 1144.7,432.6 L 1136.4,389.3 L 1072.5,442.5 L 1151.5,417.4 L 985.9,427.3 L 1007.4,310.0 L 934.0,359.4 L 889.1,328.7 L 858.9,412.2 L 856.4,436.4 L 696.5,459.4 L 751.3,451.6 L 618.4,387.0 L 610.3,453.0 L 571.7,482.6 L 576.6,601.2 L 557.6,644.8 L 550.1,562.0 L 626.8,661.2 L 605.1,677.1 L 608.5,781.2 L 560.2,734.3 L 670.0,768.8 L 673.2,809.9 L 623.5,862.5 L 754.1,961.8 L 730.0,899.1 L 807.0,940.8 L 783.7,973.5 L 855.6,980.4 L 897.9,927.0 L 927.2,922.7 L 1065.1,957.6 L 1140.2,965.2 Z" fill="none" stroke="none" />
  <circle r="12.6" fill="url(#fireflyGlow_0)">
    <animateMotion path="M 767.7,362.2 L 762.1,355.9 L 789.0,335.8 L 864.2,238.0 L 893.8,267.3 L 986.8,252.3 L 1081.1,225.5 L 1129.2,190.4 L 1139.8,279.3 L 1213.6,301.4 L 1322.4,235.1 L 1321.4,290.3 L 1397.4,211.4 L 1533.0,284.2 L 1557.6,331.8 L 1504.9,404.4 L 1577.9,474.5 L 1716.3,470.2 L 1698.7,398.7 L 1688.2,548.2 L 1600.7,551.3 L 1750.5,520.3 L 1670.6,564.3 L 1600.8,706.3 L 1553.2,708.6 L 1647.8,758.5 L 1549.1,834.9 L 1555.8,743.3 L 1395.4,763.2 L 1438.6,896.5 L 1397.1,907.9 L 1191.8,935.7 L 1110.5,874.5 L 1174.6,930.0 L 1034.3,882.8 L 944.5,864.6 L 897.8,819.6 L 972.4,737.0 L 798.3,783.0 L 744.5,822.9 L 784.0,712.3 L 785.8,715.1 L 753.8,615.7 L 646.0,524.9 L 627.2,526.6 L 711.7,596.2 L 768.3,558.5 L 692.1,468.4 L 709.1,347.8 L 699.2,385.7 Z" dur="410.4s" repeatCount="indefinite">
      <mpath xlink:href="#path_5" />
    </animateMotion>
    <animate attributeName="opacity" values="0.3;1;0.5;1;0.4;1;0.7;0.3" dur="5.1s" repeatCount="indefinite" />
  </circle>
  <path id="path_5" d="M 767.7,362.2 L 762.1,355.9 L 789.0,335.8 L 864.2,238.0 L 893.8,267.3 L 986.8,252.3 L 1081.1,225.5 L 1129.2,190.4 L 1139.8,279.3 L 1213.6,301.4 L 1322.4,235.1 L 1321.4,290.3 L 1397.4,211.4 L 1533.0,284.2 L 1557.6,331.8 L 1504.9,404.4 L 1577.9,474.5 L 1716.3,470.2 L 1698.7,398.7 L 1688.2,548.2 L 1600.7,551.3 L 1750.5,520.3 L 1670.6,564.3 L 1600.8,706.3 L 1553.2,708.6 L 1647.8,758.5 L 1549.1,834.9 L 1555.8,743.3 L 1395.4,763.2 L 1438.6,896.5 L 1397.1,907.9 L 1191.8,935.7 L 1110.5,874.5 L 1174.6,930.0 L 1034.3,882.8 L 944.5,864.6 L 897.8,819.6 L 972.4,737.0 L 798.3,783.0 L 744.5,822.9 L 784.0,712.3 L 785.8,715.1 L 753.8,615.7 L 646.0,524.9 L 627.2,526.6 L 711.7,596.2 L 768.3,558.5 L 692.1,468.4 L 709.1,347.8 L 699.2,385.7 Z" fill="none" stroke="none" />
  <circle r="7.0" fill="url(#fireflyGlow_1)">
    <animateMotion path="M 635.9,683.5 L 620.5,708.6 L 613.5,707.7 L 576.9,703.7 L 602.0,706.6 L 546.9,690.3 L 532.2,735.4 L 539.8,691.0 L 490.4,710.8 L 500.5,720.9 L 495.4,695.5 L 449.8,681.6 L 465.3,685.6 L 412.9,713.2 L 421.3,663.6 L 405.8,680.4 L 388.2,651.0 L 390.9,648.8 L 391.5,638.6 L 392.1,640.2 L 417.7,628.3 L 374.3,610.1 L 379.3,630.1 L 406.2,605.9 L 398.6,581.0 L 412.3,576.0 L 436.1,564.6 L 452.4,561.2 L 485.1,569.7 L 513.8,545.9 L 497.6,567.6 L 524.1,548.8 L 546.1,535.0 L 574.5,570.0 L 571.2,571.6 L 616.0,562.9 L 593.6,580.2 L 606.6,595.1 L 658.0,564.5 L 623.7,571.7 L 655.6,617.8 L 683.5,584.8 L 689.5,602.6 L 666.5,622.7 L 677.9,630.7 L 657.7,636.0 L 653.5,642.3 L 638.0,651.4 L 637.0,697.7 L 617.0,709.8 Z" dur="334.26s" repeatCount="indefinite">
      <mpath xlink:href="#path_6" />
    </animateMotion>
    <animate attributeName="opacity" values="0.3;1;0.5;1;0.4;1;0.7;0.3" dur="5.7s" repeatCount="indefinite" />
  </circle>
  <path id="path_6" d="M 635.9,683.5 L 620.5,708.6 L 613.5,707.7 L 576.9,703.7 L 602.0,706.6 L 546.9,690.3 L 532.2,735.4 L 539.8,691.0 L 490.4,710.8 L 500.5,720.9 L 495.4,695.5 L 449.8,681.6 L 465.3,685.6 L 412.9,713.2 L 421.3,663.6 L 405.8,680.4 L 388.2,651.0 L 390.9,648.8 L 391.5,638.6 L 392.1,640.2 L 417.7,628.3 L 374.3,610.1 L 379.3,630.1 L 406.2,605.9 L 398.6,581.0 L 412.3,576.0 L 436.1,564.6 L 452.4,561.2 L 485.1,569.7 L 513.8,545.9 L 497.6,567.6 L 524.1,548.8 L 546.1,535.0 L 574.5,570.0 L 571.2,571.6 L 616.0,562.9 L 593.6,580.2 L 606.6,595.1 L 658.0,564.5 L 623.7,571.7 L 655.6,617.8 L 683.5,584.8 L 689.5,602.6 L 666.5,622.7 L 677.9,630.7 L 657.7,636.0 L 653.5,642.3 L 638.0,651.4 L 637.0,697.7 L 617.0,709.8 Z" fill="none" stroke="none" />
  <circle r="5.1" fill="url(#fireflyGlow_0)">
    <animateMotion path="M 878.0,759.8 L 914.8,787.1 L 904.4,757.0 L 899.3,786.8 L 933.6,821.9 L 893.6,849.4 L 867.4,870.7 L 816.2,842.1 L 805.2,849.9 L 831.7,927.7 L 815.0,912.1 L 778.4,880.0 L 701.2,918.2 L 681.4,930.8 L 659.6,896.0 L 557.1,889.7 L 579.9,899.8 L 480.4,944.0 L 441.2,900.8 L 446.9,873.7 L 421.9,906.3 L 379.8,930.1 L 354.5,908.6 L 301.5,832.5 L 310.1,823.1 L 327.0,863.1 L 295.3,807.1 L 335.8,835.6 L 310.1,811.5 L 320.0,732.0 L 291.0,766.5 L 294.2,762.7 L 345.9,697.9 L 374.8,740.3 L 396.6,666.6 L 418.5,683.8 L 449.4,658.0 L 519.0,651.1 L 577.5,681.3 L 608.7,668.4 L 586.0,643.9 L 656.5,706.8 L 664.1,656.2 L 774.3,721.6 L 797.1,665.9 L 813.9,675.4 L 819.9,762.2 L 854.6,730.9 L 861.2,740.6 L 920.8,735.3 Z" dur="370.43s" repeatCount="indefinite">
      <mpath xlink:href="#path_7" />
    </animateMotion>
    <animate attributeName="opacity" values="0.3;1;0.5;1;0.4;1;0.7;0.3" dur="4.2s" repeatCount="indefinite" />
  </circle>
  <path id="path_7" d="M 878.0,759.8 L 914.8,787.1 L 904.4,757.0 L 899.3,786.8 L 933.6,821.9 L 893.6,849.4 L 867.4,870.7 L 816.2,842.1 L 805.2,849.9 L 831.7,927.7 L 815.0,912.1 L 778.4,880.0 L 701.2,918.2 L 681.4,930.8 L 659.6,896.0 L 557.1,889.7 L 579.9,899.8 L 480.4,944.0 L 441.2,900.8 L 446.9,873.7 L 421.9,906.3 L 379.8,930.1 L 354.5,908.6 L 301.5,832.5 L 310.1,823.1 L 327.0,863.1 L 295.3,807.1 L 335.8,835.6 L 310.1,811.5 L 320.0,732.0 L 291.0,766.5 L 294.2,762.7 L 345.9,697.9 L 374.8,740.3 L 396.6,666.6 L 418.5,683.8 L 449.4,658.0 L 519.0,651.1 L 577.5,681.3 L 608.7,668.4 L 586.0,643.9 L 656.5,706.8 L 664.1,656.2 L 774.3,721.6 L 797.1,665.9 L 813.9,675.4 L 819.9,762.2 L 854.6,730.9 L 861.2,740.6 L 920.8,735.3 Z" fill="none" stroke="none" />
  <circle r="5.1" fill="url(#fireflyGlow_0)">
    <animateMotion path="M 1704.5,432.9 L 1697.5,407.5 L 1708.8,434.6 L 1728.3,372.2 L 1732.6,377.2 L 1750.2,326.0 L 1708.3,354.6 L 1701.1,353.0 L 1688.0,290.5 L 1692.4,282.7 L 1685.1,329.9 L 1652.2,302.0 L 1612.8,244.1 L 1586.0,290.7 L 1524.7,226.9 L 1491.0,251.0 L 1457.6,224.9 L 1438.6,257.2 L 1458.0,238.9 L 1350.9,219.2 L 1397.4,242.4 L 1327.2,286.5 L 1270.6,246.3 L 1279.5,327.5 L 1266.5,308.4 L 1233.9,299.6 L 1214.5,325.1 L 1249.7,372.0 L 1227.4,368.2 L 1188.8,341.8 L 1175.6,400.4 L 1206.8,388.8 L 1196.3,438.2 L 1238.8,469.0 L 1264.7,455.2 L 1256.9,501.7 L 1336.2,475.5 L 1305.0,465.0 L 1333.8,489.1 L 1410.1,505.9 L 1430.7,493.1 L 1505.4,477.4 L 1522.9,453.7 L 1524.4,455.0 L 1574.0,472.6 L 1602.9,440.8 L 1645.4,483.6 L 1623.1,488.4 L 1717.1,447.1 L 1750.9,435.2 Z" dur="360.81s" repeatCount="indefinite">
      <mpath xlink:href="#path_8" />
    </animateMotion>
    <animate attributeName="opacity" values="0.3;1;0.5;1;0.4;1;0.7;0.3" dur="4.6s" repeatCount="indefinite" />
  </circle>
  <path id="path_8" d="M 1704.5,432.9 L 1697.5,407.5 L 1708.8,434.6 L 1728.3,372.2 L 1732.6,377.2 L 1750.2,326.0 L 1708.3,354.6 L 1701.1,353.0 L 1688.0,290.5 L 1692.4,282.7 L 1685.1,329.9 L 1652.2,302.0 L 1612.8,244.1 L 1586.0,290.7 L 1524.7,226.9 L 1491.0,251.0 L 1457.6,224.9 L 1438.6,257.2 L 1458.0,238.9 L 1350.9,219.2 L 1397.4,242.4 L 1327.2,286.5 L 1270.6,246.3 L 1279.5,327.5 L 1266.5,308.4 L 1233.9,299.6 L 1214.5,325.1 L 1249.7,372.0 L 1227.4,368.2 L 1188.8,341.8 L 1175.6,400.4 L 1206.8,388.8 L 1196.3,438.2 L 1238.8,469.0 L 1264.7,455.2 L 1256.9,501.7 L 1336.2,475.5 L 1305.0,465.0 L 1333.8,489.1 L 1410.1,505.9 L 1430.7,493.1 L 1505.4,477.4 L 1522.9,453.7 L 1524.4,455.0 L 1574.0,472.6 L 1602.9,440.8 L 1645.4,483.6 L 1623.1,488.4 L 1717.1,447.1 L 1750.9,435.2 Z" fill="none" stroke="none" />
  <circle r="5.3" fill="url(#fireflyGlow_0)">
    <animateMotion path="M 192.7,942.1 L 213.4,924.1 L 184.4,936.3 L 182.2,905.4 L 231.4,912.9 L 241.5,897.4 L 225.0,909.3 L 246.6,898.7 L 221.0,857.0 L 243.1,888.7 L 272.9,862.5 L 271.4,865.3 L 289.6,881.2 L 350.9,872.4 L 344.9,866.0 L 395.0,862.5 L 358.0,851.8 L 397.0,882.0 L 438.6,900.8 L 456.0,895.1 L 440.5,893.8 L 468.0,895.9 L 435.9,885.4 L 487.1,903.2 L 457.3,955.0 L 486.3,928.6 L 501.1,975.8 L 481.1,934.0 L 482.0,935.9 L 452.7,976.3 L 459.4,992.9 L 454.0,1001.9 L 435.6,989.2 L 403.6,1026.1 L 414.7,1016.5 L 379.7,1021.7 L 350.6,991.0 L 330.6,1007.0 L 311.7,1005.3 L 280.1,996.3 L 316.4,1010.9 L 290.6,1029.4 L 247.0,1001.2 L 267.5,966.1 L 238.8,977.3 L 229.9,947.4 L 239.2,972.7 L 181.0,934.1 L 169.5,963.4 L 225.3,945.8 Z" dur="368.29s" repeatCount="indefinite">
      <mpath xlink:href="#path_9" />
    </animateMotion>
    <animate attributeName="opacity" values="0.3;1;0.5;1;0.4;1;0.7;0.3" dur="6.0s" repeatCount="indefinite" />
  </circle>
  <path id="path_9" d="M 192.7,942.1 L 213.4,924.1 L 184.4,936.3 L 182.2,905.4 L 231.4,912.9 L 241.5,897.4 L 225.0,909.3 L 246.6,898.7 L 221.0,857.0 L 243.1,888.7 L 272.9,862.5 L 271.4,865.3 L 289.6,881.2 L 350.9,872.4 L 344.9,866.0 L 395.0,862.5 L 358.0,851.8 L 397.0,882.0 L 438.6,900.8 L 456.0,895.1 L 440.5,893.8 L 468.0,895.9 L 435.9,885.4 L 487.1,903.2 L 457.3,955.0 L 486.3,928.6 L 501.1,975.8 L 481.1,934.0 L 482.0,935.9 L 452.7,976.3 L 459.4,992.9 L 454.0,1001.9 L 435.6,989.2 L 403.6,1026.1 L 414.7,1016.5 L 379.7,1021.7 L 350.6,991.0 L 330.6,1007.0 L 311.7,1005.3 L 280.1,996.3 L 316.4,1010.9 L 290.6,1029.4 L 247.0,1001.2 L 267.5,966.1 L 238.8,977.3 L 229.9,947.4 L 239.2,972.7 L 181.0,934.1 L 169.5,963.4 L 225.3,945.8 Z" fill="none" stroke="none" />
  <circle r="12.1" fill="url(#fireflyGlow_1)">
    <animateMotion path="M 1564.9,345.9 L 1582.3,331.3 L 1590.2,391.5 L 1544.4,386.4 L 1584.3,366.7 L 1502.8,401.0 L 1537.8,411.2 L 1455.7,463.7 L 1441.7,409.0 L 1425.4,416.5 L 1415.7,453.6 L 1400.4,476.3 L 1367.8,443.3 L 1297.6,467.9 L 1270.4,437.3 L 1282.3,428.3 L 1205.5,429.4 L 1187.1,404.7 L 1218.5,475.9 L 1176.3,431.7 L 1115.0,443.9 L 1138.6,440.5 L 1132.5,373.5 L 1126.3,385.3 L 1057.7,341.8 L 1129.9,382.1 L 1059.4,334.8 L 1135.8,337.2 L 1082.4,279.7 L 1125.7,344.6 L 1138.2,291.5 L 1140.6,312.3 L 1162.2,308.8 L 1222.6,246.1 L 1215.2,287.1 L 1236.3,221.0 L 1293.5,262.0 L 1292.9,236.3 L 1314.3,219.0 L 1346.3,246.6 L 1391.5,233.7 L 1426.4,295.3 L 1436.8,275.1 L 1504.4,290.3 L 1472.7,320.8 L 1558.1,277.1 L 1559.1,337.2 L 1588.1,343.1 L 1570.2,322.4 L 1531.2,334.9 Z" dur="334.02s" repeatCount="indefinite">
      <mpath xlink:href="#path_10" />
    </animateMotion>
    <animate attributeName="opacity" values="0.3;1;0.5;1;0.4;1;0.7;0.3" dur="6.4s" repeatCount="indefinite" />
  </circle>
  <path id="path_10" d="M 1564.9,345.9 L 1582.3,331.3 L 1590.2,391.5 L 1544.4,386.4 L 1584.3,366.7 L 1502.8,401.0 L 1537.8,411.2 L 1455.7,463.7 L 1441.7,409.0 L 1425.4,416.5 L 1415.7,453.6 L 1400.4,476.3 L 1367.8,443.3 L 1297.6,467.9 L 1270.4,437.3 L 1282.3,428.3 L 1205.5,429.4 L 1187.1,404.7 L 1218.5,475.9 L 1176.3,431.7 L 1115.0,443.9 L 1138.6,440.5 L 1132.5,373.5 L 1126.3,385.3 L 1057.7,341.8 L 1129.9,382.1 L 1059.4,334.8 L 1135.8,337.2 L 1082.4,279.7 L 1125.7,344.6 L 1138.2,291.5 L 1140.6,312.3 L 1162.2,308.8 L 1222.6,246.1 L 1215.2,287.1 L 1236.3,221.0 L 1293.5,262.0 L 1292.9,236.3 L 1314.3,219.0 L 1346.3,246.6 L 1391.5,233.7 L 1426.4,295.3 L 1436.8,275.1 L 1504.4,290.3 L 1472.7,320.8 L 1558.1,277.1 L 1559.1,337.2 L 1588.1,343.1 L 1570.2,322.4 L 1531.2,334.9 Z" fill="none" stroke="none" />
  <circle r="4.9" fill="url(#fireflyGlow_0)">
    <animateMotion path="M 463.4,684.2 L 509.5,669.0 L 491.6,699.4 L 537.0,690.5 L 533.3,665.1 L 547.9,703.9 L 606.4,705.6 L 629.3,720.1 L 630.9,705.3 L 644.5,711.6 L 651.9,744.8 L 675.5,769.1 L 656.8,772.3 L 654.7,756.9 L 646.6,806.5 L 662.0,780.8 L 677.4,808.4 L 658.4,814.5 L 605.1,848.8 L 647.8,862.0 L 579.7,831.4 L 569.1,881.7 L 587.7,857.4 L 583.4,907.2 L 540.9,908.6 L 527.3,903.7 L 485.9,873.1 L 492.6,874.7 L 445.8,871.3 L 406.8,881.5 L 411.0,889.2 L 381.2,870.6 L 388.8,858.2 L 353.6,825.0 L 381.9,815.0 L 345.1,820.9 L 365.5,818.4 L 324.0,804.6 L 328.9,791.9 L 357.8,785.7 L 315.9,775.5 L 337.7,731.3 L 364.9,710.3 L 345.0,730.1 L 377.1,690.0 L 392.1,698.1 L 425.9,719.4 L 413.1,697.2 L 417.1,707.9 L 439.8,672.8 Z" dur="360.2s" repeatCount="indefinite">
      <mpath xlink:href="#path_11" />
    </animateMotion>
    <animate attributeName="opacity" values="0.3;1;0.5;1;0.4;1;0.7;0.3" dur="6.9s" repeatCount="indefinite" />
  </circle>
  <path id="path_11" d="M 463.4,684.2 L 509.5,669.0 L 491.6,699.4 L 537.0,690.5 L 533.3,665.1 L 547.9,703.9 L 606.4,705.6 L 629.3,720.1 L 630.9,705.3 L 644.5,711.6 L 651.9,744.8 L 675.5,769.1 L 656.8,772.3 L 654.7,756.9 L 646.6,806.5 L 662.0,780.8 L 677.4,808.4 L 658.4,814.5 L 605.1,848.8 L 647.8,862.0 L 579.7,831.4 L 569.1,881.7 L 587.7,857.4 L 583.4,907.2 L 540.9,908.6 L 527.3,903.7 L 485.9,873.1 L 492.6,874.7 L 445.8,871.3 L 406.8,881.5 L 411.0,889.2 L 381.2,870.6 L 388.8,858.2 L 353.6,825.0 L 381.9,815.0 L 345.1,820.9 L 365.5,818.4 L 324.0,804.6 L 328.9,791.9 L 357.8,785.7 L 315.9,775.5 L 337.7,731.3 L 364.9,710.3 L 345.0,730.1 L 377.1,690.0 L 392.1,698.1 L 425.9,719.4 L 413.1,697.2 L 417.1,707.9 L 439.8,672.8 Z" fill="none" stroke="none" />
  <circle r="9.7" fill="url(#fireflyGlow_0)">
    <animateMotion path="M 1397.9,195.8 L 1407.6,194.4 L 1398.6,183.4 L 1383.8,171.4 L 1373.3,187.2 L 1379.6,173.7 L 1400.5,165.6 L 1393.2,158.0 L 1407.6,148.1 L 1425.9,133.2 L 1437.0,138.7 L 1422.3,150.3 L 1443.1,147.9 L 1477.0,139.1 L 1490.2,144.6 L 1479.0,140.5 L 1492.6,120.8 L 1503.3,117.9 L 1531.4,141.1 L 1551.1,117.5 L 1565.2,142.9 L 1565.8,132.9 L 1574.1,139.2 L 1585.5,143.9 L 1599.1,161.0 L 1595.2,144.6 L 1599.3,172.8 L 1601.9,174.1 L 1609.7,189.4 L 1595.9,167.7 L 1621.5,198.5 L 1608.9,189.1 L 1607.8,190.3 L 1595.7,203.3 L 1580.8,224.2 L 1555.5,199.7 L 1572.7,215.0 L 1544.7,234.7 L 1536.8,212.8 L 1531.9,234.5 L 1512.6,209.7 L 1483.3,208.9 L 1463.5,235.6 L 1460.5,206.5 L 1457.3,214.2 L 1420.2,223.9 L 1435.5,221.5 L 1401.9,200.2 L 1404.6,211.8 L 1401.9,183.2 Z" dur="326.91s" repeatCount="indefinite">
      <mpath xlink:href="#path_12" />
    </animateMotion>
    <animate attributeName="opacity" values="0.3;1;0.5;1;0.4;1;0.7;0.3" dur="4.3s" repeatCount="indefinite" />
  </circle>
  <path id="path_12" d="M 1397.9,195.8 L 1407.6,194.4 L 1398.6,183.4 L 1383.8,171.4 L 1373.3,187.2 L 1379.6,173.7 L 1400.5,165.6 L 1393.2,158.0 L 1407.6,148.1 L 1425.9,133.2 L 1437.0,138.7 L 1422.3,150.3 L 1443.1,147.9 L 1477.0,139.1 L 1490.2,144.6 L 1479.0,140.5 L 1492.6,120.8 L 1503.3,117.9 L 1531.4,141.1 L 1551.1,117.5 L 1565.2,142.9 L 1565.8,132.9 L 1574.1,139.2 L 1585.5,143.9 L 1599.1,161.0 L 1595.2,144.6 L 1599.3,172.8 L 1601.9,174.1 L 1609.7,189.4 L 1595.9,167.7 L 1621.5,198.5 L 1608.9,189.1 L 1607.8,190.3 L 1595.7,203.3 L 1580.8,224.2 L 1555.5,199.7 L 1572.7,215.0 L 1544.7,234.7 L 1536.8,212.8 L 1531.9,234.5 L 1512.6,209.7 L 1483.3,208.9 L 1463.5,235.6 L 1460.5,206.5 L 1457.3,214.2 L 1420.2,223.9 L 1435.5,221.5 L 1401.9,200.2 L 1404.6,211.8 L 1401.9,183.2 Z" fill="none" stroke="none" />
  <circle r="10.5" fill="url(#fireflyGlow_0)">
    <animateMotion path="M 541.0,521.7 L 530.4,503.5 L 601.3,499.8 L 583.8,501.6 L 581.2,502.4 L 596.6,521.1 L 650.3,477.9 L 661.3,517.0 L 654.2,481.7 L 714.9,481.7 L 697.3,517.7 L 732.1,495.2 L 733.3,550.3 L 753.2,550.9 L 713.0,549.6 L 780.4,544.6 L 721.7,568.2 L 738.4,571.1 L 721.0,601.8 L 746.8,590.3 L 715.8,608.7 L 725.9,623.6 L 751.0,623.5 L 746.1,650.2 L 734.9,633.9 L 727.7,685.5 L 694.8,696.8 L 684.0,717.3 L 688.5,681.4 L 654.4,705.1 L 637.5,694.9 L 585.5,710.2 L 586.8,709.2 L 565.5,651.2 L 567.9,658.9 L 540.3,654.1 L 562.3,627.6 L 508.2,661.3 L 536.3,622.6 L 503.9,657.3 L 482.1,640.3 L 525.1,579.6 L 516.8,566.2 L 506.6,587.6 L 469.1,541.5 L 530.4,586.9 L 514.2,543.9 L 511.9,525.4 L 550.1,549.3 L 576.2,525.1 Z" dur="403.09s" repeatCount="indefinite">
      <mpath xlink:href="#path_13" />
    </animateMotion>
    <animate attributeName="opacity" values="0.3;1;0.5;1;0.4;1;0.7;0.3" dur="6.1s" repeatCount="indefinite" />
  </circle>
  <path id="path_13" d="M 541.0,521.7 L 530.4,503.5 L 601.3,499.8 L 583.8,501.6 L 581.2,502.4 L 596.6,521.1 L 650.3,477.9 L 661.3,517.0 L 654.2,481.7 L 714.9,481.7 L 697.3,517.7 L 732.1,495.2 L 733.3,550.3 L 753.2,550.9 L 713.0,549.6 L 780.4,544.6 L 721.7,568.2 L 738.4,571.1 L 721.0,601.8 L 746.8,590.3 L 715.8,608.7 L 725.9,623.6 L 751.0,623.5 L 746.1,650.2 L 734.9,633.9 L 727.7,685.5 L 694.8,696.8 L 684.0,717.3 L 688.5,681.4 L 654.4,705.1 L 637.5,694.9 L 585.5,710.2 L 586.8,709.2 L 565.5,651.2 L 567.9,658.9 L 540.3,654.1 L 562.3,627.6 L 508.2,661.3 L 536.3,622.6 L 503.9,657.3 L 482.1,640.3 L 525.1,579.6 L 516.8,566.2 L 506.6,587.6 L 469.1,541.5 L 530.4,586.9 L 514.2,543.9 L 511.9,525.4 L 550.1,549.3 L 576.2,525.1 Z" fill="none" stroke="none" />
  <circle r="10.3" fill="url(#fireflyGlow_1)">
    <animateMotion path="M 777.2,917.2 L 752.7,936.8 L 744.6,923.1 L 742.3,926.9 L 761.3,897.3 L 751.0,913.3 L 741.6,881.2 L 719.6,901.0 L 736.5,892.4 L 721.9,869.0 L 723.5,872.7 L 739.9,853.6 L 704.0,862.1 L 746.3,826.4 L 734.8,840.0 L 762.4,842.6 L 731.7,838.1 L 750.5,802.2 L 762.2,818.6 L 769.8,787.9 L 803.1,802.6 L 803.9,791.6 L 794.0,806.1 L 813.6,786.0 L 836.0,812.0 L 851.6,819.1 L 863.6,787.5 L 888.0,832.3 L 869.0,839.6 L 877.0,806.9 L 907.3,837.9 L 876.2,821.3 L 907.6,847.6 L 908.4,866.5 L 888.4,875.1 L 893.5,878.3 L 905.9,873.0 L 887.4,864.7 L 885.4,870.3 L 901.9,900.0 L 852.5,921.8 L 847.5,929.4 L 854.3,892.9 L 869.9,913.7 L 847.3,915.3 L 822.7,940.9 L 815.5,903.6 L 781.7,902.2 L 794.0,923.4 L 768.3,914.8 Z" dur="364.32s" repeatCount="indefinite">
      <mpath xlink:href="#path_14" />
    </animateMotion>
    <animate attributeName="opacity" values="0.3;1;0.5;1;0.4;1;0.7;0.3" dur="5.2s" repeatCount="indefinite" />
  </circle>
  <path id="path_14" d="M 777.2,917.2 L 752.7,936.8 L 744.6,923.1 L 742.3,926.9 L 761.3,897.3 L 751.0,913.3 L 741.6,881.2 L 719.6,901.0 L 736.5,892.4 L 721.9,869.0 L 723.5,872.7 L 739.9,853.6 L 704.0,862.1 L 746.3,826.4 L 734.8,840.0 L 762.4,842.6 L 731.7,838.1 L 750.5,802.2 L 762.2,818.6 L 769.8,787.9 L 803.1,802.6 L 803.9,791.6 L 794.0,806.1 L 813.6,786.0 L 836.0,812.0 L 851.6,819.1 L 863.6,787.5 L 888.0,832.3 L 869.0,839.6 L 877.0,806.9 L 907.3,837.9 L 876.2,821.3 L 907.6,847.6 L 908.4,866.5 L 888.4,875.1 L 893.5,878.3 L 905.9,873.0 L 887.4,864.7 L 885.4,870.3 L 901.9,900.0 L 852.5,921.8 L 847.5,929.4 L 854.3,892.9 L 869.9,913.7 L 847.3,915.3 L 822.7,940.9 L 815.5,903.6 L 781.7,902.2 L 794.0,923.4 L 768.3,914.8 Z" fill="none" stroke="none" />
  <circle r="5.9" fill="url(#fireflyGlow_1)">
    <animateMotion path="M 374.4,978.9 L 370.7,989.4 L 362.6,973.7 L 339.7,983.0 L 343.8,963.7 L 357.1,971.5 L 353.1,947.8 L 326.5,956.7 L 337.3,944.5 L 346.4,956.3 L 336.8,942.4 L 335.3,919.2 L 336.0,931.2 L 341.9,906.0 L 348.2,906.2 L 348.4,924.1 L 371.6,892.8 L 362.5,918.9 L 370.4,895.1 L 380.6,890.8 L 413.3,904.3 L 394.5,892.9 L 416.2,911.7 L 418.6,911.7 L 436.6,908.9 L 452.7,892.8 L 465.6,893.3 L 468.2,898.2 L 461.6,923.9 L 460.2,925.0 L 488.4,934.9 L 465.1,934.0 L 473.7,922.1 L 481.4,933.3 L 468.3,936.3 L 479.5,966.9 L 472.6,949.1 L 476.9,963.3 L 472.8,957.5 L 459.0,978.3 L 443.1,980.3 L 443.0,974.8 L 440.2,990.0 L 436.1,967.4 L 418.4,976.4 L 416.4,978.9 L 412.7,996.1 L 389.0,975.1 L 390.0,989.2 L 368.2,968.0 Z" dur="394.75s" repeatCount="indefinite">
      <mpath xlink:href="#path_15" />
    </animateMotion>
    <animate attributeName="opacity" values="0.3;1;0.5;1;0.4;1;0.7;0.3" dur="5.2s" repeatCount="indefinite" />
  </circle>
  <path id="path_15" d="M 374.4,978.9 L 370.7,989.4 L 362.6,973.7 L 339.7,983.0 L 343.8,963.7 L 357.1,971.5 L 353.1,947.8 L 326.5,956.7 L 337.3,944.5 L 346.4,956.3 L 336.8,942.4 L 335.3,919.2 L 336.0,931.2 L 341.9,906.0 L 348.2,906.2 L 348.4,924.1 L 371.6,892.8 L 362.5,918.9 L 370.4,895.1 L 380.6,890.8 L 413.3,904.3 L 394.5,892.9 L 416.2,911.7 L 418.6,911.7 L 436.6,908.9 L 452.7,892.8 L 465.6,893.3 L 468.2,898.2 L 461.6,923.9 L 460.2,925.0 L 488.4,934.9 L 465.1,934.0 L 473.7,922.1 L 481.4,933.3 L 468.3,936.3 L 479.5,966.9 L 472.6,949.1 L 476.9,963.3 L 472.8,957.5 L 459.0,978.3 L 443.1,980.3 L 443.0,974.8 L 440.2,990.0 L 436.1,967.4 L 418.4,976.4 L 416.4,978.9 L 412.7,996.1 L 389.0,975.1 L 390.0,989.2 L 368.2,968.0 Z" fill="none" stroke="none" />
  <circle r="5.2" fill="url(#fireflyGlow_0)">
    <animateMotion path="M 1676.0,780.3 L 1683.0,751.8 L 1741.7,710.3 L 1739.2,740.7 L 1673.3,718.6 L 1696.1,646.0 L 1673.7,651.7 L 1699.4,636.9 L 1688.6,674.4 L 1588.2,558.0 L 1618.6,549.5 L 1535.1,635.0 L 1575.3,534.1 L 1544.7,576.6 L 1530.1,547.2 L 1433.8,550.2 L 1458.5,587.3 L 1393.2,534.1 L 1436.3,599.2 L 1362.9,554.6 L 1329.4,630.2 L 1348.0,652.4 L 1302.1,619.0 L 1250.6,608.0 L 1288.5,655.4 L 1301.0,695.4 L 1329.7,675.4 L 1240.3,764.0 L 1328.0,733.1 L 1321.3,805.4 L 1290.9,766.7 L 1288.1,773.8 L 1336.3,799.8 L 1326.6,887.9 L 1352.2,855.6 L 1351.9,893.5 L 1393.9,913.5 L 1447.5,923.9 L 1467.9,872.6 L 1429.2,957.8 L 1486.8,931.2 L 1494.0,944.2 L 1535.4,906.7 L 1567.7,847.0 L 1634.1,913.6 L 1607.6,844.2 L 1601.9,849.9 L 1619.8,860.1 L 1696.6,784.4 L 1702.0,829.1 Z" dur="372.98s" repeatCount="indefinite">
      <mpath xlink:href="#path_16" />
    </animateMotion>
    <animate attributeName="opacity" values="0.3;1;0.5;1;0.4;1;0.7;0.3" dur="6.1s" repeatCount="indefinite" />
  </circle>
  <path id="path_16" d="M 1676.0,780.3 L 1683.0,751.8 L 1741.7,710.3 L 1739.2,740.7 L 1673.3,718.6 L 1696.1,646.0 L 1673.7,651.7 L 1699.4,636.9 L 1688.6,674.4 L 1588.2,558.0 L 1618.6,549.5 L 1535.1,635.0 L 1575.3,534.1 L 1544.7,576.6 L 1530.1,547.2 L 1433.8,550.2 L 1458.5,587.3 L 1393.2,534.1 L 1436.3,599.2 L 1362.9,554.6 L 1329.4,630.2 L 1348.0,652.4 L 1302.1,619.0 L 1250.6,608.0 L 1288.5,655.4 L 1301.0,695.4 L 1329.7,675.4 L 1240.3,764.0 L 1328.0,733.1 L 1321.3,805.4 L 1290.9,766.7 L 1288.1,773.8 L 1336.3,799.8 L 1326.6,887.9 L 1352.2,855.6 L 1351.9,893.5 L 1393.9,913.5 L 1447.5,923.9 L 1467.9,872.6 L 1429.2,957.8 L 1486.8,931.2 L 1494.0,944.2 L 1535.4,906.7 L 1567.7,847.0 L 1634.1,913.6 L 1607.6,844.2 L 1601.9,849.9 L 1619.8,860.1 L 1696.6,784.4 L 1702.0,829.1 Z" fill="none" stroke="none" />
  <circle r="11.3" fill="url(#fireflyGlow_0)">
    <animateMotion path="M 651.4,578.6 L 652.3,535.0 L 638.5,547.9 L 613.8,512.2 L 604.0,555.9 L 536.2,509.9 L 578.1,518.3 L 508.0,532.5 L 549.1,500.1 L 509.1,525.9 L 470.5,536.6 L 475.3,596.4 L 451.4,592.4 L 419.1,620.7 L 386.9,598.2 L 410.6,648.2 L 389.7,668.1 L 396.4,675.7 L 389.1,722.9 L 410.2,744.4 L 413.0,754.4 L 437.3,789.6 L 443.8,814.9 L 425.5,827.7 L 424.8,833.4 L 424.3,858.0 L 494.9,874.4 L 503.2,870.0 L 512.6,895.0 L 530.4,911.9 L 566.4,873.9 L 568.5,885.0 L 547.1,862.7 L 595.1,901.3 L 588.4,873.2 L 644.9,895.7 L 658.2,857.3 L 631.0,804.7 L 656.9,798.7 L 696.0,814.9 L 685.6,808.0 L 710.2,723.8 L 692.8,709.6 L 717.5,681.8 L 699.1,694.6 L 702.8,679.6 L 653.4,655.8 L 667.3,587.8 L 649.2,607.5 L 652.6,565.0 Z" dur="317.9s" repeatCount="indefinite">
      <mpath xlink:href="#path_17" />
    </animateMotion>
    <animate attributeName="opacity" values="0.3;1;0.5;1;0.4;1;0.7;0.3" dur="4.2s" repeatCount="indefinite" />
  </circle>
  <path id="path_17" d="M 651.4,578.6 L 652.3,535.0 L 638.5,547.9 L 613.8,512.2 L 604.0,555.9 L 536.2,509.9 L 578.1,518.3 L 508.0,532.5 L 549.1,500.1 L 509.1,525.9 L 470.5,536.6 L 475.3,596.4 L 451.4,592.4 L 419.1,620.7 L 386.9,598.2 L 410.6,648.2 L 389.7,668.1 L 396.4,675.7 L 389.1,722.9 L 410.2,744.4 L 413.0,754.4 L 437.3,789.6 L 443.8,814.9 L 425.5,827.7 L 424.8,833.4 L 424.3,858.0 L 494.9,874.4 L 503.2,870.0 L 512.6,895.0 L 530.4,911.9 L 566.4,873.9 L 568.5,885.0 L 547.1,862.7 L 595.1,901.3 L 588.4,873.2 L 644.9,895.7 L 658.2,857.3 L 631.0,804.7 L 656.9,798.7 L 696.0,814.9 L 685.6,808.0 L 710.2,723.8 L 692.8,709.6 L 717.5,681.8 L 699.1,694.6 L 702.8,679.6 L 653.4,655.8 L 667.3,587.8 L 649.2,607.5 L 652.6,565.0 Z" fill="none" stroke="none" />
  <circle r="9.0" fill="url(#fireflyGlow_0)">
    <animateMotion path="M 427.8,598.8 L 411.2,619.8 L 420.9,617.0 L 416.0,633.8 L 410.2,638.7 L 390.8,612.0 L 371.6,623.5 L 346.6,632.7 L 355.6,644.1 L 329.6,623.1 L 331.7,638.0 L 318.3,636.8 L 304.3,644.8 L 300.0,632.8 L 255.4,633.8 L 268.2,604.1 L 258.5,603.2 L 242.1,614.7 L 251.9,587.4 L 233.7,610.8 L 224.6,596.4 L 231.1,598.2 L 238.4,572.4 L 240.9,574.0 L 238.5,545.4 L 242.1,552.8 L 254.6,553.3 L 260.6,544.2 L 257.6,524.6 L 280.1,522.7 L 289.6,529.2 L 284.8,526.2 L 305.0,517.4 L 320.6,533.5 L 339.9,536.9 L 364.0,533.8 L 359.3,534.6 L 372.8,543.7 L 390.9,547.8 L 410.3,543.8 L 397.2,528.0 L 423.0,560.2 L 414.3,543.2 L 424.9,554.7 L 447.9,565.9 L 428.7,561.5 L 423.8,573.4 L 446.5,589.7 L 444.4,604.2 L 439.9,602.2 Z" dur="400.7s" repeatCount="indefinite">
      <mpath xlink:href="#path_18" />
    </animateMotion>
    <animate attributeName="opacity" values="0.3;1;0.5;1;0.4;1;0.7;0.3" dur="5.2s" repeatCount="indefinite" />
  </circle>
  <path id="path_18" d="M 427.8,598.8 L 411.2,619.8 L 420.9,617.0 L 416.0,633.8 L 410.2,638.7 L 390.8,612.0 L 371.6,623.5 L 346.6,632.7 L 355.6,644.1 L 329.6,623.1 L 331.7,638.0 L 318.3,636.8 L 304.3,644.8 L 300.0,632.8 L 255.4,633.8 L 268.2,604.1 L 258.5,603.2 L 242.1,614.7 L 251.9,587.4 L 233.7,610.8 L 224.6,596.4 L 231.1,598.2 L 238.4,572.4 L 240.9,574.0 L 238.5,545.4 L 242.1,552.8 L 254.6,553.3 L 260.6,544.2 L 257.6,524.6 L 280.1,522.7 L 289.6,529.2 L 284.8,526.2 L 305.0,517.4 L 320.6,533.5 L 339.9,536.9 L 364.0,533.8 L 359.3,534.6 L 372.8,543.7 L 390.9,547.8 L 410.3,543.8 L 397.2,528.0 L 423.0,560.2 L 414.3,543.2 L 424.9,554.7 L 447.9,565.9 L 428.7,561.5 L 423.8,573.4 L 446.5,589.7 L 444.4,604.2 L 439.9,602.2 Z" fill="none" stroke="none" />
  <circle r="10.1" fill="url(#fireflyGlow_0)">
    <animateMotion path="M 538.1,486.2 L 554.9,455.4 L 614.4,496.2 L 639.1,491.4 L 660.8,499.2 L 718.0,461.8 L 713.6,430.8 L 751.8,450.5 L 744.9,462.4 L 731.4,429.6 L 762.5,425.7 L 773.8,408.5 L 741.2,372.0 L 757.1,386.4 L 741.7,371.9 L 716.9,323.9 L 750.4,301.7 L 697.6,331.1 L 696.8,297.3 L 670.0,320.2 L 626.2,310.0 L 596.6,287.3 L 567.4,255.8 L 503.4,262.5 L 479.4,287.2 L 479.4,276.8 L 436.0,306.8 L 411.8,277.1 L 350.3,339.1 L 362.4,293.4 L 332.7,329.5 L 276.5,324.4 L 316.2,374.8 L 248.4,316.9 L 263.9,359.7 L 221.1,400.2 L 245.1,426.5 L 259.3,382.5 L 228.7,430.8 L 273.5,445.1 L 300.5,458.1 L 329.6,482.9 L 323.6,456.7 L 372.0,446.7 L 374.5,487.3 L 381.7,501.9 L 457.8,467.9 L 493.3,493.1 L 537.1,490.5 L 563.1,466.5 Z" dur="354.56s" repeatCount="indefinite">
      <mpath xlink:href="#path_19" />
    </animateMotion>
    <animate attributeName="opacity" values="0.3;1;0.5;1;0.4;1;0.7;0.3" dur="4.4s" repeatCount="indefinite" />
  </circle>
  <path id="path_19" d="M 538.1,486.2 L 554.9,455.4 L 614.4,496.2 L 639.1,491.4 L 660.8,499.2 L 718.0,461.8 L 713.6,430.8 L 751.8,450.5 L 744.9,462.4 L 731.4,429.6 L 762.5,425.7 L 773.8,408.5 L 741.2,372.0 L 757.1,386.4 L 741.7,371.9 L 716.9,323.9 L 750.4,301.7 L 697.6,331.1 L 696.8,297.3 L 670.0,320.2 L 626.2,310.0 L 596.6,287.3 L 567.4,255.8 L 503.4,262.5 L 479.4,287.2 L 479.4,276.8 L 436.0,306.8 L 411.8,277.1 L 350.3,339.1 L 362.4,293.4 L 332.7,329.5 L 276.5,324.4 L 316.2,374.8 L 248.4,316.9 L 263.9,359.7 L 221.1,400.2 L 245.1,426.5 L 259.3,382.5 L 228.7,430.8 L 273.5,445.1 L 300.5,458.1 L 329.6,482.9 L 323.6,456.7 L 372.0,446.7 L 374.5,487.3 L 381.7,501.9 L 457.8,467.9 L 493.3,493.1 L 537.1,490.5 L 563.1,466.5 Z" fill="none" stroke="none" />
  <circle r="8.8" fill="url(#fireflyGlow_0)">
    <animateMotion path="M 696.5,587.1 L 743.0,598.7 L 737.3,570.9 L 762.0,574.2 L 722.4,577.7 L 734.1,557.2 L 764.3,572.2 L 754.5,546.9 L 732.5,515.8 L 732.9,534.8 L 755.5,500.8 L 714.3,519.7 L 701.7,480.0 L 671.7,495.4 L 699.6,504.1 L 683.8,466.3 L 606.4,487.0 L 588.6,500.7 L 582.3,501.7 L 586.0,480.6 L 540.8,506.9 L 558.0,475.8 L 502.6,476.6 L 503.2,477.2 L 471.7,480.8 L 457.6,530.8 L 442.4,537.6 L 411.4,500.3 L 450.0,535.8 L 436.9,504.7 L 437.7,544.8 L 387.9,534.8 L 432.8,544.1 L 393.6,539.1 L 431.5,568.6 L 413.5,600.2 L 447.8,599.6 L 484.3,560.8 L 463.0,571.0 L 483.6,613.0 L 535.8,577.4 L 565.0,594.8 L 558.1,600.1 L 557.6,630.4 L 588.7,601.7 L 596.4,631.9 L 642.4,618.0 L 682.7,627.8 L 683.7,593.2 L 703.9,594.0 Z" dur="359.96s" repeatCount="indefinite">
      <mpath xlink:href="#path_20" />
    </animateMotion>
    <animate attributeName="opacity" values="0.3;1;0.5;1;0.4;1;0.7;0.3" dur="4.9s" repeatCount="indefinite" />
  </circle>
  <path id="path_20" d="M 696.5,587.1 L 743.0,598.7 L 737.3,570.9 L 762.0,574.2 L 722.4,577.7 L 734.1,557.2 L 764.3,572.2 L 754.5,546.9 L 732.5,515.8 L 732.9,534.8 L 755.5,500.8 L 714.3,519.7 L 701.7,480.0 L 671.7,495.4 L 699.6,504.1 L 683.8,466.3 L 606.4,487.0 L 588.6,500.7 L 582.3,501.7 L 586.0,480.6 L 540.8,506.9 L 558.0,475.8 L 502.6,476.6 L 503.2,477.2 L 471.7,480.8 L 457.6,530.8 L 442.4,537.6 L 411.4,500.3 L 450.0,535.8 L 436.9,504.7 L 437.7,544.8 L 387.9,534.8 L 432.8,544.1 L 393.6,539.1 L 431.5,568.6 L 413.5,600.2 L 447.8,599.6 L 484.3,560.8 L 463.0,571.0 L 483.6,613.0 L 535.8,577.4 L 565.0,594.8 L 558.1,600.1 L 557.6,630.4 L 588.7,601.7 L 596.4,631.9 L 642.4,618.0 L 682.7,627.8 L 683.7,593.2 L 703.9,594.0 Z" fill="none" stroke="none" />
  <circle r="8.7" fill="url(#fireflyGlow_0)">
    <animateMotion path="M 515.3,737.8 L 476.5,752.5 L 488.6,784.1 L 432.0,713.4 L 424.7,785.3 L 302.4,747.9 L 274.6,748.2 L 286.7,696.3 L 283.7,760.4 L 206.2,768.7 L 223.8,666.1 L 144.9,662.4 L 184.7,700.3 L 141.8,697.5 L 180.8,637.6 L 93.0,680.0 L 94.6,637.6 L 152.7,623.7 L 194.0,636.9 L 179.6,638.8 L 183.5,567.3 L 217.0,548.9 L 247.2,564.0 L 248.3,591.5 L 332.1,525.4 L 319.0,504.5 L 371.4,566.6 L 357.8,515.0 L 450.4,480.5 L 497.3,540.0 L 479.9,564.1 L 555.6,522.8 L 597.5,536.0 L 553.2,559.4 L 642.9,558.1 L 618.3,589.6 L 604.9,542.6 L 715.7,634.2 L 717.5,586.7 L 713.0,651.0 L 680.3,641.0 L 709.3,633.3 L 667.9,628.8 L 636.1,667.4 L 668.7,674.8 L 642.9,663.9 L 618.6,754.8 L 572.5,759.8 L 518.6,715.7 L 510.2,733.7 Z" dur="408.79s" repeatCount="indefinite">
      <mpath xlink:href="#path_21" />
    </animateMotion>
    <animate attributeName="opacity" values="0.3;1;0.5;1;0.4;1;0.7;0.3" dur="6.0s" repeatCount="indefinite" />
  </circle>
  <path id="path_21" d="M 515.3,737.8 L 476.5,752.5 L 488.6,784.1 L 432.0,713.4 L 424.7,785.3 L 302.4,747.9 L 274.6,748.2 L 286.7,696.3 L 283.7,760.4 L 206.2,768.7 L 223.8,666.1 L 144.9,662.4 L 184.7,700.3 L 141.8,697.5 L 180.8,637.6 L 93.0,680.0 L 94.6,637.6 L 152.7,623.7 L 194.0,636.9 L 179.6,638.8 L 183.5,567.3 L 217.0,548.9 L 247.2,564.0 L 248.3,591.5 L 332.1,525.4 L 319.0,504.5 L 371.4,566.6 L 357.8,515.0 L 450.4,480.5 L 497.3,540.0 L 479.9,564.1 L 555.6,522.8 L 597.5,536.0 L 553.2,559.4 L 642.9,558.1 L 618.3,589.6 L 604.9,542.6 L 715.7,634.2 L 717.5,586.7 L 713.0,651.0 L 680.3,641.0 L 709.3,633.3 L 667.9,628.8 L 636.1,667.4 L 668.7,674.8 L 642.9,663.9 L 618.6,754.8 L 572.5,759.8 L 518.6,715.7 L 510.2,733.7 Z" fill="none" stroke="none" />
  <circle r="8.5" fill="url(#fireflyGlow_0)">
    <animateMotion path="M 1674.7,751.2 L 1675.0,727.7 L 1728.8,708.8 L 1724.5,729.4 L 1690.5,705.5 L 1748.1,663.8 L 1746.3,670.4 L 1727.8,634.7 L 1730.5,671.0 L 1726.9,608.0 L 1717.6,622.6 L 1719.6,623.7 L 1696.9,557.0 L 1692.6,578.1 L 1638.2,535.5 L 1631.9,567.7 L 1653.6,559.1 L 1585.9,570.8 L 1590.0,560.8 L 1583.2,530.6 L 1585.2,537.7 L 1519.5,553.2 L 1529.6,541.5 L 1529.4,570.3 L 1523.6,561.1 L 1482.1,562.1 L 1444.5,620.7 L 1488.4,617.5 L 1439.8,630.9 L 1452.6,636.8 L 1433.9,665.7 L 1420.5,669.5 L 1458.5,662.5 L 1426.2,725.5 L 1473.3,685.8 L 1466.9,736.4 L 1447.7,754.2 L 1483.4,747.8 L 1489.7,747.2 L 1497.5,762.3 L 1510.5,800.0 L 1516.1,758.1 L 1549.9,809.9 L 1577.2,806.2 L 1602.4,786.8 L 1607.7,754.0 L 1642.2,808.3 L 1667.9,757.5 L 1649.9,767.8 L 1681.5,762.6 Z" dur="331.92s" repeatCount="indefinite">
      <mpath xlink:href="#path_22" />
    </animateMotion>
    <animate attributeName="opacity" values="0.3;1;0.5;1;0.4;1;0.7;0.3" dur="5.3s" repeatCount="indefinite" />
  </circle>
  <path id="path_22" d="M 1674.7,751.2 L 1675.0,727.7 L 1728.8,708.8 L 1724.5,729.4 L 1690.5,705.5 L 1748.1,663.8 L 1746.3,670.4 L 1727.8,634.7 L 1730.5,671.0 L 1726.9,608.0 L 1717.6,622.6 L 1719.6,623.7 L 1696.9,557.0 L 1692.6,578.1 L 1638.2,535.5 L 1631.9,567.7 L 1653.6,559.1 L 1585.9,570.8 L 1590.0,560.8 L 1583.2,530.6 L 1585.2,537.7 L 1519.5,553.2 L 1529.6,541.5 L 1529.4,570.3 L 1523.6,561.1 L 1482.1,562.1 L 1444.5,620.7 L 1488.4,617.5 L 1439.8,630.9 L 1452.6,636.8 L 1433.9,665.7 L 1420.5,669.5 L 1458.5,662.5 L 1426.2,725.5 L 1473.3,685.8 L 1466.9,736.4 L 1447.7,754.2 L 1483.4,747.8 L 1489.7,747.2 L 1497.5,762.3 L 1510.5,800.0 L 1516.1,758.1 L 1549.9,809.9 L 1577.2,806.2 L 1602.4,786.8 L 1607.7,754.0 L 1642.2,808.3 L 1667.9,757.5 L 1649.9,767.8 L 1681.5,762.6 Z" fill="none" stroke="none" />
  <circle r="11.2" fill="url(#fireflyGlow_0)">
    <animateMotion path="M 1022.4,262.4 L 1064.0,251.3 L 1044.6,279.1 L 1089.5,272.6 L 1101.3,297.9 L 1128.3,276.2 L 1129.6,292.4 L 1140.8,298.8 L 1111.5,279.7 L 1163.7,292.4 L 1133.2,309.2 L 1153.1,317.6 L 1170.3,315.7 L 1119.2,340.6 L 1136.7,350.5 L 1107.9,345.6 L 1108.0,380.6 L 1128.4,379.8 L 1109.3,380.8 L 1060.3,360.0 L 1083.9,374.6 L 1064.3,410.9 L 1053.8,383.0 L 1004.3,386.3 L 978.7,373.6 L 982.3,389.7 L 951.0,387.5 L 935.8,391.3 L 928.4,382.5 L 933.7,376.7 L 892.3,351.4 L 882.0,346.1 L 900.5,350.1 L 881.4,352.9 L 857.8,351.3 L 870.1,336.5 L 871.8,305.8 L 847.8,307.4 L 866.9,291.8 L 857.7,308.0 L 879.4,274.2 L 902.3,268.8 L 902.2,282.2 L 899.1,265.5 L 939.1,284.6 L 938.7,283.4 L 979.7,242.0 L 1010.6,278.5 L 1025.9,281.9 L 1012.8,281.5 Z" dur="317.65s" repeatCount="indefinite">
      <mpath xlink:href="#path_23" />
    </animateMotion>
    <animate attributeName="opacity" values="0.3;1;0.5;1;0.4;1;0.7;0.3" dur="5.0s" repeatCount="indefinite" />
  </circle>
  <path id="path_23" d="M 1022.4,262.4 L 1064.0,251.3 L 1044.6,279.1 L 1089.5,272.6 L 1101.3,297.9 L 1128.3,276.2 L 1129.6,292.4 L 1140.8,298.8 L 1111.5,279.7 L 1163.7,292.4 L 1133.2,309.2 L 1153.1,317.6 L 1170.3,315.7 L 1119.2,340.6 L 1136.7,350.5 L 1107.9,345.6 L 1108.0,380.6 L 1128.4,379.8 L 1109.3,380.8 L 1060.3,360.0 L 1083.9,374.6 L 1064.3,410.9 L 1053.8,383.0 L 1004.3,386.3 L 978.7,373.6 L 982.3,389.7 L 951.0,387.5 L 935.8,391.3 L 928.4,382.5 L 933.7,376.7 L 892.3,351.4 L 882.0,346.1 L 900.5,350.1 L 881.4,352.9 L 857.8,351.3 L 870.1,336.5 L 871.8,305.8 L 847.8,307.4 L 866.9,291.8 L 857.7,308.0 L 879.4,274.2 L 902.3,268.8 L 902.2,282.2 L 899.1,265.5 L 939.1,284.6 L 938.7,283.4 L 979.7,242.0 L 1010.6,278.5 L 1025.9,281.9 L 1012.8,281.5 Z" fill="none" stroke="none" />
  <circle r="8.1" fill="url(#fireflyGlow_0)">
    <animateMotion path="M 689.1,216.7 L 691.0,227.5 L 674.4,199.4 L 656.8,220.5 L 647.7,181.6 L 630.2,206.9 L 593.4,208.4 L 569.9,181.9 L 570.9,173.4 L 528.5,193.7 L 524.0,187.1 L 528.3,177.2 L 479.2,197.9 L 484.2,187.9 L 467.2,228.1 L 447.5,219.4 L 460.9,222.6 L 443.2,223.3 L 429.5,238.4 L 431.8,254.0 L 422.5,251.0 L 405.8,265.3 L 424.6,274.1 L 435.6,280.3 L 425.4,259.0 L 447.4,275.1 L 482.8,283.0 L 479.3,300.3 L 496.9,282.8 L 523.8,308.5 L 505.8,293.1 L 550.6,293.6 L 542.6,318.0 L 574.6,304.1 L 578.6,313.5 L 597.9,294.0 L 616.5,302.4 L 660.4,279.8 L 673.6,274.8 L 695.7,268.6 L 674.5,266.5 L 679.6,284.6 L 694.7,267.7 L 724.4,268.2 L 730.9,241.2 L 726.2,262.8 L 694.0,248.6 L 690.6,244.3 L 683.6,219.6 L 701.6,198.7 Z" dur="350.88s" repeatCount="indefinite">
      <mpath xlink:href="#path_24" />
    </animateMotion>
    <animate attributeName="opacity" values="0.3;1;0.5;1;0.4;1;0.7;0.3" dur="4.1s" repeatCount="indefinite" />
  </circle>
  <path id="path_24" d="M 689.1,216.7 L 691.0,227.5 L 674.4,199.4 L 656.8,220.5 L 647.7,181.6 L 630.2,206.9 L 593.4,208.4 L 569.9,181.9 L 570.9,173.4 L 528.5,193.7 L 524.0,187.1 L 528.3,177.2 L 479.2,197.9 L 484.2,187.9 L 467.2,228.1 L 447.5,219.4 L 460.9,222.6 L 443.2,223.3 L 429.5,238.4 L 431.8,254.0 L 422.5,251.0 L 405.8,265.3 L 424.6,274.1 L 435.6,280.3 L 425.4,259.0 L 447.4,275.1 L 482.8,283.0 L 479.3,300.3 L 496.9,282.8 L 523.8,308.5 L 505.8,293.1 L 550.6,293.6 L 542.6,318.0 L 574.6,304.1 L 578.6,313.5 L 597.9,294.0 L 616.5,302.4 L 660.4,279.8 L 673.6,274.8 L 695.7,268.6 L 674.5,266.5 L 679.6,284.6 L 694.7,267.7 L 724.4,268.2 L 730.9,241.2 L 726.2,262.8 L 694.0,248.6 L 690.6,244.3 L 683.6,219.6 L 701.6,198.7 Z" fill="none" stroke="none" />
  <circle r="9.2" fill="url(#fireflyGlow_0)">
    <animateMotion path="M 1314.9,178.7 L 1366.1,186.4 L 1349.1,110.0 L 1430.5,197.4 L 1478.1,177.0 L 1539.3,106.7 L 1533.1,117.3 L 1599.4,186.0 L 1516.3,181.5 L 1534.5,208.7 L 1672.6,218.6 L 1657.7,172.2 L 1705.4,191.6 L 1622.2,268.2 L 1688.9,288.8 L 1655.4,267.3 L 1649.7,321.7 L 1668.9,331.2 L 1673.1,350.8 L 1707.7,326.1 L 1702.6,392.1 L 1602.9,404.0 L 1636.8,479.8 L 1537.3,509.3 L 1618.8,506.6 L 1532.2,445.7 L 1530.0,494.1 L 1447.2,508.5 L 1448.6,524.5 L 1361.6,436.1 L 1327.9,423.8 L 1388.7,516.3 L 1330.6,469.5 L 1308.1,425.4 L 1264.5,472.7 L 1294.2,417.0 L 1260.8,426.9 L 1270.3,412.3 L 1204.2,312.1 L 1182.6,329.0 L 1226.0,323.3 L 1234.1,358.7 L 1161.3,294.2 L 1223.1,238.4 L 1231.1,319.4 L 1273.1,229.5 L 1197.6,279.6 L 1287.3,180.8 L 1268.0,134.4 L 1338.2,126.4 Z" dur="378.15s" repeatCount="indefinite">
      <mpath xlink:href="#path_25" />
    </animateMotion>
    <animate attributeName="opacity" values="0.3;1;0.5;1;0.4;1;0.7;0.3" dur="5.4s" repeatCount="indefinite" />
  </circle>
  <path id="path_25" d="M 1314.9,178.7 L 1366.1,186.4 L 1349.1,110.0 L 1430.5,197.4 L 1478.1,177.0 L 1539.3,106.7 L 1533.1,117.3 L 1599.4,186.0 L 1516.3,181.5 L 1534.5,208.7 L 1672.6,218.6 L 1657.7,172.2 L 1705.4,191.6 L 1622.2,268.2 L 1688.9,288.8 L 1655.4,267.3 L 1649.7,321.7 L 1668.9,331.2 L 1673.1,350.8 L 1707.7,326.1 L 1702.6,392.1 L 1602.9,404.0 L 1636.8,479.8 L 1537.3,509.3 L 1618.8,506.6 L 1532.2,445.7 L 1530.0,494.1 L 1447.2,508.5 L 1448.6,524.5 L 1361.6,436.1 L 1327.9,423.8 L 1388.7,516.3 L 1330.6,469.5 L 1308.1,425.4 L 1264.5,472.7 L 1294.2,417.0 L 1260.8,426.9 L 1270.3,412.3 L 1204.2,312.1 L 1182.6,329.0 L 1226.0,323.3 L 1234.1,358.7 L 1161.3,294.2 L 1223.1,238.4 L 1231.1,319.4 L 1273.1,229.5 L 1197.6,279.6 L 1287.3,180.8 L 1268.0,134.4 L 1338.2,126.4 Z" fill="none" stroke="none" />
  <circle r="6.6" fill="url(#fireflyGlow_0)">
    <animateMotion path="M 892.5,925.8 L 891.2,926.3 L 887.4,923.6 L 882.4,925.8 L 878.8,891.1 L 873.2,889.4 L 857.3,909.3 L 841.1,893.6 L 821.9,906.7 L 814.5,879.3 L 812.3,885.2 L 824.8,883.8 L 820.2,881.3 L 799.6,898.8 L 788.2,920.5 L 771.0,898.0 L 775.1,899.0 L 781.8,932.8 L 772.6,924.9 L 761.9,948.2 L 758.9,951.1 L 756.0,942.9 L 773.0,946.7 L 750.0,959.0 L 746.2,966.6 L 774.6,965.0 L 771.9,987.9 L 771.4,992.2 L 794.8,993.2 L 775.2,990.9 L 813.9,1007.3 L 805.1,1021.5 L 803.3,1019.8 L 840.0,1023.1 L 832.9,989.9 L 860.9,1004.4 L 839.5,994.4 L 871.1,1004.9 L 869.9,980.5 L 864.5,987.5 L 881.5,981.8 L 883.7,975.8 L 889.4,990.9 L 887.7,971.7 L 903.8,962.6 L 905.9,943.7 L 912.2,936.3 L 904.7,938.8 L 901.4,920.1 L 879.5,923.4 Z" dur="385.95s" repeatCount="indefinite">
      <mpath xlink:href="#path_26" />
    </animateMotion>
    <animate attributeName="opacity" values="0.3;1;0.5;1;0.4;1;0.7;0.3" dur="6.8s" repeatCount="indefinite" />
  </circle>
  <path id="path_26" d="M 892.5,925.8 L 891.2,926.3 L 887.4,923.6 L 882.4,925.8 L 878.8,891.1 L 873.2,889.4 L 857.3,909.3 L 841.1,893.6 L 821.9,906.7 L 814.5,879.3 L 812.3,885.2 L 824.8,883.8 L 820.2,881.3 L 799.6,898.8 L 788.2,920.5 L 771.0,898.0 L 775.1,899.0 L 781.8,932.8 L 772.6,924.9 L 761.9,948.2 L 758.9,951.1 L 756.0,942.9 L 773.0,946.7 L 750.0,959.0 L 746.2,966.6 L 774.6,965.0 L 771.9,987.9 L 771.4,992.2 L 794.8,993.2 L 775.2,990.9 L 813.9,1007.3 L 805.1,1021.5 L 803.3,1019.8 L 840.0,1023.1 L 832.9,989.9 L 860.9,1004.4 L 839.5,994.4 L 871.1,1004.9 L 869.9,980.5 L 864.5,987.5 L 881.5,981.8 L 883.7,975.8 L 889.4,990.9 L 887.7,971.7 L 903.8,962.6 L 905.9,943.7 L 912.2,936.3 L 904.7,938.8 L 901.4,920.1 L 879.5,923.4 Z" fill="none" stroke="none" />
  <circle r="4.1" fill="url(#fireflyGlow_0)">
    <animateMotion path="M 492.5,775.6 L 504.1,762.5 L 519.2,769.4 L 555.3,815.8 L 569.2,783.9 L 608.2,763.0 L 618.8,764.0 L 650.4,796.2 L 651.0,811.7 L 651.4,742.6 L 649.7,782.9 L 691.5,775.4 L 711.8,779.6 L 687.4,739.4 L 731.7,752.3 L 724.6,699.6 L 722.4,719.9 L 685.5,707.5 L 694.1,715.9 L 670.8,666.5 L 695.8,701.8 L 714.0,652.9 L 662.6,645.6 L 648.7,626.0 L 672.6,677.3 L 606.2,668.4 L 623.5,612.5 L 566.4,612.2 L 606.6,627.4 L 571.7,644.6 L 515.6,610.8 L 547.5,673.4 L 523.8,629.6 L 495.5,669.3 L 455.1,691.6 L 450.0,654.9 L 438.8,659.7 L 429.7,681.3 L 406.5,675.1 L 432.7,690.0 L 394.8,685.9 L 433.7,697.3 L 450.3,704.1 L 448.5,740.3 L 408.0,711.4 L 411.8,756.0 L 449.9,742.9 L 478.5,745.7 L 480.5,805.6 L 484.0,792.0 Z" dur="341.16s" repeatCount="indefinite">
      <mpath xlink:href="#path_27" />
    </animateMotion>
    <animate attributeName="opacity" values="0.3;1;0.5;1;0.4;1;0.7;0.3" dur="6.8s" repeatCount="indefinite" />
  </circle>
  <path id="path_27" d="M 492.5,775.6 L 504.1,762.5 L 519.2,769.4 L 555.3,815.8 L 569.2,783.9 L 608.2,763.0 L 618.8,764.0 L 650.4,796.2 L 651.0,811.7 L 651.4,742.6 L 649.7,782.9 L 691.5,775.4 L 711.8,779.6 L 687.4,739.4 L 731.7,752.3 L 724.6,699.6 L 722.4,719.9 L 685.5,707.5 L 694.1,715.9 L 670.8,666.5 L 695.8,701.8 L 714.0,652.9 L 662.6,645.6 L 648.7,626.0 L 672.6,677.3 L 606.2,668.4 L 623.5,612.5 L 566.4,612.2 L 606.6,627.4 L 571.7,644.6 L 515.6,610.8 L 547.5,673.4 L 523.8,629.6 L 495.5,669.3 L 455.1,691.6 L 450.0,654.9 L 438.8,659.7 L 429.7,681.3 L 406.5,675.1 L 432.7,690.0 L 394.8,685.9 L 433.7,697.3 L 450.3,704.1 L 448.5,740.3 L 408.0,711.4 L 411.8,756.0 L 449.9,742.9 L 478.5,745.7 L 480.5,805.6 L 484.0,792.0 Z" fill="none" stroke="none" />
  <circle r="4.4" fill="url(#fireflyGlow_0)">
    <animateMotion path="M 282.1,300.9 L 269.1,291.4 L 294.0,285.2 L 269.0,279.1 L 285.6,291.4 L 263.6,291.5 L 255.8,269.9 L 235.8,270.3 L 233.2,282.8 L 239.3,261.3 L 210.5,270.7 L 192.4,263.4 L 194.5,268.3 L 182.9,275.7 L 175.3,265.1 L 169.3,252.4 L 157.8,286.0 L 137.8,256.8 L 120.2,258.8 L 123.7,282.7 L 110.3,292.4 L 105.2,291.0 L 91.4,277.7 L 79.9,310.5 L 85.0,311.7 L 87.8,294.4 L 83.7,302.6 L 109.2,322.9 L 111.7,324.1 L 97.3,326.3 L 111.7,308.5 L 122.7,336.6 L 144.1,339.6 L 126.8,317.6 L 165.1,328.3 L 158.8,333.5 L 173.2,321.1 L 192.6,328.7 L 203.8,343.4 L 213.3,333.8 L 240.5,330.9 L 229.8,318.9 L 234.2,316.0 L 265.2,312.8 L 247.8,339.1 L 255.7,325.8 L 287.2,303.8 L 280.8,298.3 L 279.3,296.4 L 282.7,291.9 Z" dur="383.65s" repeatCount="indefinite">
      <mpath xlink:href="#path_28" />
    </animateMotion>
    <animate attributeName="opacity" values="0.3;1;0.5;1;0.4;1;0.7;0.3" dur="4.9s" repeatCount="indefinite" />
  </circle>
  <path id="path_28" d="M 282.1,300.9 L 269.1,291.4 L 294.0,285.2 L 269.0,279.1 L 285.6,291.4 L 263.6,291.5 L 255.8,269.9 L 235.8,270.3 L 233.2,282.8 L 239.3,261.3 L 210.5,270.7 L 192.4,263.4 L 194.5,268.3 L 182.9,275.7 L 175.3,265.1 L 169.3,252.4 L 157.8,286.0 L 137.8,256.8 L 120.2,258.8 L 123.7,282.7 L 110.3,292.4 L 105.2,291.0 L 91.4,277.7 L 79.9,310.5 L 85.0,311.7 L 87.8,294.4 L 83.7,302.6 L 109.2,322.9 L 111.7,324.1 L 97.3,326.3 L 111.7,308.5 L 122.7,336.6 L 144.1,339.6 L 126.8,317.6 L 165.1,328.3 L 158.8,333.5 L 173.2,321.1 L 192.6,328.7 L 203.8,343.4 L 213.3,333.8 L 240.5,330.9 L 229.8,318.9 L 234.2,316.0 L 265.2,312.8 L 247.8,339.1 L 255.7,325.8 L 287.2,303.8 L 280.8,298.3 L 279.3,296.4 L 282.7,291.9 Z" fill="none" stroke="none" />
  <circle r="6.1" fill="url(#fireflyGlow_1)">
    <animateMotion path="M 385.4,982.8 L 385.0,985.4 L 395.2,983.1 L 397.0,976.9 L 413.8,962.0 L 397.8,945.0 L 403.5,947.0 L 402.5,929.3 L 415.2,945.6 L 402.8,937.0 L 405.1,923.0 L 404.6,906.3 L 395.4,907.8 L 378.8,892.5 L 393.0,899.0 L 379.4,890.7 L 360.7,899.9 L 342.8,903.8 L 347.7,897.1 L 331.0,879.5 L 323.4,893.0 L 324.0,880.4 L 317.1,889.1 L 293.5,905.8 L 293.3,903.5 L 273.9,904.4 L 264.2,920.8 L 284.8,903.5 L 262.1,921.0 L 257.6,937.4 L 266.7,939.9 L 272.2,938.5 L 257.9,946.4 L 253.0,967.4 L 262.4,963.6 L 272.3,977.8 L 288.5,982.7 L 275.6,979.5 L 289.2,976.3 L 299.8,999.7 L 299.2,1003.4 L 327.4,982.1 L 334.5,1008.8 L 328.0,1003.1 L 332.0,997.5 L 364.9,1005.0 L 352.5,987.7 L 368.6,994.6 L 391.3,984.9 L 395.3,978.5 Z" dur="389.89s" repeatCount="indefinite">
      <mpath xlink:href="#path_29" />
    </animateMotion>
    <animate attributeName="opacity" values="0.3;1;0.5;1;0.4;1;0.7;0.3" dur="6.3s" repeatCount="indefinite" />
  </circle>
  <path id="path_29" d="M 385.4,982.8 L 385.0,985.4 L 395.2,983.1 L 397.0,976.9 L 413.8,962.0 L 397.8,945.0 L 403.5,947.0 L 402.5,929.3 L 415.2,945.6 L 402.8,937.0 L 405.1,923.0 L 404.6,906.3 L 395.4,907.8 L 378.8,892.5 L 393.0,899.0 L 379.4,890.7 L 360.7,899.9 L 342.8,903.8 L 347.7,897.1 L 331.0,879.5 L 323.4,893.0 L 324.0,880.4 L 317.1,889.1 L 293.5,905.8 L 293.3,903.5 L 273.9,904.4 L 264.2,920.8 L 284.8,903.5 L 262.1,921.0 L 257.6,937.4 L 266.7,939.9 L 272.2,938.5 L 257.9,946.4 L 253.0,967.4 L 262.4,963.6 L 272.3,977.8 L 288.5,982.7 L 275.6,979.5 L 289.2,976.3 L 299.8,999.7 L 299.2,1003.4 L 327.4,982.1 L 334.5,1008.8 L 328.0,1003.1 L 332.0,997.5 L 364.9,1005.0 L 352.5,987.7 L 368.6,994.6 L 391.3,984.9 L 395.3,978.5 Z" fill="none" stroke="none" />
  <circle r="7.6" fill="url(#fireflyGlow_0)">
    <animateMotion path="M 1139.4,996.3 L 1143.2,985.2 L 1163.4,1006.7 L 1175.2,968.4 L 1153.4,995.1 L 1179.2,953.1 L 1171.0,978.6 L 1169.7,977.9 L 1172.9,967.7 L 1181.5,934.3 L 1184.0,948.2 L 1144.8,953.4 L 1133.0,942.3 L 1152.1,917.3 L 1126.9,906.1 L 1109.0,937.3 L 1095.8,904.3 L 1079.0,905.6 L 1083.6,896.3 L 1066.6,921.2 L 1033.8,927.2 L 1020.2,909.9 L 1017.4,915.2 L 1012.0,937.7 L 1018.5,928.3 L 970.0,924.0 L 966.9,951.3 L 980.6,951.2 L 980.6,956.4 L 969.9,942.1 L 949.8,954.6 L 973.1,980.1 L 943.9,954.0 L 971.6,961.3 L 954.0,961.6 L 982.5,990.8 L 974.3,992.2 L 992.7,983.5 L 981.5,1010.0 L 1017.1,991.7 L 1036.9,1009.2 L 1040.9,1004.4 L 1042.2,1028.2 L 1070.6,1013.4 L 1064.1,1009.0 L 1089.2,991.7 L 1124.1,1023.7 L 1120.2,994.2 L 1117.4,1008.5 L 1150.3,1016.0 Z" dur="340.34s" repeatCount="indefinite">
      <mpath xlink:href="#path_30" />
    </animateMotion>
    <animate attributeName="opacity" values="0.3;1;0.5;1;0.4;1;0.7;0.3" dur="6.3s" repeatCount="indefinite" />
  </circle>
  <path id="path_30" d="M 1139.4,996.3 L 1143.2,985.2 L 1163.4,1006.7 L 1175.2,968.4 L 1153.4,995.1 L 1179.2,953.1 L 1171.0,978.6 L 1169.7,977.9 L 1172.9,967.7 L 1181.5,934.3 L 1184.0,948.2 L 1144.8,953.4 L 1133.0,942.3 L 1152.1,917.3 L 1126.9,906.1 L 1109.0,937.3 L 1095.8,904.3 L 1079.0,905.6 L 1083.6,896.3 L 1066.6,921.2 L 1033.8,927.2 L 1020.2,909.9 L 1017.4,915.2 L 1012.0,937.7 L 1018.5,928.3 L 970.0,924.0 L 966.9,951.3 L 980.6,951.2 L 980.6,956.4 L 969.9,942.1 L 949.8,954.6 L 973.1,980.1 L 943.9,954.0 L 971.6,961.3 L 954.0,961.6 L 982.5,990.8 L 974.3,992.2 L 992.7,983.5 L 981.5,1010.0 L 1017.1,991.7 L 1036.9,1009.2 L 1040.9,1004.4 L 1042.2,1028.2 L 1070.6,1013.4 L 1064.1,1009.0 L 1089.2,991.7 L 1124.1,1023.7 L 1120.2,994.2 L 1117.4,1008.5 L 1150.3,1016.0 Z" fill="none" stroke="none" />
  <circle r="8.7" fill="url(#fireflyGlow_0)">
    <animateMotion path="M 330.5,550.0 L 345.6,564.8 L 319.9,536.4 L 326.9,511.4 L 335.1,518.3 L 319.8,494.4 L 337.1,518.9 L 346.8,501.7 L 352.2,478.6 L 323.5,474.4 L 363.5,466.1 L 336.9,451.9 L 395.2,431.8 L 403.1,427.3 L 412.4,439.4 L 408.3,464.5 L 434.7,454.2 L 456.5,450.6 L 470.0,453.9 L 497.4,463.0 L 471.0,467.4 L 484.6,431.7 L 534.2,477.0 L 534.2,469.9 L 530.4,472.7 L 561.4,465.9 L 572.6,491.8 L 561.5,486.4 L 539.6,510.2 L 551.6,504.9 L 568.0,506.4 L 536.0,517.2 L 548.3,552.3 L 546.3,555.8 L 537.2,546.3 L 533.2,577.3 L 500.6,580.5 L 496.2,596.4 L 481.1,584.7 L 459.7,608.7 L 453.1,596.0 L 456.6,605.0 L 403.9,609.9 L 381.3,590.3 L 390.6,560.1 L 399.3,562.6 L 382.2,560.9 L 358.4,564.1 L 335.1,543.3 L 357.1,536.8 Z" dur="356.4s" repeatCount="indefinite">
      <mpath xlink:href="#path_31" />
    </animateMotion>
    <animate attributeName="opacity" values="0.3;1;0.5;1;0.4;1;0.7;0.3" dur="4.1s" repeatCount="indefinite" />
  </circle>
  <path id="path_31" d="M 330.5,550.0 L 345.6,564.8 L 319.9,536.4 L 326.9,511.4 L 335.1,518.3 L 319.8,494.4 L 337.1,518.9 L 346.8,501.7 L 352.2,478.6 L 323.5,474.4 L 363.5,466.1 L 336.9,451.9 L 395.2,431.8 L 403.1,427.3 L 412.4,439.4 L 408.3,464.5 L 434.7,454.2 L 456.5,450.6 L 470.0,453.9 L 497.4,463.0 L 471.0,467.4 L 484.6,431.7 L 534.2,477.0 L 534.2,469.9 L 530.4,472.7 L 561.4,465.9 L 572.6,491.8 L 561.5,486.4 L 539.6,510.2 L 551.6,504.9 L 568.0,506.4 L 536.0,517.2 L 548.3,552.3 L 546.3,555.8 L 537.2,546.3 L 533.2,577.3 L 500.6,580.5 L 496.2,596.4 L 481.1,584.7 L 459.7,608.7 L 453.1,596.0 L 456.6,605.0 L 403.9,609.9 L 381.3,590.3 L 390.6,560.1 L 399.3,562.6 L 382.2,560.9 L 358.4,564.1 L 335.1,543.3 L 357.1,536.8 Z" fill="none" stroke="none" />
  <circle r="11.5" fill="url(#fireflyGlow_0)">
    <animateMotion path="M 504.2,338.0 L 540.6,326.3 L 539.2,345.7 L 564.9,351.4 L 588.5,402.5 L 605.7,367.9 L 570.8,393.2 L 609.5,401.1 L 578.2,423.5 L 584.5,447.7 L 571.8,463.4 L 601.0,501.8 L 565.1,473.9 L 555.1,506.6 L 581.7,535.0 L 530.3,525.2 L 547.4,556.2 L 536.3,515.6 L 513.1,550.6 L 490.9,564.3 L 474.8,570.0 L 452.1,535.6 L 406.8,546.6 L 379.5,566.1 L 369.5,567.7 L 325.7,531.4 L 358.8,555.0 L 341.2,534.2 L 328.9,516.3 L 279.7,484.4 L 268.0,470.3 L 300.9,471.5 L 283.8,469.0 L 261.5,466.2 L 246.5,425.2 L 278.1,403.8 L 293.8,398.0 L 264.6,371.5 L 291.9,401.7 L 298.4,389.1 L 343.0,337.8 L 329.5,335.4 L 373.0,338.3 L 364.0,345.5 L 422.5,304.9 L 427.5,323.4 L 438.3,302.6 L 475.0,359.0 L 487.8,331.9 L 501.4,348.5 Z" dur="352.48s" repeatCount="indefinite">
      <mpath xlink:href="#path_32" />
    </animateMotion>
    <animate attributeName="opacity" values="0.3;1;0.5;1;0.4;1;0.7;0.3" dur="5.4s" repeatCount="indefinite" />
  </circle>
  <path id="path_32" d="M 504.2,338.0 L 540.6,326.3 L 539.2,345.7 L 564.9,351.4 L 588.5,402.5 L 605.7,367.9 L 570.8,393.2 L 609.5,401.1 L 578.2,423.5 L 584.5,447.7 L 571.8,463.4 L 601.0,501.8 L 565.1,473.9 L 555.1,506.6 L 581.7,535.0 L 530.3,525.2 L 547.4,556.2 L 536.3,515.6 L 513.1,550.6 L 490.9,564.3 L 474.8,570.0 L 452.1,535.6 L 406.8,546.6 L 379.5,566.1 L 369.5,567.7 L 325.7,531.4 L 358.8,555.0 L 341.2,534.2 L 328.9,516.3 L 279.7,484.4 L 268.0,470.3 L 300.9,471.5 L 283.8,469.0 L 261.5,466.2 L 246.5,425.2 L 278.1,403.8 L 293.8,398.0 L 264.6,371.5 L 291.9,401.7 L 298.4,389.1 L 343.0,337.8 L 329.5,335.4 L 373.0,338.3 L 364.0,345.5 L 422.5,304.9 L 427.5,323.4 L 438.3,302.6 L 475.0,359.0 L 487.8,331.9 L 501.4,348.5 Z" fill="none" stroke="none" />
  <circle r="12.7" fill="url(#fireflyGlow_0)">
    <animateMotion path="M 1161.1,681.3 L 1174.5,678.9 L 1150.8,660.8 L 1154.9,655.2 L 1169.6,648.2 L 1162.4,633.6 L 1182.9,615.1 L 1183.1,640.5 L 1176.0,610.1 L 1194.0,595.4 L 1181.1,588.9 L 1213.4,620.5 L 1224.5,585.3 L 1223.0,603.7 L 1229.7,615.7 L 1247.5,608.4 L 1250.8,600.4 L 1264.3,599.1 L 1272.5,598.3 L 1255.8,614.0 L 1279.2,632.3 L 1297.3,615.1 L 1283.5,616.2 L 1300.1,628.9 L 1302.6,639.7 L 1295.5,640.0 L 1297.5,660.1 L 1296.0,669.5 L 1281.3,681.4 L 1288.7,673.5 L 1281.8,698.0 L 1277.9,687.8 L 1296.1,697.3 L 1286.3,704.9 L 1277.6,738.4 L 1275.7,721.8 L 1264.4,724.8 L 1249.2,747.9 L 1236.8,731.8 L 1244.4,734.2 L 1200.2,721.9 L 1209.4,712.9 L 1184.2,742.2 L 1204.1,720.2 L 1171.0,710.6 L 1166.8,705.1 L 1187.8,699.1 L 1163.5,712.3 L 1161.5,686.6 L 1170.0,684.8 Z" dur="342.5s" repeatCount="indefinite">
      <mpath xlink:href="#path_33" />
    </animateMotion>
    <animate attributeName="opacity" values="0.3;1;0.5;1;0.4;1;0.7;0.3" dur="5.2s" repeatCount="indefinite" />
  </circle>
  <path id="path_33" d="M 1161.1,681.3 L 1174.5,678.9 L 1150.8,660.8 L 1154.9,655.2 L 1169.6,648.2 L 1162.4,633.6 L 1182.9,615.1 L 1183.1,640.5 L 1176.0,610.1 L 1194.0,595.4 L 1181.1,588.9 L 1213.4,620.5 L 1224.5,585.3 L 1223.0,603.7 L 1229.7,615.7 L 1247.5,608.4 L 1250.8,600.4 L 1264.3,599.1 L 1272.5,598.3 L 1255.8,614.0 L 1279.2,632.3 L 1297.3,615.1 L 1283.5,616.2 L 1300.1,628.9 L 1302.6,639.7 L 1295.5,640.0 L 1297.5,660.1 L 1296.0,669.5 L 1281.3,681.4 L 1288.7,673.5 L 1281.8,698.0 L 1277.9,687.8 L 1296.1,697.3 L 1286.3,704.9 L 1277.6,738.4 L 1275.7,721.8 L 1264.4,724.8 L 1249.2,747.9 L 1236.8,731.8 L 1244.4,734.2 L 1200.2,721.9 L 1209.4,712.9 L 1184.2,742.2 L 1204.1,720.2 L 1171.0,710.6 L 1166.8,705.1 L 1187.8,699.1 L 1163.5,712.3 L 1161.5,686.6 L 1170.0,684.8 Z" fill="none" stroke="none" />
  <circle r="7.1" fill="url(#fireflyGlow_0)">
    <animateMotion path="M 293.1,246.6 L 324.7,204.7 L 401.2,227.8 L 458.7,216.7 L 468.9,241.8 L 467.4,249.8 L 523.1,229.8 L 575.9,267.7 L 671.3,221.9 L 622.4,178.1 L 670.9,226.2 L 737.3,238.1 L 803.2,322.4 L 852.9,339.2 L 807.2,292.1 L 850.5,288.4 L 773.5,349.7 L 814.5,344.3 L 869.3,427.8 L 891.5,424.5 L 849.8,385.0 L 765.8,411.9 L 833.6,374.7 L 794.6,498.9 L 721.9,514.2 L 645.3,481.3 L 654.4,411.4 L 569.0,545.4 L 651.9,479.9 L 545.5,428.0 L 479.0,546.2 L 394.7,536.8 L 419.7,452.8 L 431.7,464.3 L 300.8,515.5 L 304.2,477.3 L 269.6,462.9 L 230.5,460.6 L 249.8,472.6 L 205.7,375.9 L 196.4,339.8 L 142.6,439.0 L 204.6,331.4 L 147.5,346.4 L 233.3,324.3 L 222.7,281.4 L 153.0,319.7 L 292.1,282.4 L 270.1,289.2 L 354.5,233.1 Z" dur="358.15s" repeatCount="indefinite">
      <mpath xlink:href="#path_34" />
    </animateMotion>
    <animate attributeName="opacity" values="0.3;1;0.5;1;0.4;1;0.7;0.3" dur="4.1s" repeatCount="indefinite" />
  </circle>
  <path id="path_34" d="M 293.1,246.6 L 324.7,204.7 L 401.2,227.8 L 458.7,216.7 L 468.9,241.8 L 467.4,249.8 L 523.1,229.8 L 575.9,267.7 L 671.3,221.9 L 622.4,178.1 L 670.9,226.2 L 737.3,238.1 L 803.2,322.4 L 852.9,339.2 L 807.2,292.1 L 850.5,288.4 L 773.5,349.7 L 814.5,344.3 L 869.3,427.8 L 891.5,424.5 L 849.8,385.0 L 765.8,411.9 L 833.6,374.7 L 794.6,498.9 L 721.9,514.2 L 645.3,481.3 L 654.4,411.4 L 569.0,545.4 L 651.9,479.9 L 545.5,428.0 L 479.0,546.2 L 394.7,536.8 L 419.7,452.8 L 431.7,464.3 L 300.8,515.5 L 304.2,477.3 L 269.6,462.9 L 230.5,460.6 L 249.8,472.6 L 205.7,375.9 L 196.4,339.8 L 142.6,439.0 L 204.6,331.4 L 147.5,346.4 L 233.3,324.3 L 222.7,281.4 L 153.0,319.7 L 292.1,282.4 L 270.1,289.2 L 354.5,233.1 Z" fill="none" stroke="none" />
  <circle r="4.4" fill="url(#fireflyGlow_0)">
    <animateMotion path="M 1701.9,581.8 L 1722.6,551.1 L 1727.6,516.9 L 1708.5,501.5 L 1675.2,514.3 L 1654.4,501.7 L 1623.8,505.0 L 1593.0,500.0 L 1623.7,442.8 L 1524.9,479.2 L 1544.0,438.8 L 1475.6,470.9 L 1477.2,427.8 L 1449.2,444.8 L 1384.7,444.5 L 1368.3,450.5 L 1293.1,452.3 L 1308.8,464.8 L 1300.4,512.8 L 1214.5,483.4 L 1232.8,501.4 L 1179.7,553.7 L 1183.0,542.7 L 1199.1,525.9 L 1169.4,550.1 L 1150.9,581.4 L 1203.6,625.2 L 1184.3,591.4 L 1201.5,654.1 L 1233.0,607.9 L 1240.0,675.9 L 1241.3,658.4 L 1248.4,673.1 L 1318.1,723.1 L 1345.6,700.5 L 1373.0,681.6 L 1394.3,672.6 L 1414.2,668.2 L 1448.4,683.1 L 1469.6,681.6 L 1498.6,734.3 L 1601.0,703.1 L 1559.0,708.5 L 1628.9,700.0 L 1667.4,646.0 L 1634.5,670.7 L 1691.0,635.6 L 1713.2,631.8 L 1716.1,593.0 L 1694.0,623.4 Z" dur="330.81s" repeatCount="indefinite">
      <mpath xlink:href="#path_35" />
    </animateMotion>
    <animate attributeName="opacity" values="0.3;1;0.5;1;0.4;1;0.7;0.3" dur="6.0s" repeatCount="indefinite" />
  </circle>
  <path id="path_35" d="M 1701.9,581.8 L 1722.6,551.1 L 1727.6,516.9 L 1708.5,501.5 L 1675.2,514.3 L 1654.4,501.7 L 1623.8,505.0 L 1593.0,500.0 L 1623.7,442.8 L 1524.9,479.2 L 1544.0,438.8 L 1475.6,470.9 L 1477.2,427.8 L 1449.2,444.8 L 1384.7,444.5 L 1368.3,450.5 L 1293.1,452.3 L 1308.8,464.8 L 1300.4,512.8 L 1214.5,483.4 L 1232.8,501.4 L 1179.7,553.7 L 1183.0,542.7 L 1199.1,525.9 L 1169.4,550.1 L 1150.9,581.4 L 1203.6,625.2 L 1184.3,591.4 L 1201.5,654.1 L 1233.0,607.9 L 1240.0,675.9 L 1241.3,658.4 L 1248.4,673.1 L 1318.1,723.1 L 1345.6,700.5 L 1373.0,681.6 L 1394.3,672.6 L 1414.2,668.2 L 1448.4,683.1 L 1469.6,681.6 L 1498.6,734.3 L 1601.0,703.1 L 1559.0,708.5 L 1628.9,700.0 L 1667.4,646.0 L 1634.5,670.7 L 1691.0,635.6 L 1713.2,631.8 L 1716.1,593.0 L 1694.0,623.4 Z" fill="none" stroke="none" />
  <circle r="7.5" fill="url(#fireflyGlow_1)">
    <animateMotion path="M 1448.5,888.9 L 1457.5,876.8 L 1463.7,895.3 L 1440.2,930.6 L 1437.1,912.4 L 1369.3,916.1 L 1387.7,943.1 L 1371.0,986.8 L 1343.9,976.3 L 1348.9,981.9 L 1307.9,935.9 L 1254.2,940.4 L 1287.5,975.4 L 1233.7,964.0 L 1192.8,968.5 L 1185.4,954.3 L 1167.1,973.8 L 1133.3,957.3 L 1173.0,899.6 L 1142.1,891.6 L 1123.1,893.2 L 1121.8,899.0 L 1112.2,884.9 L 1138.6,891.0 L 1097.0,840.0 L 1128.8,846.0 L 1130.9,830.3 L 1125.2,811.5 L 1126.9,811.3 L 1184.0,808.3 L 1182.4,777.7 L 1165.4,821.9 L 1182.3,789.4 L 1251.3,772.4 L 1233.9,789.5 L 1303.6,759.3 L 1283.6,797.7 L 1346.2,763.5 L 1352.2,776.0 L 1372.0,772.9 L 1353.4,821.2 L 1413.7,839.6 L 1420.6,839.1 L 1401.2,848.6 L 1432.0,847.1 L 1462.3,869.5 L 1443.8,863.1 L 1473.0,883.8 L 1446.9,907.3 L 1481.8,902.3 Z" dur="391.5s" repeatCount="indefinite">
      <mpath xlink:href="#path_36" />
    </animateMotion>
    <animate attributeName="opacity" values="0.3;1;0.5;1;0.4;1;0.7;0.3" dur="4.3s" repeatCount="indefinite" />
  </circle>
  <path id="path_36" d="M 1448.5,888.9 L 1457.5,876.8 L 1463.7,895.3 L 1440.2,930.6 L 1437.1,912.4 L 1369.3,916.1 L 1387.7,943.1 L 1371.0,986.8 L 1343.9,976.3 L 1348.9,981.9 L 1307.9,935.9 L 1254.2,940.4 L 1287.5,975.4 L 1233.7,964.0 L 1192.8,968.5 L 1185.4,954.3 L 1167.1,973.8 L 1133.3,957.3 L 1173.0,899.6 L 1142.1,891.6 L 1123.1,893.2 L 1121.8,899.0 L 1112.2,884.9 L 1138.6,891.0 L 1097.0,840.0 L 1128.8,846.0 L 1130.9,830.3 L 1125.2,811.5 L 1126.9,811.3 L 1184.0,808.3 L 1182.4,777.7 L 1165.4,821.9 L 1182.3,789.4 L 1251.3,772.4 L 1233.9,789.5 L 1303.6,759.3 L 1283.6,797.7 L 1346.2,763.5 L 1352.2,776.0 L 1372.0,772.9 L 1353.4,821.2 L 1413.7,839.6 L 1420.6,839.1 L 1401.2,848.6 L 1432.0,847.1 L 1462.3,869.5 L 1443.8,863.1 L 1473.0,883.8 L 1446.9,907.3 L 1481.8,902.3 Z" fill="none" stroke="none" />
  <circle r="7.7" fill="url(#fireflyGlow_0)">
    <animateMotion path="M 338.2,234.5 L 367.6,225.9 L 368.6,240.0 L 410.7,260.7 L 437.2,239.2 L 416.1,237.2 L 480.2,220.1 L 480.0,233.5 L 499.1,223.1 L 485.0,185.9 L 506.1,206.9 L 505.5,183.9 L 491.9,200.3 L 529.7,187.2 L 537.0,193.7 L 504.0,185.1 L 500.6,149.8 L 496.0,175.8 L 455.3,141.6 L 468.0,134.1 L 426.4,152.3 L 403.5,146.1 L 415.7,115.0 L 400.0,130.9 L 350.9,155.4 L 349.8,150.0 L 340.4,120.5 L 324.8,162.8 L 267.6,122.1 L 290.1,130.7 L 233.7,155.9 L 208.1,153.6 L 228.9,181.8 L 210.1,183.5 L 207.6,164.5 L 198.3,198.0 L 162.6,188.7 L 193.9,180.6 L 164.5,200.8 L 169.3,200.2 L 186.0,202.8 L 219.6,223.2 L 222.4,197.5 L 210.1,230.0 L 261.7,231.0 L 252.3,246.9 L 280.1,249.2 L 320.7,255.5 L 317.5,259.7 L 346.6,262.5 Z" dur="385.71s" repeatCount="indefinite">
      <mpath xlink:href="#path_37" />
    </animateMotion>
    <animate attributeName="opacity" values="0.3;1;0.5;1;0.4;1;0.7;0.3" dur="5.7s" repeatCount="indefinite" />
  </circle>
  <path id="path_37" d="M 338.2,234.5 L 367.6,225.9 L 368.6,240.0 L 410.7,260.7 L 437.2,239.2 L 416.1,237.2 L 480.2,220.1 L 480.0,233.5 L 499.1,223.1 L 485.0,185.9 L 506.1,206.9 L 505.5,183.9 L 491.9,200.3 L 529.7,187.2 L 537.0,193.7 L 504.0,185.1 L 500.6,149.8 L 496.0,175.8 L 455.3,141.6 L 468.0,134.1 L 426.4,152.3 L 403.5,146.1 L 415.7,115.0 L 400.0,130.9 L 350.9,155.4 L 349.8,150.0 L 340.4,120.5 L 324.8,162.8 L 267.6,122.1 L 290.1,130.7 L 233.7,155.9 L 208.1,153.6 L 228.9,181.8 L 210.1,183.5 L 207.6,164.5 L 198.3,198.0 L 162.6,188.7 L 193.9,180.6 L 164.5,200.8 L 169.3,200.2 L 186.0,202.8 L 219.6,223.2 L 222.4,197.5 L 210.1,230.0 L 261.7,231.0 L 252.3,246.9 L 280.1,249.2 L 320.7,255.5 L 317.5,259.7 L 346.6,262.5 Z" fill="none" stroke="none" />
  <circle r="12.0" fill="url(#fireflyGlow_0)">
    <animateMotion path="M 555.4,797.1 L 538.0,811.7 L 561.1,814.6 L 567.9,819.4 L 584.5,838.5 L 588.8,829.3 L 567.6,836.4 L 607.5,849.2 L 593.0,833.0 L 600.8,831.1 L 623.5,850.3 L 633.7,853.9 L 662.0,869.4 L 674.1,863.5 L 665.5,870.6 L 681.9,850.9 L 703.1,854.3 L 734.7,862.5 L 715.3,827.4 L 755.1,856.5 L 746.3,820.6 L 768.3,846.0 L 780.4,823.8 L 779.4,804.2 L 760.3,822.8 L 764.3,801.7 L 757.0,789.8 L 761.2,795.0 L 755.5,773.4 L 740.1,772.0 L 754.9,782.1 L 731.6,781.2 L 717.9,764.9 L 709.6,750.6 L 701.7,762.5 L 692.6,739.8 L 687.8,758.5 L 672.2,761.7 L 657.8,751.4 L 630.2,770.7 L 611.5,769.5 L 630.5,740.3 L 620.8,777.0 L 582.6,752.8 L 575.4,786.6 L 571.0,789.6 L 568.8,777.2 L 572.3,792.9 L 557.8,799.4 L 547.7,793.3 Z" dur="369.38s" repeatCount="indefinite">
      <mpath xlink:href="#path_38" />
    </animateMotion>
    <animate attributeName="opacity" values="0.3;1;0.5;1;0.4;1;0.7;0.3" dur="5.4s" repeatCount="indefinite" />
  </circle>
  <path id="path_38" d="M 555.4,797.1 L 538.0,811.7 L 561.1,814.6 L 567.9,819.4 L 584.5,838.5 L 588.8,829.3 L 567.6,836.4 L 607.5,849.2 L 593.0,833.0 L 600.8,831.1 L 623.5,850.3 L 633.7,853.9 L 662.0,869.4 L 674.1,863.5 L 665.5,870.6 L 681.9,850.9 L 703.1,854.3 L 734.7,862.5 L 715.3,827.4 L 755.1,856.5 L 746.3,820.6 L 768.3,846.0 L 780.4,823.8 L 779.4,804.2 L 760.3,822.8 L 764.3,801.7 L 757.0,789.8 L 761.2,795.0 L 755.5,773.4 L 740.1,772.0 L 754.9,782.1 L 731.6,781.2 L 717.9,764.9 L 709.6,750.6 L 701.7,762.5 L 692.6,739.8 L 687.8,758.5 L 672.2,761.7 L 657.8,751.4 L 630.2,770.7 L 611.5,769.5 L 630.5,740.3 L 620.8,777.0 L 582.6,752.8 L 575.4,786.6 L 571.0,789.6 L 568.8,777.2 L 572.3,792.9 L 557.8,799.4 L 547.7,793.3 Z" fill="none" stroke="none" />
  <circle r="11.3" fill="url(#fireflyGlow_0)">
    <animateMotion path="M 1571.4,728.3 L 1594.6,777.8 L 1521.9,733.0 L 1504.1,762.7 L 1474.9,854.0 L 1416.1,812.1 L 1380.5,797.0 L 1354.6,856.9 L 1322.3,862.9 L 1324.9,816.2 L 1253.2,796.6 L 1250.5,841.2 L 1215.5,858.6 L 1188.9,833.6 L 1166.7,816.7 L 1098.3,720.6 L 1106.3,737.7 L 1144.6,738.6 L 1076.9,687.6 L 1052.9,697.8 L 1066.3,670.7 L 1083.2,598.1 L 1077.4,557.0 L 1085.9,547.4 L 1135.3,474.0 L 1157.3,455.8 L 1104.2,445.4 L 1125.4,482.8 L 1224.0,434.9 L 1226.4,442.9 L 1297.4,395.7 L 1325.0,378.6 L 1363.3,408.8 L 1352.2,355.2 L 1356.0,425.7 L 1465.4,454.5 L 1460.4,386.3 L 1510.8,423.6 L 1547.1,417.7 L 1563.6,487.6 L 1554.7,506.2 L 1591.9,535.3 L 1606.7,550.8 L 1597.1,565.6 L 1607.2,625.4 L 1639.0,611.8 L 1586.3,639.3 L 1604.3,685.5 L 1633.0,681.1 L 1597.8,764.1 Z" dur="391.12s" repeatCount="indefinite">
      <mpath xlink:href="#path_39" />
    </animateMotion>
    <animate attributeName="opacity" values="0.3;1;0.5;1;0.4;1;0.7;0.3" dur="6.3s" repeatCount="indefinite" />
  </circle>
  <path id="path_39" d="M 1571.4,728.3 L 1594.6,777.8 L 1521.9,733.0 L 1504.1,762.7 L 1474.9,854.0 L 1416.1,812.1 L 1380.5,797.0 L 1354.6,856.9 L 1322.3,862.9 L 1324.9,816.2 L 1253.2,796.6 L 1250.5,841.2 L 1215.5,858.6 L 1188.9,833.6 L 1166.7,816.7 L 1098.3,720.6 L 1106.3,737.7 L 1144.6,738.6 L 1076.9,687.6 L 1052.9,697.8 L 1066.3,670.7 L 1083.2,598.1 L 1077.4,557.0 L 1085.9,547.4 L 1135.3,474.0 L 1157.3,455.8 L 1104.2,445.4 L 1125.4,482.8 L 1224.0,434.9 L 1226.4,442.9 L 1297.4,395.7 L 1325.0,378.6 L 1363.3,408.8 L 1352.2,355.2 L 1356.0,425.7 L 1465.4,454.5 L 1460.4,386.3 L 1510.8,423.6 L 1547.1,417.7 L 1563.6,487.6 L 1554.7,506.2 L 1591.9,535.3 L 1606.7,550.8 L 1597.1,565.6 L 1607.2,625.4 L 1639.0,611.8 L 1586.3,639.3 L 1604.3,685.5 L 1633.0,681.1 L 1597.8,764.1 Z" fill="none" stroke="none" />
  <circle r="5.8" fill="url(#fireflyGlow_0)">
    <animateMotion path="M 397.7,586.9 L 391.5,558.6 L 386.9,531.5 L 396.6,549.1 L 383.8,486.1 L 406.9,501.1 L 412.3,490.9 L 464.5,469.3 L 437.3,434.8 L 477.1,438.0 L 489.8,445.3 L 534.7,400.4 L 562.3,375.9 L 582.1,386.9 L 557.3,373.3 L 601.9,423.2 L 605.5,382.1 L 640.0,425.3 L 646.9,430.3 L 669.6,426.8 L 676.8,435.8 L 692.3,469.9 L 721.1,473.7 L 711.1,518.2 L 744.7,529.2 L 727.3,524.5 L 733.5,545.1 L 722.2,603.4 L 731.4,620.1 L 730.9,617.2 L 731.0,653.8 L 719.9,656.2 L 682.1,697.6 L 707.3,707.7 L 692.1,719.3 L 619.7,717.7 L 617.8,686.4 L 625.3,689.3 L 583.4,716.6 L 537.8,697.8 L 513.7,729.4 L 510.5,727.6 L 492.2,681.2 L 482.9,706.3 L 440.8,698.5 L 459.8,655.4 L 446.8,630.1 L 397.0,635.3 L 427.5,625.1 L 372.2,579.2 Z" dur="361.91s" repeatCount="indefinite">
      <mpath xlink:href="#path_40" />
    </animateMotion>
    <animate attributeName="opacity" values="0.3;1;0.5;1;0.4;1;0.7;0.3" dur="6.6s" repeatCount="indefinite" />
  </circle>
  <path id="path_40" d="M 397.7,586.9 L 391.5,558.6 L 386.9,531.5 L 396.6,549.1 L 383.8,486.1 L 406.9,501.1 L 412.3,490.9 L 464.5,469.3 L 437.3,434.8 L 477.1,438.0 L 489.8,445.3 L 534.7,400.4 L 562.3,375.9 L 582.1,386.9 L 557.3,373.3 L 601.9,423.2 L 605.5,382.1 L 640.0,425.3 L 646.9,430.3 L 669.6,426.8 L 676.8,435.8 L 692.3,469.9 L 721.1,473.7 L 711.1,518.2 L 744.7,529.2 L 727.3,524.5 L 733.5,545.1 L 722.2,603.4 L 731.4,620.1 L 730.9,617.2 L 731.0,653.8 L 719.9,656.2 L 682.1,697.6 L 707.3,707.7 L 692.1,719.3 L 619.7,717.7 L 617.8,686.4 L 625.3,689.3 L 583.4,716.6 L 537.8,697.8 L 513.7,729.4 L 510.5,727.6 L 492.2,681.2 L 482.9,706.3 L 440.8,698.5 L 459.8,655.4 L 446.8,630.1 L 397.0,635.3 L 427.5,625.1 L 372.2,579.2 Z" fill="none" stroke="none" />
  <circle r="10.4" fill="url(#fireflyGlow_0)">
    <animateMotion path="M 198.7,680.0 L 177.1,694.7 L 203.2,692.7 L 164.2,776.7 L 182.5,753.0 L 153.5,756.1 L 197.1,803.3 L 141.8,815.8 L 211.7,826.0 L 202.5,897.4 L 189.9,902.7 L 219.6,953.2 L 248.3,977.0 L 264.7,958.1 L 261.1,939.1 L 327.4,966.6 L 351.6,961.6 L 336.4,946.7 L 412.5,968.7 L 409.3,1002.3 L 463.5,933.8 L 502.7,944.3 L 514.6,927.1 L 518.0,946.8 L 563.5,946.2 L 585.3,921.1 L 574.4,915.1 L 591.9,826.4 L 609.2,800.3 L 598.5,847.4 L 557.8,795.8 L 624.7,767.5 L 543.5,771.9 L 596.0,688.8 L 549.9,708.5 L 525.2,678.9 L 528.3,631.6 L 467.2,631.4 L 484.4,663.3 L 448.8,587.6 L 416.8,604.3 L 414.0,617.5 L 348.0,575.6 L 343.6,589.6 L 318.2,580.8 L 267.7,624.7 L 283.5,656.4 L 220.8,637.0 L 216.6,632.1 L 194.1,716.9 Z" dur="350.53s" repeatCount="indefinite">
      <mpath xlink:href="#path_41" />
    </animateMotion>
    <animate attributeName="opacity" values="0.3;1;0.5;1;0.4;1;0.7;0.3" dur="4.7s" repeatCount="indefinite" />
  </circle>
  <path id="path_41" d="M 198.7,680.0 L 177.1,694.7 L 203.2,692.7 L 164.2,776.7 L 182.5,753.0 L 153.5,756.1 L 197.1,803.3 L 141.8,815.8 L 211.7,826.0 L 202.5,897.4 L 189.9,902.7 L 219.6,953.2 L 248.3,977.0 L 264.7,958.1 L 261.1,939.1 L 327.4,966.6 L 351.6,961.6 L 336.4,946.7 L 412.5,968.7 L 409.3,1002.3 L 463.5,933.8 L 502.7,944.3 L 514.6,927.1 L 518.0,946.8 L 563.5,946.2 L 585.3,921.1 L 574.4,915.1 L 591.9,826.4 L 609.2,800.3 L 598.5,847.4 L 557.8,795.8 L 624.7,767.5 L 543.5,771.9 L 596.0,688.8 L 549.9,708.5 L 525.2,678.9 L 528.3,631.6 L 467.2,631.4 L 484.4,663.3 L 448.8,587.6 L 416.8,604.3 L 414.0,617.5 L 348.0,575.6 L 343.6,589.6 L 318.2,580.8 L 267.7,624.7 L 283.5,656.4 L 220.8,637.0 L 216.6,632.1 L 194.1,716.9 Z" fill="none" stroke="none" />
  <circle r="6.8" fill="url(#fireflyGlow_1)">
    <animateMotion path="M 1490.1,371.9 L 1514.6,353.9 L 1547.5,408.2 L 1541.0,385.7 L 1534.2,401.9 L 1575.8,413.1 L 1572.3,407.4 L 1553.7,468.8 L 1569.9,439.8 L 1537.7,477.7 L 1551.4,472.2 L 1515.8,452.0 L 1536.8,515.0 L 1541.1,478.3 L 1475.5,511.2 L 1453.8,505.4 L 1436.6,501.4 L 1455.2,519.7 L 1447.6,538.5 L 1403.8,555.3 L 1377.5,540.4 L 1337.9,505.5 L 1357.8,495.1 L 1331.1,499.4 L 1282.0,509.4 L 1303.8,518.8 L 1278.2,480.8 L 1259.1,474.6 L 1275.6,472.1 L 1270.6,450.4 L 1259.4,468.5 L 1214.7,461.2 L 1203.0,430.0 L 1249.5,434.4 L 1219.8,447.9 L 1263.8,407.7 L 1245.1,393.8 L 1294.0,376.8 L 1272.3,375.2 L 1275.3,369.8 L 1325.2,353.4 L 1361.9,361.7 L 1375.3,339.6 L 1387.0,339.7 L 1412.6,366.3 L 1386.9,380.9 L 1422.3,381.1 L 1456.0,387.3 L 1466.5,370.9 L 1465.1,364.0 Z" dur="339.14s" repeatCount="indefinite">
      <mpath xlink:href="#path_42" />
    </animateMotion>
    <animate attributeName="opacity" values="0.3;1;0.5;1;0.4;1;0.7;0.3" dur="4.7s" repeatCount="indefinite" />
  </circle>
  <path id="path_42" d="M 1490.1,371.9 L 1514.6,353.9 L 1547.5,408.2 L 1541.0,385.7 L 1534.2,401.9 L 1575.8,413.1 L 1572.3,407.4 L 1553.7,468.8 L 1569.9,439.8 L 1537.7,477.7 L 1551.4,472.2 L 1515.8,452.0 L 1536.8,515.0 L 1541.1,478.3 L 1475.5,511.2 L 1453.8,505.4 L 1436.6,501.4 L 1455.2,519.7 L 1447.6,538.5 L 1403.8,555.3 L 1377.5,540.4 L 1337.9,505.5 L 1357.8,495.1 L 1331.1,499.4 L 1282.0,509.4 L 1303.8,518.8 L 1278.2,480.8 L 1259.1,474.6 L 1275.6,472.1 L 1270.6,450.4 L 1259.4,468.5 L 1214.7,461.2 L 1203.0,430.0 L 1249.5,434.4 L 1219.8,447.9 L 1263.8,407.7 L 1245.1,393.8 L 1294.0,376.8 L 1272.3,375.2 L 1275.3,369.8 L 1325.2,353.4 L 1361.9,361.7 L 1375.3,339.6 L 1387.0,339.7 L 1412.6,366.3 L 1386.9,380.9 L 1422.3,381.1 L 1456.0,387.3 L 1466.5,370.9 L 1465.1,364.0 Z" fill="none" stroke="none" />
  <circle r="5.1" fill="url(#fireflyGlow_0)">
    <animateMotion path="M 334.8,426.9 L 319.4,435.3 L 326.9,448.8 L 334.7,466.5 L 354.1,486.4 L 360.2,489.2 L 350.5,504.5 L 387.8,488.5 L 377.2,489.9 L 402.8,512.0 L 397.5,513.1 L 413.1,512.3 L 406.2,506.6 L 444.7,525.5 L 445.2,514.0 L 436.1,519.5 L 457.9,501.7 L 479.2,521.0 L 486.9,507.5 L 494.1,504.9 L 515.1,470.2 L 503.6,465.1 L 521.8,465.0 L 499.4,465.4 L 520.9,418.7 L 493.9,409.2 L 516.0,408.9 L 519.4,387.6 L 487.0,392.7 L 487.1,360.5 L 483.5,381.8 L 501.3,358.0 L 474.2,345.1 L 453.5,361.9 L 450.3,349.4 L 430.3,337.2 L 450.0,358.0 L 399.5,322.7 L 403.2,357.0 L 378.9,350.4 L 407.1,363.2 L 396.3,339.0 L 349.4,363.0 L 358.1,356.0 L 342.6,374.6 L 359.6,399.8 L 358.4,377.5 L 321.3,393.7 L 327.9,417.3 L 350.8,427.9 Z" dur="338.24s" repeatCount="indefinite">
      <mpath xlink:href="#path_43" />
    </animateMotion>
    <animate attributeName="opacity" values="0.3;1;0.5;1;0.4;1;0.7;0.3" dur="5.6s" repeatCount="indefinite" />
  </circle>
  <path id="path_43" d="M 334.8,426.9 L 319.4,435.3 L 326.9,448.8 L 334.7,466.5 L 354.1,486.4 L 360.2,489.2 L 350.5,504.5 L 387.8,488.5 L 377.2,489.9 L 402.8,512.0 L 397.5,513.1 L 413.1,512.3 L 406.2,506.6 L 444.7,525.5 L 445.2,514.0 L 436.1,519.5 L 457.9,501.7 L 479.2,521.0 L 486.9,507.5 L 494.1,504.9 L 515.1,470.2 L 503.6,465.1 L 521.8,465.0 L 499.4,465.4 L 520.9,418.7 L 493.9,409.2 L 516.0,408.9 L 519.4,387.6 L 487.0,392.7 L 487.1,360.5 L 483.5,381.8 L 501.3,358.0 L 474.2,345.1 L 453.5,361.9 L 450.3,349.4 L 430.3,337.2 L 450.0,358.0 L 399.5,322.7 L 403.2,357.0 L 378.9,350.4 L 407.1,363.2 L 396.3,339.0 L 349.4,363.0 L 358.1,356.0 L 342.6,374.6 L 359.6,399.8 L 358.4,377.5 L 321.3,393.7 L 327.9,417.3 L 350.8,427.9 Z" fill="none" stroke="none" />
  <circle r="5.4" fill="url(#fireflyGlow_0)">
    <animateMotion path="M 1340.9,444.0 L 1340.2,448.5 L 1394.2,486.6 L 1370.0,485.3 L 1374.8,442.5 L 1428.8,483.1 L 1495.4,456.6 L 1454.8,504.4 L 1451.8,552.7 L 1485.0,532.0 L 1586.3,469.8 L 1535.7,473.5 L 1561.8,456.2 L 1584.8,482.9 L 1611.3,528.8 L 1651.4,521.4 L 1731.3,489.2 L 1709.2,519.1 L 1700.7,425.3 L 1756.3,430.8 L 1702.2,416.3 L 1771.1,468.5 L 1704.3,369.1 L 1700.8,444.8 L 1704.5,362.2 L 1738.8,364.1 L 1679.4,400.8 L 1718.1,352.7 L 1702.6,301.3 L 1694.3,359.0 L 1625.3,276.5 L 1640.2,320.0 L 1551.9,357.8 L 1519.2,340.7 L 1515.2,353.8 L 1534.6,281.3 L 1451.4,303.7 L 1407.4,321.2 L 1480.7,312.4 L 1363.2,307.8 L 1359.5,297.3 L 1333.8,350.2 L 1367.5,354.6 L 1347.9,417.9 L 1331.7,354.9 L 1299.6,362.1 L 1364.4,411.8 L 1280.8,393.2 L 1382.0,414.0 L 1360.8,440.0 Z" dur="328.39s" repeatCount="indefinite">
      <mpath xlink:href="#path_44" />
    </animateMotion>
    <animate attributeName="opacity" values="0.3;1;0.5;1;0.4;1;0.7;0.3" dur="6.0s" repeatCount="indefinite" />
  </circle>
  <path id="path_44" d="M 1340.9,444.0 L 1340.2,448.5 L 1394.2,486.6 L 1370.0,485.3 L 1374.8,442.5 L 1428.8,483.1 L 1495.4,456.6 L 1454.8,504.4 L 1451.8,552.7 L 1485.0,532.0 L 1586.3,469.8 L 1535.7,473.5 L 1561.8,456.2 L 1584.8,482.9 L 1611.3,528.8 L 1651.4,521.4 L 1731.3,489.2 L 1709.2,519.1 L 1700.7,425.3 L 1756.3,430.8 L 1702.2,416.3 L 1771.1,468.5 L 1704.3,369.1 L 1700.8,444.8 L 1704.5,362.2 L 1738.8,364.1 L 1679.4,400.8 L 1718.1,352.7 L 1702.6,301.3 L 1694.3,359.0 L 1625.3,276.5 L 1640.2,320.0 L 1551.9,357.8 L 1519.2,340.7 L 1515.2,353.8 L 1534.6,281.3 L 1451.4,303.7 L 1407.4,321.2 L 1480.7,312.4 L 1363.2,307.8 L 1359.5,297.3 L 1333.8,350.2 L 1367.5,354.6 L 1347.9,417.9 L 1331.7,354.9 L 1299.6,362.1 L 1364.4,411.8 L 1280.8,393.2 L 1382.0,414.0 L 1360.8,440.0 Z" fill="none" stroke="none" />
  <circle r="6.2" fill="url(#fireflyGlow_0)">
    <animateMotion path="M 438.4,807.1 L 442.9,801.6 L 430.8,820.1 L 417.2,810.5 L 402.5,818.4 L 406.8,824.1 L 383.2,828.1 L 393.8,811.0 L 369.3,811.4 L 360.7,831.0 L 352.7,806.7 L 348.3,828.2 L 348.8,817.8 L 345.6,801.0 L 320.3,792.2 L 330.4,792.6 L 308.1,803.4 L 326.5,804.6 L 306.1,795.0 L 320.6,778.0 L 306.6,771.5 L 317.1,774.3 L 315.9,771.6 L 308.9,759.1 L 339.0,742.1 L 337.8,746.3 L 341.4,749.3 L 342.9,747.9 L 343.5,723.8 L 369.7,725.4 L 370.4,737.8 L 390.4,729.9 L 395.7,747.8 L 411.7,722.3 L 407.2,747.1 L 405.3,739.2 L 430.7,751.2 L 445.4,754.8 L 452.9,737.8 L 439.2,740.9 L 453.7,759.5 L 444.2,758.6 L 451.0,776.9 L 468.6,770.1 L 466.2,773.9 L 468.4,792.2 L 440.7,780.0 L 461.4,807.2 L 458.0,802.1 L 454.0,800.6 Z" dur="381.63s" repeatCount="indefinite">
      <mpath xlink:href="#path_45" />
    </animateMotion>
    <animate attributeName="opacity" values="0.3;1;0.5;1;0.4;1;0.7;0.3" dur="4.9s" repeatCount="indefinite" />
  </circle>
  <path id="path_45" d="M 438.4,807.1 L 442.9,801.6 L 430.8,820.1 L 417.2,810.5 L 402.5,818.4 L 406.8,824.1 L 383.2,828.1 L 393.8,811.0 L 369.3,811.4 L 360.7,831.0 L 352.7,806.7 L 348.3,828.2 L 348.8,817.8 L 345.6,801.0 L 320.3,792.2 L 330.4,792.6 L 308.1,803.4 L 326.5,804.6 L 306.1,795.0 L 320.6,778.0 L 306.6,771.5 L 317.1,774.3 L 315.9,771.6 L 308.9,759.1 L 339.0,742.1 L 337.8,746.3 L 341.4,749.3 L 342.9,747.9 L 343.5,723.8 L 369.7,725.4 L 370.4,737.8 L 390.4,729.9 L 395.7,747.8 L 411.7,722.3 L 407.2,747.1 L 405.3,739.2 L 430.7,751.2 L 445.4,754.8 L 452.9,737.8 L 439.2,740.9 L 453.7,759.5 L 444.2,758.6 L 451.0,776.9 L 468.6,770.1 L 466.2,773.9 L 468.4,792.2 L 440.7,780.0 L 461.4,807.2 L 458.0,802.1 L 454.0,800.6 Z" fill="none" stroke="none" />
  <circle r="4.5" fill="url(#fireflyGlow_0)">
    <animateMotion path="M 693.2,626.3 L 701.6,627.0 L 670.5,624.0 L 655.1,627.3 L 662.7,615.8 L 638.3,630.6 L 641.3,604.6 L 635.9,620.7 L 638.7,603.2 L 630.9,599.7 L 629.2,598.9 L 606.8,596.6 L 623.5,590.1 L 594.0,560.9 L 607.2,577.0 L 618.4,550.3 L 605.8,536.6 L 616.7,539.0 L 618.7,520.5 L 628.9,519.4 L 627.1,511.8 L 632.8,516.1 L 626.2,498.1 L 653.1,492.7 L 666.8,516.6 L 675.5,487.9 L 667.8,486.9 L 688.4,489.1 L 680.0,495.7 L 702.9,498.1 L 720.7,510.0 L 720.7,506.7 L 732.6,523.9 L 744.7,522.1 L 749.2,542.1 L 751.7,550.8 L 750.0,542.0 L 744.4,566.9 L 740.2,559.2 L 748.3,571.5 L 732.7,583.4 L 738.3,575.3 L 728.2,589.8 L 746.6,609.1 L 744.2,609.9 L 738.4,610.4 L 720.1,620.4 L 724.7,625.7 L 705.8,636.3 L 699.9,622.8 Z" dur="369.48s" repeatCount="indefinite">
      <mpath xlink:href="#path_46" />
    </animateMotion>
    <animate attributeName="opacity" values="0.3;1;0.5;1;0.4;1;0.7;0.3" dur="5.2s" repeatCount="indefinite" />
  </circle>
  <path id="path_46" d="M 693.2,626.3 L 701.6,627.0 L 670.5,624.0 L 655.1,627.3 L 662.7,615.8 L 638.3,630.6 L 641.3,604.6 L 635.9,620.7 L 638.7,603.2 L 630.9,599.7 L 629.2,598.9 L 606.8,596.6 L 623.5,590.1 L 594.0,560.9 L 607.2,577.0 L 618.4,550.3 L 605.8,536.6 L 616.7,539.0 L 618.7,520.5 L 628.9,519.4 L 627.1,511.8 L 632.8,516.1 L 626.2,498.1 L 653.1,492.7 L 666.8,516.6 L 675.5,487.9 L 667.8,486.9 L 688.4,489.1 L 680.0,495.7 L 702.9,498.1 L 720.7,510.0 L 720.7,506.7 L 732.6,523.9 L 744.7,522.1 L 749.2,542.1 L 751.7,550.8 L 750.0,542.0 L 744.4,566.9 L 740.2,559.2 L 748.3,571.5 L 732.7,583.4 L 738.3,575.3 L 728.2,589.8 L 746.6,609.1 L 744.2,609.9 L 738.4,610.4 L 720.1,620.4 L 724.7,625.7 L 705.8,636.3 L 699.9,622.8 Z" fill="none" stroke="none" />
  <circle r="9.7" fill="url(#fireflyGlow_1)">
    <animateMotion path="M 1436.8,865.3 L 1431.8,864.6 L 1453.6,882.3 L 1445.7,912.2 L 1454.6,913.3 L 1481.7,908.0 L 1467.1,947.0 L 1472.2,930.8 L 1502.6,965.6 L 1518.2,953.5 L 1533.0,970.0 L 1526.7,956.8 L 1559.5,980.1 L 1577.1,980.3 L 1559.0,958.1 L 1591.8,957.3 L 1593.1,934.7 L 1619.9,930.3 L 1605.8,950.5 L 1643.4,933.9 L 1619.4,908.1 L 1632.1,913.2 L 1648.6,904.6 L 1634.2,884.2 L 1635.0,855.1 L 1648.2,857.0 L 1657.3,840.7 L 1655.2,823.9 L 1630.5,809.8 L 1617.4,800.3 L 1634.4,785.6 L 1608.5,766.4 L 1583.6,790.4 L 1598.5,757.5 L 1558.2,747.0 L 1578.4,760.5 L 1563.7,767.8 L 1518.5,755.2 L 1524.4,775.4 L 1489.5,762.1 L 1492.2,778.3 L 1499.0,760.5 L 1486.5,780.0 L 1483.4,786.7 L 1466.3,813.8 L 1450.3,824.8 L 1452.6,847.7 L 1440.4,858.8 L 1452.3,837.4 L 1442.1,884.2 Z" dur="356.39s" repeatCount="indefinite">
      <mpath xlink:href="#path_47" />
    </animateMotion>
    <animate attributeName="opacity" values="0.3;1;0.5;1;0.4;1;0.7;0.3" dur="6.2s" repeatCount="indefinite" />
  </circle>
  <path id="path_47" d="M 1436.8,865.3 L 1431.8,864.6 L 1453.6,882.3 L 1445.7,912.2 L 1454.6,913.3 L 1481.7,908.0 L 1467.1,947.0 L 1472.2,930.8 L 1502.6,965.6 L 1518.2,953.5 L 1533.0,970.0 L 1526.7,956.8 L 1559.5,980.1 L 1577.1,980.3 L 1559.0,958.1 L 1591.8,957.3 L 1593.1,934.7 L 1619.9,930.3 L 1605.8,950.5 L 1643.4,933.9 L 1619.4,908.1 L 1632.1,913.2 L 1648.6,904.6 L 1634.2,884.2 L 1635.0,855.1 L 1648.2,857.0 L 1657.3,840.7 L 1655.2,823.9 L 1630.5,809.8 L 1617.4,800.3 L 1634.4,785.6 L 1608.5,766.4 L 1583.6,790.4 L 1598.5,757.5 L 1558.2,747.0 L 1578.4,760.5 L 1563.7,767.8 L 1518.5,755.2 L 1524.4,775.4 L 1489.5,762.1 L 1492.2,778.3 L 1499.0,760.5 L 1486.5,780.0 L 1483.4,786.7 L 1466.3,813.8 L 1450.3,824.8 L 1452.6,847.7 L 1440.4,858.8 L 1452.3,837.4 L 1442.1,884.2 Z" fill="none" stroke="none" />
  <circle r="9.5" fill="url(#fireflyGlow_0)">
    <animateMotion path="M 1516.4,353.8 L 1526.0,342.3 L 1539.8,405.6 L 1531.9,376.2 L 1499.6,408.1 L 1476.0,368.6 L 1475.3,373.7 L 1478.3,404.8 L 1468.2,409.7 L 1410.7,398.6 L 1408.8,391.9 L 1370.5,404.4 L 1362.7,460.7 L 1346.7,420.3 L 1372.9,464.3 L 1325.7,413.4 L 1283.6,441.1 L 1262.7,396.4 L 1280.4,432.9 L 1262.5,420.9 L 1289.4,427.2 L 1240.7,369.5 L 1207.5,385.5 L 1238.3,347.5 L 1261.2,367.6 L 1210.2,368.5 L 1233.0,345.9 L 1234.9,347.6 L 1285.2,328.3 L 1272.3,328.5 L 1248.3,324.0 L 1274.2,301.7 L 1339.1,317.6 L 1331.2,274.8 L 1363.6,304.6 L 1357.7,308.9 L 1374.3,310.1 L 1360.2,258.6 L 1394.7,286.9 L 1432.2,279.2 L 1416.9,284.9 L 1452.7,268.2 L 1483.3,284.7 L 1465.4,298.6 L 1476.8,343.4 L 1472.8,321.0 L 1538.4,363.2 L 1495.3,302.5 L 1535.6,373.1 L 1538.2,353.9 Z" dur="334.09s" repeatCount="indefinite">
      <mpath xlink:href="#path_48" />
    </animateMotion>
    <animate attributeName="opacity" values="0.3;1;0.5;1;0.4;1;0.7;0.3" dur="6.4s" repeatCount="indefinite" />
  </circle>
  <path id="path_48" d="M 1516.4,353.8 L 1526.0,342.3 L 1539.8,405.6 L 1531.9,376.2 L 1499.6,408.1 L 1476.0,368.6 L 1475.3,373.7 L 1478.3,404.8 L 1468.2,409.7 L 1410.7,398.6 L 1408.8,391.9 L 1370.5,404.4 L 1362.7,460.7 L 1346.7,420.3 L 1372.9,464.3 L 1325.7,413.4 L 1283.6,441.1 L 1262.7,396.4 L 1280.4,432.9 L 1262.5,420.9 L 1289.4,427.2 L 1240.7,369.5 L 1207.5,385.5 L 1238.3,347.5 L 1261.2,367.6 L 1210.2,368.5 L 1233.0,345.9 L 1234.9,347.6 L 1285.2,328.3 L 1272.3,328.5 L 1248.3,324.0 L 1274.2,301.7 L 1339.1,317.6 L 1331.2,274.8 L 1363.6,304.6 L 1357.7,308.9 L 1374.3,310.1 L 1360.2,258.6 L 1394.7,286.9 L 1432.2,279.2 L 1416.9,284.9 L 1452.7,268.2 L 1483.3,284.7 L 1465.4,298.6 L 1476.8,343.4 L 1472.8,321.0 L 1538.4,363.2 L 1495.3,302.5 L 1535.6,373.1 L 1538.2,353.9 Z" fill="none" stroke="none" />
  <circle r="6.6" fill="url(#fireflyGlow_0)">
    <animateMotion path="M 1599.6,667.2 L 1627.7,673.2 L 1635.3,685.8 L 1615.3,714.8 L 1610.8,681.7 L 1608.6,736.5 L 1616.1,705.1 L 1643.0,715.5 L 1607.1,764.1 L 1590.7,765.4 L 1605.1,757.9 L 1584.7,774.9 L 1581.4,776.4 L 1543.3,755.6 L 1550.4,778.6 L 1546.3,780.9 L 1489.4,788.9 L 1488.0,776.9 L 1458.7,773.1 L 1473.9,778.8 L 1431.5,765.9 L 1433.1,775.2 L 1407.8,755.0 L 1377.8,773.7 L 1406.4,770.6 L 1364.3,753.8 L 1346.4,732.7 L 1341.8,740.7 L 1349.9,742.7 L 1341.7,724.2 L 1335.6,718.9 L 1362.1,694.4 L 1382.4,708.4 L 1376.6,690.6 L 1377.0,675.7 L 1410.8,657.5 L 1403.1,657.2 L 1424.2,647.6 L 1413.2,651.3 L 1455.3,659.5 L 1441.9,640.8 L 1472.2,623.1 L 1491.0,637.4 L 1494.8,655.8 L 1517.6,644.1 L 1541.1,660.0 L 1580.3,629.7 L 1566.4,639.9 L 1578.8,663.4 L 1623.6,660.6 Z" dur="382.98s" repeatCount="indefinite">
      <mpath xlink:href="#path_49" />
    </animateMotion>
    <animate attributeName="opacity" values="0.3;1;0.5;1;0.4;1;0.7;0.3" dur="5.7s" repeatCount="indefinite" />
  </circle>
  <path id="path_49" d="M 1599.6,667.2 L 1627.7,673.2 L 1635.3,685.8 L 1615.3,714.8 L 1610.8,681.7 L 1608.6,736.5 L 1616.1,705.1 L 1643.0,715.5 L 1607.1,764.1 L 1590.7,765.4 L 1605.1,757.9 L 1584.7,774.9 L 1581.4,776.4 L 1543.3,755.6 L 1550.4,778.6 L 1546.3,780.9 L 1489.4,788.9 L 1488.0,776.9 L 1458.7,773.1 L 1473.9,778.8 L 1431.5,765.9 L 1433.1,775.2 L 1407.8,755.0 L 1377.8,773.7 L 1406.4,770.6 L 1364.3,753.8 L 1346.4,732.7 L 1341.8,740.7 L 1349.9,742.7 L 1341.7,724.2 L 1335.6,718.9 L 1362.1,694.4 L 1382.4,708.4 L 1376.6,690.6 L 1377.0,675.7 L 1410.8,657.5 L 1403.1,657.2 L 1424.2,647.6 L 1413.2,651.3 L 1455.3,659.5 L 1441.9,640.8 L 1472.2,623.1 L 1491.0,637.4 L 1494.8,655.8 L 1517.6,644.1 L 1541.1,660.0 L 1580.3,629.7 L 1566.4,639.9 L 1578.8,663.4 L 1623.6,660.6 Z" fill="none" stroke="none" />
  <circle r="5.2" fill="url(#fireflyGlow_0)">
    <animateMotion path="M 1618.2,370.5 L 1608.9,390.3 L 1615.0,380.9 L 1622.8,380.3 L 1631.6,398.4 L 1625.1,403.7 L 1627.9,427.9 L 1605.6,412.4 L 1608.9,438.3 L 1612.1,432.8 L 1603.9,443.1 L 1596.9,450.6 L 1580.0,447.5 L 1575.8,456.2 L 1578.4,449.2 L 1584.9,456.9 L 1558.3,445.9 L 1559.8,460.7 L 1558.9,457.5 L 1542.4,444.2 L 1525.6,452.8 L 1531.7,435.6 L 1515.6,441.6 L 1510.0,436.1 L 1520.2,434.3 L 1510.7,408.4 L 1500.1,412.6 L 1493.4,391.4 L 1516.2,385.9 L 1513.4,388.5 L 1508.2,393.7 L 1505.0,373.9 L 1509.1,374.7 L 1527.2,351.8 L 1513.2,344.9 L 1524.9,342.5 L 1531.4,360.1 L 1528.7,331.6 L 1558.4,353.2 L 1557.1,333.4 L 1556.1,331.2 L 1570.4,344.7 L 1585.8,341.4 L 1575.1,338.4 L 1595.7,358.7 L 1602.9,349.0 L 1591.8,339.8 L 1616.2,366.5 L 1614.4,373.7 L 1629.6,358.4 Z" dur="316.74s" repeatCount="indefinite">
      <mpath xlink:href="#path_50" />
    </animateMotion>
    <animate attributeName="opacity" values="0.3;1;0.5;1;0.4;1;0.7;0.3" dur="5.5s" repeatCount="indefinite" />
  </circle>
  <path id="path_50" d="M 1618.2,370.5 L 1608.9,390.3 L 1615.0,380.9 L 1622.8,380.3 L 1631.6,398.4 L 1625.1,403.7 L 1627.9,427.9 L 1605.6,412.4 L 1608.9,438.3 L 1612.1,432.8 L 1603.9,443.1 L 1596.9,450.6 L 1580.0,447.5 L 1575.8,456.2 L 1578.4,449.2 L 1584.9,456.9 L 1558.3,445.9 L 1559.8,460.7 L 1558.9,457.5 L 1542.4,444.2 L 1525.6,452.8 L 1531.7,435.6 L 1515.6,441.6 L 1510.0,436.1 L 1520.2,434.3 L 1510.7,408.4 L 1500.1,412.6 L 1493.4,391.4 L 1516.2,385.9 L 1513.4,388.5 L 1508.2,393.7 L 1505.0,373.9 L 1509.1,374.7 L 1527.2,351.8 L 1513.2,344.9 L 1524.9,342.5 L 1531.4,360.1 L 1528.7,331.6 L 1558.4,353.2 L 1557.1,333.4 L 1556.1,331.2 L 1570.4,344.7 L 1585.8,341.4 L 1575.1,338.4 L 1595.7,358.7 L 1602.9,349.0 L 1591.8,339.8 L 1616.2,366.5 L 1614.4,373.7 L 1629.6,358.4 Z" fill="none" stroke="none" />
  <circle r="6.8" fill="url(#fireflyGlow_0)">
    <animateMotion path="M 1629.2,567.0 L 1604.6,583.0 L 1622.5,597.3 L 1612.4,586.4 L 1572.3,589.1 L 1542.8,583.8 L 1536.0,588.1 L 1526.3,598.1 L 1514.0,583.9 L 1485.0,568.7 L 1462.4,598.0 L 1439.4,588.5 L 1462.8,584.3 L 1418.1,585.3 L 1436.5,576.0 L 1434.6,565.3 L 1418.7,557.6 L 1415.9,559.6 L 1406.9,531.4 L 1413.2,547.6 L 1406.3,550.4 L 1405.8,509.2 L 1395.6,512.6 L 1416.1,492.0 L 1407.8,501.7 L 1422.3,520.6 L 1442.5,481.2 L 1445.4,477.5 L 1480.8,471.6 L 1514.2,471.7 L 1491.1,494.8 L 1532.3,484.8 L 1540.8,477.6 L 1560.0,509.3 L 1589.9,504.1 L 1599.6,485.4 L 1613.8,503.6 L 1640.0,502.6 L 1634.2,498.5 L 1644.7,494.5 L 1646.6,502.7 L 1675.5,512.6 L 1650.1,534.8 L 1683.7,539.6 L 1684.0,554.9 L 1656.7,552.8 L 1663.7,541.2 L 1658.1,575.2 L 1661.7,577.8 L 1619.0,563.2 Z" dur="325.33s" repeatCount="indefinite">
      <mpath xlink:href="#path_51" />
    </animateMotion>
    <animate attributeName="opacity" values="0.3;1;0.5;1;0.4;1;0.7;0.3" dur="6.7s" repeatCount="indefinite" />
  </circle>
  <path id="path_51" d="M 1629.2,567.0 L 1604.6,583.0 L 1622.5,597.3 L 1612.4,586.4 L 1572.3,589.1 L 1542.8,583.8 L 1536.0,588.1 L 1526.3,598.1 L 1514.0,583.9 L 1485.0,568.7 L 1462.4,598.0 L 1439.4,588.5 L 1462.8,584.3 L 1418.1,585.3 L 1436.5,576.0 L 1434.6,565.3 L 1418.7,557.6 L 1415.9,559.6 L 1406.9,531.4 L 1413.2,547.6 L 1406.3,550.4 L 1405.8,509.2 L 1395.6,512.6 L 1416.1,492.0 L 1407.8,501.7 L 1422.3,520.6 L 1442.5,481.2 L 1445.4,477.5 L 1480.8,471.6 L 1514.2,471.7 L 1491.1,494.8 L 1532.3,484.8 L 1540.8,477.6 L 1560.0,509.3 L 1589.9,504.1 L 1599.6,485.4 L 1613.8,503.6 L 1640.0,502.6 L 1634.2,498.5 L 1644.7,494.5 L 1646.6,502.7 L 1675.5,512.6 L 1650.1,534.8 L 1683.7,539.6 L 1684.0,554.9 L 1656.7,552.8 L 1663.7,541.2 L 1658.1,575.2 L 1661.7,577.8 L 1619.0,563.2 Z" fill="none" stroke="none" />
  <circle r="11.2" fill="url(#fireflyGlow_0)">
    <animateMotion path="M 1195.0,796.8 L 1229.6,809.5 L 1187.9,736.7 L 1195.2,709.3 L 1245.3,673.0 L 1233.0,732.0 L 1229.9,696.7 L 1198.7,666.0 L 1252.0,609.9 L 1261.2,640.9 L 1321.8,634.0 L 1298.3,592.0 L 1392.7,623.8 L 1422.9,570.7 L 1470.3,618.2 L 1458.3,614.7 L 1505.9,556.2 L 1548.8,599.9 L 1591.4,578.8 L 1578.7,595.2 L 1591.6,626.0 L 1663.9,698.9 L 1620.7,691.3 L 1650.9,691.5 L 1716.3,700.1 L 1704.3,691.4 L 1691.5,800.1 L 1731.4,800.0 L 1691.8,829.0 L 1629.9,823.1 L 1695.4,807.2 L 1643.4,856.4 L 1641.7,842.6 L 1595.2,903.3 L 1571.8,857.1 L 1517.7,955.0 L 1571.0,886.4 L 1513.0,973.1 L 1462.2,930.4 L 1400.2,900.5 L 1387.2,968.4 L 1323.0,936.9 L 1375.4,913.1 L 1273.6,910.9 L 1244.0,854.8 L 1290.3,892.1 L 1191.0,828.8 L 1214.0,837.3 L 1170.3,792.4 L 1211.7,799.4 Z" dur="355.33s" repeatCount="indefinite">
      <mpath xlink:href="#path_52" />
    </animateMotion>
    <animate attributeName="opacity" values="0.3;1;0.5;1;0.4;1;0.7;0.3" dur="4.0s" repeatCount="indefinite" />
  </circle>
  <path id="path_52" d="M 1195.0,796.8 L 1229.6,809.5 L 1187.9,736.7 L 1195.2,709.3 L 1245.3,673.0 L 1233.0,732.0 L 1229.9,696.7 L 1198.7,666.0 L 1252.0,609.9 L 1261.2,640.9 L 1321.8,634.0 L 1298.3,592.0 L 1392.7,623.8 L 1422.9,570.7 L 1470.3,618.2 L 1458.3,614.7 L 1505.9,556.2 L 1548.8,599.9 L 1591.4,578.8 L 1578.7,595.2 L 1591.6,626.0 L 1663.9,698.9 L 1620.7,691.3 L 1650.9,691.5 L 1716.3,700.1 L 1704.3,691.4 L 1691.5,800.1 L 1731.4,800.0 L 1691.8,829.0 L 1629.9,823.1 L 1695.4,807.2 L 1643.4,856.4 L 1641.7,842.6 L 1595.2,903.3 L 1571.8,857.1 L 1517.7,955.0 L 1571.0,886.4 L 1513.0,973.1 L 1462.2,930.4 L 1400.2,900.5 L 1387.2,968.4 L 1323.0,936.9 L 1375.4,913.1 L 1273.6,910.9 L 1244.0,854.8 L 1290.3,892.1 L 1191.0,828.8 L 1214.0,837.3 L 1170.3,792.4 L 1211.7,799.4 Z" fill="none" stroke="none" />
  <circle r="9.9" fill="url(#fireflyGlow_0)">
    <animateMotion path="M 1568.7,512.2 L 1550.5,507.4 L 1585.1,529.3 L 1564.8,572.1 L 1583.6,587.7 L 1553.0,594.8 L 1543.9,609.2 L 1549.0,593.2 L 1502.4,620.3 L 1491.8,625.3 L 1488.0,638.2 L 1488.1,636.5 L 1493.8,611.5 L 1432.3,639.0 L 1458.2,615.0 L 1405.7,641.7 L 1407.4,621.2 L 1394.5,592.5 L 1412.6,630.2 L 1394.4,617.5 L 1384.0,575.2 L 1363.6,591.2 L 1337.5,581.8 L 1354.6,567.4 L 1366.3,539.6 L 1328.0,534.6 L 1362.3,512.2 L 1361.0,486.9 L 1334.0,467.1 L 1354.5,470.4 L 1385.9,459.6 L 1395.7,479.5 L 1394.8,425.3 L 1393.6,427.0 L 1386.1,424.5 L 1437.8,409.0 L 1441.1,437.9 L 1432.0,445.4 L 1469.6,412.5 L 1479.6,424.5 L 1500.5,442.5 L 1524.9,456.5 L 1494.5,459.1 L 1531.9,468.5 L 1547.8,459.4 L 1545.8,451.0 L 1582.8,477.7 L 1568.5,475.9 L 1580.4,496.5 L 1565.8,534.3 Z" dur="352.17s" repeatCount="indefinite">
      <mpath xlink:href="#path_53" />
    </animateMotion>
    <animate attributeName="opacity" values="0.3;1;0.5;1;0.4;1;0.7;0.3" dur="4.5s" repeatCount="indefinite" />
  </circle>
  <path id="path_53" d="M 1568.7,512.2 L 1550.5,507.4 L 1585.1,529.3 L 1564.8,572.1 L 1583.6,587.7 L 1553.0,594.8 L 1543.9,609.2 L 1549.0,593.2 L 1502.4,620.3 L 1491.8,625.3 L 1488.0,638.2 L 1488.1,636.5 L 1493.8,611.5 L 1432.3,639.0 L 1458.2,615.0 L 1405.7,641.7 L 1407.4,621.2 L 1394.5,592.5 L 1412.6,630.2 L 1394.4,617.5 L 1384.0,575.2 L 1363.6,591.2 L 1337.5,581.8 L 1354.6,567.4 L 1366.3,539.6 L 1328.0,534.6 L 1362.3,512.2 L 1361.0,486.9 L 1334.0,467.1 L 1354.5,470.4 L 1385.9,459.6 L 1395.7,479.5 L 1394.8,425.3 L 1393.6,427.0 L 1386.1,424.5 L 1437.8,409.0 L 1441.1,437.9 L 1432.0,445.4 L 1469.6,412.5 L 1479.6,424.5 L 1500.5,442.5 L 1524.9,456.5 L 1494.5,459.1 L 1531.9,468.5 L 1547.8,459.4 L 1545.8,451.0 L 1582.8,477.7 L 1568.5,475.9 L 1580.4,496.5 L 1565.8,534.3 Z" fill="none" stroke="none" />
  <circle r="12.6" fill="url(#fireflyGlow_1)">
    <animateMotion path="M 1414.4,178.2 L 1407.0,238.7 L 1425.3,237.8 L 1454.0,228.8 L 1528.2,277.6 L 1531.9,206.0 L 1520.0,296.5 L 1535.1,280.0 L 1529.1,254.8 L 1499.5,317.0 L 1407.6,291.8 L 1376.7,261.5 L 1385.2,348.0 L 1318.1,322.5 L 1368.9,365.7 L 1337.1,325.7 L 1246.2,390.8 L 1195.6,368.6 L 1212.1,356.3 L 1109.4,356.1 L 1106.9,364.8 L 1047.9,344.9 L 994.5,290.6 L 1017.4,306.1 L 989.2,365.7 L 885.1,272.1 L 850.4,260.1 L 882.8,289.5 L 867.4,247.2 L 902.6,233.4 L 846.4,265.5 L 839.6,217.9 L 847.2,259.1 L 862.6,214.5 L 881.1,162.8 L 877.3,180.4 L 904.8,214.8 L 948.1,156.5 L 1047.0,142.7 L 1020.0,182.8 L 1074.7,188.8 L 1170.0,169.2 L 1202.1,109.9 L 1193.5,180.6 L 1279.5,125.8 L 1271.0,161.1 L 1334.2,170.7 L 1336.3,151.7 L 1342.2,132.1 L 1456.8,233.4 Z" dur="339.64s" repeatCount="indefinite">
      <mpath xlink:href="#path_54" />
    </animateMotion>
    <animate attributeName="opacity" values="0.3;1;0.5;1;0.4;1;0.7;0.3" dur="4.6s" repeatCount="indefinite" />
  </circle>
  <path id="path_54" d="M 1414.4,178.2 L 1407.0,238.7 L 1425.3,237.8 L 1454.0,228.8 L 1528.2,277.6 L 1531.9,206.0 L 1520.0,296.5 L 1535.1,280.0 L 1529.1,254.8 L 1499.5,317.0 L 1407.6,291.8 L 1376.7,261.5 L 1385.2,348.0 L 1318.1,322.5 L 1368.9,365.7 L 1337.1,325.7 L 1246.2,390.8 L 1195.6,368.6 L 1212.1,356.3 L 1109.4,356.1 L 1106.9,364.8 L 1047.9,344.9 L 994.5,290.6 L 1017.4,306.1 L 989.2,365.7 L 885.1,272.1 L 850.4,260.1 L 882.8,289.5 L 867.4,247.2 L 902.6,233.4 L 846.4,265.5 L 839.6,217.9 L 847.2,259.1 L 862.6,214.5 L 881.1,162.8 L 877.3,180.4 L 904.8,214.8 L 948.1,156.5 L 1047.0,142.7 L 1020.0,182.8 L 1074.7,188.8 L 1170.0,169.2 L 1202.1,109.9 L 1193.5,180.6 L 1279.5,125.8 L 1271.0,161.1 L 1334.2,170.7 L 1336.3,151.7 L 1342.2,132.1 L 1456.8,233.4 Z" fill="none" stroke="none" />
</svg>