<svg version="1.1" viewBox="0 0 24 24" xmlns="http://www.w3.org/2000/svg">
  <path
      d="m12.03 10.821c-0.63342 0-1.1577 0.517-1.1577 1.1504 0 0.6325 0.52433 1.1568 1.1577 1.1568a1.1536 1.1536 0 0 0 0-2.3073zm0 0.73059c0.2365 0 0.41892 0.18333 0.41892 0.41983 0 0.2365-0.18333 0.41983-0.41892 0.41983-0.23742 0-0.41983-0.18333-0.41983-0.41983 0-0.2365 0.18242-0.41983 0.41983-0.41983zm-10.434-10.55c-0.066914 0-0.097166 0.011-0.32083 0.036667-0.22641 0.026583-0.29975 0.29608-0.2475 0.57933 0.050416 0.28417 0.066002 0.18791 0.17967 0.35199 0.11367 0.165 3.8757 3.7986 5.8227 5.698l-3.3229 3.41-0.12192 0.12192-0.00644 0.0073c-1.1458 1.1752-1.7508 2.9801-2.1046 4.9803-0.35475 1.9993-0.44642 4.2112-0.47392 6.2177a0.57749 0.57749 0 0 0 0.50783 0.56834 0.69391 0.69391 0 0 0 0.10816 0 0.55734 0.55734 0 0 0 0.35199-0.16867h0.00644l5.6916-5.8391c3.6859 3.4109 3.7767 4.6566 8.5195 5.5614 2.0001 0.35383 4.2121 0.44642 6.2187 0.47392a0.57383 0.57383 0 0 0 0.56833-0.5005l0.0073-0.0073a0.68383 0.68383 0 0 0-0.0073-0.12192 0.56925 0.56925 0 0 0-0.16225-0.33917v-0.0073l-5.8465-5.6907 3.3293-3.4164c0.04216-0.03941 0.08157-0.08067 0.12192-0.12192l0.0064-0.0073c1.1459-1.1744 1.7582-2.9738 2.112-4.9739 0.35291-2.0001 0.43907-4.2121 0.46656-6.2177a0.57475 0.57475 0 0 0-0.50049-0.56831l-0.0073-0.00917a0.61233 0.61233 0 0 0-0.12196 0.0073347 0.55734 0.55734 0 0 0-0.33824 0.16317h-0.0064l-5.6917 5.8391-3.41-3.322-0.12192-0.12192-0.0073-0.00733c-1.1743-1.1448-2.9792-1.7572-4.9803-2.1101-2.0661-0.22825-4.1406-0.43541-6.2187-0.46658zm0.44 0.76542c1.8691 0.034833 3.8619 0.11 5.6503 0.42625 1.9296 0.341 3.5997 0.94416 4.5943 1.9149h0.0073l0.09441 0.10083c0.02108 0.021084 0.04492 0.048584 0.06783 0.075167 0.0018 0.00276 0.0047 0.00367 0.0064 0.00733l0.0073 0.00733 0.01375 0.01375c0 0.00183-0.0018 0.00733 0 0.00733 0.0018 0.00276 0.0047 0.00367 0.0064 0.00733 0.11734 0.16134 0.3245 0.47666 0.385 0.60866 0.04492 0.092583 0.08525 0.19067 0.12283 0.29792 0.16408 0.47575 0.24567 1.0688 0.18883 1.8196v0.00733c-0.01283 0.16592-0.03483 0.33917-0.0605 0.52158-0.01283 0.087083-0.03026 0.18333-0.04767 0.28417a9.8569 9.8569 0 0 1-0.12833 0.5885c-0.02566 0.10541-0.05134 0.21266-0.08158 0.31809v0.00733c-0.11912 0.42901-0.27495 0.89467-0.46746 1.3933-0.04767 0.1265-0.09441 0.24933-0.14759 0.3795-0.04216 0.10174-0.09075 0.20624-0.13567 0.31167l-0.2365 0.04674c-0.80201-1.517-1.6783-2.5666-2.4639-3.1671-0.396-0.3025-0.76725-0.495-1.1229-0.57475h-0.00644c-0.35474-0.077-0.73332-0.024749-0.98083 0.23008l0.034829 0.06875 0.29334-0.21908zm20.2 0.264c-0.03483 1.87-0.11 3.8665-0.42625 5.6558-0.341 1.9296-0.94508 3.6007-1.9158 4.5952l-0.10083 0.09441c-0.0275 0.02383-0.05684 0.05409-0.088 0.08067l-0.01376 0.01466h-0.0064c-0.1595 0.1155-0.48308 0.33-0.616 0.39233-0.09259 0.04308-0.1925 0.09166-0.29792 0.12833h-0.0064c-0.47296 0.16225-1.0688 0.23834-1.814 0.18333-0.16775-0.01466-0.34375-0.02841-0.528-0.055l-0.27683-0.04767h-0.0073a9.9958 9.9958 0 0 1-0.58846-0.12833h-0.0064c-0.10725-0.0275-0.2145-0.05958-0.31809-0.088a14.756 14.756 0 0 1-1.3942-0.46017c-0.12467-0.04766-0.25575-0.10175-0.38591-0.15583a19.163 19.163 0 0 1-0.29059-0.121c0.0083-0.05775-0.07242 0.088 0 0a0.6105 0.6105 0 0 0-0.04766-0.264c1.5014-0.7975 2.5483-1.6629 3.1469-2.4429 0.30342-0.39691 0.50233-0.77366 0.58208-1.1302 0.07975-0.35383 0.02475-0.73883-0.23008-0.98725l0.0064 0.00733 0.10083 0.32175zm-8.4938 3.5044 2.321 2.2605 0.01376 0.013751 0.01375 0.013751c0.03483 0.034833 0.07151 0.10083 0.0275 0.30434-0.02016 0.087083-0.13384 0.242-0.18975 0.35841-0.07518 0.15217-0.10634 0.275-0.25116 0.46017-0.50049 0.64167-1.4813 1.4355-2.8756 2.1789 0.04216-0.09808 0.0825-0.19525 0.12192-0.29059 0.055-0.13475 0.10541-0.2695 0.15583-0.39966 0.19984-0.52067 0.36667-1.0111 0.49316-1.4685a10.82 10.82 0 0 0 0.22366-0.97442v-0.00643c0.01742-0.098084 0.03941-0.19433 0.05409-0.297a8.2225 8.2225 0 0 0 0.06142-0.57567c0.04582-0.62058-0.064182-1.0963-0.1696-1.5766zm-5.6155 2.3494c1.4593 0.66 2.4145 2.222 3.0039 3.3156-0.099-0.04308-0.19891-0.08158-0.297-0.12191-0.13475-0.055-0.2695-0.10541-0.39966-0.15583a15.826 15.826 0 0 0-1.4621-0.49408h-0.00546c-0.11458-0.03117-0.22366-0.061417-0.33182-0.087994-0.22-0.054086-0.43634-0.09717-0.64258-0.13567-0.098999-0.0165-0.20166-0.03117-0.30434-0.04674v-0.0091a9.5278 9.5278 0 0 0-0.57567-0.061439c-0.62334-0.04674-1.1019 0.06324-1.5831 0.16958l2.2669-2.3211 0.027497-0.0275c0.032996-0.03575 0.10083-0.073333 0.30433-0.0275zm-1.0697 2.936c0.165 0.011 0.33733 0.03483 0.52158 0.06142h0.00644c0.088 0.01376 0.17783 0.03116 0.27775 0.04766 0.18791 0.03483 0.38316 0.07791 0.5885 0.12833l0.16225 0.04034c0.052248 0.01376 0.10358 0.02475 0.15583 0.04034h0.00644c0.43083 0.11916 0.89283 0.27408 1.3942 0.4675 0.12558 0.04859 0.25667 0.09534 0.385 0.1485 0.11 0.04492 0.21999 0.09441 0.33275 0.14208l0.01283 0.24383c-1.5033 0.7975-2.5548 1.6683-3.1534 2.4493-0.30434 0.39691-0.50233 0.76725-0.58208 1.1229v0.0073c-0.079746 0.35475-0.024752 0.73333 0.23008 0.98083h-0.00548l-0.17236-0.30709-5.445 5.565c0.036663-1.8672 0.1045-3.8573 0.41983-5.643 0.341-1.9296 0.94508-3.6007 1.9158-4.5943v-0.0073c0.021997-0.02475 0.048583-0.04399 0.073335-0.06784l0.027496-0.0275a1.639 1.639 0 0 1 0.081579-0.07424h0.00644c0.00548-0.0037 0.00922-0.011 0.013753-0.01466 0.15675-0.11458 0.48858-0.33642 0.62334-0.39875a3.3532 3.3532 0 0 1 0.30341-0.12193c0.47575-0.165 1.0688-0.24658 1.8205-0.18975zm4.7236 0.18333c-0.38042 0.121-0.63983 0.385-0.76449 0.7645l0.40333-0.44916zm0.5005 0.0275 0.165 0.29608 0.13384 0.08709 0.37125 0.28692c-0.13567-0.319-0.341-0.55275-0.66917-0.66917zm-0.264 0.47392c0.286 0 0.50783 0.22183 0.50783 0.50691a0.50142 0.50142 0 0 1-0.50783 0.50783 0.50142 0.50142 0 0 1-0.50691-0.50783c0-0.28417 0.22183-0.50783 0.50783-0.50783zm-0.96067 0.79108c0.12833 0.33275 0.34925 0.55916 0.68383 0.68383l-0.22092-0.253-0.18609-0.2145zm1.8883 0.03483-0.2585 0.10634-0.05683 0.16317-0.26033 0.29975c0.26584-0.13016 0.4565-0.297 0.57567-0.56833zm-0.06784 0.4675c0.09716 0.04125 0.19525 0.088 0.2915 0.12833 0.13475 0.055 0.26766 0.10541 0.39875 0.15583 0.51884 0.19891 1.0065 0.36116 1.4621 0.48583 0.11734 0.03575 0.23192 0.06142 0.33824 0.08891 0.22 0.05409 0.43634 0.1045 0.64258 0.14208 0.09808 0.01742 0.20166 0.03116 0.30434 0.04674 0.198 0.0275 0.3905 0.05317 0.57567 0.06784 0.62334 0.04767 1.1019-0.06233 1.5831-0.16867l-2.2669 2.321-0.01376 0.01376-0.01283 0.01375c-0.03392 0.03483-0.10541 0.06783-0.29792 0.0275h-0.0073c-0.19803-0.04583-0.48678-0.187-0.81862-0.44642-0.64164-0.50142-1.4364-1.4832-2.1789-2.8756zm-1.6775 0.08067-0.12283 0.29059c-0.05499 0.13475-0.10541 0.2695-0.15583 0.39967a15.642 15.642 0 0 0-0.48675 1.4612c-0.03301 0.11734-0.06142 0.23008-0.088 0.33917-0.055 0.22-0.1045 0.43542-0.14208 0.64167a11.347 11.347 0 0 0-0.04767 0.30525 9.0383 9.0383 0 0 0-0.06691 0.57567c-0.04767 0.62334 0.06233 1.1019 0.16867 1.5831l-2.321-2.2678-0.013753-0.02108-0.013753-0.0073v-0.0073c-0.036663-0.03666-0.071502-0.09258-0.027496-0.29059 0.00183-0.0037 0-0.0018 0-0.0073 0.045838-0.198 0.18883-0.48766 0.44733-0.81858 0.5005-0.64167 1.4785-1.4364 2.8692-2.1789zm0.95333 0.2365c0.79383 1.4905 1.6592 2.5447 2.4365 3.1405 0.39691 0.30434 0.76633 0.50233 1.1229 0.58116h0.0073c0.35475 0.07791 0.73241 0.02475 0.98083-0.22916l-0.03208-0.06508-0.27866 0.2475 5.5825 5.4468c-1.8699-0.03665-3.8683-0.11183-5.6576-0.42808-1.9296-0.341-3.6007-0.94416-4.5943-1.9149h-0.0073l-0.02016-0.02108-0.0275-0.0275c-0.0073-0.0073-0.01192-0.01742-0.02016-0.0275l-0.0275-0.0275c-0.02108-0.02475-0.04858-0.05225-0.07333-0.08159v-0.0073c-0.0028-0.0037-0.011-0.0092-0.01376-0.01375a5.7896 5.7896 0 0 1-0.39971-0.62248 3.1991 3.1991 0 0 1-0.12192-0.30434c-0.165-0.47575-0.24658-1.0688-0.18883-1.8205 0.01192-0.165 0.03392-0.33733 0.06051-0.52066v-0.0073c0.01283-0.08616 0.03026-0.17967 0.04766-0.27775 0.03392-0.18791 0.07792-0.38408 0.12833-0.5885v-0.0073l0.04034-0.15583 0.04125-0.15583v-0.0073c0.11916-0.43083 0.27317-0.89191 0.4675-1.3933 0.04767-0.12558 0.10175-0.25667 0.15492-0.385 0.04308-0.10541 0.08893-0.21175 0.13567-0.319l0.25667-0.01376z"
      stroke-width=".91666"/>
</svg>