<svg version="1.1" viewBox="0 0 24 24" xmlns="http://www.w3.org/2000/svg">
  <defs>
    <clipPath id="clip0-5">
      <rect width="453" height="175" fill="#fff"/>
    </clipPath>
  </defs>
  <g transform="matrix(.12812 0 0 .12812 .81854 .81845)" clip-path="url(#clip0-5)">
    <path
        d="m4.1859 172.44 82.21-84.272c0.515-0.5279 0.6137-1.3441 0.1842-1.9436-5.0009-6.9807-14.224-8.1906-17.643-12.88-10.127-13.892-12.697-21.755-17.049-21.268-0.304 0.0341-0.575 0.1977-0.7886 0.4166l-29.699 30.443c-17.085 17.513-19.535 56.073-19.984 88.361-0.0203 1.459 1.7499 2.186 2.7688 1.142z"
        fill="#017cee"/>
    <path
        d="m172.44 170.36-84.272-82.21c-0.5279-0.515-1.3441-0.6138-1.9436-0.1843-6.9806 5.001-8.1905 14.224-12.88 17.643-13.892 10.127-21.755 12.697-21.268 17.049 0.0341 0.304 0.1977 0.575 0.4167 0.788l30.443 29.699c17.513 17.085 56.073 19.535 88.361 19.984 1.459 0.021 2.186-1.749 1.142-2.768z"
        fill="#00ad46"/>
    <path d="m82.936 153.14c-9.5667-9.332-14.005-27.795 4.3352-65.868-29.807 13.32-40.252 30.83-35.114 35.844z"
          clip-rule="evenodd" fill="#04d659" fill-rule="evenodd"/>
    <path
        d="m170.36 2.1046-82.21 84.271c-0.515 0.5279-0.6137 1.344-0.1842 1.9435 5.0009 6.9807 14.224 8.1906 17.642 12.88 10.128 13.892 12.698 21.755 17.049 21.268 0.304-0.034 0.575-0.198 0.789-0.417l29.698-30.443c17.086-17.514 19.536-56.073 19.985-88.361 0.02-1.4591-1.75-2.1862-2.769-1.1416z"
        fill="#00c7d4"/>
    <path d="m153.14 91.608c-9.333 9.5663-27.796 14.005-65.87-4.3352 13.32 29.806 30.83 40.252 35.844 35.114z"
          clip-rule="evenodd" fill="#11e1ee" fill-rule="evenodd"/>
    <path
        d="m2.1032 4.1873 84.271 82.21c0.5279 0.515 1.344 0.6138 1.9436 0.1843 6.9806-5.0009 8.1905-14.224 12.88-17.643 13.893-10.127 21.756-12.697 21.268-17.049-0.034-0.304-0.198-0.575-0.416-0.7886l-30.444-29.699c-17.514-17.085-56.073-19.535-88.362-19.984-1.4591-0.02031-2.1862 1.7499-1.1416 2.7688z"
        fill="#e43921"/>
    <path d="m91.606 21.402c9.5663 9.3327 14.005 27.795-4.3352 65.869 29.806-13.32 40.252-30.831 35.114-35.843z"
          clip-rule="evenodd" fill="#ff7557" fill-rule="evenodd"/>
    <path d="m21.402 82.937c9.3327-9.5667 27.795-14.005 65.869 4.3352-13.32-29.807-30.831-40.252-35.843-35.114z"
          clip-rule="evenodd" fill="#0cb6ff" fill-rule="evenodd"/>
    <circle transform="rotate(-.70939 87.284 87.261)" cx="87.284" cy="87.261" r="3.6761" fill="#4a4848"/>
  </g>
</svg>