<?xml version="1.0" encoding="UTF-8"?>
<svg version="1.1" viewBox="0 0 24 24" xmlns="http://www.w3.org/2000/svg">
  <g transform="matrix(.097778 0 0 .097778 -.51553 2.7278)">
    <path
        d="m115.4 25.229c-13.422 0-26.842 5.1077-37.059 15.324-6.867 6.866-12.092 15.238-15.275 24.342 2.7595 0.13876 5.5051 0.47138 8.2188 1.043 8.4573 1.7814 16.534 5.6802 23.43 11.666 0.66379-6.3379 3.4085-12.499 8.2559-17.346 9.2991-9.2991 24.432-9.3013 33.732 0 7.7549 7.7549 7.7549 20.375 0 28.129-6.4851 6.4873-17.019 6.5197-23.545 0.10156-2.071-2.037-3.5225-4.6762-4.0274-7.5352-0.833-4.7313 0.64098-9.3404 3.9258-12.623 3.3418-3.3441 8.1626-4.3269 12.377-2.9551 2.6845 0.8736 3.4154 4.3533 1.418 6.3496l-0.3711 0.36914c-0.99104 0.98993-2.4256 1.2582-3.7832 0.91797-1.3664-0.34242-2.9005 0.0027-3.9277 1.0293-2.3805 2.3805-2.3805 6.2532 0 8.6348 2.0117 2.0117 4.8387 2.9096 7.7383 2.3828 1.8712-0.34023 3.528-1.3342 4.8164-2.7324 4.2682-4.627 4.157-11.864-0.33398-16.357-6.1503-6.1493-16.158-6.1493-22.311 0-6.5441 6.5458-7.7858 16.415-3.7305 24.225 0.0575 0.10771 0.12131 0.21221 0.17774 0.32031 0.92862 1.7129 2.1064 3.3252 3.5527 4.7715 10.5 10.498 27.578 10.494 38.072 0 1.8888-1.8886 3.5044-3.9476 4.8652-6.1211 0.26459-0.46669 0.54254-0.93022 0.82617-1.3887 1.6892-2.7304 3.7082-5.3099 6.0762-7.6777 1.9619-1.9619 4.0744-3.6765 6.25-5.2617 1.1594-12.255-2.942-24.919-12.305-34.283-10.218-10.217-23.642-15.324-37.064-15.324zm-54.988 47.615c-11.354 0-22.709 4.321-31.352 12.965-0.45986 0.45984-0.90842 0.92761-1.3496 1.3984-12.479 13.351-15.662 32.16-8.3125 49.09 7.5321 17.354 23.888 28.133 42.684 28.133h131.83c18.794 0 35.15-10.778 42.684-28.131 7.3499-16.931 4.166-35.74-8.3125-49.092-0.4401-0.47083-0.89452-0.93919-1.3555-1.4023-17.282-17.28-45.411-17.285-62.699 0.0039-6.5466 6.5466-10.15 15.253-10.15 24.512 0 9.2563 3.6038 17.959 10.15 24.506 9.4154 9.4143 24.13 10.387 34.637 2.9102 4.8048-3.4187 9.2942-10.942 9.4961-16.834 0.19865-5.8101-1.9715-11.304-6.0586-15.393-6.1504-6.1482-16.158-6.1504-22.311 0-4.6062 4.6051-4.6062 12.102 0 16.707 3.3704 3.3715 8.8544 3.3682 12.223 0 2.3805-2.3805 2.3805-6.2532 0-8.6348-1.0283-1.0262-2.5633-1.3698-3.9297-1.0273-1.3587 0.34021-2.7932 0.0721-3.7832-0.91797l-0.37109-0.36914c-2.0699-2.071-1.1582-5.5808 1.6426-6.4336 1.9755-0.60141 4.1257-0.69933 6.291-0.22851 1.9733 0.42803 3.8122 1.3951 5.3125 2.7461 6.0713 5.4688 6.2567 14.869 0.55078 20.576-6.5202 6.5214-17.13 6.5214-23.646 0-7.756-7.7549-7.756-20.373 0-28.129 9.3013-9.3013 24.436-9.298 33.732 0 5.5621 5.5621 8.5719 12.998 8.4336 20.885-0.15805 9.1838-4.8306 17.571-12.164 23.102-6.0362 4.5513-13.355 7.0124-21.051 7.0059-9.7962-9e-3 -22.618-6.8416-28.547-14.643-6.7178-8.8421-9.4892-19.72-8.3965-30.27-5.6605 3.5475-12.111 5.3516-18.574 5.3516-6.223 0-12.429-1.6831-17.936-4.9727 1.1595 12.255-2.9427 24.92-12.307 34.283-12.461 12.463-32.066 13.543-45.766 3.2422-6.4203-4.8301-12.029-15.084-12.164-23.117-0.1317-7.88 2.8739-15.308 8.4316-20.865 9.3024-9.3013 24.437-9.298 33.734 0 3.7578 3.7556 5.8262 8.7515 5.8262 14.064 0 5.0013-1.8332 9.7226-5.1816 13.393-2.6878 2.9457-6.2539 4.9072-10.207 5.4219-5.2943 0.69032-10.401-1.0661-14.086-4.7559-2.0874-2.0886-3.5161-4.8064-3.9727-7.7246-0.69691-4.4558 0.65359-8.7836 3.6289-11.971 1.8844-2.0183 4.4126-3.4014 7.1465-3.791 1.8427-0.26231 3.6578-0.11801 5.3457 0.39453 2.8052 0.85276 3.7247 4.3624 1.6504 6.4356l-0.37109 0.37109c-0.99104 0.98992-2.4265 1.2582-3.7852 0.91797-1.3664-0.34242-2.8996-7.7e-4 -3.9258 1.0254-1.5233 1.5255-2.1432 3.7136-1.5879 5.9141 0.26888 1.0591 0.84883 1.9954 1.627 2.7637 2.0798 2.0512 5.0201 2.9255 8.002 2.2812 1.7-0.36657 3.2348-1.3147 4.4277-2.5801 2.42-2.5648 3.563-6.0298 3.1152-9.623-0.36766-2.949-1.8933-5.5839-4.1289-7.543-6.1888-5.4227-15.641-5.1814-21.545 0.71875-8.0831 8.082-8.0831 21.229 0 29.312 10.499 10.496 27.578 10.496 38.076 0 10.961-10.963 13.026-27.501 6.2031-40.57-0.05219-0.09724-0.11114-0.19136-0.16211-0.28906-1.5667-2.9319-3.572-5.6888-6.041-8.1582-8.6444-8.6439-19.999-12.965-31.354-12.965z"
        stroke-width="1.098"/>
  </g>
</svg>
