<svg version="1.1" viewBox="0 0 24 24" xmlns="http://www.w3.org/2000/svg">
  <g transform="matrix(.045361 0 0 .046871 -15.37 -12.21)" fill-rule="evenodd">
    <path d="m551.72 332.23c9.713 9.614 25.363 25.207 34.776 34.65l17.116 17.17 34.966-34.646 34.966-34.645-69.743-5e-3 -69.742-6e-3 17.661 17.482m-190.84 184.53v201.5h51.53l12.235-12.264 12.235-12.265v-303.98l-37.255-37.245c-20.49-20.485-37.59-37.245-38-37.245s-0.745 90.675-0.745 201.5m102 18.667c0 64.441 0.337 116.82 0.75 116.4 0.413-0.422 17.512-17.22 38-37.329l37.25-36.563v-85.185l-37.255-37.245c-20.49-20.485-37.59-37.245-38-37.245s-0.745 52.725-0.745 117.17m103-5.667v23.967l11.5-11.467c6.325-6.307 11.5-11.932 11.5-12.5s-5.175-6.193-11.5-12.5l-11.5-11.467v23.967m-75.25 138.8c-26.812 26.515-48.75 48.543-48.75 48.952 0 0.408 22.05 0.743 49 0.743h49v-49c0-26.95-0.112-48.978-0.25-48.951-0.138 0.026-22.187 21.742-49 48.256"/>
    <path d="m808.12 352.51-37.248 37.258 0.506 327.98 74.5 0.524v-201.51c0-110.83-0.115-201.51-0.255-201.51s-17.017 16.766-37.503 37.258m-102 118.54-37.254 36.714 0.254 105 0.255 104.99 74.5 0.524v-142.01c0-78.107-0.112-141.99-0.25-141.97-0.138 0.023-17.015 16.563-37.505 36.756m-101.71 85.167-36.954 36.964-0.016 123.57 74.434 0.524v-99.012c0-54.457-0.115-99.012-0.255-99.012s-16.884 16.634-37.209 36.964"/>
  </g>
</svg>