<svg version="1.1" viewBox="0 0 24 24" xmlns="http://www.w3.org/2000/svg">
  <g transform="matrix(.9959 0 0 .9959 .049086 .048864)" stroke-width=".03283">
    <path
        d="m9.9334 3.1335a0.38904 0.38904 0 1 1-0.77807 0 0.38739 0.38739 0 0 1 0.77478 0zm-3.0926 10.151a0.1346 0.1346 0 0 1-0.18713-0.02298c-2.7446-3.5029-1.1523-8.0335 1.9468-9.8063a0.1346 0.1346 0 1 1 0.13132 0.22981c-2.9777 1.7072-4.4944 6.0571-1.868 9.4123a0.13132 0.13132 0 0 1-0.022981 0.18713zm2.3703-2.6691a0.55155 0.55155 0 1 0 0-1.1031 0.55155 0.55155 0 0 0 0 1.1031zm5.4005 0a0.55155 0.55155 0 1 0 0-1.1031 0.55155 0.55155 0 0 0 0 1.1031z"/>
    <path
        d="m3.9354 11.082a0.31845 0.31845 0 0 1-0.5023-0.26264v-3.1385a0.31845 0.31845 0 0 1 0.49245-0.26264 8.283 8.283 0 0 1 16.159-0.00985 0.31845 0.31845 0 0 1 0.4826 0.27577v3.1352a0.31845 0.31845 0 0 1-0.49245 0.2692 8.2961 8.2961 0 0 1-4.5863 5.6566l-0.0033 0.05581a1.8713 1.8713 0 0 0 0.57124 0.58109 2.9875 2.9875 0 0 0 1.1326 0.32173s-0.52199 0.26264-1.1589 0.20354c-0.40052-0.03283-0.57124 0.06566-0.63362 0.26264l0.04268-0.64675-0.04268 0.64346c-0.06566 1.4675-0.14445 2.3309-0.17072 2.633l-0.0098 0.12475v0.03283c-0.01313 0.08207-0.02626 0.21011 0.29547 0.34143 0.18056 0.07551 0.4826 0.16087 0.74195 0.23309 0.26264 0.07551 0.47932 0.13788 0.47932 0.16087 0 0.04596-1.4412 0-1.4412 0-0.82731 0-0.82731-0.6172-0.82731-0.76822s-0.22324-2.7314-0.22324-2.7314l-0.07551 3.3322c0 0.15102 0.07551 0.37426 0.60078 0.52528 0 0 1.149 0.174 1.149 0.23637 0 0.06566-1.3756 0-1.3756 0-1.044 0-1.044-0.61063-1.044-0.61063l-0.22653-2.7314s-0.07551 2.7314-0.07551 3.1057c0 0.29547 0.05253 0.51871 0.87327 0.66973 0.15758 0.04596 0.38083 0.09192 0.59094 0.13788 0.31845 0.06566 0.60407 0.13132 0.60407 0.16415 0 0.05253-1.8253 0-1.8253 0-0.97504-0.07551-1.067-0.75509-1.067-0.75509l-0.37098-1.3559-0.36769 1.3592s-0.15102 0.67629-1.1293 0.7518c0 0-1.6546 0.05253-1.6546 0 0-0.03283 0.23966-0.09192 0.52528-0.15758 0.18713-0.04596 0.39396-0.09521 0.55811-0.14445 0.57124-0.16743 0.87327-0.37426 0.87327-0.66973 0-0.37426-0.07551-3.1057-0.07551-3.1057l-0.22653 2.7314s0 0.66973-1.044 0.66973c0 0-1.4905 0.0033-1.4905-0.05909 0-0.06566 1.2574-0.23637 1.2574-0.23637 0.52528-0.15102 0.60079-0.37426 0.60079-0.52528l-0.072226-3.3322s-0.22981 2.5804-0.22981 2.7314 0 0.82731-0.82075 0.82731c0 0-1.392-0.06894-1.392-0.11819 0-0.02298 0.174-0.06566 0.39724-0.11819 0.25607-0.05909 0.5778-0.1346 0.77478-0.21668 0.31845-0.13132 0.30532-0.26264 0.29547-0.34143v-0.03283l-0.18387-2.7282c-0.062377-0.19041-0.22981-0.29547-0.63033-0.26264a2.3834 2.3834 0 0 1-1.1622-0.20354 2.9875 2.9875 0 0 0 1.1326-0.31845 1.3329 1.3329 0 0 0 0.5023-0.58109l-0.00328-0.13132a8.2961 8.2961 0 0 1-4.4977-5.6172zm11.579 5.2134 0.03611-0.68286c0.05909-1.1096 0.11162-2.0748 0.15758-3.1976a2.3145 2.3145 0 0 0 0.10506-4.0578v-0.042679c0-2.0945-1.6021-3.9133-3.8575-3.9133-2.2587 0-3.7557 1.8877-3.7557 3.91v0.00657a2.3145 2.3145 0 0 0 0.11819 4.1366l0.10506 3.7984a7.8857 7.8857 0 1 1 7.0912 0.04268zm-2.1471-2.2915c-0.0197 0.83716-0.37098 2.0716-1.4544 2.0716-1.1162 0-1.392-1.3953-1.392-2.1471 0 0 0.49245 0.69599 1.392 0.69599s1.4544-0.69599 1.4544-0.69599zm-4.0709-1.8286a1.8188 1.8188 0 1 0 0-3.6375 1.8188 1.8188 0 0 0 0 3.6375zm5.3513 0a1.8188 1.8188 0 1 0 0-3.6375 1.8188 1.8188 0 0 0 0 3.6375z"
        clip-rule="evenodd" fill-rule="evenodd"/>
  </g>
</svg>