<svg version="1.1" viewBox="0 0 24 24" xmlns="http://www.w3.org/2000/svg" xmlns:xlink="http://www.w3.org/1999/xlink">
  <g transform="matrix(.029471 0 0 .029471 3.4386 .98526)">
    <path id="a"
          d="m336.76 437.61c0 28.31-18.83 43.36-49.29 43.36-30.45 0-47.2-17.84-47.2-43.36 0 0 16.75 23.65 47.2 23.65 30.46 0 49.3-23.65 49.3-23.65z"
          fill="#fff"/>
    <path
        d="m290.5 550.37c150.12 0 271.83-121.52 271.83-271.43 0-149.9-121.71-271.42-271.83-271.42s-271.83 121.52-271.83 271.42c0 149.91 121.71 271.43 271.83 271.43z"
        fill="#e2f5fc" stroke-width="1.01"/>
    <path
        d="m290.5 504.04c121.36 0 219.74-98.45 219.74-219.9s-98.38-219.9-219.74-219.9-219.74 98.45-219.74 219.9 98.38 219.9 219.74 219.9z"
        fill="#cdecf6"/>
    <path
        d="m208.31 91.51a12.98 12.98 0 1 0 0-25.96 12.98 12.98 0 0 0 0 25.96zm-96.57 325.82a4.5 4.5 0 1 0 7.08-5.54c-87.8-112.21-37.15-257.65 62.5-314.74a4.5 4.5 0 0 0-4.47-7.8c-103.62 59.35-156.82 210.87-65.11 328.08z"
        fill="#fff"/>
    <path
        d="m19.26 225.54a3.5 3.5 0 1 0-7 0zm-7 105.38a3.5 3.5 0 1 0 7 0zm555.07-105.88a3.5 3.5 0 1 0-7 0zm-7 105.38a3.5 3.5 0 1 0 7 0zm-270.54 225.55c153.28 0 277.54-124.35 277.54-277.73h-7c0 149.52-121.13 270.73-270.54 270.73zm277.54-277.73c0-153.4-124.26-277.74-277.54-277.74v7c149.41 0 270.54 121.21 270.54 270.74zm-277.54-277.74c-153.28 0-277.53 124.35-277.53 277.74h7c0-149.54 121.12-270.74 270.53-270.74zm-277.53 277.74c0 153.38 124.25 277.73 277.53 277.73v-7c-149.4 0-270.53-121.2-270.53-270.73zm0-52.7v105.38h7v-105.38zm548.07-0.5v105.38h7v-105.38z"
        fill="#b5d2f3"/>
    <path
        d="m21.66 225.73a10.84 10.84 0 1 0-21.66 0v106.43a10.84 10.84 0 1 0 21.66 0zm559.34 0a10.84 10.84 0 1 0-21.66 0v106.43a10.84 10.84 0 1 0 21.66 0z"
        fill="#b5d2f3"/>
    <path
        d="m171.17 687.76c12.53-5.1 9.98-10.2 9.98-12.74l-6.1-92.55-5.37-46.3-8.12-289.07c0-68.6 50.73-132.72 127.3-132.72s130.76 61.71 130.88 132.77c-2.2 137.24-5.9 189.47-11.07 288.02-0.63 13.47-2.38 33.86-2.96 46.32-2.88 61.66-6.14 91.87-6.14 93.53 0 2.55-2.54 7.64 9.98 12.74s41.46 11.71 41.46 13.33c0 1.6-48.89 0-48.89 0-28.02 0-28.02-20.98-28.02-26.07 0-5.1-7.64-92.6-7.64-92.6l-2.55 112.99c0 5.1 2.55 12.74 20.38 17.84 0 0 38.91 5.89 38.91 8.01 0 2.13-46.55 0-46.55 0-35.45 0-35.45-20.75-35.45-20.75l-7.64-92.6s-2.56 92.59-2.56 105.33c0 9.99 1.73 17.63 29.54 22.73 13.43 3.73 40.54 8.35 40.54 10.2s-61.86 0-61.86 0c-33.11-2.55-36.24-25.5-36.24-25.5l-12.55-46.14-12.5 46.15s-5.09 22.94-38.2 25.49c0 0-56.17 1.85-56.17 0s22.5-5.99 36.81-10.2c19.36-5.69 29.55-12.74 29.55-22.73 0-12.74-2.55-105.35-2.55-105.35l-7.64 92.6s0 22.74-35.45 22.74c0 0-50.5 0.15-50.5-1.98 0-2.12 42.64-8 42.64-8 17.83-5.1 20.38-12.75 20.38-17.85l-2.55-113s-7.64 87.5-7.64 92.6 0 28.05-28.02 28.05c0 0-47.13-2.33-47.13-3.95 0-1.6 27.18-6.25 39.7-11.35z"
        fill="#fe733e"/>
    <path
        d="m169.68 536.16s-5.23 12.8-17.05 19.7c-11.81 6.9-25.51 9.14-38.4 10.84 0 0 17.72 8.87 39.39 6.9 13.58-1.1 19.28 2.36 21.42 8.87 1.3286-0.39858-4.6957-46.167-5.36-46.3zm238.99-0.99s7.63 12.8 19.45 19.7 25.51 9.15 38.4 10.85c0 0-17.72 8.87-39.38 6.9-13.58-1.1-19.29 2.35-21.43 8.87-1.1958-0.53144 2.03-46.187 2.96-46.32z"
        fill="#fe6446"/>
    <path
        d="m408.81 533 0.99-16.02c-62.56 29.54-120.7 26.43-120.7 26.43s-58.49 2.45-119.92-26.57l0.4 15.57s43.82 26.94 119.52 26.94 119.71-26.35 119.71-26.35z"
        fill="#fe6446" opacity=".3"/>
    <path d="m238.78 194.25a17.84 17.84 0 1 0-0.01-35.67 17.84 17.84 0 0 0 0.01 35.67z" fill="#fea777" opacity=".5"/>
    <path
        d="m419.5 249.06s1.88-22.34-7.88-48.94c-26.77-73.01-92.56-87.71-128.02-85.64 0 0 50.28 23.76 52.61 99.8 1.06 33.72 1.06 34.78 1.06 34.78z"
        fill="#fe6b3c"/>
    <use xlink:href="#a"/>
    <use xlink:href="#a"/>
    <path
        d="m336.76 437.61c0 28.31-11.39 72.92-49.29 72.92s-47.2-47.4-47.2-72.92c0 0 0 43.36 47.2 43.36 51.62 0 49.3-43.36 49.3-43.36z"
        fill="#fff"/>
    <path
        d="m336.76 437.61c0 28.31-11.39 72.92-49.29 72.92s-47.2-47.4-47.2-72.92c0 0 0 43.36 47.2 43.36 51.62 0 49.3-43.36 49.3-43.36z"
        fill="#070909"/>
    <path
        d="m197.93 394.25a77.82 77.82 0 0 0 77.8-77.85c0-43-34.83-77.85-77.8-77.85a77.82 77.82 0 0 0-77.8 77.85c0 43 34.84 77.85 77.8 77.85z"
        fill="#fe6446"/>
    <path
        d="m197.73 378.32a60.94 60.94 0 0 0 60.92-60.96 60.94 60.94 0 0 0-60.92-60.97 60.94 60.94 0 0 0-60.92 60.97 60.94 60.94 0 0 0 60.92 60.96z"
        fill="#fff"/>
    <path d="m195.96 325.27a18.72 18.72 0 1 0-0.01-37.44 18.72 18.72 0 0 0 0.01 37.44z" fill="#090b0b"/>
    <path
        d="m381.1 394.25a77.82 77.82 0 0 0 77.79-77.85c0-43-34.83-77.85-77.8-77.85a77.82 77.82 0 0 0-77.79 77.85c0 43 34.83 77.85 77.8 77.85z"
        fill="#fe6446"/>
    <path
        d="m378 378.21a60.94 60.94 0 0 0 60.93-60.96 60.94 60.94 0 0 0-60.93-60.96 60.94 60.94 0 0 0-60.92 60.96 60.94 60.94 0 0 0 60.92 60.96z"
        fill="#fff"/>
    <path d="m379.13 325.27a18.72 18.72 0 1 0-0.02-37.44 18.72 18.72 0 0 0 0.01 37.44z" fill="#090b0b"/>
  </g>
</svg>