<svg version="1.1" viewBox="0 0 24 24" xmlns="http://www.w3.org/2000/svg">
 <g transform="matrix(.96868 0 0 .96868 .37569 .37569)" stroke-width=".029963">
  <path d="m23.356 12c0 1.1953-0.73203 2.2601-1.0815 3.3373-0.36276 1.1177-0.40912 2.4069-1.0862 3.3373-0.68385 0.9397-1.9001 1.3791-2.8398 2.0629-0.93041 0.67704-1.7206 1.702-2.8379 2.0651-1.0784 0.35012-2.3154-0.0034-3.5105-0.0034s-2.4319 0.3535-3.5099 0.0034c-1.1177-0.36309-1.9078-1.3881-2.8382-2.0651-0.9397-0.68385-2.156-1.1233-2.8398-2.0629-0.67704-0.93011-0.7234-2.2193-1.0862-3.3373-0.35012-1.0784-1.0815-2.1433-1.0815-3.3373 0-1.194 0.73203-2.2601 1.0815-3.3373 0.36276-1.1177 0.40911-2.4069 1.0862-3.3373 0.68385-0.93937 1.9001-1.3791 2.8398-2.0626 0.93041-0.67704 1.7206-1.7023 2.8382-2.0651 1.0781-0.35012 2.3151 0.00309 3.5099 0.00309s2.4319-0.3532 3.5099-0.00309c1.1177 0.36276 1.9078 1.3881 2.8382 2.0651 0.9397 0.68352 2.156 1.1233 2.8398 2.0626 0.67704 0.93041 0.7234 2.2196 1.0862 3.3373 0.34949 1.0772 1.0815 2.1424 1.0815 3.3373z" fill="#326ce5"/>
  <g fill="#fdfdfe">
   <path d="m2.1488 11.992c0.020126-5.4572 4.3839-9.7533 9.6646-9.8443 5.61-0.096709 9.9726 4.4028 10.038 9.7152 0.06742 5.5288-4.3794 9.9879-9.8401 9.9909-5.4497 0.0029-9.8521-4.3968-9.8617-9.8614zm18.843 0.0032c0.002607-4.9448-3.9758-8.932-8.8783-8.9895-5.0754-0.059746-9.1106 4.0288-9.1043 9.0009a8.9817 8.9817 0 0 0 8.9952 8.9886c4.9906-0.0017 8.9958-4.0471 8.9874-9z"/>
   <path d="m12.412 12.734q0 0.83219 3e-6 1.6644c3e-6 0.13531 0.0014 0.13513 0.1359 0.12935a4.949 4.949 0 0 0 0.88352-0.12878c0.48046-0.10898 0.8309-0.39521 1.1038-0.79144 0.02694-0.03911 0.02836-0.06519-0.02841-0.08169-0.19103-0.05551-0.20299-0.10625-0.05853-0.246q0.34254-0.33136 0.68804-0.65964c0.08932-0.08535 0.17034-0.06612 0.19994 0.05169q0.12009 0.478 0.23362 0.95762c0.02633 0.11097-0.05508 0.18734-0.16702 0.16233a0.36459 0.36459 0 0 1-0.05473-0.01636c-0.0555-0.02199-0.08936 6.26e-4 -0.11601 0.04943a4.0099 4.0099 0 0 1-0.37688 0.5788c-0.2845 0.35773-0.62122 0.65526-1.0253 0.86905-0.30302 0.16031-0.61038 0.3147-0.94473 0.40336a1.0954 1.0954 0 0 1-0.24567 0.0433c-0.07505 0.0023-0.12769 0.04068-0.178 0.09097-0.11324 0.11317-0.22858 0.22426-0.34392 0.33532q-0.11864 0.11422-0.23765-0.0017-0.19247-0.18779-0.38281-0.37774a0.20339 0.20339 0 0 0-0.11028-0.05977c-0.62336-0.12174-1.1617-0.41724-1.6469-0.81647a3.6774 3.6774 0 0 1-0.9314-1.1674c-0.053709-0.10388-0.1116-0.1298-0.22861-0.10674-0.11623 0.02291-0.17724-0.041355-0.14221-0.15415q0.15284-0.49217 0.30928-0.98321c0.028484-0.08952 0.11396-0.1082 0.17784-0.03879q0.35887 0.38997 0.71543 0.78204c0.064444 0.07064 0.027182 0.16125-0.058395 0.17036a0.48169 0.48169 0 0 0-0.055584 0.01359c-0.056405 0.01301-0.060831 0.04245-0.032708 0.08883a2.0419 2.0419 0 0 0 0.59285 0.64241c0.13164 0.08963 0.28964 0.13337 0.44339 0.17639a6.1059 6.1059 0 0 0 1.0554 0.19234c0.07391 0.0072 0.0973-0.01307 0.09772-0.09366 9.44e-4 -0.17934 3.06e-4 -0.35869 3.06e-4 -0.53805q2e-6 -1.4061-7e-6 -2.8122c-2e-6 -0.10779-0.0071-0.1154-0.11154-0.11549-0.23662-2.1e-4 -0.47326 0.0014-0.70985-9.5e-4a0.37229 0.37229 0 0 0-0.19565 0.05633c-0.16392 0.09463-0.32669 0.0753-0.46763-0.05101-0.11846-0.10618-0.15251-0.28894-0.08354-0.44837 0.08867-0.20493 0.36393-0.28907 0.55189-0.16748a0.34071 0.34071 0 0 0 0.19494 0.05817c0.23906-0.0024 0.47815-6.83e-4 0.71725-9.92e-4 0.09099-1.2e-4 0.10381-0.01326 0.10408-0.10356 2.39e-4 -0.07891-0.0035-0.15804 0.0012-0.23667 0.0036-0.060441-0.0223-0.090093-0.07537-0.11282-0.2185-0.093562-0.41256-0.22-0.53975-0.42853-0.44315-0.72654-0.0058-1.5451 0.72049-1.6899a1.1125 1.1125 0 0 1 1.2039 0.58662c0.244 0.48987 0.12472 1.168-0.47054 1.4709-0.08342 0.042457-0.12253 0.092706-0.11301 0.18871a2.1719 2.1719 0 0 1 0.0012 0.26524c-1e-3 0.04346 0.0167 0.06041 0.05882 0.06031 0.24393-5.67e-4 0.48786-2.1e-4 0.73179-3.87e-4a0.21985 0.21985 0 0 0 0.11726-0.04863 0.38601 0.38601 0 0 1 0.48148 0.04015 0.40528 0.40528 0 0 1 0.07366 0.47518 0.39698 0.39698 0 0 1-0.44711 0.18803 0.10186 0.10186 0 0 1-0.03968-0.01549c-0.12215-0.10382-0.26782-0.08278-0.40962-0.07627a4.35 4.35 0 0 1-0.47977 0.0045c-0.07067-0.0046-0.08789 0.02118-0.0876 0.08875 0.0024 0.56196 0.0014 1.1239 0.0014 1.6859zm-0.40459-3.2588c0.29959 0.00727 0.55183-0.24503 0.55923-0.55935a0.56543 0.56543 0 0 0-1.1304-0.028778c-0.0095 0.33681 0.22648 0.57978 0.57124 0.58814z"/>
   <path d="m6.3159 16.216c-0.12498 0.07965-0.23118 0.18292-0.3461 0.2752-0.018595 0.01493-0.037076 0.03013-0.056702 0.04362a0.08167 0.08167 0 0 1-0.10085 0.0016 0.49319 0.49319 0 0 1-0.15571-0.20057c-0.018927-0.04957 0.024469-0.08307 0.059432-0.1114 0.15942-0.12917 0.32039-0.25643 0.47953-0.38592q0.18591-0.15126 0.36846-0.30661c0.048423-0.04137 0.090575-0.04709 0.13631 0.0014 0.022871 0.02423 0.049244 0.04512 0.073065 0.0685 0.073481 0.07215 0.082278 0.15327 0.043998 0.24818-0.063863 0.15834-0.12128 0.31929-0.18484 0.48822 0.1666-0.02397 0.32432-0.04502 0.48145-0.06977a0.31036 0.31036 0 0 1 0.32929 0.16199c0.030568 0.05762 0.01039 0.09854-0.036082 0.13601q-0.32027 0.25826-0.63926 0.51812c-0.072187 0.05865-0.14276 0.11933-0.21583 0.17685-0.084517 0.06653-0.11701 0.06102-0.1811-0.02303-0.023072-0.03026-0.047455-0.05965-0.072876-0.08797-0.053915-0.06006-0.052381-0.10602 0.010187-0.15766 0.10486-0.08655 0.21106-0.17147 0.31629-0.25758 0.015295-0.01251 0.044423-0.02228 0.034401-0.04584-0.00856-0.02012-0.037427-0.01774-0.058338-0.01639-0.047554 0.0031-0.09504 0.0079-0.14239 0.01338-0.15798 0.01841-0.25159-0.093-0.2041-0.24427 0.022798-0.07263 0.047174-0.14476 0.070785-0.21714-2.28e-5 -0.0052 1.5e-6 -0.01044 2.58e-5 -0.01565z"/>
   <path d="m3.7927 12.128a1.4961 1.4961 0 0 1 0.27819 0.11909c0.49076 0.24915 1.0121 0.30388 1.552 0.26121 0.34868-0.02755 0.67096-0.13777 0.98144-0.29057a3.0068 3.0068 0 0 1 1.3077-0.32417c0.48822-6e-3 0.95097 0.07948 1.3906 0.29655 0.23877 0.1179 0.48339 0.22484 0.74794 0.27615a3.4401 3.4401 0 0 0 0.90548 0.04397 2.4893 2.4893 0 0 0 0.4925-0.08706c0.03661-0.01022 0.04438-5.52e-4 0.04614 0.03504 0.0057 0.11608 0.0079 0.11973-0.10246 0.14269-0.67836 0.14117-1.3412 0.11439-1.9781-0.18702-0.15284-0.072328-0.30385-0.15038-0.46182-0.20956a2.2475 2.2475 0 0 0-0.54811-0.1285c-0.4113-0.04414-0.82057-0.03598-1.2217 0.0801-0.21142 0.06118-0.40929 0.15701-0.60729 0.25062a2.7772 2.7772 0 0 1-1.1252 0.27096c-0.34817 0.0095-0.69062-0.01525-1.0247-0.11856-0.20775-0.064231-0.40159-0.16235-0.6001-0.24908a0.046095 0.046095 0 0 1-0.03301-0.0485c0.0018-0.04273 4.884e-4 -0.0856 4.884e-4 -0.13337z"/>
   <path d="m13.97 5.0376c-8e-3 0.18203-0.06209 0.33774-0.24256 0.41987-0.05355 0.024371-0.06323 0.059968-0.04574 0.11532 0.03867 0.12238 0.07277 0.24627 0.10627 0.37019 0.01831 0.067752-0.0029 0.099031-0.0725 0.093859-0.18945-0.014068-0.26668-0.00982-0.33262-0.22971-0.02526-0.084259-0.05401-0.16769-0.07457-0.25309-0.02268-0.094213-0.08016-0.10514-0.16891-0.10178-0.03019 0.00114-0.03501 0.024116-0.04007 0.049766-0.01615 0.081904-0.03339 0.1637-0.05392 0.2446-0.0165 0.065026-0.04854 0.12341-0.12125 0.13551a0.28518 0.28518 0 0 1-0.22703-0.062949c-0.0391-0.03088-0.02168-0.080265-0.01369-0.12149q0.08577-0.44246 0.17381-0.88451c0.01661-0.084106 0.03275-0.16832 0.05107-0.25206 0.01034-0.047252 0.03789-0.079516 0.09097-0.069367 0.25223 0.048219 0.5106 0.074806 0.74701 0.18362 0.14674 0.067537 0.22295 0.20174 0.22371 0.36219zm-0.79129-0.030547c-0.0057 0.098093 0.05983 0.17607 0.16517 0.16222a0.40222 0.40222 0 0 1 0.09157 0.00644c0.06183 0.00619 0.11868-0.010735 0.14664-0.075708a0.12346 0.12346 0 0 0-0.033985-0.15445 0.32141 0.32141 0 0 0-0.23063-0.078162c-0.09484 0.00196-0.13919 0.046485-0.13876 0.13965z"/>
   <path d="m10.308 18.777c0.04308-0.16126 0.08649-0.32243 0.12912-0.48381 0.03243-0.12278 0.06654-0.14237 0.19019-0.10712 0.01837 0.0052 0.03676 0.01038 0.05513 0.01558 0.12992 0.03673 0.14546 0.06452 0.10844 0.19506-0.08266 0.29149-0.16592 0.58281-0.24774 0.87453-0.01607 0.05729-0.02688 0.11607-0.03984 0.17422a0.068456 0.068456 0 0 1-0.08058 0.06177c-0.19432-0.01442-0.24252-0.04477-0.29306-0.21116-0.05449-0.17939-0.1198-0.35551-0.18102-0.53283a0.70045 0.70045 0 0 0-0.034059-0.06749c-0.041352 0.15236-0.080385 0.2856-0.11342 0.42032-0.054128 0.2207-0.07441 0.21183-0.26546 0.15801-0.1213-0.03417-0.1398-0.06595-0.10447-0.19011 0.09922-0.34868 0.20784-0.69481 0.2876-1.0488a0.076304 0.076304 0 0 1 0.090668-0.06819c0.16884 0.0093 0.23191 0.0566 0.28514 0.2168q0.09871 0.29705 0.19788 0.59393z"/>
   <path d="m17.389 15.613c0.24449 0.0066 0.41178 0.15894 0.44231 0.38667 0.01669 0.12451 0.02101 0.127 0.14912 0.14787 0.10133 0.01651 0.20222 0.03602 0.30278 0.05676 0.07099 0.01463 0.08211 0.03958 0.04903 0.10452-0.0756 0.14839-0.19105 0.25628-0.39386 0.18556a1.291 1.291 0 0 0-0.20987-0.04409 0.13803 0.13803 0 0 0-0.15375 0.10759c-0.0084 0.03419 0.01826 0.04167 0.03447 0.05495 0.07362 0.06035 0.14876 0.11886 0.22379 0.17746a0.088163 0.088163 0 0 1 0.02034 0.13194 1.0561 1.0561 0 0 1-0.09909 0.13048c-0.05272 0.05705-0.09393 0.05955-0.15656 0.01109-0.13557-0.10488-0.26894-0.21261-0.40405-0.31809q-0.21103-0.16475-0.4238-0.32722c-0.10878-0.08265-0.11684-0.12794-0.03273-0.23449 0.10474-0.1327 0.20786-0.26685 0.31725-0.39566 0.09106-0.10724 0.20344-0.18066 0.33463-0.17532zm0.10866 0.48396c0.0026-0.08358-0.1005-0.15423-0.16294-0.11821a0.60366 0.60366 0 0 0-0.20048 0.18935c-0.01131 0.01689-0.01894 0.03496-0.0041 0.05233a0.69955 0.69955 0 0 0 0.15974 0.14029 0.026423 0.026423 0 0 0 0.033-0.0044 0.62167 0.62167 0 0 0 0.17479-0.25934z"/>
   <path d="m10.213 4.7281c0.0034-0.082186 0.04781-0.10823 0.10726-0.11772 0.15062-0.024064 0.30155-0.046338 0.45196-0.07157 0.10334-0.017336 0.20565-0.040995 0.30916-0.057133 0.10784-0.016813 0.12856 3.955e-4 0.14987 0.108 0.03615 0.18262 0.0283 0.19275-0.15881 0.22101-0.12007 0.018133-0.23992 0.037771-0.35965 0.05811-0.06725 0.011422-0.09351 0.047063-0.08411 0.10889 0.01248 0.082156 0.03473 0.1037 0.11195 0.09172 0.12471-0.019354 0.24888-0.042592 0.37274-0.066961 0.10664-0.020983 0.13885-0.00302 0.1639 0.10138 0.0055 0.023071 7e-3 0.047099 0.0108 0.070611 0.0156 0.096538-0.0093 0.13378-0.10242 0.14949-0.1199 0.020225-0.23956 0.042709-0.36013 0.058008-0.1168 0.014821-0.11705 0.058389-0.09421 0.1672 0.01216 0.057958 0.06692 0.053448 0.11264 0.045586 0.1408-0.024216 0.28119-0.050862 0.42191-0.075549 0.02569-0.00451 0.05223-0.00413 0.07837-0.00619a0.072705 0.072705 0 0 1 0.0526 0.019096c0.01731 0.014254 0.06042 0.22804 0.05037 0.24704-0.01905 0.036004-0.05554 0.043701-0.0903 0.050044-0.2388 0.043584-0.47782 0.085946-0.7168 0.12866-0.03045 0.00544-0.06085 0.011208-0.09144 0.015785-0.09468 0.014172-0.12139-0.0033-0.13774-0.096568-0.04895-0.27932-0.09655-0.55887-0.14464-0.83836-0.01857-0.10793-0.03704-0.21588-0.05329-0.3106z"/>
   <path d="m14.874 18.77c0.0021 0.18603-0.09911 0.31272-0.23987 0.41631-0.23002 0.16924-0.54287 0.17247-0.75354 0.0087-0.08233-0.064-0.12915-0.15336-0.16726-0.2458a2.0796 2.0796 0 0 1-0.11212-0.37574c-0.03244-0.15837 0.01555-0.29648 0.12378-0.41484a0.70901 0.70901 0 0 1 0.74797-0.18268 0.42317 0.42317 0 0 1 0.20391 0.16251c0.0321 0.04671 0.02078 0.08294-0.03103 0.1009-0.12379 0.04294-0.2448 0.0857-0.38059 0.02856a0.22365 0.22365 0 0 0-0.30694 0.23572 0.85682 0.85682 0 0 0 0.15156 0.4116c0.05483 0.07647 0.13348 0.09484 0.24353 0.06101 0.09159-0.02816 0.16702-0.11331 0.16954-0.19263 0.0012-0.03854-0.01823-0.05832-0.05718-0.05377a0.26446 0.26446 0 0 0-0.0402 0.0141 0.19188 0.19188 0 0 1-0.05527 0.01323c-0.11541-0.0028-0.08932-0.11208-0.12563-0.17342-0.02534-0.04282-0.01925-0.09452 0.0335-0.115 0.13053-0.05068 0.26274-0.09737 0.39575-0.14116a0.080001 0.080001 0 0 1 0.0995 0.0509 1.0121 1.0121 0 0 1 0.10058 0.3915z"/>
   <path d="m15.388 13.947a3.3888 3.3888 0 0 0 0.58638 0.06028c0.43359 0.0071 0.84861-0.07031 1.241-0.26161 0.33753-0.16456 0.68295-0.30655 1.0621-0.34601 0.57463-0.05978 1.1331-0.01005 1.6632 0.23792 0.03325 0.01555 0.09125 0.02291 0.0914 0.05789a0.61805 0.61805 0 0 1-0.03916 0.18789c-0.0097 0.02984-0.03595 4e-3 -0.05281-0.0033-0.20068-0.08717-0.40022-0.17596-0.61673-0.22038-0.3114-0.06389-0.62485-0.06868-0.94024-0.04687-0.36135 0.02498-0.69304 0.14744-1.0131 0.307a2.9487 2.9487 0 0 1-1.462 0.30637 3.363 3.363 0 0 1-0.60262-0.07193c-0.04035-0.0091-0.0551-0.02015-0.02683-0.05985a0.73541 0.73541 0 0 0 0.05962-0.106c0.01434-0.02951 0.03235-0.04678 0.04982-0.04144z"/>
   <path d="m16.211 17.102c0.0031 0.03244-0.02025 0.05454-0.04903 0.07461-0.11544 0.08049-0.23102 0.16082-0.34517 0.24312-0.02726 0.01966-0.0691 0.03463-0.06064 0.07938a0.17181 0.17181 0 0 0 0.08385 0.11115c0.02643 0.01652 0.0538-0.0044 0.07767-0.02164 0.11013-0.07969 0.22188-0.15718 0.33061-0.2387a0.078392 0.078392 0 0 1 0.11906 0.0094c0.0082 0.0086 0.01774 0.01623 0.02516 0.0255 0.1262 0.15758 0.1045 0.18219-0.02256 0.26476-0.08788 0.05711-0.17207 0.11996-0.25701 0.1815-0.073 0.05288-0.077 0.08147-0.0252 0.15261 0.0431 0.05919 0.0736 0.06367 0.14458 0.01354 0.11297-0.07979 0.2232-0.16347 0.33648-0.24279 0.08658-0.06062 0.11203-0.05454 0.17555 0.03029 0.1064 0.14209 0.10482 0.15814-0.03606 0.25892q-0.29112 0.20824-0.58383 0.41427c-0.07647 0.05395-0.10531 0.05137-0.15986-0.02474q-0.32315-0.45082-0.64244-0.90443c-0.05365-0.07621-0.04411-0.1114 0.03262-0.16609q0.30589-0.21805 0.61172-0.43617c0.07351-0.05245 0.11602-0.04787 0.16705 0.02658 0.03039 0.04435 0.0745 0.08268 0.07742 0.14896z"/>
   <path d="m8.1296 18.463c0.015415-0.05311-0.01185-0.08628-0.061041-0.11582-0.097649-0.05862-0.19248-0.1221-0.28683-0.18601a0.072172 0.072172 0 0 0-0.10129 0.0068c-0.10258 0.08728-0.13952 0.08771-0.25207 0.01176-0.02565-0.01731-0.049966-0.03659-0.075435-0.05417-0.078461-0.05417-0.081616-0.07734-0.00454-0.13781 0.31314-0.24567 0.62802-0.48912 0.94174-0.73403a0.11721 0.11721 0 0 1 0.15612-0.0054c0.071513 0.05037 0.15714 0.07824 0.22209 0.1401a0.13878 0.13878 0 0 1 0.044717 0.14681c-0.078749 0.31689-0.15469 0.63447-0.23239 0.9516-0.015215 0.0621-0.039314 0.12119-0.04217 0.18719-0.00273 0.0631-0.044306 0.09019-0.10844 0.08322-0.11719-0.01272-0.20655-0.14034-0.20046-0.29423zm0.18559-0.79345c-0.059219 0.04524-0.10616 0.08043-0.15238 0.11653-0.17097 0.13352-0.16845 0.15785 0.019534 0.26733 0.031563 0.01838 0.045463 0.01662 0.055764-0.01796a1.7357 1.7357 0 0 0 0.077086-0.36591z"/>
   <path d="m12.217 18.305c0.12102-6.47e-4 0.18797 0.06468 0.23228 0.15941 0.07057 0.15086 0.124 0.30862 0.18324 0.46404q0.11297 0.29634 0.22408 0.59339c0.03289 0.08826 0.01784 0.10792-0.07835 0.11277a0.93518 0.93518 0 0 0-0.09934 0.0091c-0.09901 0.01571-0.16019-0.01375-0.18575-0.11059-0.02006-0.07602-0.06332-0.08919-0.13062-0.08547-0.10473 0.0058-0.20981 9e-3 -0.31464 0.0076-0.05373-7.44e-4 -0.08933 0.01712-0.10129 0.06832-0.02524 0.10807-0.2242 0.18194-0.32249 0.15925-0.06383-0.01474-0.06994-0.06066-0.05204-0.11722q0.10888-0.3441 0.21531-0.68897c0.04175-0.13426 0.08497-0.2681 0.12356-0.40327 0.02469-0.0865 0.06846-0.14147 0.1656-0.15043 0.04922-0.0045 0.09879-0.01298 0.14048-0.01791zm-0.01846 0.42859c-0.0066 7e-3 -0.01128 0.0098-0.01253 0.01361q-0.0351 0.10874-0.06944 0.21773c-0.05976 0.18935-0.04499 0.20586 0.15454 0.18477 0.05588-0.0059 0.07112-0.02796 0.05145-0.07996-0.04193-0.11085-0.08215-0.22234-0.12402-0.33616z"/>
   <path d="m8.4541 5.398a0.45559 0.45559 0 0 1 0.36678 0.16214c0.040519 0.046209 0.039701 0.091348-0.012345 0.1274-0.10502 0.072753-0.21513 0.12015-0.34748 0.065256-0.099139-0.041115-0.20986-0.00388-0.28985 0.086326-0.064259 0.072465-0.072223 0.15567-0.016116 0.25835 0.0491 0.089853 0.1029 0.17734 0.15847 0.2634 0.051581 0.07989 0.11748 0.14072 0.22369 0.1193 0.12633-0.025474 0.21438-0.10796 0.22994-0.22304 0.01865-0.13791 0.10237-0.22092 0.22026-0.27675 0.056273-0.026647 0.093437-0.00682 0.11557 0.053646 0.081949 0.22384 0.00693 0.40896-0.14787 0.5666-0.1534 0.15622-0.34059 0.2409-0.5663 0.21993a0.46377 0.46377 0 0 1-0.30158-0.14829 1.3644 1.3644 0 0 1-0.28991-0.44858c-0.10835-0.28659 0.0087552-0.57409 0.28132-0.7234a0.80627 0.80627 0 0 1 0.37541-0.10232z"/>
   <path d="m3.9596 13.679c0.23938 0.10517 0.45963 0.21608 0.7029 0.26262 0.59893 0.11458 1.186 0.09628 1.7528-0.15685 0.21521-0.09611 0.42622-0.20281 0.65116-0.27586a2.9541 2.9541 0 0 1 0.9747-0.13056c0.066341 0.0012 0.15098-0.02534 0.19402 0.01647 0.036929 0.03588-0.00563 0.12019 0.017732 0.18242 0.013396 0.03567-0.018478 0.02942-0.038308 0.0289-0.13118-0.0035-0.26222-0.0051-0.39356-0.0022-0.38661 0.0084-0.74653 0.11552-1.092 0.28233-0.30592 0.14772-0.61889 0.27401-0.96085 0.31302-0.5885 0.06715-1.1618 0.02758-1.7055-0.23233-0.019606-0.0094-0.039791-0.01554-0.045478-0.04045-0.017941-0.0786-0.036489-0.15705-0.057583-0.24749z"/>
   <path d="m10.671 11.377c-0.483 0.02444-0.935-0.09178-1.3645-0.30808-0.70485-0.35494-1.438-0.39902-2.1905-0.18604-0.19714 0.0558-0.38116 0.14985-0.5654 0.2388-0.43186 0.20847-0.88837 0.27956-1.3634 0.26343a2.7647 2.7647 0 0 1-0.79438-0.13152c-0.17407-0.05854-0.3384-0.14032-0.50712-0.21165-0.053829-0.02276-0.03927-0.06443-0.027484-0.09555 0.015931-0.04207 0.04347-0.0035 0.061829 5e-3 0.29443 0.13618 0.58991 0.2697 0.91672 0.30838 0.53307 0.06312 1.0562 0.04367 1.5587-0.1762 0.25931-0.11346 0.51114-0.2463 0.78611-0.32189 0.36138-0.09937 0.72912-0.11102 1.1008-0.08789 0.40076 0.02494 0.76729 0.16013 1.1216 0.3355a2.7708 2.7708 0 0 0 1.3569 0.2799 3.269 3.269 0 0 0 0.67249-0.08952c0.01836-0.0046 0.05287-0.03624 0.0596 0.01256 0.0047 0.03388 0.01072 0.06992-0.0418 0.08253a2.875 2.875 0 0 1-0.50104 0.08129c-0.09275 0.0055-0.1861 9.8e-4 -0.27918 9.8e-4z"/>
   <path d="m15.487 12.483a3.8847 3.8847 0 0 0 0.56342 0.03898 2.7073 2.7073 0 0 0 1.2222-0.28333c0.2986-0.14565 0.60483-0.27066 0.93919-0.31314a3.7906 3.7906 0 0 1 0.99876 0.0046c0.34511 0.04742 0.65649 0.19132 0.96742 0.3366 0.02614 0.01221 0.04371 0.15073 0.02112 0.16917-0.02216 0.0181-0.04031-0.0042-0.05826-0.01241-0.18396-0.08427-0.36621-0.17263-0.55758-0.23941-0.33391-0.1165-0.67977-0.1376-1.0298-0.12976a2.6513 2.6513 0 0 0-1.1536 0.30044 2.9257 2.9257 0 0 1-1.4005 0.32705c-0.13832-0.0026-0.27671-0.0084-0.41454-0.02366a0.061781 0.061781 0 0 1-0.06357-0.05387c-8e-3 -0.03707-0.02046-0.07317-0.0343-0.12129z"/>
   <path d="m16.308 6.1549a0.29139 0.29139 0 0 1-0.04514-0.014454c-0.02548-0.012613-0.04958-0.027984-0.07439-0.041975-0.17468-0.098521-0.19442-0.10332-0.29596 0.058928-0.12708 0.20305-0.25669 0.40453-0.38631 0.60597-0.05776 0.089757-0.09288 0.095558-0.17993 0.03603-0.02937-0.020083-0.05905-0.039761-0.08928-0.058518-0.09572-0.059408-0.10346-0.091759-0.04147-0.18972 0.09388-0.14837 0.18904-0.29593 0.28275-0.44438 0.05961-0.094437 0.11494-0.1917 0.1778-0.28388 0.02082-0.030538 0.01266-0.044207-0.0067-0.065271-0.04638-0.050482-0.11034-0.073278-0.16717-0.10682-0.09683-0.057148-0.11359-0.1104-0.05757-0.20419 0.07609-0.12738 0.1219-0.14437 0.22446-0.079726q0.37634 0.23725 0.75156 0.47629c0.08963 0.057238 0.0967 0.088442 0.04159 0.18135-0.0319 0.053784-0.0561 0.11812-0.13423 0.13039z"/>
   <path d="m20.162 11.134c-0.19865-0.08571-0.3879-0.18175-0.58922-0.24931-0.3283-0.11017-0.66704-0.13047-1.0099-0.12454-0.4312 0.0075-0.83225 0.12631-1.2133 0.3203-0.59273 0.30179-1.2188 0.36052-1.8679 0.26515-0.28658-0.04211-0.55024-0.15021-0.80981-0.27102a3.986 3.986 0 0 0-0.54994-0.22023c-0.04425-0.01306-0.04255-0.03045-0.03559-0.0652 0.0089-0.04427 0.03367-0.03449 0.06287-0.02624a3.2396 3.2396 0 0 1 0.56948 0.228c0.66892 0.33544 1.3659 0.37628 2.0822 0.20196 0.22289-0.05425 0.42862-0.15955 0.63507-0.25799a2.7763 2.7763 0 0 1 1.1543-0.2714c0.40249-0.0081 0.79558 0.03377 1.1709 0.18848 0.11009 0.04538 0.21679 0.09902 0.32711 0.14382 0.0632 0.02567 0.08921 0.06517 0.07381 0.13824z"/>
   <path d="m15.089 12.379c-0.0088 0.01014-0.01199 0.01352-0.01483 0.0172-0.08707 0.11322-0.18198 0.07942-0.29051 0.02819-0.26212-0.12373-0.52309-0.25173-0.81077-0.31108a3.3499 3.3499 0 0 0-0.88942-0.05127 2.1942 2.1942 0 0 0-0.42377 0.06416c-0.04318 0.01136-0.05851 0.0015-0.05838-0.04639 2.99e-4 -0.10593-0.0029-0.10875 0.10225-0.12695 0.54086-0.09366 1.0766-0.08864 1.6017 0.09181 0.23446 0.08058 0.45253 0.20004 0.68208 0.29245 0.03285 0.01322 0.06549 0.02697 0.10165 0.04189z"/>
   <path d="m13.342 13.597a2.8601 2.8601 0 0 0-0.68166 0.077c-0.05185 0.01337-0.0591-0.0048-0.05934-0.05073-9.23e-4 -0.1701-0.0026-0.1721 0.15502-0.19747 0.4623-0.07438 0.9219-0.06987 1.3781 0.04716 0.07652 0.01963 0.0839 0.09661 0.13221 0.13928 0.01626 0.01437-0.08846 0.10271-0.11915 0.09361a2.3302 2.3302 0 0 0-0.48357-0.09048c-0.10704-0.0083-0.2144-0.01239-0.32162-0.01837z"/>
   <path d="m10.32 13.998c0.14268-0.0012 0.28392 0.01322 0.42586 0.0083a2.923 2.923 0 0 0 0.69817-0.09957c0.03727-0.01054 0.04875-0.01015 0.05064 0.0331 8e-3 0.18392 0.0069 0.17545-0.16881 0.22731-0.21555 0.06362-0.41981 0.01474-0.62488-0.03817-0.12976-0.03348-0.26086-0.06565-0.38098-0.13098z"/>
  </g>
 </g>
</svg>