<svg version="1.1" viewBox="0 0 24 24" xmlns="http://www.w3.org/2000/svg">
 <g transform="matrix(.029024 0 0 .029024 .4261 .49633)">
  <path d="m402.52 96.166c-154.5-1.8186-280.09 111.54-300.82 257.39 18.185 0.8946 28.323 5.6707 38.157 10.306 6.4249 3.0285 12.648 5.9576 20.928 7.8886 17.406 1.9483 34.488 1.1835 50.91-6.0013 8.6546-3.7864 17.059-8.22 26.236-10.743 12.061-3.3164 24.334-3.7051 36.74-2.9332a81.616 81.616 0 0 1 21.243 4.3577 108.5 108.5 0 0 1 18.959 7.4308c3.6999 1.7443 7.3334 3.4551 11.33 4.9624a95.606 95.606 0 0 0 31.187 3.7878 109.1 109.1 0 0 0 22.444-2.9878c0.61273-0.15271 1.7643-1.2094 1.9893 0.41925a5.6943 5.6943 0 0 1 0.0849 1.2815c2.2266-0.57587 4.3082-1.2231 6.2891-1.9247v-4.3705c-6e-5 -3.5973-0.23706-3.8515-3.7224-3.8545-7.8972-7e-3 -15.795 0.0472-23.691-0.0317a12.425 12.425 0 0 0-6.5298 1.8799c-5.4708 3.1584-10.904 2.5131-15.607-1.7023-3.9536-3.5436-5.09-9.6431-2.788-14.964 2.9593-6.8392 12.146-9.6476 18.419-5.5894a11.372 11.372 0 0 0 6.5062 1.9415c7.9786-0.0786 15.958-0.0228 23.938-0.0331 3.0368-4e-3 3.4646-0.44244 3.4736-3.4563 8e-3 -2.6336-0.11634-5.2744 0.0398-7.8987 0.12006-2.0172-0.74438-3.0069-2.5154-3.7653-7.2923-3.1226-13.769-7.3423-18.014-14.302-14.79-24.248-0.19342-51.566 24.046-56.401a37.129 37.129 0 0 1 40.178 19.578c8.1433 16.349 4.1624 38.98-15.704 49.092-2.784 1.417-4.0893 3.094-3.7716 6.2981a72.492 72.492 0 0 1 0.0414 8.8522c-0.0347 1.4505 0.55744 2.016 1.9631 2.0127 8.141-0.0189 16.282-7e-3 24.423-0.0129a7.3372 7.3372 0 0 0 3.9135-1.6231 12.883 12.883 0 0 1 16.069 1.3401 13.516 13.516 0 0 1 3.7388 12.271c2.0562 0.32867 3.9944 0.713 5.8326 1.1437 0.321-1.3075 1.12-1.0099 2.0606-0.74414a108.12 108.12 0 0 1 19.006 7.6093c22.325 11.195 45.587 12.558 69.492 6.7402 7.4388-1.8105 14.305-5.325 21.195-8.6104a92.658 92.658 0 0 1 38.523-9.0577c13.433-0.27063 26.552 1.127 39.078 6.2904 3.6743 1.5147 7.2354 3.3048 10.917 4.8001 1.9079 0.775 2.7888 1.9366 2.5614 3.9544a79.008 79.008 0 0 0 26.736 6.8397c-11.374-154.43-139.39-275.62-295.48-277.46zm-105.39 119.98c-5.1195 5.2138-11.367 8.04-18.9 7.3401a15.478 15.478 0 0 1-10.065-4.9492 45.536 45.536 0 0 1-9.6755-14.971c-3.6161-9.5648 0.29218-19.16 9.3887-24.143a26.91 26.91 0 0 1 12.529-3.4149 15.205 15.205 0 0 1 12.242 5.4112c1.3523 1.5422 1.325 3.0487-0.412 4.2521-3.5049 2.4281-7.1799 4.0098-11.597 2.1779-3.3086-1.3721-7.004-0.12946-9.6735 2.8811-2.1445 2.4185-2.4103 5.1955-0.53784 8.6222 1.6387 2.9988 3.4344 5.9188 5.2888 8.7908 1.7215 2.6663 3.9208 4.6964 7.4655 3.9816 4.2162-0.85015 7.1548-3.6032 7.6742-7.4439 0.62243-4.6027 3.4166-7.3732 7.3511-9.2364 1.878-0.88935 3.1184-0.22748 3.8572 1.7904 2.735 7.4707 0.23137 13.649-4.9352 18.91zm83.164-27.42c-0.63562 1.2015-1.8536 1.4584-3.0138 1.6702-7.97 1.4546-15.947 2.8685-23.923 4.2938-1.0162 0.18164-2.031 0.37408-3.0516 0.52685-3.16 0.473-4.0515-0.11-4.597-3.223-1.6337-9.3222-3.2223-18.652-4.8273-27.98-0.61987-3.602-1.2363-7.2047-1.7786-10.366 0.11364-2.7429 1.5955-3.6121 3.5796-3.9291 5.0268-0.8031 10.064-1.5464 15.084-2.3886 3.449-0.57856 6.8635-1.3682 10.318-1.9068 3.5991-0.56116 4.2908 0.0132 5.0018 3.6046 1.2065 6.0947 0.94464 6.433-5.3002 7.3762-4.0072 0.60516-8.0073 1.2606-12.003 1.9393-2.2443 0.38123-3.1208 1.5707-2.8072 3.6343 0.41663 2.7419 1.1589 3.4611 3.7364 3.0612 4.1621-0.64594 8.3062-1.4215 12.44-2.2349 3.5589-0.70025 4.634-0.10076 5.4699 3.3836 0.18475 0.77 0.23358 1.5719 0.36041 2.3566 0.52069 3.2219-0.31036 4.465-3.4181 4.9892-4.0016 0.675-7.9952 1.4254-12.019 1.9359-3.898 0.49463-3.9064 1.9487-3.1443 5.5802 0.40594 1.9343 2.2334 1.7838 3.7593 1.5214 4.6993-0.80817 9.3846-1.6975 14.081-2.5213 0.85749-0.15045 1.7433-0.13776 2.6155-0.2066a2.4264 2.4264 0 0 1 1.7554 0.63733c0.57781 0.47574 2.0165 7.6108 1.6811 8.245zm76.106-10.739c-1.7873 0.81336-2.1104 2.0014-1.5267 3.8486 1.2906 4.0845 2.4288 8.219 3.5467 12.355 0.61114 2.2612-0.0957 3.3051-2.4198 3.1325-6.3228-0.46954-8.9004-0.32757-11.101-7.6666-0.84314-2.8121-1.8027-5.5966-2.4886-8.4467-0.75684-3.1442-2.6751-3.5089-5.6373-3.3968-1.0076 0.0382-1.1686 0.80481-1.3374 1.661-0.53894 2.7335-1.1143 5.4634-1.7994 8.1633-0.55078 2.1702-1.6199 4.1186-4.0467 4.5225a9.5177 9.5177 0 0 1-7.577-2.1009c-1.3049-1.0306-0.72345-2.6788-0.45678-4.0548q2.8625-14.767 5.8008-29.52c0.5542-2.807 1.0931-5.6176 1.7046-8.4122 0.34509-1.577 1.2646-2.6538 3.0362-2.3151 8.4181 1.6092 17.041 2.4966 24.931 6.1282 4.8972 2.254 7.4408 6.7329 7.4662 12.088-0.26721 6.0752-2.0721 11.272-8.0952 14.013zm90.601 18.928c-1.0648 1.795-1.8723 3.9423-4.4799 4.3516a9.7194 9.7194 0 0 1-1.5066-0.48236c-0.85028-0.421-1.6548-0.934-2.4827-1.4009-5.8299-3.2881-6.4885-3.4484-9.8776 1.9667-4.2412 6.7766-8.567 13.501-12.893 20.224-1.9277 2.9956-3.0999 3.1893-6.005 1.2025-0.98-0.67028-1.9708-1.327-2.9795-1.9531-3.1948-1.9827-3.4528-3.0623-1.384-6.3318 3.1331-4.9517 6.3091-9.8763 9.4368-14.831 1.9894-3.1518 3.8361-6.3981 5.9338-9.4744 0.695-1.0192 0.42249-1.4754-0.22351-2.1784-1.548-1.6848-3.6826-2.4456-5.5792-3.5649-3.2315-1.9074-3.7911-3.6845-1.9213-6.8146 2.5394-4.251 4.0684-4.8184 7.4912-2.6608q12.56 7.9181 25.083 15.896c2.9912 1.9103 3.2274 2.9517 1.3879 6.0526z"/>
  <path d="m442.72 158.29c-3.1651 0.0652-4.6453 1.5515-4.6312 4.661-0.19031 3.2738 1.9967 5.8763 5.5124 5.414a13.423 13.423 0 0 1 3.056 0.21484c2.0635 0.20648 3.9611-0.35828 4.8943-2.5267a4.1206 4.1206 0 0 0-1.1342-5.1545 10.727 10.727 0 0 0-7.6973-2.6086z"/>
  <path d="m170.66 413.65a129.17 129.17 0 0 0 15.263-0.33783c11.637-0.91949 22.393-4.5979 32.755-9.6976a100.35 100.35 0 0 1 43.644-10.819 113.83 113.83 0 0 1 19.42 1.3644c15.324 1.4515 24.568 5.807 33.56 10.046 7.6954 3.628 15.097 7.1127 26.161 8.8771a123.23 123.23 0 0 0 22.451 0.29345 83.078 83.078 0 0 0 16.437-2.9054c1.1857-0.33112 1.463-0.0297 1.5321 1.0737 2.2386-0.58643 4.3263-1.2476 6.3166-1.9617q0-18.514-1.2e-4 -37.027c-7.6886 2.5986-17.022 4.4725-30.212 4.4725-12.756 0-21.901-1.754-29.444-4.2197a100.83 100.83 0 0 1-19.695-7.5504 100.04 100.04 0 0 0-17.45-6.8593 98.469 98.469 0 0 0-20.917-1.9961c-21.544 0-32.026 4.9404-43.124 10.17-10.906 5.1401-22.183 10.455-44.392 10.455a102.99 102.99 0 0 1-20.344-1.837 83.728 83.728 0 0 1-17.763-3.77c-5.8096-1.9537-11.294-4.6831-16.925-7.0638-1.6239-0.68652-1.3823-1.8865-1.0304-2.8782a81.114 81.114 0 0 0-25.614-4.9473 302.74 302.74 0 0 0-2.5804 37.165c20.312 0.49225 31.117 5.5793 41.577 10.51 8.6337 4.0696 16.894 7.9612 30.373 9.443z"/>
  <path d="m271.34 598.38c1.0533 0.61353 1.5173 0.55457 1.8611-0.59924a57.927 57.927 0 0 0 2.5727-12.212c-1.9764 1.5098-3.543 2.6841-5.0858 3.889-5.7061 4.4563-5.6218 5.2683 0.65198 8.922z"/>
  <path d="m405.39 621.05c-0.22046 0.23364-0.37653 0.32537-0.41809 0.4541q-1.1714 3.6292-2.3177 7.2667c-1.9944 6.3194-1.5014 6.8704 5.1577 6.1666 1.8651-0.19708 2.3734-0.93328 1.7172-2.6684-1.3992-3.6996-2.7417-7.4206-4.1391-11.219z"/>
  <path d="m182.97 462.78c1.6312 0 3.1906-0.0322 4.6978-0.0881a85.186 85.186 0 0 0 24.703-6.8061c7.1826-3.2076 14.225-6.7687 21.732-9.2066a96.464 96.464 0 0 1 29.906-4.3647q2.4263-0.1215 5.0483-0.14874a10.321 10.321 0 0 1 2.4528-3e-3c3.284 0.0242 6.3334 0.16181 9.175 0.39875q4.7126-15.142 9.5216-30.254c0.95068-2.9876 3.8035-3.611 5.9353-1.2945q11.977 13.015 23.877 26.1c2.1508 2.3576 0.90716 5.3815-1.949 5.6857a16.074 16.074 0 0 0-1.8551 0.45367c-1.8825 0.43415-2.0302 1.4168-1.0916 2.9648a78.222 78.222 0 0 0 6.6407 9.3659c9.012 3.973 19.023 7.197 36.227 7.197a112.39 112.39 0 0 0 11.564-0.56018 82.837 82.837 0 0 0 10.656-2.2314c0.80444-0.22742 1.2455-0.29511 1.4762 0.0707 2.3149-0.60828 4.4661-1.2978 6.5161-2.0431q0-21.577-1.3e-4 -43.154c-7.7051 2.5712-17.056 4.4163-30.212 4.4163-2.2853 0-4.4503-0.0584-6.5174-0.16376a93.542 93.542 0 0 1-39.017-8.9553c-5.101-2.4139-10.141-5.019-15.413-6.9939a74.796 74.796 0 0 0-17.369-4.1754c-2.8283-0.21912-5.8768-0.33765-9.1903-0.33765-21.321 0-31.704 4.8936-42.698 10.075-11.005 5.1875-22.386 10.551-44.818 10.551-2.9356 0-5.6775-0.0939-8.2584-0.2652a98.676 98.676 0 0 1-28.755-4.0123c-6.9336-2.1438-13.403-5.4186-20.028-8.313a1.5384 1.5384 0 0 1-1.1017-1.6186c0.028-0.66265 0.0325-1.3279 0.0303-2.0084-6.8388-2.3689-14.893-4.0885-26.149-4.3661a305.18 305.18 0 0 0 3.4628 43.633c18.332 0.95374 28.593 5.7848 38.544 10.475 10.884 5.1309 21.166 9.9776 42.254 9.9776z"/>
  <path d="m376.26 468.68a26.557 26.557 0 0 1-10.205 0.85212c-2.5268 0.16131-5.209 0.24816-8.0707 0.24816a101.22 101.22 0 0 1-23.582-2.4874c0.16992 0.11828 0.32934 0.24731 0.50079 0.36407 4.3934 2.9914 9.6664 4.4512 14.798 5.8868a203.79 203.79 0 0 0 35.224 6.4192c2.4667 0.24048 3.2472-0.43628 3.2614-3.1258 0.02-3.8059 0.0187-7.6119 0.0151-11.418a80.216 80.216 0 0 1-9.2081 2.4398c-0.72866 0.23977-1.6266 0.4946-2.7329 0.82113z"/>
  <path d="m470.42 453.25a77.765 77.765 0 0 0-16.139-3.0198c-3.5723-0.27613-7.1553-0.41352-10.734-0.6131a95.453 95.453 0 0 0-22.75 2.5697 5.0467 5.0467 0 0 1-0.52472 0.10669 78.13 78.13 0 0 0-7.76 2.682q0 10.703 6e-5 21.405c6e-5 4.5158 0.0479 4.5098 4.5356 4.3171a165.17 165.17 0 0 0 29.487-4.2982c13.776-3.1247 24.343-10.624 32.824-21.058-2.3169-0.96008-4.7324-1.8586-7.3404-2.6583a2.5241 2.5241 0 0 1-1.5988 0.56635z"/>
  <path d="m491.65 410.48a177.35 177.35 0 0 0-19.183-8.2175c-6.9895-2.1605-15.355-3.6149-26.971-3.6149-15.121 0-24.736 2.4627-32.971 5.7426q-3e-3 8.2202-4e-3 16.44 0 13.321 6e-5 26.643c2.2069-0.81262 4.5407-1.5709 7.0561-2.2464 0.68329-0.70123 1.972-0.93274 4.4218-1.3268q4.8162-0.7749 9.6204-1.1901c3.5997-0.35865 7.5312-0.55909 11.877-0.55909 17.94 0 28.872 3.3922 38.158 7.4021 0.61054-1.0688 0.45886-1.8087-1.2187-2.2962-6.3756-1.8527-6.7748-3.5461-1.9534-8.2103q11.432-11.059 22.963-22.015a7.3945 7.3945 0 0 1 1.9124-1.3664 90.748 90.748 0 0 1-10.67-3.9555 22.224 22.224 0 0 1-3.0374-1.2296z"/>
  <path d="m417.68 293.41a18.871 18.871 0 0 0-37.728-0.96045c-0.3172 11.241 7.5585 19.35 19.065 19.629 9.9988 0.24244 18.417-8.1779 18.664-18.668z"/>
  <path d="m240.44 357.82q-2.3439 0.56469-4.6955 1.2304c-6.5795 1.8623-12.721 5.0011-18.87 7.9697a85.487 85.487 0 0 1-13.124 5.0416c8.9898-1.9178 15.547-5.004 22.33-8.2007a128.72 128.72 0 0 1 14.359-6.041z"/>
  <path d="m620.51 356.4c-21.545 0-32.026 4.9404-43.124 10.17-10.906 5.1401-22.184 10.455-44.392 10.455-22.209 0-33.483-5.3149-44.387-10.455-7.8878-3.7186-15.469-7.2884-26.933-9.0425-0.11274 0.24121-0.22522 0.4826-0.35462 0.71564a13.249 13.249 0 0 1-14.922 6.2754 3.4005 3.4005 0 0 1-1.3244-0.51715c-4.0766-3.4651-8.9382-2.7629-13.671-2.5456a145.18 145.18 0 0 1-16.012 0.15113c-2.3587-0.1521-2.9332 0.70684-2.9236 2.962q0.0733 17.235 0.0509 34.471c1.9932-0.74255 4.0889-1.4414 6.3299-2.0743 0.13117-1.5905 0.714-1.7595 3.3715-2.2197 18.051-3.1259 35.932-2.9584 53.456 3.064 7.8251 2.6893 15.103 6.6762 22.764 9.7604 1.0962 0.44134 2.1855 0.90014 3.3925 1.3981-0.0673 0.0778-0.12261 0.14111-0.17242 0.19794a74.577 74.577 0 0 0 13.602 3.7113c-0.0416-0.14124-0.0811-0.2702-0.12359-0.41791a129.66 129.66 0 0 0 18.804 1.301 90.355 90.355 0 0 0 40.791-9.4561c9.9656-4.861 20.186-9.0331 31.345-10.451a126.51 126.51 0 0 1 33.333 0.15429c11.518 1.5826 21.91 6.3851 32.287 11.234 0.38269 0.17884 0.71021 1.169 0.89386 2.2761a77.884 77.884 0 0 0 25.73 6.3774c0.33178-5.8626 0.515-11.764 0.50488-17.71 3e-3 -6.5701-0.22705-13.083-0.63831-19.546-15.964-1.3079-25.395-5.7508-34.561-10.071-11.095-5.2295-21.575-10.169-43.118-10.169z"/>
  <path d="m576.79 529.12a20.147 20.147 0 0 0-6.6909 6.3196c-0.37762 0.56385-0.6322 1.1668-0.137 1.7464a23.347 23.347 0 0 0 5.3313 4.682 0.88174 0.88174 0 0 0 1.1011-0.14764 20.748 20.748 0 0 0 5.8337-8.6553c0.0869-2.7894-3.3543-5.1474-5.4382-3.9451z"/>
  <path d="m646.85 452.62c-1.2152-0.33576-2.439-0.64856-3.6847-0.90412-10.393-2.1323-20.854-2.2921-31.38-1.5644-12.06 0.83374-23.13 4.9207-33.812 10.247a98.412 98.412 0 0 1-48.795 10.225 112.24 112.24 0 0 1-20.112-2.4007c-1.0849-0.244-1.5998-0.54034-1.272-1.3354-2.0292-0.52515-3.9417-1.1037-5.7616-1.7229a119.48 119.48 0 0 1-7.97 11.394c-9.4952 11.939-20.733 21.869-34.218 29.004-10.113 5.3502-20.371 10.503-31.53 13.462a36.562 36.562 0 0 1-8.1992 1.445c-2.5046 0.078-4.2617 1.3577-5.9407 3.036-3.7793 3.7771-7.6287 7.4845-11.478 11.191q-3.9594 3.8122-7.9315-0.0559-6.4238-6.2673-12.776-12.607a6.7878 6.7878 0 0 0-3.6805-1.9947c-20.804-4.064-38.772-13.926-54.964-27.25a122.73 122.73 0 0 1-31.085-38.962 8.0418 8.0418 0 0 0-2.2712-2.9216q-2.1737-0.438-4.5541-0.77789c-0.25946 0.038-0.52563 0.0821-0.8045 0.13708a4.6534 4.6534 0 0 1-4.0656-0.69207c-2.1323-0.18671-4.393-0.31452-6.8022-0.37531 0.20618 0.906-0.73071 0.74164-1.3411 0.72553-4.3779-0.1156-8.7516-0.16925-13.135-0.074q-1.1655 0.0254-2.3209 0.0876c-12.563 1.5719-20.486 5.3014-28.752 9.197-9.2355 4.3524-18.739 8.8252-34.707 10.209-0.9057 0.14124-1.8152 0.27136-2.733 0.3761-19.641 2.2411-38.775 0.92053-56.921-7.754-0.65436-0.31281-1.328-0.51855-1.5178-1.3499-0.33179-1.4534-0.67169-2.913-1.0269-4.4324a78.004 78.004 0 0 0-27.964-6.7783 299.74 299.74 0 0 0 295.54 247.15c141.48-0.0482 259.21-97.478 291.29-228.12-11.742-1.9302-19.661-5.6583-27.392-9.3024a113.28 113.28 0 0 0-15.933-6.5109zm-429.91 119.3c-2.8207 2.2203-3.9053 2.0366-6.0441-0.76843-0.77-1.0099-1.5837-1.9908-2.4321-2.936-1.7994-2.0046-1.7482-3.5382 0.34-5.2619 3.4995-2.8887 7.044-5.7228 10.556-8.5966 0.51044-0.41767 1.4827-0.74366 1.1481-1.5298-0.28565-0.67132-1.2492-0.592-1.947-0.54706-1.5872 0.10242-3.1719 0.26233-4.7521 0.44648-5.2723 0.61444-8.3967-3.1038-6.8118-8.1524 0.76086-2.4239 1.5743-4.8312 2.3624-7.247-7.4e-4 -0.1748 6e-5 -0.34857 8.5e-4 -0.5224l-0.30347 0.22363c-4.1711 2.6584-7.7153 6.1048-11.551 9.1848-0.62055 0.49829-1.2373 1.0057-1.8924 1.4557a2.7257 2.7257 0 0 1-3.3658 0.0544 16.46 16.46 0 0 1-5.1967-6.6939c-0.63165-1.6542 0.81665-2.7723 1.9835-3.7178 5.3205-4.311 10.693-8.5582 16.005-12.88q6.2045-5.0482 12.297-10.233c1.6162-1.3807 3.0229-1.5715 4.5494 0.0458 0.76336 0.80872 1.6435 1.5058 2.4385 2.2863 2.4525 2.4078 2.746 5.1152 1.4684 8.283-2.1314 5.2845-4.0477 10.656-6.1688 16.294 5.5603-0.8 10.824-1.5026 16.068-2.3284a10.358 10.358 0 0 1 10.99 5.4061c1.0203 1.9232 0.3468 3.2886-1.2042 4.5393q-10.689 8.6193-21.335 17.292c-2.4092 1.9575-4.7645 3.9825-7.2032 5.9022zm72.119 9.1674c-2.6282 10.576-5.1626 21.175-7.7559 31.759-0.50781 2.0726-1.3121 4.0446-1.4075 6.2474-0.0912 2.1058-1.4788 3.0101-3.6193 2.7776-3.911-0.42481-6.8935-4.6842-6.6902-9.8202 0.51453-1.7724-0.39551-2.8796-2.0372-3.8654-3.259-1.9566-6.4239-4.075-9.5727-6.2078a2.4087 2.4087 0 0 0-3.3804 0.2284c-3.4237 2.913-4.6564 2.9272-8.4126 0.39258-0.856-0.57764-1.6675-1.2211-2.5176-1.808-2.6186-1.8079-2.7239-2.5813-0.15167-4.5994 10.451-8.199 20.96-16.324 31.43-24.498a3.9118 3.9118 0 0 1 5.2104-0.18158c2.3867 1.6812 5.2446 2.6113 7.412 4.6757a4.6319 4.6319 0 0 1 1.4924 4.8996zm69.344 28.729c-2.7587 9.7284-5.5377 19.451-8.2683 29.187-0.53626 1.9121-0.89728 3.8737-1.3298 5.8146a2.2847 2.2847 0 0 1-2.6892 2.0617c-6.4855-0.48132-8.094-1.4942-9.7807-7.0473-1.8185-5.9871-3.9984-11.865-6.0416-17.783a23.371 23.371 0 0 0-1.1367-2.2523c-1.3801 5.0849-2.6827 9.5317-3.7854 14.028-1.8065 7.3656-2.4835 7.0698-8.8597 5.2735-4.0483-1.1405-4.6659-2.2012-3.4867-6.3449 3.3114-11.637 6.9366-23.189 9.5983-35.003a2.5467 2.5467 0 0 1 3.026-2.2757c5.6351 0.30878 7.7399 1.8891 9.5165 7.2357q3.2943 9.9138 6.6042 19.823l0.517-0.0253c1.4377-5.3819 2.8866-10.761 4.3093-16.147 1.0825-4.0978 2.2206-4.7515 6.3474-3.5751 0.613 0.17474 1.2268 0.34655 1.8401 0.52 4.3361 1.226 4.8547 2.1533 3.6193 6.51zm66.334 41.306a31.216 31.216 0 0 0-3.3154 0.3045c-3.3043 0.52423-5.3462-0.459-6.1992-3.6909-0.6695-2.5369-2.1132-2.9767-4.3595-2.8525-3.4954 0.19329-7.0022 0.30114-10.501 0.25262-1.7933-0.0248-2.9812 0.57135-3.3804 2.2801-0.84252 3.6068-7.4827 6.0722-10.763 5.3149-2.1304-0.49182-2.3343-2.0245-1.7369-3.9123q3.6339-11.484 7.1857-22.994c1.3933-4.4806 2.8359-8.9478 4.1236-13.459 0.82416-2.887 2.2849-4.7215 5.527-5.0206 1.6427-0.15155 3.2969-0.43323 4.6885-0.59784 4.0388-0.0216 6.2733 2.1588 7.7521 5.3203 2.355 5.035 4.1383 10.3 6.1154 15.487q3.7702 9.8901 7.4784 19.804c1.0977 2.9458 0.59526 3.6017-2.6148 3.7636zm61.931-14.935c-7.6768 5.6484-18.118 5.7562-25.149 0.29059-2.7476-2.136-4.3104-5.1184-5.5822-8.2035a69.409 69.409 0 0 1-3.7418-12.54c-1.0825-5.2853 0.51916-9.8949 4.1311-13.845a23.663 23.663 0 0 1 24.963-6.097 14.123 14.123 0 0 1 6.8054 5.4237c1.0715 1.5588 0.6936 2.768-1.0355 3.3676-4.1314 1.4331-8.1699 2.8602-12.702 0.95325a7.464 7.464 0 0 0-10.244 7.8671 28.595 28.595 0 0 0 5.0581 13.737c1.8299 2.552 4.4548 3.1653 8.1276 2.0361 3.0566-0.93982 5.5743-3.7816 5.6584-6.4289 0.0409-1.2861-0.60827-1.9465-1.9083-1.7946a8.8234 8.8234 0 0 0-1.3416 0.47052 6.4035 6.4035 0 0 1-1.8447 0.44171c-3.8518-0.0926-2.9812-3.7407-4.1926-5.7878-0.84564-1.429-0.64258-3.1547 1.118-3.8381 4.3564-1.6913 8.7687-3.2496 13.208-4.7112a2.67 2.67 0 0 1 3.3209 1.6988 33.78 33.78 0 0 1 3.3569 13.066c0.0686 6.2087-3.308 10.437-8.0055 13.894zm69.226-38.158q-9.716 6.9499-19.485 13.826c-2.5522 1.8006-3.5146 1.7145-5.3354-0.82575q-10.785-15.046-21.441-30.185c-1.7907-2.5434-1.472-3.7178 1.0886-5.5433q10.209-7.2774 20.416-14.557c2.4536-1.7504 3.8721-1.5976 5.5751 0.887 1.0144 1.48 2.4863 2.7592 2.5838 4.9712 0.10474 1.0826-0.6759 1.8204-1.6364 2.4901-3.8529 2.6863-7.7102 5.3672-11.52 8.1141-0.90979 0.656-2.306 1.1556-2.0237 2.6494a5.734 5.734 0 0 0 2.7983 3.7095c0.88221 0.55121 1.7956-0.14575 2.5923-0.72235 3.6754-2.6596 7.4052-5.2459 11.034-7.9665a2.6163 2.6163 0 0 1 3.9736 0.31378c0.2749 0.28857 0.59191 0.54168 0.8396 0.851 4.2117 5.259 3.4875 6.0803-0.75293 8.8362-2.9329 1.9061-5.7429 4.0037-8.5778 6.0573-2.4364 1.7649-2.5698 2.7191-0.84088 5.0934 1.4386 1.9756 2.4564 2.1251 4.8254 0.452 3.7703-2.6628 7.4492-5.4556 11.23-8.1029 2.8897-2.0232 3.739-1.8201 5.8588 1.0108 3.551 4.7423 3.4985 5.278-1.2035 8.6414zm54.191-57.888c-2.5232 4.9526-6.3762 8.5533-13.145 6.1929a43.082 43.082 0 0 0-7.0043-1.4714 4.6068 4.6068 0 0 0-5.1314 3.5909c-0.28046 1.141 0.60931 1.3906 1.1503 1.834 2.4571 2.014 4.9649 3.9667 7.4691 5.9227a2.9424 2.9424 0 0 1 0.67877 4.4034 35.249 35.249 0 0 1-3.3071 4.3547c-1.7594 1.904-3.135 1.9874-5.2252 0.37018-4.5247-3.5006-8.9759-7.0958-13.485-10.616q-7.0428-5.4985-14.144-10.922c-3.6304-2.7586-3.8993-4.2699-1.0923-7.826 3.4957-4.4286 6.9371-8.9061 10.588-13.205 3.0392-3.579 6.7898-6.0296 11.168-5.8513 8.1596 0.22143 13.743 5.3045 14.762 12.905 0.55707 4.1554 0.70129 4.2386 4.977 4.9351 3.3817 0.551 6.749 1.2023 10.105 1.8942 2.3691 0.48839 2.7404 1.321 1.6363 3.4882z"/>
  <path d="m620.51 398.65c-20.449 0-30.837 4.502-41.352 9.4418-0.0588 0.0297-0.1181 0.0574-0.17682 0.0872-2.2916 1.1647-4.6061 2.228-6.9391 3.2108-9.4801 4.2092-20.475 7.8862-39.047 7.8862a99.686 99.686 0 0 1-23.728-2.5543 6.7289 6.7289 0 0 1 0.844 2.0372q4.0078 15.953 7.797 31.96c0.87878 3.7036-1.8384 6.2522-5.5744 5.4178a12.168 12.168 0 0 1-1.8267-0.5459c-1.8522-0.73389-2.9823 0.0209-3.8719 1.6498-0.32111 0.588-0.64917 1.1714-0.97632 1.7555 7.0497 2.2511 15.487 3.7814 27.337 3.7814 21.089 0 31.372-4.8467 42.26-9.9775 11.107-5.2344 22.592-10.647 45.256-10.647 4.3375 0 8.2626 0.19959 11.857 0.55695a92.467 92.467 0 0 1 31.393 8.2681c1.1097 0.51916 3.0455 0.76483 3.0505 1.9321 5.5e-4 0.12573-9e-3 0.252-0.0127 0.37805 7.2806 3.4252 14.459 6.6546 24.963 8.3185a299.52 299.52 0 0 0 6.2548-42.726c-16.076-1.3278-25.579-5.8037-34.814-10.157-10.99-5.1807-21.372-10.074-42.691-10.074z"/>
  <path d="m741.65 284.96c-12.107-37.302-13.654-80.328-36.25-111.38-22.823-31.351-63.414-46.027-94.776-68.839-31.052-22.596-57.423-56.814-94.725-68.922-35.982-11.685-77.265 0.10315-117.14 0.10315s-81.163-11.788-117.14-0.10315c-37.302 12.107-63.672 46.326-94.725 68.922-31.362 22.812-71.954 37.488-94.776 68.839-22.596 31.052-24.143 74.078-36.25 111.38-11.664 35.951-36.095 71.531-36.095 111.38s24.411 75.388 36.095 111.38c12.107 37.312 13.654 80.338 36.25 111.38 22.823 31.362 63.414 46.027 94.776 68.849 31.052 22.596 57.423 56.804 94.725 68.922 35.982 11.685 77.265-0.1134 117.14-0.1134s81.163 11.798 117.16 0.1134c37.292-12.118 63.662-46.326 94.714-68.922 31.362-22.823 71.954-37.488 94.776-68.849 22.596-31.052 24.143-74.078 36.25-111.38 11.664-35.951 36.095-71.49 36.095-111.38 4e-5 -39.88-24.431-75.429-36.095-111.38zm-342.55 440.25c-181.88 0.0962-328.81-146.74-329.13-329.12 0.67169-182.13 146.31-325.51 322.55-328.55 187.23-3.2275 332.83 146.94 335 324.24 2.2502 184.52-146.16 333.34-328.41 333.44z"/>
 </g>
</svg>