<svg version="1.1" viewBox="0 0 24 24" xmlns="http://www.w3.org/2000/svg">
  <defs>
    <clipPath id="a">
      <path d="m0 0h204v30h-204z" fill="#fff"/>
    </clipPath>
  </defs>
  <g transform="matrix(.33522 0 0 .33522 .99966 6.972)" clip-path="url(#a)">
    <path
        d="m52.688 13.028c-0.22 0-0.437 8e-3 -0.654 0.015a0.297 0.297 0 0 0-0.102 0.024 0.365 0.365 0 0 0-0.236 0.255l-0.93 3.249c-0.401 1.397-0.252 2.687 0.422 3.634 0.618 0.876 1.646 1.39 2.894 1.45l5.045 0.306c0.15 8e-3 0.28 0.08 0.359 0.199a0.492 0.492 0 0 1 0.051 0.434 0.64 0.64 0 0 1-0.547 0.426l-5.242 0.306c-2.848 0.132-5.912 2.456-6.987 5.29l-0.378 1a0.28 0.28 0 0 0 0.248 0.382h18.054a0.48 0.48 0 0 0 0.464-0.35 13.12 13.12 0 0 0 0.48-3.54c0-7.22-5.789-13.072-12.933-13.072"
        fill="#fbad41"/>
    <path
        d="m44.808 29.578 0.334-1.175c0.402-1.397 0.253-2.687-0.42-3.634-0.62-0.876-1.647-1.39-2.896-1.45l-23.665-0.306a0.467 0.467 0 0 1-0.374-0.199 0.492 0.492 0 0 1-0.052-0.434 0.64 0.64 0 0 1 0.552-0.426l23.886-0.306c2.836-0.131 5.9-2.456 6.975-5.29l1.362-3.6a0.914 0.914 0 0 0 0.04-0.477c-1.552-7.022-7.76-12.281-15.182-12.281-6.842 0-12.647 4.462-14.73 10.665a6.92 6.92 0 0 0-4.911-1.374c-3.28 0.33-5.92 3.002-6.246 6.318a7.148 7.148 0 0 0 0.18 2.472c-5.36 0.16-9.66 4.598-9.66 10.052 0 0.493 0.035 0.979 0.106 1.453a0.46 0.46 0 0 0 0.457 0.402h43.704a0.57 0.57 0 0 0 0.54-0.418"
        fill="#f6821f"/>
  </g>
</svg>