<svg version="1.1" viewBox="0 0 24 24" xmlns="http://www.w3.org/2000/svg">
  <g transform="matrix(.97624 0 0 .97624 .28505 .28505)">
    <path
        d="m12.035 1.0165-9.0672 4.3257-2.2358 9.7325 6.2445 7.9089 10.36-0.047926 5.9307-7.7699-2.1472-9.6985zm0.0063 0.50726 8.6656 4.2453 2.0436 9.2528-5.6525 7.4089-9.8814 0.04559-5.9676-7.5472 2.1441-9.2785z"
        fill="#fd7e14" fill-opacity=".99608" stroke-width=".09205"/>
    <g stroke-width=".10553">
      <path
          d="m7.7661 9.0749 0.43267 10.775 7.7829-9.9325a0.71655 0.71655 0 0 1 1.0131-0.11714l4.8544 3.8962-1.583-6.9238z"
          fill="#4279f4"/>
      <path d="m8.4678 21.826h6.9038l-4.2392-3.4012z" fill="#fd7e14"/>
      <path d="m16.66 11.372-4.6433 5.9245 4.9473 3.969 4.6929-5.8844z" fill="#014bd1"/>
      <path d="m6.4638 8.0354 0.00106-0.00106 4.083-5.1203-6.584 3.1712-1.6262 7.1244z" fill="#fed1aa"/>
      <path d="m2.4283 15.396 4.3732 5.4834-0.41685-10.445z" fill="#fea75f"/>
      <path d="m18.996 5.5481-6.2959-3.0319-3.9183 4.9135z" fill="#a1c3ff"/>
    </g>
  </g>
</svg>