<svg version="1.1" viewBox="0 0 24 24" xmlns="http://www.w3.org/2000/svg">
  <path
      d="m12.035 1.2774-8.8518 4.2229-2.1827 9.5013 6.0961 7.721 10.114-0.046791 5.7898-7.5853-2.0962-9.4681zm0.0061 0.49521 8.4597 4.1444 1.995 9.033-5.5182 7.2329-9.6466 0.04451-5.8258-7.3679 2.0932-9.058z"
      stroke-width=".089863"/>
  <g stroke-width=".10302">
    <path d="m7.8671 9.1444 0.42239 10.519 7.598-9.6965a0.69952 0.69952 0 0 1 0.98903-0.11436l4.7391 3.8036-1.5454-6.7593z"/>
    <path d="m8.5521 21.592h6.7398l-4.1385-3.3204z"/>
    <path d="m16.55 11.387-4.533 5.7837 4.8298 3.8747 4.5814-5.7446z"/>
    <path d="m6.5957 8.1296 0.00103-0.00103 3.986-4.9986-6.4276 3.0959-1.5876 6.9551z"/>
    <path d="m2.6561 15.315 4.2693 5.3531-0.40695-10.197z"/>
    <path d="m18.83 5.7013-6.1463-2.9599-3.8252 4.7968z"/>
  </g>
</svg>