<svg version="1.1" viewBox="0 0 24 24" xmlns="http://www.w3.org/2000/svg">
  <g transform="matrix(.9887 0 0 .9887 .13535 .13555)" stroke-width=".052819">
    <path
        d="m6.4219 11.712 0.026363 1.344 1.413 0.87836-0.031635-1.344zm3.4377 5.5877-0.031635-1.3175-1.2338-0.77254c-0.02109-0.01058-0.036908-0.03175-0.047453-0.03704l0.031635 1.3228zm-4.4026 1.7673-3.2215-2.0001-0.079088-3.36 1.5765-0.68258-0.031635-1.344-2.5203 1.09c-0.19508 0.08995-0.31635 0.26457-0.30581 0.47622l0.10018 4.032c0 0.20636 0.12654 0.41272 0.33744 0.53442l3.8701 2.4023c0.17927 0.11112 0.39544 0.13758 0.57998 0.08995 0.02109-0.01058 0.036908-0.01058 0.057998-0.02117l2.3726-1.0265-1.2918-0.80428zm10.424-7.4343c-0.01055-0.23811-0.14763-0.4868-0.3849-0.62438l-4.6978-2.9155-0.14763 0.058205 0.03164 1.4128 3.7172 2.3123 0.08963 3.778 1.4183 0.87836 0.07909-0.03175z"/>
    <path
        d="m10.255 18.279-4.3551-2.7197-0.11072-4.5506 1.993-0.86249-0.036908-1.5715-3.095 1.3334c-0.22672 0.10054-0.36381 0.3069-0.35326 0.55559l0.12654 5.339c0 0.24869 0.14763 0.4868 0.3849 0.62438l5.1144 3.1854c0.20563 0.12699 0.46399 0.16932 0.68016 0.10054 0.02109-0.01058 0.03691-0.02117 0.058-0.02117l3.0264-1.307-1.4974-0.93128z"/>
    <path
        d="m22.53 7.897-6.5591-4.0743c-0.24781-0.14816-0.53253-0.19049-0.78034-0.11112-0.02109 0.010583-0.04745 0.021165-0.06854 0.031748l-6.3956 2.7674c-0.25836 0.11112-0.41126 0.34394-0.40599 0.63496l0.15818 6.8417c0.010545 0.27515 0.17927 0.55559 0.44289 0.71433l6.5538 4.0743c0.23726 0.14816 0.53253 0.19049 0.78034 0.11112 0.02109-0.01058 0.04745-0.02116 0.06854-0.03175l6.3956-2.7727c0.25836-0.11112 0.41126-0.35452 0.40599-0.63496l-0.15817-6.8417c0-0.27515-0.16872-0.54501-0.43762-0.70904zm-6.6592 9.3445-5.6944-3.5399-0.14763-5.9528 5.5573-2.4023 5.6944 3.5399 0.13709 5.9422z"/>
  </g>
</svg>