<svg version="1.1" viewBox="0 0 24 24" xmlns="http://www.w3.org/2000/svg">
  <g transform="matrix(.99082 0 0 .99082 .11039 .10989)" stroke-width=".052504">
    <path
        d="m6.432 11.717 0.031502 1.3336 1.4071 0.87156-0.031502-1.3336zm3.4337 5.5549-0.031502-1.3073-1.2338-0.76655c-0.015751-0.0105-0.036753-0.02625-0.052504-0.03675l0.031502 1.3126zm-4.3946 1.7641-3.2185-1.9951-0.078756-3.3445 1.5804-0.68255-0.031502-1.3388-2.5202 1.0868c-0.19426 0.08401-0.30977 0.26252-0.30452 0.46728l0.094506 4.0165c0.00525 0.20476 0.13126 0.40953 0.33077 0.53554l3.859 2.3942c0.17851 0.11026 0.39903 0.14176 0.57754 0.08401 0.021001-0.0053 0.036753-0.0105 0.052504-0.021l2.3679-1.0186-1.2863-0.79806z"
        fill="#b31aab"/>
    <path
        d="m15.872 11.638c-0.0053-0.24152-0.15226-0.47778-0.38328-0.62479l-4.6886-2.9035-0.14701 0.063004 0.0315 1.4071 3.712 2.2997 0.08926 3.7593 1.4176 0.87681 0.07876-0.0315zm-5.6126 6.5997-4.3526-2.6987-0.10501-4.5311 1.9846-0.85581-0.036753-1.5594-3.082 1.3283c-0.22577 0.099757-0.36228 0.30452-0.35702 0.54604l0.12076 5.3134c0.00525 0.24152 0.15226 0.47778 0.38328 0.61954l5.1034 3.166c0.21001 0.13126 0.46203 0.16276 0.6773 0.09976 0.021-0.0053 0.042-0.01575 0.063-0.02625l3.0137-1.2968-1.5016-0.92931z"
        fill="#d163ce"/>
    <path
        d="m22.503 7.9206-6.542-4.0585c-0.24152-0.14701-0.53029-0.18901-0.77705-0.11026-0.02625 0.00525-0.04725 0.015751-0.07351 0.026252l-6.3844 2.7512c-0.25727 0.11026-0.41478 0.34652-0.40953 0.62479l0.16276 6.8045c0.00525 0.27827 0.17326 0.54604 0.44103 0.7088l6.542 4.0533c0.24152 0.14701 0.53029 0.18901 0.7718 0.11026 0.02625-0.0053 0.04725-0.01575 0.07351-0.02625l6.3844-2.7512c0.25727-0.11026 0.41478-0.35177 0.40953-0.62479l-0.15752-6.8045c-0.0053-0.26777-0.17326-0.54079-0.44103-0.70355zm-6.647 9.2879-5.6861-3.523-0.14176-5.9172 5.5444-2.3889 5.6861 3.523 0.14176 5.9172z"
        fill="#e13eaf"/>
  </g>
</svg>