<svg version="1.1" viewBox="0 0 24 24" xmlns="http://www.w3.org/2000/svg">
  <g transform="matrix(.029889 0 0 .029889 .35874 -4.0087)">
    <path d="m386.95 178.62a48.93 48.529 0 0 0-18.799 4.7472l-255.84 122.22a48.93 48.529 0 0 0-26.457 32.914l-63.169 274.64a48.93 48.529 0 0 0 6.646 37.218 48.93 48.529 0 0 0 2.785 3.861l177.1 220.2a48.93 48.529 0 0 0 38.294 18.229l284.01-0.0633a48.93 48.529 0 0 0 38.23-18.229l177.04-220.2a48.93 48.529 0 0 0 9.4943-41.079l-63.232-274.64a48.93 48.529 0 0 0-26.457-32.914l-255.9-122.16a48.93 48.529 0 0 0-23.736-4.7472zm2.5318 93.424c8.4581-8.5e-4 15.316 7.6289 15.317 17.026 5e-3 1.3323 0.0459 3.1352 0 4.3674-0.20171 5.4203-1.3776 9.5641-2.0888 14.558-1.2883 10.688-2.3752 19.552-1.709 27.787 0.6051 4.1214 3.0068 5.7511 5.0003 7.6587 0.0453 1.1101 0.24357 4.7952 0.37977 6.8359 48.696 4.3258 93.881 26.566 127.1 61.396l5.8232-4.1142c1.974 0.11627 6.3346 0.71624 9.3044-1.0127 6.8535-4.6139 13.081-11.064 20.634-18.735 3.4608-3.6697 6.0155-7.1596 10.127-10.697 0.93878-0.80763 2.3723-1.8935 3.418-2.7217 7.3464-5.8604 17.575-5.2195 22.85 1.3925 5.2745 6.6121 3.5487 16.736-3.7977 22.596-1.0366 0.83373-2.3679 1.9931-3.3546 2.7217-4.3633 3.222-8.3748 4.8478-12.722 7.4056-9.1595 5.6572-16.764 10.358-22.786 16.014-2.8448 3.0428-2.6632 5.9234-2.9116 8.6715-0.8496 0.78051-3.7936 3.4314-5.3801 4.8737 13.201 19.648 23.072 41.95 28.673 66.334 5.5491 24.159 6.4348 48.324 3.2281 71.524l6.1396 1.7723c1.1116 1.5734 3.433 5.3996 6.646 6.646 7.8804 2.4816 16.763 3.372 27.47 4.494 5.0269 0.41773 9.3552 0.19335 14.685 1.2026 1.2752 0.24151 3.1176 0.77743 4.4307 1.076 9.0275 2.1787 14.84 10.433 12.976 18.609-1.8652 8.1773-10.667 13.158-19.748 11.203-0.0656-0.015-0.18478 0.0153-0.25318 0-0.10257-0.0233-0.21469-0.10169-0.31648-0.12659-1.2659-0.27782-2.8169-0.52639-3.9243-0.82284-5.2395-1.4026-9.0247-3.5124-13.735-5.3168-10.134-3.634-18.534-6.666-26.711-7.8486-4.1527-0.32701-6.3048 1.6456-8.6082 3.1648-1.1189-0.22451-4.5377-0.82786-6.5194-1.1393-14.675 46.12-45.93 86.068-88.297 111.08 0.73166 1.7657 1.9519 5.4749 2.5318 6.1396-0.96836 2.5837-2.3824 5.0755-1.1393 9.0512 2.973 7.7084 7.7467 15.235 13.545 24.305 2.8076 4.1906 5.6948 7.4201 8.2284 12.216 0.60627 1.1476 1.4402 2.9014 2.0254 4.1142 3.9385 8.4208 1.0408 18.132-6.5194 21.774-7.62 3.6708-17.125-0.20509-21.204-8.6715-0.58276-1.1992-1.4042-2.7913-1.8989-3.9243-2.1702-4.9709-2.9045-9.2438-4.4307-14.052-3.477-10.189-6.3336-18.631-10.507-25.761-2.3335-3.4506-5.2248-3.8935-7.8486-4.7472-0.48576-0.83701-2.2531-4.1572-3.2281-5.8865-8.4606 3.1971-17.265 5.8536-26.331 7.9119-39.739 9.0228-79.468 5.3498-115.01-8.2917l-3.4812 6.3295c-2.582 0.6913-5.0552 1.3424-6.5827 3.1648-5.5783 6.655-7.8473 17.355-11.9 27.533-1.5259 4.8078-2.2608 9.0805-4.4307 14.052-0.4911 1.1251-1.3167 2.6646-1.8989 3.861v0.1266c-4.0872 8.439-13.532 12.271-21.141 8.6082-7.5611-3.6401-10.456-13.352-6.5194-21.774 0.58518-1.2128 1.3559-2.9666 1.9622-4.1142 2.5334-4.796 5.421-8.0252 8.2284-12.216 5.798-9.071 10.889-17.23 13.862-24.938 0.74685-2.56-0.3899-6.0792-1.3925-8.6715l2.785-6.646c-40.767-24.156-72.935-62.695-88.297-110.32l-6.7093 1.2026c-1.7898-1.0017-5.383-3.4322-8.798-3.1648-8.1768 1.1831-16.577 4.214-26.711 7.8486-4.7103 1.8046-8.4956 3.914-13.735 5.3168-1.1074 0.29652-2.6584 0.60825-3.9243 0.88613-0.10174 0.0249-0.21395 0.0398-0.31647 0.0633-0.0683 0.0152-0.18759 0.0483-0.25319 0.0633-9.0811 1.9575-17.881-3.0265-19.748-11.203-1.8669-8.1749 3.9486-16.491 12.976-18.672 0.0672-0.0152 0.18319-0.0471 0.25319-0.0633 0.0446-0.0101 0.082 9e-3 0.12659 0 1.2834-0.30104 2.878-0.72723 4.0509-0.94943 5.3292-1.0095 9.6577-0.78462 14.685-1.2026 10.707-1.1225 19.59-2.0119 27.47-4.494 2.4985-1.0252 4.8922-4.463 6.5827-6.646l6.3928-1.8989c-7.187-49.771 4.9903-98.628 31.268-138.17l-4.8737-4.3674c-0.31302-1.9107-0.74947-6.2909-3.1015-8.798-6.0231-5.6552-13.627-10.357-22.786-16.014-4.3477-2.5576-8.2956-4.2471-12.659-7.4688-0.92811-0.68526-2.2183-1.7133-3.2281-2.5318-0.0751-0.0581-0.11529-0.13048-0.18989-0.18988-7.348-5.8585-9.0705-15.92-3.7977-22.533 2.966-3.72 7.5079-5.6046 12.216-5.4434 3.6618 0.12538 7.4822 1.4878 10.697 4.0509 1.0445 0.82645 2.4209 1.9184 3.3546 2.7217 4.112 3.5371 6.6663 7.0274 10.127 10.697 7.5533 7.6713 13.78 14.059 20.634 18.672 3.5995 2.0965 6.3801 1.2554 9.1145 0.88613 0.87992 0.65016 3.8152 2.7704 5.5067 3.9243 26.067-27.657 60.303-48.19 100.07-57.219 9.2416-2.0983 18.469-3.4793 27.66-4.2408l0.37977-6.4561c2.039-1.974 4.3524-4.8066 5.0003-7.9119 0.66619-8.235-0.42064-17.098-1.709-27.787-0.71115-4.9938-1.887-9.1377-2.0887-14.558-0.0414-1.1117-0.0125-2.6474 0-3.9243-3e-3 -0.14337 1e-5 -0.29884 0-0.44307-1e-3 -9.3976 6.8593-17.026 15.317-17.026zm-19.178 118.81c-5.4287 0.65806-10.879 1.5472-16.33 2.785-29.845 6.7762-55.772 21.487-76.018 41.395l65.89 46.712 0.12659-0.0633c2.2314 1.6299 5.0004 2.5951 7.9752 2.5951 7.2623 0 13.177-5.725 13.482-12.912l0.31648-0.18989 4.5573-80.322zm38.357 0 4.5573 80.195 0.0633 0.0633c0.11706 2.7608 1.12 5.4596 2.9749 7.7853 4.5281 5.6772 12.673 6.7114 18.482 2.4685l0.25318 0.12659 65.447-46.395c-24.693-24.181-56.935-39.958-91.778-44.243zm-154.57 74.245c-17.851 29.081-26.331 63.935-22.407 99.817l77.094-22.28 0.0633-0.25318c2.6656-0.72834 5.171-2.2947 7.0258-4.6206 4.5279-5.6779 3.7201-13.826-1.709-18.546l0.0633-0.37977-60.131-53.738zm270.33 0-59.814 53.548v0.12659c-2.0855 1.8128-3.5789 4.3154-4.2408 7.2157-1.6155 7.0799 2.6184 14.117 9.5576 16.014l0.0633 0.31648 77.473 22.343c1.6415-16.718 0.68908-34.003-3.2914-51.333-4.0288-17.54-10.811-33.746-19.748-48.231zm-147.29 57.915-15.381 19.115 5.5067 23.862 22.217 10.697 22.09-10.634 5.5067-23.862-15.317-19.178h-24.622zm78.993 65.511c-1.7453 0.0882-3.5151 0.52243-5.1902 1.3292-6.543 3.1512-9.3632 10.925-6.5194 17.533l-0.12659 0.12659 30.951 74.752c29.841-19.01 52.194-47.404 63.865-80.195l-79.752-13.482-0.12659 0.18989c-1.0191-0.18757-2.0543-0.30608-3.1015-0.25318zm-133.93 0.31648c-0.86943-0.0122-1.774 0.0904-2.6584 0.25318l-0.12659-0.18989-79.056 13.419c12.202 33.76 34.974 61.312 63.612 79.689l30.635-74.056-0.18988-0.25319c1.0925-2.5381 1.3583-5.4547 0.69624-8.355-1.4141-6.1952-6.8262-10.422-12.912-10.507zm66.777 32.47c-4.664 0.17135-9.0604 2.7281-11.393 7.0891h-0.0633l-38.927 70.321c26.905 9.1678 56.654 11.199 86.461 4.4307 5.3186-1.2076 10.512-2.6084 15.571-4.3041l-38.99-70.448h-0.31648c-1.3032-2.4366-3.3328-4.4692-6.013-5.7599-2.0448-0.98465-4.2096-1.4071-6.3295-1.3292z"/>
  </g>
</svg>