<svg version="1.1" viewBox="0 0 24 24" xmlns="http://www.w3.org/2000/svg">
  <g transform="matrix(.029891 0 0 .029891 .35796 -4.0097)">
    <path
        d="m386.93 178.6a48.93 48.529 0 0 0-18.751 4.7451l-255.87 122.26a48.93 48.529 0 0 0-26.474 32.921l-63.126 274.63a48.93 48.529 0 0 0 6.6431 37.208 48.93 48.529 0 0 0 2.7816 3.8615l177.11 220.2a48.93 48.529 0 0 0 38.255 18.26l284.02-0.0654a48.93 48.529 0 0 0 38.255-18.228l177.04-220.24a48.93 48.529 0 0 0 9.4574-41.07l-63.224-274.63a48.93 48.529 0 0 0-26.474-32.921l-255.91-122.19a48.93 48.529 0 0 0-23.725-4.7451z"
        fill="#326ce5"/>
    <path
        d="m389.47 272.06c-8.4581 8.6e-4 -15.316 7.6193-15.315 17.017 1e-5 0.14423 0.0295 0.28205 0.0327 0.42542-0.0125 1.2769-0.0741 2.8152-0.0327 3.927 0.20171 5.4203 1.3832 9.5687 2.0944 14.563 1.2883 10.688 2.3679 19.548 1.7017 27.783-0.64789 3.1053-2.9352 5.9453-4.9742 7.9194l-0.35997 6.4795c-9.191 0.76149-18.444 2.1559-27.685 4.2542-39.767 9.0291-74.005 29.513-100.07 57.17-1.6914-1.1539-4.6506-3.2768-5.5305-3.927-2.7344 0.36926-5.498 1.213-9.0975-0.88357-6.8538-4.6135-13.096-10.982-20.649-18.653-3.461-3.6696-5.9672-7.1639-10.079-10.701-0.9338-0.80327-2.3589-1.8897-3.4034-2.7162-3.2148-2.5631-7.0064-3.8998-10.668-4.0251-4.7081-0.16121-9.2404 1.6795-12.206 5.3996-5.2728 6.6134-3.5847 16.722 3.7634 22.58 0.0746 0.0594 0.15396 0.10554 0.22907 0.16362 1.0097 0.81851 2.2462 1.8673 3.1743 2.5525 4.3635 3.2217 8.3495 4.871 12.697 7.4285 9.1598 5.6567 16.753 10.347 22.776 16.002 2.352 2.5072 2.7631 6.925 3.0761 8.8357l4.9087 4.3851c-26.278 39.546-38.439 88.393-31.252 138.16l-6.414 1.8653c-1.6905 2.183-4.0792 5.6179-6.5777 6.6431-7.8803 2.4821-16.749 3.3935-27.456 4.516-5.0268 0.41799-9.3642 0.16855-14.693 1.1781-1.1729 0.2222-2.8072 0.64798-4.0906 0.94902-0.0446 9e-3 -0.0863 0.0226-0.1309 0.0327-0.07 0.0162-0.16185 0.0502-0.22907 0.0654-9.027 2.1811-14.826 10.478-12.959 18.653 1.8673 8.1768 10.685 13.149 19.766 11.192 0.0656-0.015 0.16074-0.0175 0.22907-0.0327 0.10252-0.0235 0.19278-0.0732 0.29452-0.0981 1.2659-0.27788 2.8523-0.58705 3.9597-0.88357 5.2395-1.4028 9.0341-3.4641 13.744-5.2687 10.134-3.6346 18.527-6.6708 26.703-7.854 3.4151-0.26747 7.0132 2.1071 8.803 3.1089l6.6758-1.1454c15.362 47.629 47.557 86.126 88.324 110.28l-2.7816 6.6758c1.0026 2.5922 2.1084 6.0996 1.3616 8.6596-2.9726 7.7086-8.0644 15.845-13.862 24.916-2.8074 4.1908-5.6805 7.443-8.2139 12.239-0.60622 1.1476-1.3783 2.9105-1.9635 4.1233-3.9362 8.4219-1.0489 18.122 6.5122 21.762 7.6086 3.663 17.053-0.20037 21.14-8.6393 6e-3 -0.0119 0.0269-0.0207 0.0327-0.0327 4e-3 -9e-3 -4e-3 -0.0236 0-0.0327 0.58217-1.1965 1.4069-2.7692 1.898-3.8942 2.1699-4.971 2.8919-9.2311 4.4178-14.039 4.0522-10.179 6.2786-20.859 11.857-27.514 1.5275-1.8224 4.0179-2.5232 6.5998-3.2145l3.4688-6.2832c35.54 13.642 75.321 17.302 115.06 8.2794 9.0655-2.0583 17.817-4.7223 26.278-7.9194 0.97492 1.7293 2.7867 5.0534 3.2725 5.8905 2.6238 0.85365 5.4878 1.2945 7.8212 4.7451 4.1735 7.1303 7.0276 15.566 10.505 25.754 1.5262 4.8078 2.2804 9.068 4.4506 14.039 0.49463 1.133 1.3153 2.7278 1.898 3.927 4.0786 8.4664 13.553 12.343 21.173 8.6721 7.5602-3.642 10.451-13.341 6.5122-21.762-0.58526-1.2128-1.3899-2.9758-1.9962-4.1233-2.5336-4.7959-5.4063-8.0157-8.2139-12.206-5.7985-9.0707-10.608-16.606-13.581-24.314-1.2431-3.9757 0.20973-6.4483 1.1781-9.032-0.57991-0.66473-1.8209-4.4192-2.5525-6.185 42.367-25.016 73.616-64.948 88.291-111.07 1.9817 0.31146 5.4261 0.92086 6.545 1.1454 2.3033-1.5192 4.4212-3.5013 8.5739-3.1743 8.1768 1.1827 16.57 4.2199 26.703 7.8539 4.7104 1.8044 8.5049 3.8988 13.744 5.3014 1.1074 0.29645 2.6938 0.57303 3.9597 0.85085 0.10179 0.0249 0.19195 0.0748 0.29452 0.0981 0.0684 0.0153 0.16352 0.0177 0.22908 0.0327 9.0816 1.9551 17.901-3.0146 19.766-11.192 1.8648-8.1754-3.9315-16.474-12.959-18.653-1.3131-0.29859-3.1754-0.80569-4.4506-1.0472-5.3293-1.0093-9.6666-0.76036-14.693-1.1781-10.707-1.1219-19.576-2.0344-27.456-4.516-3.2131-1.2465-5.4988-5.0697-6.6105-6.6431l-6.185-1.7999c3.2068-23.2 2.3421-47.345-3.207-71.504-5.6008-24.384-15.499-46.685-28.7-66.333 1.5866-1.4423 4.5827-4.0955 5.4323-4.876 0.24835-2.748 0.035-5.6292 2.8798-8.6721 6.0228-5.6556 13.617-10.345 22.776-16.002 4.3476-2.5578 8.3666-4.2066 12.73-7.4285 0.98672-0.7286 2.3341-1.8824 3.3706-2.7162 7.3465-5.8604 9.0379-15.968 3.7634-22.58s-15.495-7.2349-22.842-1.3744c-1.0457 0.82818-2.4646 1.9085-3.4034 2.7162-4.1118 3.5374-6.6512 7.0313-10.112 10.701-7.5529 7.6717-13.796 14.072-20.649 18.686-2.9698 1.729-7.3198 1.1307-9.2939 1.0145l-5.825 4.156c-33.216-34.83-78.44-57.099-127.14-61.424-0.1362-2.0407-0.31463-5.7294-0.35997-6.8395-1.9936-1.9076-4.4018-3.5362-5.0069-7.6576-0.66619-8.235 0.44607-17.095 1.7344-27.783 0.71115-4.9938 1.8927-9.1422 2.0944-14.563 0.0459-1.2322-0.0277-3.0201-0.0327-4.3524-1e-3 -9.3976-6.857-17.018-15.315-17.017zm-19.177 118.79-4.5487 80.339-0.32725 0.16363c-0.30509 7.1872-6.2203 12.926-13.483 12.926-2.9749 0-5.7208-0.95534-7.9521-2.5853l-0.1309 0.0654-65.875-46.698c20.246-19.908 46.142-34.621 75.987-41.397 5.4517-1.2378 10.901-2.1563 16.33-2.8143zm38.386 0c34.844 4.2854 67.067 20.063 91.76 44.244l-65.45 46.404-0.22908-0.0981c-5.8092 4.2429-13.994 3.1902-18.522-2.4871-1.8549-2.3258-2.8282-5.0604-2.9452-7.8212l-0.0655-0.0327zm-154.59 74.22 60.148 53.8-0.0654 0.32725c5.429 4.7197 6.2296 12.91 1.7017 18.588-1.8548 2.3259-4.3376 3.8858-7.0031 4.6142l-0.0654 0.2618-77.1 22.253c-3.9241-35.882 4.5328-70.763 22.384-99.843zm270.34 0.0327c8.9368 14.485 15.704 30.664 19.733 48.204 3.9804 17.329 4.9794 34.627 3.3379 51.345l-77.492-22.318-0.0654-0.32725c-6.9392-1.8965-11.204-8.9552-9.5884-16.035 0.66186-2.9003 2.2014-5.3539 4.2869-7.1667l-0.0327-0.16362 59.821-53.538zm-147.29 57.923h24.642l15.315 19.144-5.4978 23.889-22.122 10.636-22.187-10.668-5.4978-23.889zm78.998 65.515c1.0472-0.0529 2.0898 0.0415 3.1089 0.22907l0.1309-0.16362 79.75 13.483c-11.671 32.791-34.005 61.198-63.846 80.208l-30.958-74.776 0.0981-0.1309c-2.8438-6.6078 2e-3 -14.357 6.545-17.508 1.6751-0.80677 3.4252-1.2535 5.1705-1.3417zm-133.94 0.32725c6.086 0.0853 11.545 4.3095 12.959 10.505 0.66202 2.9003 0.33981 5.774-0.75267 8.3121l0.22907 0.29452-30.63 74.023c-28.638-18.377-51.448-45.892-63.65-79.652l79.063-13.417 0.1309 0.16362c0.88436-0.16274 1.7813-0.24127 2.6507-0.22907zm66.791 32.43c2.12-0.0779 4.2711 0.35707 6.3159 1.3417 2.6803 1.2907 4.7508 3.3229 6.0541 5.7596h0.29452l38.975 70.424c-5.0582 1.6956-10.258 3.1448-15.577 4.3524-29.808 6.7679-59.521 4.7172-86.426-4.4506l38.877-70.293h0.0654c2.3328-4.3609 6.757-6.9626 11.421-7.134z"
        fill="#fff"/>
  </g>
</svg>