<svg version="1.1" viewBox="0 0 256 256" xmlns="http://www.w3.org/2000/svg">
  <g transform="matrix(.95856 0 0 .95856 5.3011 5.3072)" data-name="Layer 2">
    <g transform="matrix(1.2742,0,0,1.2745,-46.441,11.393)">
      <path d="m95.9 62.15 4.1 102.1 73.75-94.12a6.79 6.79 0 0 1 9.6-1.11l46 36.92-15-65.61z"/>
      <path d="m102.55 182.98h65.42l-40.17-32.23z"/>
      <path d="m180.18 83.92-44 56.14 46.88 37.61 44.47-55.76z"/>
      <path d="m83.56 52.3 0.01-0.01 38.69-48.52-62.39 30.05-15.41 67.51z"/>
      <path d="m45.32 122.05 41.44 51.96-3.95-98.98z"/>
      <path d="m202.31 28.73-59.66-28.73-37.13 46.56z"/>
    </g>
  </g>
</svg>