<svg version="1.1" viewBox="0 0 24 24" xmlns="http://www.w3.org/2000/svg">
  <g transform="matrix(.046151 0 0 .046151 .45105 .61538)" fill-rule="evenodd" data-name="Layer 1">
    <path d="m85.978 159.13-23.178 101.55h23.849l19.445-85.187c-3.6774-3.7317-7.4472-7.3124-11.341-10.641a10.639 10.639 0 0 1-2.5714-3.2556c-2.0062-0.77007-4.0906-1.5953-6.204-2.4621m145.45-91.785-119.31 57.458c1.5216 2.13 2.9774 4.2416 4.3479 6.2697a10.64 10.64 0 0 1 3.7505 1.7744c3.8377 2.8366 7.8627 5.5184 12.004 8.089l99.368-47.851c0.55723-4.7974 0.95806-9.5716 1.1251-14.295a10.664 10.664 0 0 1 0.94635-4.0392c-0.74549-2.3656-1.502-4.8545-2.2297-7.4054zm161.27 56.728-117.81-56.735c-0.72856 2.5534-1.4843 5.0453-2.2304 7.4128a10.67 10.67 0 0 1 0.9465 4.0392c0.16673 4.7217 0.56787 9.4942 1.1256 14.29l98.023 47.202c4.1544-2.6257 8.1903-5.3639 12.031-8.2568a10.688 10.688 0 0 1 3.7368-1.8076c1.317-1.9891 2.7187-4.0574 4.1802-6.1449zm50.823 136.6-23.505-102.99c-2.3706 1.007-4.7114 1.9572-6.9554 2.8412a10.693 10.693 0 0 1-2.5423 3.2766c-3.6517 3.1776-7.1912 6.5791-10.645 10.121l19.802 86.752z"/>
    <path d="m310.81 197.98 2.8293 3.494c1.3134-11.17 10.58-21.889 28.168-31.498 18.333-10.015 35.454-18.902 49.411-29.409l1.8504 2.2824q16.362-25.556 25.417-32.173c8.112-4.9367 15.608-3.4998 21.437 3.0034 5.1508 7.0535 4.9982 14.685-1.5179 21.594q-8.3566 7.4809-36.756 18.171l1.8481 2.2829c-13.177 11.471-25.431 26.368-39.041 42.219-13.051 15.206-25.464 22.04-36.665 21.004l2.8315 3.4945-11.007 8.9126-9.7269-23.484-7.4739-3.0952zm-135.65 24.808 2.7983-3.517c-11.189 1.1345-23.66-5.5905-36.846-20.683-13.746-15.732-26.128-30.522-39.408-41.875l1.8301-2.3005q-28.491-10.443-36.914-17.85c-6.5738-6.8514-6.7934-14.482-1.7056-21.579 5.7712-6.5541 13.254-8.0564 21.411-3.1918q9.1105 6.5414 25.694 31.952l1.8307-2.3003c14.049 10.384 31.246 19.123 49.666 28.978 17.672 9.4525 27.031 20.092 28.441 31.25l2.7996-3.5192 8.461 6.7307-7.2228 2.9911-9.8091 23.687zm62.252-45.004h4.4968c-7.8541-8.0506-10.355-21.998-6.753-41.712 3.7548-20.551 7.6216-39.449 8.2407-56.908h2.9405q-9.5651-28.8-9.011-40c1.2696-9.4102 7.1042-14.334 15.825-14.77 8.7226 0.43631 14.557 5.36 15.828 14.77q0.55059 11.2-9.0117 40h2.9405c0.61938 17.46 4.4867 36.357 8.2407 56.908 3.6017 19.714 1.101 33.661-6.7529 41.712h4.4967v13.114l-15.954-6.6072-15.526 6.4296z"/>
    <polygon points="183.73 260.68 192.4 239.75 202.78 214.66 227.86 204.28 252.94 193.89 278.02 204.28 303.1 214.66 313.48 239.75 322.15 260.68 276.72 260.68 274.71 255.81 270.97 246.79 261.96 243.06 252.94 239.32 243.92 243.06 234.9 246.79 231.17 255.81 229.16 260.68"/>
    <path d="m68.214 349.62a8.9145 8.9145 0 1 1-17.829 0v-63.035a8.9159 8.9159 0 0 1 8.9149-8.9141h384.22a8.9152 8.9152 0 0 1 8.9146 8.9141v63.035a8.9145 8.9145 0 1 1-17.829 0v-54.12h-174.28v54.12a8.9145 8.9145 0 1 1-17.829 0v-54.12h-174.28z"/>
    <path d="m241.92 443.21a1.1814 1.1814 0 0 0 0.95652 0.48921h8.5364l8.5361-1e-3a1.1742 1.1742 0 0 0 0.92336-0.44741l5.323-6.6713 5.322-6.6758a1.188 1.188 0 0 0 0.22672-0.99354l-3.7951-16.632a1.1646 1.1646 0 0 0-0.64144-0.81571l-15.381-7.4068a1.1789 1.1789 0 0 0-1.0267 0l-15.381 7.4068a1.187 1.187 0 0 0-0.63789 0.80337l-3.79 16.601a1.1842 1.1842 0 0 0 0.21808 1.0374zm-12.064 24.649a2.6856 2.6856 0 0 0 2.174 1.1075h19.385l19.385-4e-3a2.6692 2.6692 0 0 0 2.0974-1.0128l12.087-15.154 12.085-15.159a2.708 2.708 0 0 0 0.51744-2.2581l-8.6208-37.769a2.6508 2.6508 0 0 0-1.4565-1.8518l-34.931-16.823a2.6796 2.6796 0 0 0-2.3286 0l-34.931 16.823a2.6774 2.6774 0 0 0-1.4484 1.8238l-8.607 37.701a2.6812 2.6812 0 0 0 0.494 2.3561z"/>
    <path d="m48.641 443.21a1.1782 1.1782 0 0 0 0.95653 0.48921h8.5364l8.5361-1e-3a1.1772 1.1772 0 0 0 0.92337-0.44741l5.3234-6.6713 5.3196-6.6758a1.1873 1.1873 0 0 0 0.22841-0.99354l-3.7968-16.632a1.1668 1.1668 0 0 0-0.6402-0.81571l-15.382-7.4068a1.1762 1.1762 0 0 0-1.0255 0l-15.38 7.4068a1.1818 1.1818 0 0 0-0.63835 0.80337l-3.7896 16.601a1.1762 1.1762 0 0 0 0.21824 1.0374zm-12.064 24.649a2.685 2.685 0 0 0 2.1731 1.1075h19.384l19.387-4e-3a2.6764 2.6764 0 0 0 2.0981-1.0128l12.086-15.154 12.084-15.159a2.6927 2.6927 0 0 0 0.51743-2.2581l-8.6194-37.769a2.6477 2.6477 0 0 0-1.4559-1.8518l-34.931-16.822a2.6829 2.6829 0 0 0-2.3301 0l-34.932 16.823a2.686 2.686 0 0 0-1.4487 1.8238l-8.6046 37.701a2.6712 2.6712 0 0 0 0.49414 2.3561z"/>
    <path d="m432.86 443.21a1.178 1.178 0 0 0 0.95652 0.48921h8.5361l8.5362-1e-3a1.1771 1.1771 0 0 0 0.92321-0.44741l5.3234-6.6713 5.3198-6.6758a1.1814 1.1814 0 0 0 0.2281-0.99354l-3.7951-16.632a1.1647 1.1647 0 0 0-0.64159-0.81571l-15.381-7.4068a1.1785 1.1785 0 0 0-1.0265 0l-15.381 7.4068a1.1898 1.1898 0 0 0-0.638 0.80337l-3.79 16.601a1.1842 1.1842 0 0 0 0.21822 1.0374zm-12.064 24.649a2.6858 2.6858 0 0 0 2.1734 1.1075h19.383l19.386-4e-3a2.6744 2.6744 0 0 0 2.0983-1.0128l12.086-15.154 12.083-15.159a2.6919 2.6919 0 0 0 0.51667-2.2581l-8.6184-37.769a2.6516 2.6516 0 0 0-1.4559-1.8518l-34.931-16.823a2.6829 2.6829 0 0 0-2.3301 0l-34.931 16.823a2.6838 2.6838 0 0 0-1.4485 1.8238l-8.6049 37.701a2.6723 2.6723 0 0 0 0.4943 2.3561z"/>
  </g>
</svg>