<svg version="1.1" viewBox="0 0 24 24" xmlns="http://www.w3.org/2000/svg">
  <g transform="matrix(.91667 0 0 .91667 .99986 .9998)">
    <path d="m18.951 2.1763c-4.8874-3.4198-11.542-2.7474-15.646 1.581-4.1044 4.3284-4.4226 11.009-0.74818 15.708l3.6686-2.6928c-1.821-2.259-2.1909-5.36-0.95226-7.984 1.2386-2.624 3.8678-4.3093 6.7692-4.3391v2.8665z"/>
    <path d="m5.0491 21.824c4.8874 3.4198 11.542 2.7474 15.646-1.581 4.1045-4.3285 4.4227-11.009 0.7482-15.708l-3.6685 2.6928c1.821 2.259 2.1908 5.36 0.9522 7.984-1.2386 2.6239-3.8678 4.3093-6.7692 4.3391v-2.8665z"/>
  </g>
</svg>