<svg version="1.1" viewBox="0 0 24 24" xmlns="http://www.w3.org/2000/svg">
  <path
      d="m21.264 17.871c-1.1967-0.03333-2.1252 0.08933-2.9033 0.41666-0.22405 0.09-0.58361 0.09-0.61313 0.372 0.11974 0.11833 0.13416 0.312 0.23915 0.476 0.17944 0.29766 0.49406 0.69866 0.77815 0.90666l0.95759 0.68433c0.58361 0.35666 1.242 0.56499 1.8105 0.92199 0.32937 0.20833 0.65841 0.476 0.98778 0.69932 0.1677 0.119 0.26933 0.31266 0.47896 0.38666v-0.045c-0.10465-0.13333-0.13483-0.32666-0.23915-0.47599l-0.44945-0.431c-0.43368-0.57999-0.97268-1.086-1.5563-1.502-0.47896-0.32733-1.5261-0.77332-1.7206-1.3233l-0.02952-0.03333c0.3287-0.03333 0.71778-0.149 1.0324-0.23833 0.50915-0.13333 0.97268-0.104 1.4959-0.23766l0.71878-0.20833v-0.13333c-0.26933-0.26766-0.46387-0.62466-0.74796-0.87732-0.76306-0.65433-1.6016-1.294-2.4696-1.8293-0.46387-0.29733-1.0626-0.491-1.5563-0.74332-0.18012-0.089333-0.47896-0.134-0.58361-0.28266-0.27-0.32666-0.41926-0.75832-0.6138-1.1453l-1.2269-2.5876c-0.26933-0.57999-0.43436-1.16-0.76306-1.6953-1.5415-2.5283-3.2179-4.06-5.7918-5.5623-0.55342-0.31233-1.2118-0.44666-1.9118-0.60999l-1.1223-0.06c-0.23982-0.104-0.47896-0.38666-0.68859-0.52066-0.85294-0.53533-3.0529-1.6953-3.6818-0.16666-0.40417 0.96666 0.5987 1.9183 0.93914 2.4093 0.25491 0.342 0.58361 0.72866 0.76372 1.1153 0.10062 0.25266 0.13416 0.52066 0.23915 0.78832 0.23915 0.65433 0.46387 1.3833 0.77815 1.9933 0.1677 0.31233 0.34379 0.63999 0.55342 0.92232 0.11974 0.16666 0.32937 0.238 0.37398 0.50566-0.20963 0.29766-0.22405 0.74333-0.34379 1.1157-0.539 1.6806-0.32937 3.7626 0.43368 4.9999 0.23982 0.37166 0.80498 1.19 1.5717 0.87732 0.6735-0.26766 0.52324-1.1153 0.71777-1.859 0.04528-0.17833 0.015093-0.29733 0.10465-0.41666v0.03333l0.6138 1.2343c0.46387 0.72866 1.2722 1.4873 1.9454 1.9933 0.35889 0.26766 0.64331 0.72899 1.0921 0.89232v-0.045h-0.02952c-0.08989-0.13333-0.22472-0.19333-0.34446-0.29733-0.26933-0.26766-0.56852-0.59499-0.77815-0.89232-0.62822-0.83266-1.1816-1.755-1.6757-2.7066-0.23982-0.461-0.44945-0.96666-0.64331-1.4277-0.09056-0.17866-0.09056-0.44666-0.23982-0.53533-0.22472 0.32666-0.55342 0.60999-0.71878 1.0113-0.28443 0.63933-0.31394 1.4277-0.41859 2.2456-0.060374 0.015-0.033541 0-0.060374 0.03333-0.47829-0.11866-0.64331-0.60999-0.82276-1.026-0.44878-1.056-0.52391-2.7513-0.13483-3.971 0.10465-0.31233 0.5541-1.294 0.37465-1.5913-0.09056-0.28266-0.38908-0.44599-0.5541-0.66933-0.19454-0.28266-0.4035-0.63933-0.53833-0.95166-0.35889-0.83332-0.53833-1.755-0.92774-2.588-0.18012-0.38666-0.49406-0.78832-0.74863-1.145-0.28443-0.40166-0.59803-0.68433-0.82276-1.16-0.0748-0.16666-0.17944-0.43133-0.0597-0.60999 0.02952-0.119 0.08989-0.16666 0.20896-0.19333 0.19454-0.16666 0.74863 0.04467 0.94317 0.13333 0.55342 0.22333 1.0173 0.43133 1.4812 0.74332 0.20963 0.14866 0.43435 0.43133 0.70369 0.506h0.31461c0.47896 0.104 1.0173 0.03333 1.4657 0.16666 0.79324 0.25333 1.5114 0.62466 2.1553 1.0267 1.9601 1.2343 3.5768 2.9893 4.6689 5.0866 0.17944 0.342 0.25424 0.65433 0.41926 1.0113 0.31461 0.72899 0.70369 1.4723 1.0173 2.1866 0.31461 0.69899 0.6138 1.4133 1.0626 1.9933 0.22472 0.31233 1.1223 0.47566 1.5261 0.63933 0.29952 0.13333 0.76306 0.25333 1.0331 0.41666 0.50848 0.31233 1.0173 0.66933 1.4959 1.0113 0.23915 0.178 0.98778 0.54999 1.0324 0.84666zm-15.261-12.924a2.378 2.3633 0 0 0-0.61313 0.07433v0.03333h0.02951c0.11974 0.238 0.32937 0.40166 0.47896 0.60999l0.34447 0.71399 0.029516-0.03333c0.20963-0.14866 0.31461-0.38666 0.31461-0.74332-0.08989-0.104-0.10465-0.20833-0.17944-0.31233-0.089889-0.14866-0.28443-0.22333-0.4045-0.342z"
      fill-rule="evenodd" stroke-width=".33437"/>
</svg>