<svg version="1.1" viewBox="0 0 24 24" xmlns="http://www.w3.org/2000/svg">
  <g transform="matrix(.045833 0 0 .045833 2.1917 .26667)" fill-rule="evenodd">
    <path class="cls-1" d="m378 99-83 158 83 158 34-19v-278z" fill="#e25444"/>
    <path class="cls-2" d="m378 99-166 19-84.5 139 84.5 139 166 19z" fill="#7b1d13"/>
    <path class="cls-3" d="m43 99-27 12v292l27 12 169-158z" fill="#58150d"/>
    <path class="cls-1" d="m42.637 98.667 169.59 47.111v226.67l-169.59 42.667z" fill="#e25444"/>
    <g fill="#58150d">
      <path class="cls-3" d="m212.31 170.67-72.008-11.556 72.008-81.778 71.83 81.778z"/>
      <path class="cls-3" d="m284.14 159.11-71.919 11.733-71.919-11.733v-81.778"/>
      <path class="cls-3" d="m212.31 342.22-72.008 13.334 72.008 70.222 71.83-70.222z"/>
    </g>
    <g fill="#7b1d13">
      <path class="cls-2" d="m212 16-72 38v105l72.224-20.333z"/>
      <path class="cls-2" d="m212.22 196.44-71.919 7.823v104.84l71.919 8.228z"/>
      <path class="cls-2" d="m212.22 373.33-71.919-18.033v103.06l71.919 37.637z"/>
    </g>
    <g fill="#e25444">
      <path class="cls-1" d="m284.14 355.3-71.919 18.038v122.66l71.919-37.637z"/>
      <path class="cls-1" d="m212.22 196.44 71.919 7.823v104.84l-71.919 8.228z"/>
      <path class="cls-1" d="m212 16 72 38v105l-72-20z"/>
    </g>
  </g>
</svg>