<?xml version="1.0" encoding="UTF-8"?>
<svg width="1280" height="256" version="1.1" viewBox="0 0 1280 256" xmlns="http://www.w3.org/2000/svg">
 <g transform="matrix(1.3662 0 0 1.3662 -92.809 -69.415)" aria-label="deployKF">
  <g fill="#4279f4">
   <path d="m972.85 103.3h-56.376v31.445h48.44v13.177h-48.44v53.68h-14.824v-111.48h71.2z"/>
   <path d="m885.03 201.61h-19.241l-44.097-49.638-11.08 11.829v37.808h-14.824v-111.48h14.824v58.173l54.13-58.173h17.968l-49.787 52.408z"/>
  </g>
  <g fill="#fd7e14">
   <path d="m775.87 117.98-48.814 114.47h-15.048l15.573-34.889-33.316-79.585h15.273l25.68 61.991 25.904-61.991z"/>
   <path d="m682.89 159.83q0 20.439-10.482 32.268t-28.076 11.829q-17.744 0-28.225-11.829-10.407-11.829-10.407-32.268t10.407-32.268q10.482-11.904 28.225-11.904 17.594 0 28.076 11.904 10.482 11.829 10.482 32.268zm-14.524 0q0-16.246-6.3638-24.108-6.3638-7.936-17.669-7.936-11.455 0-17.819 7.936-6.2889 7.8612-6.2889 24.108 0 15.722 6.3638 23.883 6.3638 8.0858 17.744 8.0858 11.23 0 17.594-8.0109 6.4387-8.0858 6.4387-23.958z"/>
   <path d="m583.76 201.61h-14.075v-116.49h14.075z"/>
   <path d="m547.6 158.78q0 10.182-2.9199 18.642-2.9199 8.3852-8.2355 14.225-4.9413 5.5402-11.679 8.6098-6.6633 2.9947-14.15 2.9947-6.5135 0-11.829-1.4225-5.2408-1.4225-10.706-4.4172v35.038h-14.075v-114.47h14.075v8.7596q5.6151-4.7167 12.578-7.8612 7.0376-3.2193 14.974-3.2193 15.123 0 23.509 11.455 8.4601 11.38 8.4601 31.669zm-14.524 0.37434q0-15.123-5.1659-22.61-5.1659-7.4868-15.872-7.4868-6.0643 0-12.204 2.6204-6.1392 2.6204-11.754 6.8879v47.392q5.9895 2.6952 10.257 3.6685 4.3424 0.97328 9.8077 0.97328 11.754 0 18.343-7.936 6.5884-7.936 6.5884-23.509z"/>
   <path d="m452.67 161.25h-61.616q0 7.7114 2.3209 13.476 2.3209 5.69 6.3638 9.3585 3.8931 3.5937 9.2088 5.3905 5.3905 1.7968 11.829 1.7968 8.535 0 17.145-3.3691 8.6847-3.4439 12.353-6.7381h0.74868v15.348q-7.1125 2.9947-14.524 5.0162-7.412 2.0214-15.573 2.0214-20.813 0-32.493-11.23-11.679-11.305-11.679-32.044 0-20.514 11.155-32.568 11.23-12.054 29.498-12.054 16.92 0 26.054 9.8826 9.2088 9.8826 9.2088 28.076zm-13.701-10.781q-0.0749-11.08-5.6151-17.145-5.4654-6.0643-16.696-6.0643-11.305 0-18.043 6.6633-6.6633 6.6633-7.5617 16.546z"/>
   <path d="m354.96 201.61h-14.075v-8.7596q-6.0643 5.2408-12.653 8.1606t-14.3 2.9199q-14.974 0-23.808-11.53-8.7596-11.53-8.7596-31.969 0-10.631 2.9947-18.942 3.0696-8.3104 8.2355-14.15 5.091-5.69 11.829-8.6847 6.813-2.9947 14.075-2.9947 6.5884 0 11.679 1.4225 5.091 1.3476 10.706 4.2675v-36.236h14.075zm-14.075-20.589v-47.99q-5.69-2.5455-10.182-3.5188t-9.8077-0.97329q-11.829 0-18.418 8.2355t-6.5884 23.359q0 14.899 5.091 22.685 5.091 7.7114 16.321 7.7114 5.9894 0 12.129-2.6204 6.1392-2.6953 11.455-6.8879z"/>
  </g>
 </g>
 <g transform="matrix(.95236 0 0 .95236 26.561 6.0957)">
  <path d="m168.46 123.41-25.313 29.083 37.833 31.442-18.995 8.6368-31.173-25.907-57.734 66.333 54.96-0.1198c45.63 2.7e-4 80.449-27.344 94.896-68.019l-50.281-41.787a3.0094 3.0094 175.38 0 0-4.1934 0.33871z" fill="#fd7e14"/>
  <path d="m84.319 103.61-13.775 0.66091-47.544 54.625v74.109l24.098-0.0046 28.858-33.156z" fill="#fd7e14"/>
  <path d="m23 23v108l94-108z" fill="#4e7ade"/>
  <path d="m140.21 24.233-53.022 60.919 75.14-3.6053-16.64 19.119-41.297 1.9814-6.2304 71.69 57.156-65.669c7.6881-8.8332 19.074-9.3795 27.816-2.114l43.764 36.371c0.70874-4.9052 1.1113-9.9097 1.1113-15.012 4.5e-4 -78.992-69.784-103.68-87.798-103.68z" fill="#4e7ade"/>
 </g>
</svg>
